<svg width="94" height="74" viewBox="0 0 94 74" fill="none" xmlns="http://www.w3.org/2000/svg">
<g clip-path="url(#clip0_509_3046)">
<g filter="url(#filter0_f_509_3046)">
<path d="M90.6825 36.0514C90.7288 35.9911 90.7854 35.9709 90.8471 35.9859C90.9087 36.0009 90.95 36.0312 90.9806 36.0814C91.0116 36.1318 91.0063 36.182 90.9653 36.2423C90.8677 36.3631 90.7595 36.4637 90.6516 36.5543C90.0398 37.0117 89.2531 37.5348 88.2916 38.113C87.3354 38.6912 86.3586 39.1036 85.3715 39.345C84.3843 39.5864 83.536 39.4255 82.8317 38.8674C82.5695 38.601 82.3997 38.1733 82.3124 37.5902C82.2302 37.0068 82.2249 36.4387 82.3071 35.8904C81.3509 36.5944 80.4357 37.4042 79.5565 38.3143C78.6775 39.2193 77.9885 40.1447 77.4846 41.09C77.3561 41.2359 77.2018 41.3063 77.0167 41.2962C76.8368 41.2861 76.6876 41.2157 76.5694 41.0851C76.4461 40.9493 76.4049 40.7832 76.4461 40.5871C76.626 39.7926 76.8522 39.0032 77.1249 38.2186C77.2225 37.9019 77.3201 37.5902 77.4127 37.2733C77.4127 37.2733 77.4127 37.2683 77.4127 37.2582C77.5206 36.9162 77.6184 36.5693 77.6954 36.2123C77.7674 35.9657 77.9062 35.825 78.117 35.7797C78.3279 35.7344 78.518 35.7748 78.6929 35.8954C78.8624 36.0211 78.9243 36.2071 78.8727 36.4637C78.7032 37.1726 78.5027 37.8768 78.2713 38.5857C78.2096 38.7518 78.153 38.9127 78.1017 39.0736C78.7855 38.455 79.4539 37.8163 80.1067 37.1576C80.9909 36.2524 81.9114 35.3976 82.8626 34.593C82.9859 34.4924 83.0991 34.4823 83.2017 34.5477C83.3099 34.6181 83.3972 34.7288 83.4641 34.8898C83.577 35.1513 83.603 35.4328 83.5464 35.7295C83.4948 36.0211 83.4125 36.3178 83.2996 36.6094C83.1813 36.9465 83.0938 37.2784 83.0372 37.6052C82.9808 37.9371 83.0372 38.2537 83.212 38.5557C83.649 38.958 84.1735 39.1388 84.77 39.0987C85.3664 39.0635 85.9679 38.9127 86.5744 38.6612C87.1812 38.4049 87.7108 38.1482 88.1631 37.8918C88.2353 37.8515 88.3123 37.8114 88.3895 37.7612C89.2531 37.2983 90.0191 36.7302 90.6825 36.0514Z" stroke="#F2D488" stroke-width="1.26251" stroke-linecap="round" stroke-linejoin="round"/>
<path d="M34.6493 16.1782C34.9734 17.5359 35.0966 18.9037 35.0247 20.2916C34.9684 22.0868 34.7985 23.8719 34.5311 25.6368C34.2587 27.4069 33.9296 29.167 33.5339 30.9272C32.9528 33.5117 32.1868 36.3431 31.2306 39.4256C30.2794 42.513 29.1224 45.49 27.7653 48.3715C26.4131 51.2479 24.8348 53.6666 23.035 55.6328C21.503 57.0358 20.2024 57.6592 19.138 57.4983C18.0737 57.3325 17.1844 56.6839 16.48 55.5523C15.7706 54.4158 15.1844 53.0884 14.7215 51.5646C13.8886 48.809 13.2305 46.008 12.7473 43.1769C12.2693 40.3407 11.8477 37.4946 11.4826 34.6382C11.3438 33.5873 11.1999 32.5361 11.0457 31.4853C10.9478 31.6511 10.8502 31.8221 10.7629 31.9882C9.25627 35.5737 8.04297 39.2647 7.12275 43.0662C6.20253 46.8679 5.43121 50.6795 4.79375 54.4962C4.64456 55.4618 4.52132 56.4273 4.42874 57.3928C4.33086 58.3583 4.3105 59.3238 4.36181 60.2893C4.35149 60.6212 4.22294 60.8375 3.98145 60.9381C3.73968 61.0336 3.51353 61.0186 3.2924 60.8929C3.07127 60.762 2.97367 60.5359 3.00462 60.1987C3.2977 58.7557 3.55452 57.3074 3.78597 55.854C3.86824 55.3614 3.9505 54.8735 4.02774 54.3806C4.59326 51.1674 5.25136 47.9742 6.01737 44.791C6.1766 44.1825 6.33108 43.5642 6.48529 42.9355C6.98388 40.8485 7.53908 38.7768 8.14587 36.7151C8.75768 34.6534 9.51337 32.6469 10.4132 30.6908C10.4236 30.6807 10.4286 30.6706 10.4286 30.6605C10.5212 30.4745 10.6344 30.2934 10.7783 30.1175C10.9171 29.9415 11.102 29.8158 11.3335 29.7504C11.7961 29.6399 12.0945 29.8106 12.2383 30.2634C12.5777 32.2397 12.9015 34.246 13.1998 36.2877C13.421 37.8213 13.6521 39.3299 13.8939 40.8133C13.9762 41.2358 14.0481 41.6583 14.1201 42.0808C14.4388 44.0317 14.8194 45.9829 15.2511 47.9188C15.683 49.8599 16.2742 51.7407 17.0249 53.5711C17.0455 53.6112 17.0662 53.6415 17.0865 53.6718C17.3076 54.1643 17.5751 54.6471 17.8938 55.1249C18.2075 55.6028 18.6188 55.9295 19.1227 56.1054C19.9657 56.1458 20.773 55.8341 21.5546 55.1751C22.3309 54.5164 23.035 53.747 23.6625 52.862C24.2896 51.9769 24.7985 51.2075 25.1895 50.5489C27.5904 46.2292 29.611 41.3264 31.2459 35.8451C32.8809 30.3689 33.8527 25.1694 34.1558 20.2614C34.1714 19.5122 34.1558 18.7629 34.0994 18.0134C34.0428 17.2642 33.8886 16.5352 33.6262 15.826C33.1842 14.7752 32.6031 14.1364 31.8887 13.9103C31.1687 13.6839 30.2998 13.8397 29.287 14.383C28.5466 14.8153 27.9091 15.3635 27.3746 16.0322C26.845 16.701 26.3515 17.4202 25.8989 18.1997C25.7293 18.4359 25.5235 18.5415 25.2871 18.5216C25.0506 18.5014 24.8654 18.3958 24.7319 18.2046C24.598 18.0134 24.593 17.7873 24.7216 17.5209C25.2974 16.7815 25.9298 16.0524 26.6239 15.3231C27.3127 14.5992 28.084 14.0107 28.9323 13.5582C29.7805 13.1057 30.7214 12.9295 31.7601 13.0253C32.5518 13.1761 33.1842 13.5582 33.6469 14.1817C34.1148 14.8052 34.4489 15.4742 34.6493 16.1782ZM11.467 31.0025C11.5083 31.0025 11.5443 30.9976 11.5752 30.9875C11.6059 30.9774 11.6265 30.9624 11.6369 30.9422C11.6369 30.922 11.6265 30.912 11.6112 30.9171C11.5956 30.9221 11.5752 30.9321 11.5443 30.9422C11.5236 30.9624 11.498 30.9823 11.467 31.0025ZM53.3248 37.5399C53.4277 37.6604 53.4121 37.7911 53.2888 37.937C53.1653 38.0878 53.0164 38.2288 52.8416 38.3644C52.7233 38.465 52.6358 38.5406 52.5895 38.6008C52.2091 38.9377 51.5716 39.3752 50.6924 39.9283C49.8082 40.4765 48.8364 40.9895 47.7823 41.4622C46.7285 41.9296 45.767 42.2163 44.8931 42.312C44.0189 42.4124 43.4071 42.1811 43.0524 41.6231C42.7233 40.7983 42.6514 39.9335 42.8365 39.0383C43.0217 38.1383 43.3867 37.3386 43.9263 36.6447C44.2503 36.2675 44.636 36.0613 45.0883 36.0262C45.5409 35.9858 45.8183 36.2473 45.9315 36.8207C45.9985 37.1024 45.9162 37.4141 45.6744 37.7559C45.4329 38.093 45.1346 38.4047 44.7799 38.6914C44.4199 38.9729 44.1114 39.1741 43.8493 39.2797C43.7311 39.8983 43.6951 40.4263 43.7464 40.8537C43.8287 41.4821 44.2093 41.7889 44.8981 41.7687C45.5871 41.7488 46.3891 41.5576 47.3094 41.1856C48.2299 40.8185 49.0832 40.4162 49.8748 39.9736C50.6718 39.5312 51.2169 39.1941 51.5201 38.968C52.0909 38.5757 52.5998 38.1181 53.0421 37.5851C53.078 37.5347 53.1293 37.5096 53.1809 37.5047C53.2373 37.4995 53.2835 37.5096 53.3248 37.5399ZM44.9957 37.1275C44.5434 37.434 44.2194 37.9321 44.0189 38.6311C44.271 38.4047 44.4971 38.1533 44.7079 37.8715C44.9238 37.595 45.0163 37.3438 44.9957 37.1275ZM70.6788 37.6454C70.7094 37.7611 70.6375 37.8565 70.473 37.922C70.3085 37.9923 70.1286 38.0477 69.9384 38.0878C69.7892 38.123 69.676 38.1582 69.6094 38.1885C68.6016 38.4448 67.5835 38.5757 66.55 38.5858C66.4987 38.5858 66.4474 38.5858 66.4011 38.5858C66.0052 38.5757 65.5476 38.5507 65.013 38.5152C64.4835 38.4751 63.9743 38.3796 63.491 38.2337C63.5117 38.978 63.3781 39.7071 63.0953 40.4162C62.8073 41.1202 62.4063 41.6583 61.8974 42.0202C61.2906 42.4427 60.7404 42.5583 60.2365 42.3723C59.7379 42.1863 59.4139 41.7387 59.2753 41.0348C59.1261 39.7373 59.4499 38.5507 60.2521 37.4845C60.6634 36.9614 61.1723 36.5542 61.7738 36.2574C62.0566 36.1519 62.2827 36.192 62.4526 36.3783C62.5451 36.2877 62.6581 36.2776 62.7969 36.348C63.1413 36.7301 63.3574 37.2079 63.4447 37.7761C63.9486 37.9722 64.5091 38.0979 65.1363 38.1533C65.7584 38.2086 66.2263 38.2337 66.55 38.2337C67.9075 38.2438 69.2134 38.0174 70.468 37.5549C70.5039 37.5347 70.5449 37.5347 70.5862 37.5549C70.6272 37.5751 70.6581 37.6051 70.6788 37.6454ZM62.8279 37.3789C62.7969 37.233 62.756 37.0871 62.6941 36.9513C62.6941 37.1073 62.7403 37.2532 62.8279 37.3789ZM60.766 41.784C61.5374 41.6078 62.1132 41.1403 62.4885 40.3859C62.8689 39.6266 63.0181 38.8321 62.9512 37.9973C62.6377 37.8314 62.4216 37.6051 62.3034 37.3184C61.7379 37.6051 61.2906 38.0073 60.9565 38.5204C60.6171 39.0383 60.401 39.5963 60.2984 40.195C60.2984 40.2302 60.2931 40.2703 60.2828 40.3107C60.2521 40.5973 60.2571 40.8889 60.2931 41.1957C60.3241 41.4974 60.4833 41.6935 60.766 41.784Z" stroke="#F2D488" stroke-width="1.26251" stroke-linecap="round" stroke-linejoin="round"/>
</g>
<g style="mix-blend-mode:hard-light" filter="url(#filter1_dddii_509_3046)">
<path d="M90.6825 36.0514C90.7288 35.9911 90.7854 35.9709 90.8471 35.9859C90.9087 36.0009 90.95 36.0312 90.9806 36.0814C91.0116 36.1318 91.0063 36.182 90.9653 36.2423C90.8677 36.3631 90.7595 36.4637 90.6516 36.5543C90.0398 37.0117 89.2531 37.5348 88.2916 38.113C87.3354 38.6912 86.3586 39.1036 85.3715 39.345C84.3843 39.5864 83.536 39.4255 82.8317 38.8674C82.5695 38.601 82.3997 38.1733 82.3124 37.5902C82.2302 37.0068 82.2249 36.4387 82.3071 35.8904C81.3509 36.5944 80.4357 37.4042 79.5565 38.3143C78.6775 39.2193 77.9885 40.1447 77.4846 41.09C77.3561 41.2359 77.2018 41.3063 77.0167 41.2962C76.8368 41.2861 76.6876 41.2157 76.5694 41.0851C76.4461 40.9493 76.4049 40.7832 76.4461 40.5871C76.626 39.7926 76.8522 39.0032 77.1249 38.2186C77.2225 37.9019 77.3201 37.5902 77.4127 37.2733C77.4127 37.2733 77.4127 37.2683 77.4127 37.2582C77.5206 36.9162 77.6184 36.5693 77.6954 36.2123C77.7674 35.9657 77.9062 35.825 78.117 35.7797C78.3279 35.7344 78.518 35.7748 78.6929 35.8954C78.8624 36.0211 78.9243 36.2071 78.8727 36.4637C78.7032 37.1726 78.5027 37.8768 78.2713 38.5857C78.2096 38.7518 78.153 38.9127 78.1017 39.0736C78.7855 38.455 79.4539 37.8163 80.1067 37.1576C80.9909 36.2524 81.9114 35.3976 82.8626 34.593C82.9859 34.4924 83.0991 34.4823 83.2017 34.5477C83.3099 34.6181 83.3972 34.7288 83.4641 34.8898C83.577 35.1513 83.603 35.4328 83.5464 35.7295C83.4948 36.0211 83.4125 36.3178 83.2996 36.6094C83.1813 36.9465 83.0938 37.2784 83.0372 37.6052C82.9808 37.9371 83.0372 38.2537 83.212 38.5557C83.649 38.958 84.1735 39.1388 84.77 39.0987C85.3664 39.0635 85.9679 38.9127 86.5744 38.6612C87.1812 38.4049 87.7108 38.1482 88.1631 37.8918C88.2353 37.8515 88.3123 37.8114 88.3895 37.7612C89.2531 37.2983 90.0191 36.7302 90.6825 36.0514Z" stroke="#F2D488" stroke-width="1.26251" stroke-linecap="round" stroke-linejoin="round"/>
<path d="M34.6493 16.1782C34.9734 17.5359 35.0966 18.9037 35.0247 20.2916C34.9684 22.0868 34.7985 23.8719 34.5311 25.6368C34.2587 27.4069 33.9296 29.167 33.5339 30.9272C32.9528 33.5117 32.1868 36.3431 31.2306 39.4256C30.2794 42.513 29.1224 45.49 27.7653 48.3715C26.4131 51.2479 24.8348 53.6666 23.035 55.6328C21.503 57.0358 20.2024 57.6592 19.138 57.4983C18.0737 57.3325 17.1844 56.6839 16.48 55.5523C15.7706 54.4158 15.1844 53.0884 14.7215 51.5646C13.8886 48.809 13.2305 46.008 12.7473 43.1769C12.2693 40.3407 11.8477 37.4946 11.4826 34.6382C11.3438 33.5873 11.1999 32.5361 11.0457 31.4853C10.9478 31.6511 10.8502 31.8221 10.7629 31.9882C9.25627 35.5737 8.04297 39.2647 7.12275 43.0662C6.20253 46.8679 5.43121 50.6795 4.79375 54.4962C4.64456 55.4618 4.52132 56.4273 4.42874 57.3928C4.33086 58.3583 4.3105 59.3238 4.36181 60.2893C4.35149 60.6212 4.22294 60.8375 3.98145 60.9381C3.73968 61.0336 3.51353 61.0186 3.2924 60.8929C3.07127 60.762 2.97367 60.5359 3.00462 60.1987C3.2977 58.7557 3.55452 57.3074 3.78597 55.854C3.86824 55.3614 3.9505 54.8735 4.02774 54.3806C4.59326 51.1674 5.25136 47.9742 6.01737 44.791C6.1766 44.1825 6.33108 43.5642 6.48529 42.9355C6.98388 40.8485 7.53908 38.7768 8.14587 36.7151C8.75768 34.6534 9.51337 32.6469 10.4132 30.6908C10.4236 30.6807 10.4286 30.6706 10.4286 30.6605C10.5212 30.4745 10.6344 30.2934 10.7783 30.1175C10.9171 29.9415 11.102 29.8158 11.3335 29.7504C11.7961 29.6399 12.0945 29.8106 12.2383 30.2634C12.5777 32.2397 12.9015 34.246 13.1998 36.2877C13.421 37.8213 13.6521 39.3299 13.8939 40.8133C13.9762 41.2358 14.0481 41.6583 14.1201 42.0808C14.4388 44.0317 14.8194 45.9829 15.2511 47.9188C15.683 49.8599 16.2742 51.7407 17.0249 53.5711C17.0455 53.6112 17.0662 53.6415 17.0865 53.6718C17.3076 54.1643 17.5751 54.6471 17.8938 55.1249C18.2075 55.6028 18.6188 55.9295 19.1227 56.1054C19.9657 56.1458 20.773 55.8341 21.5546 55.1751C22.3309 54.5164 23.035 53.747 23.6625 52.862C24.2896 51.9769 24.7985 51.2075 25.1895 50.5489C27.5904 46.2292 29.611 41.3264 31.2459 35.8451C32.8809 30.3689 33.8527 25.1694 34.1558 20.2614C34.1714 19.5122 34.1558 18.7629 34.0994 18.0134C34.0428 17.2642 33.8886 16.5352 33.6262 15.826C33.1842 14.7752 32.6031 14.1364 31.8887 13.9103C31.1687 13.6839 30.2998 13.8397 29.287 14.383C28.5466 14.8153 27.9091 15.3635 27.3746 16.0322C26.845 16.701 26.3515 17.4202 25.8989 18.1997C25.7293 18.4359 25.5235 18.5415 25.2871 18.5216C25.0506 18.5014 24.8654 18.3958 24.7319 18.2046C24.598 18.0134 24.593 17.7873 24.7216 17.5209C25.2974 16.7815 25.9298 16.0524 26.6239 15.3231C27.3127 14.5992 28.084 14.0107 28.9323 13.5582C29.7805 13.1057 30.7214 12.9295 31.7601 13.0253C32.5518 13.1761 33.1842 13.5582 33.6469 14.1817C34.1148 14.8052 34.4489 15.4742 34.6493 16.1782ZM11.467 31.0025C11.5083 31.0025 11.5443 30.9976 11.5752 30.9875C11.6059 30.9774 11.6265 30.9624 11.6369 30.9422C11.6369 30.922 11.6265 30.912 11.6112 30.9171C11.5956 30.9221 11.5752 30.9321 11.5443 30.9422C11.5236 30.9624 11.498 30.9823 11.467 31.0025ZM53.3248 37.5399C53.4277 37.6604 53.4121 37.7911 53.2888 37.937C53.1653 38.0878 53.0164 38.2288 52.8416 38.3644C52.7233 38.465 52.6358 38.5406 52.5895 38.6008C52.2091 38.9377 51.5716 39.3752 50.6924 39.9283C49.8082 40.4765 48.8364 40.9895 47.7823 41.4622C46.7285 41.9296 45.767 42.2163 44.8931 42.312C44.0189 42.4124 43.4071 42.1811 43.0524 41.6231C42.7233 40.7983 42.6514 39.9335 42.8365 39.0383C43.0217 38.1383 43.3867 37.3386 43.9263 36.6447C44.2503 36.2675 44.636 36.0613 45.0883 36.0262C45.5409 35.9858 45.8183 36.2473 45.9315 36.8207C45.9985 37.1024 45.9162 37.4141 45.6744 37.7559C45.4329 38.093 45.1346 38.4047 44.7799 38.6914C44.4199 38.9729 44.1114 39.1741 43.8493 39.2797C43.7311 39.8983 43.6951 40.4263 43.7464 40.8537C43.8287 41.4821 44.2093 41.7889 44.8981 41.7687C45.5871 41.7488 46.3891 41.5576 47.3094 41.1856C48.2299 40.8185 49.0832 40.4162 49.8748 39.9736C50.6718 39.5312 51.2169 39.1941 51.5201 38.968C52.0909 38.5757 52.5998 38.1181 53.0421 37.5851C53.078 37.5347 53.1293 37.5096 53.1809 37.5047C53.2373 37.4995 53.2835 37.5096 53.3248 37.5399ZM44.9957 37.1275C44.5434 37.434 44.2194 37.9321 44.0189 38.6311C44.271 38.4047 44.4971 38.1533 44.7079 37.8715C44.9238 37.595 45.0163 37.3438 44.9957 37.1275ZM70.6788 37.6454C70.7094 37.7611 70.6375 37.8565 70.473 37.922C70.3085 37.9923 70.1286 38.0477 69.9384 38.0878C69.7892 38.123 69.676 38.1582 69.6094 38.1885C68.6016 38.4448 67.5835 38.5757 66.55 38.5858C66.4987 38.5858 66.4474 38.5858 66.4011 38.5858C66.0052 38.5757 65.5476 38.5507 65.013 38.5152C64.4835 38.4751 63.9743 38.3796 63.491 38.2337C63.5117 38.978 63.3781 39.7071 63.0953 40.4162C62.8073 41.1202 62.4063 41.6583 61.8974 42.0202C61.2906 42.4427 60.7404 42.5583 60.2365 42.3723C59.7379 42.1863 59.4139 41.7387 59.2753 41.0348C59.1261 39.7373 59.4499 38.5507 60.2521 37.4845C60.6634 36.9614 61.1723 36.5542 61.7738 36.2574C62.0566 36.1519 62.2827 36.192 62.4526 36.3783C62.5451 36.2877 62.6581 36.2776 62.7969 36.348C63.1413 36.7301 63.3574 37.2079 63.4447 37.7761C63.9486 37.9722 64.5091 38.0979 65.1363 38.1533C65.7584 38.2086 66.2263 38.2337 66.55 38.2337C67.9075 38.2438 69.2134 38.0174 70.468 37.5549C70.5039 37.5347 70.5449 37.5347 70.5862 37.5549C70.6272 37.5751 70.6581 37.6051 70.6788 37.6454ZM62.8279 37.3789C62.7969 37.233 62.756 37.0871 62.6941 36.9513C62.6941 37.1073 62.7403 37.2532 62.8279 37.3789ZM60.766 41.784C61.5374 41.6078 62.1132 41.1403 62.4885 40.3859C62.8689 39.6266 63.0181 38.8321 62.9512 37.9973C62.6377 37.8314 62.4216 37.6051 62.3034 37.3184C61.7379 37.6051 61.2906 38.0073 60.9565 38.5204C60.6171 39.0383 60.401 39.5963 60.2984 40.195C60.2984 40.2302 60.2931 40.2703 60.2828 40.3107C60.2521 40.5973 60.2571 40.8889 60.2931 41.1957C60.3241 41.4974 60.4833 41.6935 60.766 41.784Z" stroke="#F2D488" stroke-width="1.26251" stroke-linecap="round" stroke-linejoin="round"/>
</g>
</g>
<defs>
<filter id="filter0_f_509_3046" x="1.94733" y="11.9478" width="90.1053" height="50.1044" filterUnits="userSpaceOnUse" color-interpolation-filters="sRGB">
<feFlood flood-opacity="0" result="BackgroundImageFix"/>
<feBlend mode="normal" in="SourceGraphic" in2="BackgroundImageFix" result="shape"/>
<feGaussianBlur stdDeviation="0.210419" result="effect1_foregroundBlur_509_3046"/>
</filter>
<filter id="filter1_dddii_509_3046" x="-32.7285" y="-17.728" width="159.457" height="119.456" filterUnits="userSpaceOnUse" color-interpolation-filters="sRGB">
<feFlood flood-opacity="0" result="BackgroundImageFix"/>
<feColorMatrix in="SourceAlpha" type="matrix" values="0 0 0 0 0 0 0 0 0 0 0 0 0 0 0 0 0 0 127 0" result="hardAlpha"/>
<feOffset dy="5.84944"/>
<feGaussianBlur stdDeviation="2.33978"/>
<feColorMatrix type="matrix" values="0 0 0 0 0.3625 0 0 0 0 0.301371 0 0 0 0 0.14651 0 0 0 0.3 0"/>
<feBlend mode="multiply" in2="BackgroundImageFix" result="effect1_dropShadow_509_3046"/>
<feColorMatrix in="SourceAlpha" type="matrix" values="0 0 0 0 0 0 0 0 0 0 0 0 0 0 0 0 0 0 127 0" result="hardAlpha"/>
<feOffset dy="5"/>
<feGaussianBlur stdDeviation="5.84944"/>
<feColorMatrix type="matrix" values="0 0 0 0 0.94902 0 0 0 0 0.831373 0 0 0 0 0.533333 0 0 0 0.8 0"/>
<feBlend mode="multiply" in2="effect1_dropShadow_509_3046" result="effect2_dropShadow_509_3046"/>
<feColorMatrix in="SourceAlpha" type="matrix" values="0 0 0 0 0 0 0 0 0 0 0 0 0 0 0 0 0 0 127 0" result="hardAlpha"/>
<feOffset dy="5"/>
<feGaussianBlur stdDeviation="17.5483"/>
<feColorMatrix type="matrix" values="0 0 0 0 0.94902 0 0 0 0 0.831373 0 0 0 0 0.533333 0 0 0 0.8 0"/>
<feBlend mode="color-burn" in2="effect2_dropShadow_509_3046" result="effect3_dropShadow_509_3046"/>
<feBlend mode="normal" in="SourceGraphic" in2="effect3_dropShadow_509_3046" result="shape"/>
<feColorMatrix in="SourceAlpha" type="matrix" values="0 0 0 0 0 0 0 0 0 0 0 0 0 0 0 0 0 0 127 0" result="hardAlpha"/>
<feOffset dx="-0.584944" dy="1.16989"/>
<feGaussianBlur stdDeviation="0.292472"/>
<feComposite in2="hardAlpha" operator="arithmetic" k2="-1" k3="1"/>
<feColorMatrix type="matrix" values="0 0 0 0 1 0 0 0 0 1 0 0 0 0 1 0 0 0 0.5 0"/>
<feBlend mode="normal" in2="shape" result="effect4_innerShadow_509_3046"/>
<feColorMatrix in="SourceAlpha" type="matrix" values="0 0 0 0 0 0 0 0 0 0 0 0 0 0 0 0 0 0 127 0" result="hardAlpha"/>
<feOffset dx="-0.584944" dy="-1.16989"/>
<feGaussianBlur stdDeviation="0.292472"/>
<feComposite in2="hardAlpha" operator="arithmetic" k2="-1" k3="1"/>
<feColorMatrix type="matrix" values="0 0 0 0 1 0 0 0 0 1 0 0 0 0 1 0 0 0 0.4 0"/>
<feBlend mode="normal" in2="effect4_innerShadow_509_3046" result="effect5_innerShadow_509_3046"/>
</filter>
<clipPath id="clip0_509_3046">
<rect width="94.0015" height="74" fill="white" transform="translate(-0.000976562)"/>
</clipPath>
</defs>
</svg>
