<svg width="49" height="49" viewBox="0 0 49 49" fill="none" xmlns="http://www.w3.org/2000/svg">
<path d="M8.04643 32.4484C3.60271 23.4152 7.32324 12.49 16.3565 8.04628C25.3897 3.60256 36.3149 7.32309 40.7586 16.3563C45.2023 25.3895 41.4818 36.3148 32.4486 40.7585C23.4154 45.2022 12.4902 41.4817 8.04643 32.4484Z" fill="url(#paint0_radial_391_40896)"/>
<path d="M30.1918 18.8263C28.9071 16.9605 26.8721 15.8942 24.608 15.8942C22.3451 15.8942 20.3101 16.9605 19.0254 18.8263C17.7488 20.6786 17.4529 23.0107 18.2351 25.0763C18.4444 25.6494 18.7762 26.1954 19.2213 26.7018L24.1615 32.5126C24.2721 32.6459 24.436 32.7124 24.608 32.7124C24.7812 32.7124 24.9451 32.6459 25.057 32.5126L29.9945 26.7155C30.441 26.1957 30.7741 25.6491 30.9807 25.0893C31.7643 23.0104 31.4698 20.6786 30.1918 18.8263ZM29.8785 24.6761C29.7199 25.1026 29.4575 25.5293 29.103 25.9424C29.103 25.9424 29.1016 25.9424 29.1003 25.9424L24.608 31.2197L20.1128 25.9424C19.7584 25.5293 19.4985 25.1029 19.3359 24.6631C18.6896 22.9573 18.9348 21.0251 19.993 19.4926C21.0551 17.96 22.7369 17.0804 24.608 17.0804C26.4803 17.0804 28.1621 17.96 29.2242 19.4926C30.281 21.0251 30.5275 22.957 29.8785 24.6761Z" fill="white"/>
<path d="M24.6074 19.3855C22.7924 19.3855 21.3145 20.8644 21.3145 22.6768C21.3145 24.4892 22.7924 25.9688 24.6074 25.9688C26.4252 25.9688 27.9017 24.4892 27.9017 22.6768C27.9017 20.8644 26.4252 19.3855 24.6074 19.3855ZM24.6074 24.7962C23.44 24.7962 22.4912 23.8495 22.4912 22.6768C22.4912 21.5174 23.44 20.5581 24.6074 20.5581C25.7749 20.5581 26.725 21.5174 26.725 22.6768C26.725 23.8495 25.7749 24.7962 24.6074 24.7962Z" fill="white"/>
<defs>
<radialGradient id="paint0_radial_391_40896" cx="0" cy="0" r="1" gradientUnits="userSpaceOnUse" gradientTransform="translate(24.6521 3.45007) rotate(90.0008) scale(49.9102 31.4841)">
<stop stop-color="#FEE49A"/>
<stop offset="1" stop-color="#BB8D37"/>
</radialGradient>
</defs>
</svg>
