<svg width="49" height="49" viewBox="0 0 49 49" fill="none" xmlns="http://www.w3.org/2000/svg">
<path d="M8.04643 32.6438C3.60271 23.6105 7.32324 12.6853 16.3565 8.2416C25.3897 3.79788 36.3149 7.5184 40.7586 16.5516C45.2023 25.5848 41.4818 36.5101 32.4486 40.9538C23.4154 45.3975 12.4902 41.677 8.04643 32.6438Z" fill="url(#paint0_radial_391_40901)"/>
<path d="M30.399 32.2872C30.1604 32.2872 29.9499 32.1272 29.8806 31.9006C29.814 31.6741 29.9046 31.4209 30.1058 31.2877C30.6149 30.9545 31.048 30.5148 31.3772 30.0084C31.689 29.5286 31.7956 29.1557 31.6957 28.8625C31.4918 28.2894 30.4004 27.8764 29.4729 27.5832C28.6373 27.3166 27.7204 27.5294 27.0994 28.1558L26.7475 28.5026C26.6849 28.5693 26.6076 28.6224 26.5223 28.649C26.2811 28.7157 24.9565 28.9557 22.5044 26.5036C22.2925 26.2904 22.2911 25.9438 22.503 25.7306C22.7136 25.5307 23.0575 25.5307 23.268 25.7306C24.8765 27.3431 25.8187 27.5695 26.1279 27.5962L26.3358 27.3964C27.242 26.4769 28.5799 26.1572 29.802 26.557C31.0147 26.9435 32.338 27.4365 32.7138 28.5026C32.9337 29.129 32.7858 29.8217 32.2821 30.5947C31.8703 31.2343 31.3292 31.7807 30.6935 32.2071C30.6056 32.2604 30.5029 32.2872 30.399 32.2872ZM27.803 33.0068C25.3296 33.0068 22.491 31.5806 19.9563 29.0486C19.8164 28.9153 19.7591 28.7159 19.8084 28.5293C19.8591 28.3294 20.0057 28.1828 20.1963 28.1428C20.3842 28.0895 20.5854 28.1426 20.7213 28.2892C23.1121 30.6746 25.8613 32.0339 28.0668 31.9273C28.2094 31.914 28.3494 31.9674 28.4573 32.0607C28.564 32.154 28.6279 32.3003 28.6333 32.4336C28.6493 32.7401 28.4187 32.9935 28.1202 33.0068C28.0149 33.0068 27.9096 33.0068 27.803 33.0068Z" fill="white"/>
<path d="M20.3387 29.2085C20.1961 29.2085 20.0574 29.155 19.9562 29.0484C17.2309 26.3165 15.7597 23.1586 16.0222 20.5866C16.1755 18.9874 17.0564 17.561 18.4063 16.7214C19.1766 16.215 19.8802 16.0686 20.4959 16.2952C21.5607 16.6683 22.0645 17.9879 22.4523 19.2006C22.8467 20.4266 22.5202 21.7588 21.6113 22.665L21.3994 22.8784C21.4248 23.1583 21.6353 24.1046 23.2665 25.7305C23.4704 25.9437 23.4677 26.2899 23.2598 26.4898C23.0506 26.7031 22.7134 26.7034 22.5029 26.5035C20.0508 24.0514 20.288 22.7187 20.3613 22.4789C20.3866 22.3989 20.4333 22.319 20.4959 22.2524L20.8477 21.9056C21.4701 21.2792 21.6913 20.3733 21.4221 19.5337C21.1249 18.6009 20.7105 17.5076 20.1361 17.3077C19.8536 17.2144 19.4711 17.3213 18.9994 17.6278C17.9186 18.2941 17.2136 19.4266 17.0963 20.6927C16.8671 22.9448 18.2197 25.7837 20.7198 28.289C20.873 28.4356 20.9197 28.6754 20.8358 28.8753C20.7531 29.0752 20.5559 29.2085 20.3373 29.2085H20.3387Z" fill="white"/>
<defs>
<radialGradient id="paint0_radial_391_40901" cx="0" cy="0" r="1" gradientUnits="userSpaceOnUse" gradientTransform="translate(24.6521 3.64538) rotate(90.0008) scale(49.9102 31.4841)">
<stop stop-color="#FEE49A"/>
<stop offset="1" stop-color="#BB8D37"/>
</radialGradient>
</defs>
</svg>
