<svg width="104" height="122" viewBox="0 0 104 122" fill="none" xmlns="http://www.w3.org/2000/svg">
<g clip-path="url(#clip0_391_41168)">
<path d="M30.4395 23.1334L32.5956 22.7529L32.976 24.909L30.8199 25.2895L30.4395 23.1334Z" fill="#BB8D37"/>
<path d="M38.1758 23.3872L39.9514 22.8799L40.4587 24.6555L38.6831 25.1628L38.1758 23.3872Z" fill="#BB8D37"/>
<path d="M41.144 22.7529L40.5859 24.7315L42.5645 25.2895L43.1225 23.311L41.144 22.7529Z" fill="#BB8D37"/>
<path d="M45.6582 22.8798L48.068 22.7529L48.1948 25.1627L45.785 25.2895L45.6582 22.8798Z" fill="#BB8D37"/>
<path d="M50.7324 23.0573L52.9646 22.7529L53.269 24.9851L51.0368 25.2895L50.7324 23.0573Z" fill="#BB8D37"/>
<path d="M53.8266 22.7529L53.2686 24.7315L55.2471 25.2895L55.8051 23.311L53.8266 22.7529Z" fill="#BB8D37"/>
<path d="M63.415 22.8798L65.8248 22.7529L65.9516 25.1627L63.5419 25.2895L63.415 22.8798Z" fill="#BB8D37"/>
<path d="M73.6885 23.3872L75.4641 22.8799L75.9714 24.6555L74.1958 25.1628L73.6885 23.3872Z" fill="#BB8D37"/>
<path d="M76.6557 22.7529L76.0977 24.7315L78.0762 25.2895L78.6342 23.311L76.6557 22.7529Z" fill="#BB8D37"/>
<path d="M25.3662 25.67L27.5223 25.2896L27.9028 27.4456L25.7467 27.8261L25.3662 25.67Z" fill="#BB8D37"/>
<path d="M32.9756 25.67L35.1317 25.2896L35.5122 27.4456L33.3561 27.8261L32.9756 25.67Z" fill="#BB8D37"/>
<path d="M40.789 25.3911L40.6875 27.6233L42.9197 27.7248L43.0212 25.4926L40.789 25.3911Z" fill="#BB8D37"/>
<path d="M45.988 25.2896L45.6582 27.4964L47.865 27.8261L48.1948 25.6193L45.988 25.2896Z" fill="#BB8D37"/>
<path d="M48.3983 25.3911L48.2969 27.6233L50.5291 27.7248L50.6305 25.4926L48.3983 25.3911Z" fill="#BB8D37"/>
<path d="M50.9345 25.3911L50.833 27.6233L53.0652 27.7248L53.1667 25.4926L50.9345 25.3911Z" fill="#BB8D37"/>
<path d="M53.2686 25.7208L55.3739 25.2896L55.8051 27.3949L53.6998 27.8261L53.2686 25.7208Z" fill="#BB8D37"/>
<path d="M60.8779 25.5939L63.1101 25.2896L63.4145 27.5217L61.1823 27.8261L60.8779 25.5939Z" fill="#BB8D37"/>
<path d="M63.415 25.7208L65.5204 25.2896L65.9516 27.3949L63.8463 27.8261L63.415 25.7208Z" fill="#BB8D37"/>
<path d="M76.0977 25.5432L78.3806 25.2896L78.6342 27.5725L76.3513 27.8261L76.0977 25.5432Z" fill="#BB8D37"/>
<path d="M35.5127 27.953L37.9225 27.8262L38.0493 30.2359L35.6395 30.3628L35.5127 27.953Z" fill="#BB8D37"/>
<path d="M40.789 27.9277L40.6875 30.1599L42.9197 30.2614L43.0212 28.0292L40.789 27.9277Z" fill="#BB8D37"/>
<path d="M50.7324 28.0798L53.0153 27.8262L53.269 30.1091L50.9861 30.3628L50.7324 28.0798Z" fill="#BB8D37"/>
<path d="M60.8779 28.0798L63.1609 27.8262L63.4145 30.1091L61.1316 30.3628L60.8779 28.0798Z" fill="#BB8D37"/>
<path d="M65.9512 28.2067L68.1073 27.8262L68.4878 29.9823L66.3317 30.3628L65.9512 28.2067Z" fill="#BB8D37"/>
<path d="M71.0244 27.953L73.4342 27.8262L73.561 30.2359L71.1512 30.3628L71.0244 27.953Z" fill="#BB8D37"/>
<path d="M27.9023 30.6672L30.1345 30.3628L30.4389 32.595L28.2067 32.8994L27.9023 30.6672Z" fill="#BB8D37"/>
<path d="M30.9975 30.3628L30.4395 32.3413L32.418 32.8994L32.976 30.9208L30.9975 30.3628Z" fill="#BB8D37"/>
<path d="M35.5127 30.6165L37.7956 30.3628L38.0493 32.6457L35.7664 32.8994L35.5127 30.6165Z" fill="#BB8D37"/>
<path d="M40.789 30.4644L40.6875 32.6966L42.9197 32.798L43.0212 30.5658L40.789 30.4644Z" fill="#BB8D37"/>
<path d="M43.3251 30.4644L43.2236 32.6966L45.4558 32.798L45.5573 30.5658L43.3251 30.4644Z" fill="#BB8D37"/>
<path d="M46.2163 30.3628L45.6582 32.3413L47.6367 32.8994L48.1948 30.9208L46.2163 30.3628Z" fill="#BB8D37"/>
<path d="M53.2686 30.6672L55.5007 30.3628L55.8051 32.595L53.5729 32.8994L53.2686 30.6672Z" fill="#BB8D37"/>
<path d="M56.1853 30.4897L55.9316 32.519L57.9609 32.7727L58.2146 30.7434L56.1853 30.4897Z" fill="#BB8D37"/>
<path d="M68.4883 30.6672L70.7205 30.3628L71.0249 32.595L68.7927 32.8994L68.4883 30.6672Z" fill="#BB8D37"/>
<path d="M71.2274 30.4644L71.126 32.6966L73.3582 32.798L73.4596 30.5658L71.2274 30.4644Z" fill="#BB8D37"/>
<path d="M73.7645 30.4644L73.6631 32.6966L75.8953 32.798L75.9967 30.5658L73.7645 30.4644Z" fill="#BB8D37"/>
<path d="M76.4783 30.4897L76.2246 32.519L78.2539 32.7727L78.5075 30.7434L76.4783 30.4897Z" fill="#BB8D37"/>
<path d="M28.1054 33.001L28.0039 35.2332L30.2361 35.3346L30.3376 33.1024L28.1054 33.001Z" fill="#BB8D37"/>
<path d="M30.6425 33.001L30.541 35.2332L32.7732 35.3346L32.8747 33.1024L30.6425 33.001Z" fill="#BB8D37"/>
<path d="M40.789 33.001L40.6875 35.2332L42.9197 35.3346L43.0212 33.1024L40.789 33.001Z" fill="#BB8D37"/>
<path d="M43.3251 33.001L43.2236 35.2332L45.4558 35.3346L45.5573 33.1024L43.3251 33.001Z" fill="#BB8D37"/>
<path d="M45.6582 33.3306L47.7636 32.8994L48.1948 35.0048L46.0894 35.436L45.6582 33.3306Z" fill="#BB8D37"/>
<path d="M50.7324 33.2038L52.9646 32.8994L53.269 35.1316L51.0368 35.436L50.7324 33.2038Z" fill="#BB8D37"/>
<path d="M53.2686 33.3306L55.3739 32.8994L55.8051 35.0048L53.6998 35.436L53.2686 33.3306Z" fill="#BB8D37"/>
<path d="M60.8779 33.2038L63.1101 32.8994L63.4145 35.1316L61.1823 35.436L60.8779 33.2038Z" fill="#BB8D37"/>
<path d="M63.9731 32.8994L63.415 34.878L65.3936 35.436L65.9516 33.4575L63.9731 32.8994Z" fill="#BB8D37"/>
<path d="M68.6913 33.001L68.5898 35.2332L70.822 35.3346L70.9235 33.1024L68.6913 33.001Z" fill="#BB8D37"/>
<path d="M71.2274 33.001L71.126 35.2332L73.3582 35.3346L73.4596 33.1024L71.2274 33.001Z" fill="#BB8D37"/>
<path d="M73.5615 33.3306L75.6669 32.8994L76.0981 35.0048L73.9927 35.436L73.5615 33.3306Z" fill="#BB8D37"/>
<path d="M25.3662 35.7399L27.5984 35.4355L27.9028 37.6677L25.6706 37.9721L25.3662 35.7399Z" fill="#BB8D37"/>
<path d="M28.1054 35.5371L28.0039 37.7693L30.2361 37.8708L30.3376 35.6386L28.1054 35.5371Z" fill="#BB8D37"/>
<path d="M30.6425 35.5371L30.541 37.7693L32.7732 37.8708L32.8747 35.6386L30.6425 35.5371Z" fill="#BB8D37"/>
<path d="M40.789 35.5371L40.6875 37.7693L42.9197 37.8708L43.0212 35.6386L40.789 35.5371Z" fill="#BB8D37"/>
<path d="M43.1221 35.8668L45.2274 35.4355L45.6587 37.5409L43.5533 37.9721L43.1221 35.8668Z" fill="#BB8D37"/>
<path d="M50.9345 35.5371L50.833 37.7693L53.0652 37.8708L53.1667 35.6386L50.9345 35.5371Z" fill="#BB8D37"/>
<path d="M55.8047 35.7399L58.0369 35.4355L58.3413 37.6677L56.1091 37.9721L55.8047 35.7399Z" fill="#BB8D37"/>
<path d="M58.5448 35.5371L58.4434 37.7693L60.6756 37.8708L60.777 35.6386L58.5448 35.5371Z" fill="#BB8D37"/>
<path d="M61.081 35.5371L60.9795 37.7693L63.2117 37.8708L63.3132 35.6386L61.081 35.5371Z" fill="#BB8D37"/>
<path d="M63.6181 35.5371L63.5166 37.7693L65.7488 37.8708L65.8503 35.6386L63.6181 35.5371Z" fill="#BB8D37"/>
<path d="M66.1542 35.5371L66.0527 37.7693L68.2849 37.8708L68.3864 35.6386L66.1542 35.5371Z" fill="#BB8D37"/>
<path d="M68.6913 35.5371L68.5898 37.7693L70.822 37.8708L70.9235 35.6386L68.6913 35.5371Z" fill="#BB8D37"/>
<path d="M71.2274 35.5371L71.126 37.7693L73.3582 37.8708L73.4596 35.6386L71.2274 35.5371Z" fill="#BB8D37"/>
<path d="M76.0977 35.5624L78.5074 35.4355L78.6342 37.8453L76.2245 37.9721L76.0977 35.5624Z" fill="#BB8D37"/>
<path d="M25.5692 38.0742L25.4678 40.3064L27.7 40.4079L27.8014 38.1757L25.5692 38.0742Z" fill="#BB8D37"/>
<path d="M30.6425 38.0742L30.541 40.3064L32.7732 40.4079L32.8747 38.1757L30.6425 38.0742Z" fill="#BB8D37"/>
<path d="M35.5127 38.0995L37.9225 37.9727L38.0493 40.3824L35.6395 40.5092L35.5127 38.0995Z" fill="#BB8D37"/>
<path d="M40.789 38.0742L40.6875 40.3064L42.9197 40.4079L43.0212 38.1757L40.789 38.0742Z" fill="#BB8D37"/>
<path d="M45.6582 38.3531L47.8143 37.9727L48.1948 40.1288L46.0387 40.5092L45.6582 38.3531Z" fill="#BB8D37"/>
<path d="M50.9345 38.0742L50.833 40.3064L53.0652 40.4079L53.1667 38.1757L50.9345 38.0742Z" fill="#BB8D37"/>
<path d="M56.0077 38.0742L55.9062 40.3064L58.1384 40.4079L58.2399 38.1757L56.0077 38.0742Z" fill="#BB8D37"/>
<path d="M61.081 38.0742L60.9795 40.3064L63.2117 40.4079L63.3132 38.1757L61.081 38.0742Z" fill="#BB8D37"/>
<path d="M65.9512 38.2263L68.2341 37.9727L68.4878 40.2556L66.2048 40.5092L65.9512 38.2263Z" fill="#BB8D37"/>
<path d="M71.2274 38.0742L71.126 40.3064L73.3582 40.4079L73.4596 38.1757L71.2274 38.0742Z" fill="#BB8D37"/>
<path d="M76.0977 38.2263L78.3806 37.9727L78.6342 40.2556L76.3513 40.5092L76.0977 38.2263Z" fill="#BB8D37"/>
<path d="M25.696 40.5093L25.3662 42.7161L27.573 43.0459L27.9028 40.839L25.696 40.5093Z" fill="#BB8D37"/>
<path d="M28.1054 40.6108L28.0039 42.843L30.2361 42.9445L30.3376 40.7123L28.1054 40.6108Z" fill="#BB8D37"/>
<path d="M30.4395 40.9405L32.5448 40.5093L32.976 42.6146L30.8707 43.0459L30.4395 40.9405Z" fill="#BB8D37"/>
<path d="M35.7157 40.6108L35.6143 42.843L37.8465 42.9445L37.9479 40.7123L35.7157 40.6108Z" fill="#BB8D37"/>
<path d="M38.2519 40.6108L38.1504 42.843L40.3826 42.9445L40.484 40.7123L38.2519 40.6108Z" fill="#BB8D37"/>
<path d="M40.789 40.6108L40.6875 42.843L42.9197 42.9445L43.0212 40.7123L40.789 40.6108Z" fill="#BB8D37"/>
<path d="M43.6801 40.5093L43.1221 42.4878L45.1006 43.0459L45.6587 41.0673L43.6801 40.5093Z" fill="#BB8D37"/>
<path d="M48.1953 40.8137L50.4275 40.5093L50.7319 42.7415L48.4997 43.0459L48.1953 40.8137Z" fill="#BB8D37"/>
<path d="M50.9345 40.6108L50.833 42.843L53.0652 42.9445L53.1667 40.7123L50.9345 40.6108Z" fill="#BB8D37"/>
<path d="M56.0077 40.6108L55.9062 42.843L58.1384 42.9445L58.2399 40.7123L56.0077 40.6108Z" fill="#BB8D37"/>
<path d="M61.081 40.6108L60.9795 42.843L63.2117 42.9445L63.3132 40.7123L61.081 40.6108Z" fill="#BB8D37"/>
<path d="M71.2274 40.6108L71.126 42.843L73.3582 42.9445L73.4596 40.7123L71.2274 40.6108Z" fill="#BB8D37"/>
<path d="M15.3467 43.6797L17.1223 43.1724L17.6296 44.948L15.854 45.4553L15.3467 43.6797Z" fill="#BB8D37"/>
<path d="M17.9589 43.147L17.8574 45.3792L20.0896 45.4806L20.1911 43.2484L17.9589 43.147Z" fill="#BB8D37"/>
<path d="M20.496 43.147L20.3945 45.3792L22.6267 45.4806L22.7282 43.2484L20.496 43.147Z" fill="#BB8D37"/>
<path d="M23.3872 43.0454L22.8291 45.0239L24.8076 45.582L25.3657 43.6035L23.3872 43.0454Z" fill="#BB8D37"/>
<path d="M27.9023 43.2991L30.1853 43.0454L30.4389 45.3283L28.156 45.582L27.9023 43.2991Z" fill="#BB8D37"/>
<path d="M32.9756 43.3498L35.2078 43.0454L35.5122 45.2776L33.28 45.582L32.9756 43.3498Z" fill="#BB8D37"/>
<path d="M35.7157 43.147L35.6143 45.3792L37.8465 45.4806L37.9479 43.2484L35.7157 43.147Z" fill="#BB8D37"/>
<path d="M43.3251 43.147L43.2236 45.3792L45.4558 45.4806L45.5573 43.2484L43.3251 43.147Z" fill="#BB8D37"/>
<path d="M48.5251 43.0454L48.1953 45.2522L50.4021 45.582L50.7319 43.3752L48.5251 43.0454Z" fill="#BB8D37"/>
<path d="M50.9345 43.147L50.833 45.3792L53.0652 45.4806L53.1667 43.2484L50.9345 43.147Z" fill="#BB8D37"/>
<path d="M55.8047 43.2991L58.0876 43.0454L58.3413 45.3283L56.0583 45.582L55.8047 43.2991Z" fill="#BB8D37"/>
<path d="M61.2077 43.0454L60.8779 45.2522L63.0848 45.582L63.4145 43.3752L61.2077 43.0454Z" fill="#BB8D37"/>
<path d="M63.9731 43.0454L63.415 45.0239L65.3936 45.582L65.9516 43.6035L63.9731 43.0454Z" fill="#BB8D37"/>
<path d="M68.6152 43.6797L70.3908 43.1724L70.8982 44.948L69.1226 45.4553L68.6152 43.6797Z" fill="#BB8D37"/>
<path d="M71.2274 43.147L71.126 45.3792L73.3582 45.4806L73.4596 43.2484L71.2274 43.147Z" fill="#BB8D37"/>
<path d="M73.9421 43.1724L73.6885 45.2016L75.7177 45.4553L75.9714 43.426L73.9421 43.1724Z" fill="#BB8D37"/>
<path d="M81.1709 43.3498L83.4031 43.0454L83.7075 45.2776L81.4753 45.582L81.1709 43.3498Z" fill="#BB8D37"/>
<path d="M84.2661 43.0454L83.708 45.0239L85.6865 45.582L86.2446 43.6035L84.2661 43.0454Z" fill="#BB8D37"/>
<path d="M93.8535 43.4259L96.0096 43.0454L96.3901 45.2015L94.234 45.582L93.8535 43.4259Z" fill="#BB8D37"/>
<path d="M5.07324 45.7093L7.483 45.5825L7.60983 47.9923L5.20007 48.1191L5.07324 45.7093Z" fill="#BB8D37"/>
<path d="M10.1465 45.8869L12.3787 45.5825L12.6831 47.8147L10.4509 48.1191L10.1465 45.8869Z" fill="#BB8D37"/>
<path d="M13.0632 45.709L12.8096 47.7383L14.8388 47.9919L15.0925 45.9626L13.0632 45.709Z" fill="#BB8D37"/>
<path d="M23.1589 45.5825L22.8291 47.7893L25.0359 48.1191L25.3657 45.9123L23.1589 45.5825Z" fill="#BB8D37"/>
<path d="M25.7468 45.709L25.4932 47.7383L27.5224 47.9919L27.7761 45.9626L25.7468 45.709Z" fill="#BB8D37"/>
<path d="M33.3053 45.5825L32.9756 47.7893L35.1824 48.1191L35.5122 45.9123L33.3053 45.5825Z" fill="#BB8D37"/>
<path d="M35.7157 45.6836L35.6143 47.9158L37.8465 48.0173L37.9479 45.7851L35.7157 45.6836Z" fill="#BB8D37"/>
<path d="M40.7129 46.2163L42.4885 45.709L42.9958 47.4846L41.2202 47.9919L40.7129 46.2163Z" fill="#BB8D37"/>
<path d="M43.3251 45.6836L43.2236 47.9158L45.4558 48.0173L45.5573 45.7851L43.3251 45.6836Z" fill="#BB8D37"/>
<path d="M50.7324 45.8362L53.0153 45.5825L53.269 47.8654L50.9861 48.1191L50.7324 45.8362Z" fill="#BB8D37"/>
<path d="M58.3418 45.963L60.4979 45.5825L60.8784 47.7386L58.7223 48.1191L58.3418 45.963Z" fill="#BB8D37"/>
<path d="M63.7448 45.5825L63.415 47.7893L65.6219 48.1191L65.9516 45.9123L63.7448 45.5825Z" fill="#BB8D37"/>
<path d="M66.3318 45.709L66.0781 47.7383L68.1074 47.9919L68.3611 45.9626L66.3318 45.709Z" fill="#BB8D37"/>
<path d="M76.0977 45.7093L78.5074 45.5825L78.6342 47.9923L76.2245 48.1191L76.0977 45.7093Z" fill="#BB8D37"/>
<path d="M81.5007 45.5825L81.1709 47.7893L83.3777 48.1191L83.7075 45.9123L81.5007 45.5825Z" fill="#BB8D37"/>
<path d="M83.911 45.6836L83.8096 47.9158L86.0418 48.0173L86.1432 45.7851L83.911 45.6836Z" fill="#BB8D37"/>
<path d="M86.8022 45.5825L86.2441 47.5611L88.2227 48.1191L88.7807 46.1406L86.8022 45.5825Z" fill="#BB8D37"/>
<path d="M5.403 48.1187L5.07324 50.3255L7.28007 50.6552L7.60983 48.4484L5.403 48.1187Z" fill="#BB8D37"/>
<path d="M7.81338 48.2202L7.71191 50.4524L9.94411 50.5539L10.0456 48.3217L7.81338 48.2202Z" fill="#BB8D37"/>
<path d="M10.1465 48.5499L12.2519 48.1187L12.6831 50.224L10.5777 50.6552L10.1465 48.5499Z" fill="#BB8D37"/>
<path d="M15.2197 48.423L17.4519 48.1187L17.7563 50.3508L15.5241 50.6552L15.2197 48.423Z" fill="#BB8D37"/>
<path d="M17.9589 48.2202L17.8574 50.4524L20.0896 50.5539L20.1911 48.3217L17.9589 48.2202Z" fill="#BB8D37"/>
<path d="M20.6736 48.2456L20.4199 50.2749L22.4492 50.5285L22.7028 48.4993L20.6736 48.2456Z" fill="#BB8D37"/>
<path d="M30.4395 48.4991L32.5956 48.1187L32.976 50.2747L30.8199 50.6552L30.4395 48.4991Z" fill="#BB8D37"/>
<path d="M35.8425 48.1187L35.5127 50.3255L37.7195 50.6552L38.0493 48.4484L35.8425 48.1187Z" fill="#BB8D37"/>
<path d="M38.4294 48.2456L38.1758 50.2749L40.205 50.5285L40.4587 48.4993L38.4294 48.2456Z" fill="#BB8D37"/>
<path d="M43.4518 48.1187L43.1221 50.3255L45.3289 50.6552L45.6587 48.4484L43.4518 48.1187Z" fill="#BB8D37"/>
<path d="M45.8612 48.2202L45.7598 50.4524L47.992 50.5539L48.0934 48.3217L45.8612 48.2202Z" fill="#BB8D37"/>
<path d="M48.5759 48.2456L48.3223 50.2749L50.3515 50.5285L50.6052 48.4993L48.5759 48.2456Z" fill="#BB8D37"/>
<path d="M55.8047 48.2455L58.2144 48.1187L58.3413 50.5284L55.9315 50.6552L55.8047 48.2455Z" fill="#BB8D37"/>
<path d="M60.8779 48.2455L63.2877 48.1187L63.4145 50.5284L61.0048 50.6552L60.8779 48.2455Z" fill="#BB8D37"/>
<path d="M68.6152 48.7529L70.3908 48.2456L70.8982 50.0212L69.1226 50.5285L68.6152 48.7529Z" fill="#BB8D37"/>
<path d="M71.5825 48.1187L71.0244 50.0972L73.003 50.6552L73.561 48.6767L71.5825 48.1187Z" fill="#BB8D37"/>
<path d="M76.4274 48.1187L76.0977 50.3255L78.3045 50.6552L78.6342 48.4484L76.4274 48.1187Z" fill="#BB8D37"/>
<path d="M79.1928 48.1187L78.6348 50.0972L80.6133 50.6552L81.1714 48.6767L79.1928 48.1187Z" fill="#BB8D37"/>
<path d="M83.911 48.2202L83.8096 50.4524L86.0418 50.5539L86.1432 48.3217L83.911 48.2202Z" fill="#BB8D37"/>
<path d="M86.4472 48.2202L86.3457 50.4524L88.5779 50.5539L88.6794 48.3217L86.4472 48.2202Z" fill="#BB8D37"/>
<path d="M89.1609 48.2456L88.9072 50.2749L90.9365 50.5285L91.1902 48.4993L89.1609 48.2456Z" fill="#BB8D37"/>
<path d="M15.4228 50.7573L15.3213 52.9895L17.5535 53.091L17.6549 50.8588L15.4228 50.7573Z" fill="#BB8D37"/>
<path d="M17.9589 50.7573L17.8574 52.9895L20.0896 53.091L20.1911 50.8588L17.9589 50.7573Z" fill="#BB8D37"/>
<path d="M32.9756 51.0362L35.1317 50.6558L35.5122 52.8119L33.3561 53.1923L32.9756 51.0362Z" fill="#BB8D37"/>
<path d="M40.5859 51.0362L42.742 50.6558L43.1225 52.8119L40.9664 53.1923L40.5859 51.0362Z" fill="#BB8D37"/>
<path d="M53.3955 51.2895L55.1711 50.7822L55.6784 52.5578L53.9028 53.0652L53.3955 51.2895Z" fill="#BB8D37"/>
<path d="M56.0077 50.7573L55.9062 52.9895L58.1384 53.091L58.2399 50.8588L56.0077 50.7573Z" fill="#BB8D37"/>
<path d="M60.8779 50.9094L63.1609 50.6558L63.4145 52.9387L61.1316 53.1923L60.8779 50.9094Z" fill="#BB8D37"/>
<path d="M71.0244 50.9094L73.3073 50.6558L73.561 52.9387L71.2781 53.1923L71.0244 50.9094Z" fill="#BB8D37"/>
<path d="M78.8368 50.7573L78.7354 52.9895L80.9675 53.091L81.069 50.8588L78.8368 50.7573Z" fill="#BB8D37"/>
<path d="M83.911 50.7573L83.8096 52.9895L86.0418 53.091L86.1432 50.8588L83.911 50.7573Z" fill="#BB8D37"/>
<path d="M86.2441 51.087L88.3495 50.6558L88.7807 52.7611L86.6754 53.1923L86.2441 51.087Z" fill="#BB8D37"/>
<path d="M91.3174 50.9602L93.5496 50.6558L93.854 52.888L91.6218 53.1923L91.3174 50.9602Z" fill="#BB8D37"/>
<path d="M94.0565 50.7573L93.9551 52.9895L96.1873 53.091L96.2887 50.8588L94.0565 50.7573Z" fill="#BB8D37"/>
<path d="M96.7712 50.7822L96.5176 52.8115L98.5468 53.0652L98.8005 51.0359L96.7712 50.7822Z" fill="#BB8D37"/>
<path d="M7.61035 53.4968L9.84255 53.1924L10.1469 55.4246L7.91474 55.729L7.61035 53.4968Z" fill="#BB8D37"/>
<path d="M10.3495 53.2935L10.248 55.5257L12.4802 55.6271L12.5817 53.3949L10.3495 53.2935Z" fill="#BB8D37"/>
<path d="M12.8866 53.2935L12.7852 55.5257L15.0174 55.6271L15.1188 53.3949L12.8866 53.2935Z" fill="#BB8D37"/>
<path d="M15.4228 53.2935L15.3213 55.5257L17.5535 55.6271L17.6549 53.3949L15.4228 53.2935Z" fill="#BB8D37"/>
<path d="M17.9589 53.2935L17.8574 55.5257L20.0896 55.6271L20.1911 53.3949L17.9589 53.2935Z" fill="#BB8D37"/>
<path d="M20.496 53.2935L20.3945 55.5257L22.6267 55.6271L22.7282 53.3949L20.496 53.2935Z" fill="#BB8D37"/>
<path d="M23.0321 53.2935L22.9307 55.5257L25.1629 55.6271L25.2643 53.3949L23.0321 53.2935Z" fill="#BB8D37"/>
<path d="M25.9243 53.1924L25.3662 55.1709L27.3447 55.729L27.9028 53.7504L25.9243 53.1924Z" fill="#BB8D37"/>
<path d="M30.4395 53.3192L32.8492 53.1924L32.976 55.6021L30.5663 55.729L30.4395 53.3192Z" fill="#BB8D37"/>
<path d="M38.0488 53.5729L40.2049 53.1924L40.5854 55.3485L38.4293 55.729L38.0488 53.5729Z" fill="#BB8D37"/>
<path d="M43.249 53.8262L45.0246 53.3188L45.532 55.0945L43.7563 55.6018L43.249 53.8262Z" fill="#BB8D37"/>
<path d="M46.0388 53.3188L45.7852 55.3481L47.8144 55.6018L48.0681 53.5725L46.0388 53.3188Z" fill="#BB8D37"/>
<path d="M50.7324 53.5729L52.8885 53.1924L53.269 55.3485L51.1129 55.729L50.7324 53.5729Z" fill="#BB8D37"/>
<path d="M55.8047 53.446L58.0876 53.1924L58.3413 55.4753L56.0583 55.729L55.8047 53.446Z" fill="#BB8D37"/>
<path d="M63.542 53.8262L65.3176 53.3188L65.8249 55.0945L64.0493 55.6018L63.542 53.8262Z" fill="#BB8D37"/>
<path d="M66.5092 53.1924L65.9512 55.1709L67.9297 55.729L68.4878 53.7504L66.5092 53.1924Z" fill="#BB8D37"/>
<path d="M73.5615 53.3192L75.9713 53.1924L76.0981 55.6021L73.6884 55.729L73.5615 53.3192Z" fill="#BB8D37"/>
<path d="M78.8368 53.2935L78.7354 55.5257L80.9675 55.6271L81.069 53.3949L78.8368 53.2935Z" fill="#BB8D37"/>
<path d="M81.3739 53.2935L81.2725 55.5257L83.5047 55.6271L83.6061 53.3949L81.3739 53.2935Z" fill="#BB8D37"/>
<path d="M83.911 53.2935L83.8096 55.5257L86.0418 55.6271L86.1432 53.3949L83.911 53.2935Z" fill="#BB8D37"/>
<path d="M91.5204 53.2935L91.4189 55.5257L93.6511 55.6271L93.7526 53.3949L91.5204 53.2935Z" fill="#BB8D37"/>
<path d="M93.8535 53.6236L95.9589 53.1924L96.3901 55.2977L94.2847 55.729L93.8535 53.6236Z" fill="#BB8D37"/>
<path d="M5.07324 56.0329L7.30544 55.7285L7.60983 57.9607L5.37763 58.2651L5.07324 56.0329Z" fill="#BB8D37"/>
<path d="M7.81338 55.8301L7.71191 58.0623L9.94411 58.1637L10.0456 55.9315L7.81338 55.8301Z" fill="#BB8D37"/>
<path d="M12.8866 55.8301L12.7852 58.0623L15.0174 58.1637L15.1188 55.9315L12.8866 55.8301Z" fill="#BB8D37"/>
<path d="M15.2197 56.1597L17.3251 55.7285L17.7563 57.8339L15.6509 58.2651L15.2197 56.1597Z" fill="#BB8D37"/>
<path d="M25.5692 55.8301L25.4678 58.0623L27.7 58.1637L27.8014 55.9315L25.5692 55.8301Z" fill="#BB8D37"/>
<path d="M30.6425 55.8301L30.541 58.0623L32.7732 58.1637L32.8747 55.9315L30.6425 55.8301Z" fill="#BB8D37"/>
<path d="M33.5336 55.7285L32.9756 57.7071L34.9541 58.2651L35.5122 56.2866L33.5336 55.7285Z" fill="#BB8D37"/>
<path d="M66.2809 55.7285L65.9512 57.9353L68.158 58.2651L68.4878 56.0583L66.2809 55.7285Z" fill="#BB8D37"/>
<path d="M69.0463 55.7285L68.4883 57.7071L70.4668 58.2651L71.0249 56.2866L69.0463 55.7285Z" fill="#BB8D37"/>
<path d="M73.7645 55.8301L73.6631 58.0623L75.8953 58.1637L75.9967 55.9315L73.7645 55.8301Z" fill="#BB8D37"/>
<path d="M76.3007 55.8301L76.1992 58.0623L78.4314 58.1637L78.5329 55.9315L76.3007 55.8301Z" fill="#BB8D37"/>
<path d="M78.8368 55.8301L78.7354 58.0623L80.9675 58.1637L81.069 55.9315L78.8368 55.8301Z" fill="#BB8D37"/>
<path d="M83.911 55.8301L83.8096 58.0623L86.0418 58.1637L86.1432 55.9315L83.911 55.8301Z" fill="#BB8D37"/>
<path d="M86.6248 55.8555L86.3711 57.8847L88.4004 58.1384L88.654 56.1091L86.6248 55.8555Z" fill="#BB8D37"/>
<path d="M91.5204 55.8301L91.4189 58.0623L93.6511 58.1637L93.7526 55.9315L91.5204 55.8301Z" fill="#BB8D37"/>
<path d="M5.403 58.2651L5.07324 60.472L7.28007 60.8017L7.60983 58.5949L5.403 58.2651Z" fill="#BB8D37"/>
<path d="M7.81338 58.3667L7.71191 60.5989L9.94411 60.7004L10.0456 58.4682L7.81338 58.3667Z" fill="#BB8D37"/>
<path d="M12.6836 58.5188L14.9665 58.2651L15.2202 60.5481L12.9373 60.8017L12.6836 58.5188Z" fill="#BB8D37"/>
<path d="M17.8828 58.8994L19.6584 58.3921L20.1657 60.1677L18.3901 60.675L17.8828 58.8994Z" fill="#BB8D37"/>
<path d="M20.6736 58.3921L20.4199 60.4214L22.4492 60.675L22.7028 58.6457L20.6736 58.3921Z" fill="#BB8D37"/>
<path d="M25.3662 58.5188L27.6491 58.2651L27.9028 60.5481L25.6199 60.8017L25.3662 58.5188Z" fill="#BB8D37"/>
<path d="M30.6425 58.3667L30.541 60.5989L32.7732 60.7004L32.8747 58.4682L30.6425 58.3667Z" fill="#BB8D37"/>
<path d="M33.1786 58.3667L33.0771 60.5989L35.3093 60.7004L35.4108 58.4682L33.1786 58.3667Z" fill="#BB8D37"/>
<path d="M68.4883 58.5188L70.7712 58.2651L71.0249 60.5481L68.7419 60.8017L68.4883 58.5188Z" fill="#BB8D37"/>
<path d="M73.7645 58.3667L73.6631 60.5989L75.8953 60.7004L75.9967 58.4682L73.7645 58.3667Z" fill="#BB8D37"/>
<path d="M78.6348 58.5188L80.9177 58.2651L81.1714 60.5481L78.8884 60.8017L78.6348 58.5188Z" fill="#BB8D37"/>
<path d="M83.911 58.3667L83.8096 60.5989L86.0418 60.7004L86.1432 58.4682L83.911 58.3667Z" fill="#BB8D37"/>
<path d="M88.9072 58.8994L90.6828 58.3921L91.1902 60.1677L89.4145 60.675L88.9072 58.8994Z" fill="#BB8D37"/>
<path d="M91.5204 58.3667L91.4189 60.5989L93.6511 60.7004L93.7526 58.4682L91.5204 58.3667Z" fill="#BB8D37"/>
<path d="M94.2341 58.3921L93.9805 60.4214L96.0097 60.675L96.2634 58.6457L94.2341 58.3921Z" fill="#BB8D37"/>
<path d="M7.94011 60.8018L7.61035 63.0086L9.81718 63.3383L10.1469 61.1315L7.94011 60.8018Z" fill="#BB8D37"/>
<path d="M10.7045 60.8018L10.1465 62.7803L12.125 63.3383L12.6831 61.3598L10.7045 60.8018Z" fill="#BB8D37"/>
<path d="M15.2197 60.9286L17.6295 60.8018L17.7563 63.2115L15.3466 63.3383L15.2197 60.9286Z" fill="#BB8D37"/>
<path d="M22.8291 61.1822L24.9852 60.8018L25.3657 62.9579L23.2096 63.3383L22.8291 61.1822Z" fill="#BB8D37"/>
<path d="M28.0293 61.4355L29.8049 60.9282L30.3122 62.7038L28.5366 63.2111L28.0293 61.4355Z" fill="#BB8D37"/>
<path d="M30.6425 60.9028L30.541 63.135L32.7732 63.2365L32.8747 61.0043L30.6425 60.9028Z" fill="#BB8D37"/>
<path d="M33.1786 60.9028L33.0771 63.135L35.3093 63.2365L35.4108 61.0043L33.1786 60.9028Z" fill="#BB8D37"/>
<path d="M36.0707 60.8018L35.5127 62.7803L37.4912 63.3383L38.0493 61.3598L36.0707 60.8018Z" fill="#BB8D37"/>
<path d="M65.9512 60.9286L68.3609 60.8018L68.4878 63.2115L66.078 63.3383L65.9512 60.9286Z" fill="#BB8D37"/>
<path d="M73.5615 61.0554L75.8445 60.8018L76.0981 63.0847L73.8152 63.3383L73.5615 61.0554Z" fill="#BB8D37"/>
<path d="M81.1709 61.1061L83.4031 60.8018L83.7075 63.034L81.4753 63.3383L81.1709 61.1061Z" fill="#BB8D37"/>
<path d="M83.911 60.9028L83.8096 63.135L86.0418 63.2365L86.1432 61.0043L83.911 60.9028Z" fill="#BB8D37"/>
<path d="M86.6248 60.9282L86.3711 62.9575L88.4004 63.2111L88.654 61.1819L86.6248 60.9282Z" fill="#BB8D37"/>
<path d="M91.5204 60.9028L91.4189 63.135L93.6511 63.2365L93.7526 61.0043L91.5204 60.9028Z" fill="#BB8D37"/>
<path d="M96.3906 60.9286L98.8004 60.8018L98.9272 63.2115L96.5175 63.3383L96.3906 60.9286Z" fill="#BB8D37"/>
<path d="M5.07324 63.7189L7.22934 63.3384L7.60983 65.4945L5.45373 65.875L5.07324 63.7189Z" fill="#BB8D37"/>
<path d="M10.4762 63.3384L10.1465 65.5452L12.3533 65.875L12.6831 63.6681L10.4762 63.3384Z" fill="#BB8D37"/>
<path d="M12.8866 63.4399L12.7852 65.6721L15.0174 65.7736L15.1188 63.5414L12.8866 63.4399Z" fill="#BB8D37"/>
<path d="M15.2197 63.7696L17.3251 63.3384L17.7563 65.4437L15.6509 65.875L15.2197 63.7696Z" fill="#BB8D37"/>
<path d="M20.293 63.7189L22.4491 63.3384L22.8296 65.4945L20.6735 65.875L20.293 63.7189Z" fill="#BB8D37"/>
<path d="M25.3662 63.7189L27.5223 63.3384L27.9028 65.4945L25.7467 65.875L25.3662 63.7189Z" fill="#BB8D37"/>
<path d="M35.7157 63.4399L35.6143 65.6721L37.8465 65.7736L37.9479 63.5414L35.7157 63.4399Z" fill="#BB8D37"/>
<path d="M66.1542 63.4399L66.0527 65.6721L68.2849 65.7736L68.3864 63.5414L66.1542 63.4399Z" fill="#BB8D37"/>
<path d="M78.6348 63.6428L80.867 63.3384L81.1714 65.5706L78.9392 65.875L78.6348 63.6428Z" fill="#BB8D37"/>
<path d="M81.1709 63.7696L83.2763 63.3384L83.7075 65.4437L81.6021 65.875L81.1709 63.7696Z" fill="#BB8D37"/>
<path d="M88.7812 63.6428L91.0134 63.3384L91.3178 65.5706L89.0856 65.875L88.7812 63.6428Z" fill="#BB8D37"/>
<path d="M91.5204 63.4399L91.4189 65.6721L93.6511 65.7736L93.7526 63.5414L91.5204 63.4399Z" fill="#BB8D37"/>
<path d="M94.0565 63.4399L93.9551 65.6721L96.1873 65.7736L96.2887 63.5414L94.0565 63.4399Z" fill="#BB8D37"/>
<path d="M96.3906 63.7696L98.496 63.3384L98.9272 65.4437L96.8218 65.875L96.3906 63.7696Z" fill="#BB8D37"/>
<path d="M12.6836 66.1287L14.9665 65.875L15.2202 68.1579L12.9373 68.4116L12.6836 66.1287Z" fill="#BB8D37"/>
<path d="M22.8291 66.0018L25.2389 65.875L25.3657 68.2848L22.9559 68.4116L22.8291 66.0018Z" fill="#BB8D37"/>
<path d="M30.5664 66.5093L32.342 66.002L32.8493 67.7776L31.0737 68.2849L30.5664 66.5093Z" fill="#BB8D37"/>
<path d="M33.1786 65.9766L33.0771 68.2088L35.3093 68.3102L35.4108 66.078L33.1786 65.9766Z" fill="#BB8D37"/>
<path d="M35.7157 65.9766L35.6143 68.2088L37.8465 68.3102L37.9479 66.078L35.7157 65.9766Z" fill="#BB8D37"/>
<path d="M66.1542 65.9766L66.0527 68.2088L68.2849 68.3102L68.3864 66.078L66.1542 65.9766Z" fill="#BB8D37"/>
<path d="M71.0244 66.1794L73.2566 65.875L73.561 68.1072L71.3288 68.4116L71.0244 66.1794Z" fill="#BB8D37"/>
<path d="M73.7645 65.9766L73.6631 68.2088L75.8953 68.3102L75.9967 66.078L73.7645 65.9766Z" fill="#BB8D37"/>
<path d="M76.3007 65.9766L76.1992 68.2088L78.4314 68.3102L78.5329 66.078L76.3007 65.9766Z" fill="#BB8D37"/>
<path d="M78.6348 66.3062L80.7401 65.875L81.1714 67.9804L79.066 68.4116L78.6348 66.3062Z" fill="#BB8D37"/>
<path d="M86.2441 66.1794L88.4763 65.875L88.7807 68.1072L86.5485 68.4116L86.2441 66.1794Z" fill="#BB8D37"/>
<path d="M88.9833 65.9766L88.8818 68.2088L91.114 68.3102L91.2155 66.078L88.9833 65.9766Z" fill="#BB8D37"/>
<path d="M91.3174 66.3062L93.4227 65.875L93.854 67.9804L91.7486 68.4116L91.3174 66.3062Z" fill="#BB8D37"/>
<path d="M7.7373 69.0454L9.51291 68.5381L10.0202 70.3137L8.24462 70.821L7.7373 69.0454Z" fill="#BB8D37"/>
<path d="M10.5271 68.5381L10.2734 70.5674L12.3027 70.821L12.5564 68.7917L10.5271 68.5381Z" fill="#BB8D37"/>
<path d="M17.8828 69.0454L19.6584 68.5381L20.1657 70.3137L18.3901 70.821L17.8828 69.0454Z" fill="#BB8D37"/>
<path d="M20.496 68.5132L20.3945 70.7454L22.6267 70.8468L22.7282 68.6146L20.496 68.5132Z" fill="#BB8D37"/>
<path d="M23.0321 68.5132L22.9307 70.7454L25.1629 70.8468L25.2643 68.6146L23.0321 68.5132Z" fill="#BB8D37"/>
<path d="M25.9243 68.4116L25.3662 70.3902L27.3447 70.9482L27.9028 68.9697L25.9243 68.4116Z" fill="#BB8D37"/>
<path d="M35.5127 68.6653L37.7956 68.4116L38.0493 70.6945L35.7664 70.9482L35.5127 68.6653Z" fill="#BB8D37"/>
<path d="M66.2809 68.4116L65.9512 70.6185L68.158 70.9482L68.4878 68.7414L66.2809 68.4116Z" fill="#BB8D37"/>
<path d="M68.6913 68.5132L68.5898 70.7454L70.822 70.8468L70.9235 68.6146L68.6913 68.5132Z" fill="#BB8D37"/>
<path d="M71.2274 68.5132L71.126 70.7454L73.3582 70.8468L73.4596 68.6146L71.2274 68.5132Z" fill="#BB8D37"/>
<path d="M73.7645 68.5132L73.6631 70.7454L75.8953 70.8468L75.9967 68.6146L73.7645 68.5132Z" fill="#BB8D37"/>
<path d="M81.1709 68.5385L83.5807 68.4116L83.7075 70.8214L81.2977 70.9482L81.1709 68.5385Z" fill="#BB8D37"/>
<path d="M86.4472 68.5132L86.3457 70.7454L88.5779 70.8468L88.6794 68.6146L86.4472 68.5132Z" fill="#BB8D37"/>
<path d="M88.7812 68.8428L90.8866 68.4116L91.3178 70.517L89.2125 70.9482L88.7812 68.8428Z" fill="#BB8D37"/>
<path d="M5.07324 71.0751L7.483 70.9482L7.60983 73.358L5.20007 73.4848L5.07324 71.0751Z" fill="#BB8D37"/>
<path d="M12.6836 71.0751L15.0933 70.9482L15.2202 73.358L12.8104 73.4848L12.6836 71.0751Z" fill="#BB8D37"/>
<path d="M23.0321 71.0498L22.9307 73.282L25.1629 73.3835L25.2643 71.1513L23.0321 71.0498Z" fill="#BB8D37"/>
<path d="M25.5692 71.0498L25.4678 73.282L27.7 73.3835L27.8014 71.1513L25.5692 71.0498Z" fill="#BB8D37"/>
<path d="M28.1054 71.0498L28.0039 73.282L30.2361 73.3835L30.3376 71.1513L28.1054 71.0498Z" fill="#BB8D37"/>
<path d="M30.6425 71.0498L30.541 73.282L32.7732 73.3835L32.8747 71.1513L30.6425 71.0498Z" fill="#BB8D37"/>
<path d="M33.3562 71.0752L33.1025 73.1045L35.1318 73.3581L35.3855 71.3289L33.3562 71.0752Z" fill="#BB8D37"/>
<path d="M73.8913 70.9482L73.5615 73.1551L75.7684 73.4848L76.0981 71.278L73.8913 70.9482Z" fill="#BB8D37"/>
<path d="M76.4783 71.0752L76.2246 73.1045L78.2539 73.3581L78.5075 71.3289L76.4783 71.0752Z" fill="#BB8D37"/>
<path d="M81.3739 71.0498L81.2725 73.282L83.5047 73.3835L83.6061 71.1513L81.3739 71.0498Z" fill="#BB8D37"/>
<path d="M83.911 71.0498L83.8096 73.282L86.0418 73.3835L86.1432 71.1513L83.911 71.0498Z" fill="#BB8D37"/>
<path d="M86.2441 71.3795L88.3495 70.9482L88.7807 73.0536L86.6754 73.4848L86.2441 71.3795Z" fill="#BB8D37"/>
<path d="M91.3174 71.0751L93.7271 70.9482L93.854 73.358L91.4442 73.4848L91.3174 71.0751Z" fill="#BB8D37"/>
<path d="M5.27627 73.5864L5.1748 75.8186L7.407 75.9201L7.50846 73.6879L5.27627 73.5864Z" fill="#BB8D37"/>
<path d="M12.6836 73.7385L14.9665 73.4849L15.2202 75.7678L12.9373 76.0214L12.6836 73.7385Z" fill="#BB8D37"/>
<path d="M20.4199 74.1191L22.1955 73.6118L22.7028 75.3874L20.9272 75.8947L20.4199 74.1191Z" fill="#BB8D37"/>
<path d="M23.0321 73.5864L22.9307 75.8186L25.1629 75.9201L25.2643 73.6879L23.0321 73.5864Z" fill="#BB8D37"/>
<path d="M30.6425 73.5864L30.541 75.8186L32.7732 75.9201L32.8747 73.6879L30.6425 73.5864Z" fill="#BB8D37"/>
<path d="M35.5127 73.6117L37.9225 73.4849L38.0493 75.8946L35.6395 76.0214L35.5127 73.6117Z" fill="#BB8D37"/>
<path d="M68.4883 73.8654L70.6444 73.4849L71.0249 75.641L68.8688 76.0214L68.4883 73.8654Z" fill="#BB8D37"/>
<path d="M78.7607 74.1191L80.5364 73.6118L81.0437 75.3874L79.2681 75.8947L78.7607 74.1191Z" fill="#BB8D37"/>
<path d="M81.1709 73.9161L83.2763 73.4849L83.7075 75.5902L81.6021 76.0214L81.1709 73.9161Z" fill="#BB8D37"/>
<path d="M91.6471 73.4849L91.3174 75.6917L93.5242 76.0214L93.854 73.8146L91.6471 73.4849Z" fill="#BB8D37"/>
<path d="M94.0565 73.5864L93.9551 75.8186L96.1873 75.9201L96.2887 73.6879L94.0565 73.5864Z" fill="#BB8D37"/>
<path d="M96.7712 73.6118L96.5176 75.6411L98.5468 75.8947L98.8005 73.8655L96.7712 73.6118Z" fill="#BB8D37"/>
<path d="M5.403 76.021L5.07324 78.2278L7.28007 78.5576L7.60983 76.3508L5.403 76.021Z" fill="#BB8D37"/>
<path d="M7.81338 76.1226L7.71191 78.3548L9.94411 78.4562L10.0456 76.224L7.81338 76.1226Z" fill="#BB8D37"/>
<path d="M10.7045 76.021L10.1465 77.9995L12.125 78.5576L12.6831 76.579L10.7045 76.021Z" fill="#BB8D37"/>
<path d="M15.2197 76.4015L17.3758 76.021L17.7563 78.1771L15.6002 78.5576L15.2197 76.4015Z" fill="#BB8D37"/>
<path d="M23.0321 76.1226L22.9307 78.3548L25.1629 78.4562L25.2643 76.224L23.0321 76.1226Z" fill="#BB8D37"/>
<path d="M25.5692 76.1226L25.4678 78.3548L27.7 78.4562L27.8014 76.224L25.5692 76.1226Z" fill="#BB8D37"/>
<path d="M28.1054 76.1226L28.0039 78.3548L30.2361 78.4562L30.3376 76.224L28.1054 76.1226Z" fill="#BB8D37"/>
<path d="M30.6425 76.1226L30.541 78.3548L32.7732 78.4562L32.8747 76.224L30.6425 76.1226Z" fill="#BB8D37"/>
<path d="M35.5127 76.2747L37.7956 76.021L38.0493 78.3039L35.7664 78.5576L35.5127 76.2747Z" fill="#BB8D37"/>
<path d="M65.9512 76.1478L68.3609 76.021L68.4878 78.4308L66.078 78.5576L65.9512 76.1478Z" fill="#BB8D37"/>
<path d="M73.5615 76.1478L75.9713 76.021L76.0981 78.4308L73.6884 78.5576L73.5615 76.1478Z" fill="#BB8D37"/>
<path d="M86.2441 76.4015L88.4002 76.021L88.7807 78.1771L86.6246 78.5576L86.2441 76.4015Z" fill="#BB8D37"/>
<path d="M10.3495 78.6597L10.248 80.8919L12.4802 80.9933L12.5817 78.7611L10.3495 78.6597Z" fill="#BB8D37"/>
<path d="M13.2416 78.5581L12.6836 80.5366L14.6621 81.0947L15.2202 79.1162L13.2416 78.5581Z" fill="#BB8D37"/>
<path d="M17.7568 78.8625L19.989 78.5581L20.2934 80.7903L18.0612 81.0947L17.7568 78.8625Z" fill="#BB8D37"/>
<path d="M20.496 78.6597L20.3945 80.8919L22.6267 80.9933L22.7282 78.7611L20.496 78.6597Z" fill="#BB8D37"/>
<path d="M22.8291 78.9893L24.9345 78.5581L25.3657 80.6635L23.2603 81.0947L22.8291 78.9893Z" fill="#BB8D37"/>
<path d="M30.6425 78.6597L30.541 80.8919L32.7732 80.9933L32.8747 78.7611L30.6425 78.6597Z" fill="#BB8D37"/>
<path d="M33.5336 78.5581L32.9756 80.5366L34.9541 81.0947L35.5122 79.1162L33.5336 78.5581Z" fill="#BB8D37"/>
<path d="M66.2809 78.5581L65.9512 80.7649L68.158 81.0947L68.4878 78.8879L66.2809 78.5581Z" fill="#BB8D37"/>
<path d="M68.6913 78.6597L68.5898 80.8919L70.822 80.9933L70.9235 78.7611L68.6913 78.6597Z" fill="#BB8D37"/>
<path d="M71.2274 78.6597L71.126 80.8919L73.3582 80.9933L73.4596 78.7611L71.2274 78.6597Z" fill="#BB8D37"/>
<path d="M73.7645 78.6597L73.6631 80.8919L75.8953 80.9933L75.9967 78.7611L73.7645 78.6597Z" fill="#BB8D37"/>
<path d="M76.6557 78.5581L76.0977 80.5366L78.0762 81.0947L78.6342 79.1162L76.6557 78.5581Z" fill="#BB8D37"/>
<path d="M81.1709 78.6849L83.5807 78.5581L83.7075 80.9679L81.2977 81.0947L81.1709 78.6849Z" fill="#BB8D37"/>
<path d="M10.4762 81.0942L10.1465 83.3011L12.3533 83.6308L12.6831 81.424L10.4762 81.0942Z" fill="#BB8D37"/>
<path d="M12.6836 81.5255L14.789 81.0942L15.2202 83.1996L13.1148 83.6308L12.6836 81.5255Z" fill="#BB8D37"/>
<path d="M17.7568 81.3479L20.0398 81.0942L20.2934 83.3772L18.0105 83.6308L17.7568 81.3479Z" fill="#BB8D37"/>
<path d="M28.0293 81.7285L29.8049 81.2212L30.3122 82.9968L28.5366 83.5041L28.0293 81.7285Z" fill="#BB8D37"/>
<path d="M30.6425 81.1958L30.541 83.428L32.7732 83.5295L32.8747 81.2973L30.6425 81.1958Z" fill="#BB8D37"/>
<path d="M33.1786 81.1958L33.0771 83.428L35.3093 83.5295L35.4108 81.2973L33.1786 81.1958Z" fill="#BB8D37"/>
<path d="M36.0707 81.0942L35.5127 83.0728L37.4912 83.6308L38.0493 81.6523L36.0707 81.0942Z" fill="#BB8D37"/>
<path d="M68.6913 81.1958L68.5898 83.428L70.822 83.5295L70.9235 81.2973L68.6913 81.1958Z" fill="#BB8D37"/>
<path d="M76.3007 81.1958L76.1992 83.428L78.4314 83.5295L78.5329 81.2973L76.3007 81.1958Z" fill="#BB8D37"/>
<path d="M78.8368 81.1958L78.7354 83.428L80.9675 83.5295L81.069 81.2973L78.8368 81.1958Z" fill="#BB8D37"/>
<path d="M81.3739 81.1958L81.2725 83.428L83.5047 83.5295L83.6061 81.2973L81.3739 81.1958Z" fill="#BB8D37"/>
<path d="M84.2661 81.0942L83.708 83.0728L85.6865 83.6308L86.2446 81.6523L84.2661 81.0942Z" fill="#BB8D37"/>
<path d="M91.3174 81.2211L93.7271 81.0942L93.854 83.504L91.4442 83.6308L91.3174 81.2211Z" fill="#BB8D37"/>
<path d="M5.07324 83.7577L7.483 83.6309L7.60983 86.0406L5.20007 86.1674L5.07324 83.7577Z" fill="#BB8D37"/>
<path d="M15.2197 83.7577L17.6295 83.6309L17.7563 86.0406L15.3466 86.1674L15.2197 83.7577Z" fill="#BB8D37"/>
<path d="M20.293 84.0113L22.4491 83.6309L22.8296 85.787L20.6735 86.1674L20.293 84.0113Z" fill="#BB8D37"/>
<path d="M25.3662 83.7577L27.776 83.6309L27.9028 86.0406L25.493 86.1674L25.3662 83.7577Z" fill="#BB8D37"/>
<path d="M33.3053 83.6309L32.9756 85.8377L35.1824 86.1674L35.5122 83.9606L33.3053 83.6309Z" fill="#BB8D37"/>
<path d="M35.7157 83.7324L35.6143 85.9646L37.8465 86.0661L37.9479 83.8339L35.7157 83.7324Z" fill="#BB8D37"/>
<path d="M48.1953 84.0113L50.3514 83.6309L50.7319 85.787L48.5758 86.1674L48.1953 84.0113Z" fill="#BB8D37"/>
<path d="M60.8779 83.9352L63.1101 83.6309L63.4145 85.8631L61.1823 86.1674L60.8779 83.9352Z" fill="#BB8D37"/>
<path d="M63.6181 83.7324L63.5166 85.9646L65.7488 86.0661L65.8503 83.8339L63.6181 83.7324Z" fill="#BB8D37"/>
<path d="M66.1542 83.7324L66.0527 85.9646L68.2849 86.0661L68.3864 83.8339L66.1542 83.7324Z" fill="#BB8D37"/>
<path d="M68.6913 83.7324L68.5898 85.9646L70.822 86.0661L70.9235 83.8339L68.6913 83.7324Z" fill="#BB8D37"/>
<path d="M73.6885 84.2651L75.4641 83.7578L75.9714 85.5334L74.1958 86.0407L73.6885 84.2651Z" fill="#BB8D37"/>
<path d="M76.3007 83.7324L76.1992 85.9646L78.4314 86.0661L78.5329 83.8339L76.3007 83.7324Z" fill="#BB8D37"/>
<path d="M78.6348 84.0621L80.7401 83.6309L81.1714 85.7362L79.066 86.1674L78.6348 84.0621Z" fill="#BB8D37"/>
<path d="M83.911 83.7324L83.8096 85.9646L86.0418 86.0661L86.1432 83.8339L83.911 83.7324Z" fill="#BB8D37"/>
<path d="M91.6471 83.6309L91.3174 85.8377L93.5242 86.1674L93.854 83.9606L91.6471 83.6309Z" fill="#BB8D37"/>
<path d="M94.2341 83.7578L93.9805 85.7871L96.0097 86.0407L96.2634 84.0115L94.2341 83.7578Z" fill="#BB8D37"/>
<path d="M5.403 86.1675L5.07324 88.3743L7.28007 88.7041L7.60983 86.4972L5.403 86.1675Z" fill="#BB8D37"/>
<path d="M7.81338 86.269L7.71191 88.5012L9.94411 88.6027L10.0456 86.3705L7.81338 86.269Z" fill="#BB8D37"/>
<path d="M10.5271 86.2944L10.2734 88.3237L12.3027 88.5774L12.5564 86.5481L10.5271 86.2944Z" fill="#BB8D37"/>
<path d="M15.5495 86.1675L15.2197 88.3743L17.4266 88.7041L17.7563 86.4972L15.5495 86.1675Z" fill="#BB8D37"/>
<path d="M18.1365 86.2944L17.8828 88.3237L19.9121 88.5774L20.1657 86.5481L18.1365 86.2944Z" fill="#BB8D37"/>
<path d="M22.9561 86.8018L24.7317 86.2944L25.239 88.07L23.4634 88.5774L22.9561 86.8018Z" fill="#BB8D37"/>
<path d="M25.5692 86.269L25.4678 88.5012L27.7 88.6027L27.8014 86.3705L25.5692 86.269Z" fill="#BB8D37"/>
<path d="M28.1054 86.269L28.0039 88.5012L30.2361 88.6027L30.3376 86.3705L28.1054 86.269Z" fill="#BB8D37"/>
<path d="M30.9975 86.1675L30.4395 88.146L32.418 88.7041L32.976 86.7255L30.9975 86.1675Z" fill="#BB8D37"/>
<path d="M35.5127 86.4211L37.7956 86.1675L38.0493 88.4504L35.7664 88.7041L35.5127 86.4211Z" fill="#BB8D37"/>
<path d="M40.5859 86.4719L42.8181 86.1675L43.1225 88.3997L40.8903 88.7041L40.5859 86.4719Z" fill="#BB8D37"/>
<path d="M43.5027 86.2944L43.249 88.3237L45.2783 88.5774L45.532 86.5481L43.5027 86.2944Z" fill="#BB8D37"/>
<path d="M50.8584 86.8018L52.634 86.2944L53.1413 88.07L51.3657 88.5774L50.8584 86.8018Z" fill="#BB8D37"/>
<path d="M53.6492 86.2944L53.3955 88.3237L55.4248 88.5774L55.6784 86.5481L53.6492 86.2944Z" fill="#BB8D37"/>
<path d="M58.3418 86.4719L60.574 86.1675L60.8784 88.3997L58.6462 88.7041L58.3418 86.4719Z" fill="#BB8D37"/>
<path d="M60.8779 86.5987L62.9833 86.1675L63.4145 88.2728L61.3091 88.7041L60.8779 86.5987Z" fill="#BB8D37"/>
<path d="M68.6913 86.269L68.5898 88.5012L70.822 88.6027L70.9235 86.3705L68.6913 86.269Z" fill="#BB8D37"/>
<path d="M71.5825 86.1675L71.0244 88.146L73.003 88.7041L73.561 86.7255L71.5825 86.1675Z" fill="#BB8D37"/>
<path d="M81.2979 86.8018L83.0735 86.2944L83.5808 88.07L81.8052 88.5774L81.2979 86.8018Z" fill="#BB8D37"/>
<path d="M83.911 86.269L83.8096 88.5012L86.0418 88.6027L86.1432 86.3705L83.911 86.269Z" fill="#BB8D37"/>
<path d="M86.8022 86.1675L86.2441 88.146L88.2227 88.7041L88.7807 86.7255L86.8022 86.1675Z" fill="#BB8D37"/>
<path d="M20.293 89.0846L22.4491 88.7041L22.8296 90.8602L20.6735 91.2407L20.293 89.0846Z" fill="#BB8D37"/>
<path d="M30.6425 88.8057L30.541 91.0379L32.7732 91.1393L32.8747 88.9071L30.6425 88.8057Z" fill="#BB8D37"/>
<path d="M40.789 88.8057L40.6875 91.0379L42.9197 91.1393L43.0212 88.9071L40.789 88.8057Z" fill="#BB8D37"/>
<path d="M48.1953 89.0846L50.3514 88.7041L50.7319 90.8602L48.5758 91.2407L48.1953 89.0846Z" fill="#BB8D37"/>
<path d="M58.5448 88.8057L58.4434 91.0379L60.6756 91.1393L60.777 88.9071L58.5448 88.8057Z" fill="#BB8D37"/>
<path d="M68.818 88.7041L68.4883 90.9109L70.6951 91.2407L71.0249 89.0339L68.818 88.7041Z" fill="#BB8D37"/>
<path d="M71.2274 88.8057L71.126 91.0379L73.3582 91.1393L73.4596 88.9071L71.2274 88.8057Z" fill="#BB8D37"/>
<path d="M74.1196 88.7041L73.5615 90.6826L75.5401 91.2407L76.0981 89.2622L74.1196 88.7041Z" fill="#BB8D37"/>
<path d="M78.6348 89.0846L80.7909 88.7041L81.1714 90.8602L79.0153 91.2407L78.6348 89.0846Z" fill="#BB8D37"/>
<path d="M86.2441 88.9578L88.5271 88.7041L88.7807 90.987L86.4978 91.2407L86.2441 88.9578Z" fill="#BB8D37"/>
<path d="M91.3174 89.0085L93.5496 88.7041L93.854 90.9363L91.6218 91.2407L91.3174 89.0085Z" fill="#BB8D37"/>
<path d="M94.2341 88.8311L93.9805 90.8603L96.0097 91.114L96.2634 89.0847L94.2341 88.8311Z" fill="#BB8D37"/>
<path d="M10.2734 91.875L12.049 91.3677L12.5564 93.1433L10.7808 93.6506L10.2734 91.875Z" fill="#BB8D37"/>
<path d="M13.2416 91.2412L12.6836 93.2197L14.6621 93.7778L15.2202 91.7993L13.2416 91.2412Z" fill="#BB8D37"/>
<path d="M17.7568 91.368L20.1666 91.2412L20.2934 93.651L17.8837 93.7778L17.7568 91.368Z" fill="#BB8D37"/>
<path d="M25.4932 91.875L27.2688 91.3677L27.7761 93.1433L26.0005 93.6506L25.4932 91.875Z" fill="#BB8D37"/>
<path d="M28.1054 91.3423L28.0039 93.5745L30.2361 93.6759L30.3376 91.4437L28.1054 91.3423Z" fill="#BB8D37"/>
<path d="M30.6425 91.3423L30.541 93.5745L32.7732 93.6759L32.8747 91.4437L30.6425 91.3423Z" fill="#BB8D37"/>
<path d="M33.1786 91.3423L33.0771 93.5745L35.3093 93.6759L35.4108 91.4437L33.1786 91.3423Z" fill="#BB8D37"/>
<path d="M36.0707 91.2412L35.5127 93.2197L37.4912 93.7778L38.0493 91.7993L36.0707 91.2412Z" fill="#BB8D37"/>
<path d="M40.789 91.3423L40.6875 93.5745L42.9197 93.6759L43.0212 91.4437L40.789 91.3423Z" fill="#BB8D37"/>
<path d="M43.5027 91.3677L43.249 93.3969L45.2783 93.6506L45.532 91.6213L43.5027 91.3677Z" fill="#BB8D37"/>
<path d="M55.8047 91.5456L58.0369 91.2412L58.3413 93.4734L56.1091 93.7778L55.8047 91.5456Z" fill="#BB8D37"/>
<path d="M58.5448 91.3423L58.4434 93.5745L60.6756 93.6759L60.777 91.4437L58.5448 91.3423Z" fill="#BB8D37"/>
<path d="M61.436 91.2412L60.8779 93.2197L62.8565 93.7778L63.4145 91.7993L61.436 91.2412Z" fill="#BB8D37"/>
<path d="M65.9512 91.368L68.3609 91.2412L68.4878 93.651L66.078 93.7778L65.9512 91.368Z" fill="#BB8D37"/>
<path d="M71.3542 91.2412L71.0244 93.448L73.2312 93.7778L73.561 91.571L71.3542 91.2412Z" fill="#BB8D37"/>
<path d="M73.7645 91.3423L73.6631 93.5745L75.8953 93.6759L75.9967 91.4437L73.7645 91.3423Z" fill="#BB8D37"/>
<path d="M76.6557 91.2412L76.0977 93.2197L78.0762 93.7778L78.6342 91.7993L76.6557 91.2412Z" fill="#BB8D37"/>
<path d="M81.1709 91.368L83.5807 91.2412L83.7075 93.651L81.2977 93.7778L81.1709 91.368Z" fill="#BB8D37"/>
<path d="M91.5204 91.3423L91.4189 93.5745L93.6511 93.6759L93.7526 91.4437L91.5204 91.3423Z" fill="#BB8D37"/>
<path d="M5.2002 94.4116L6.97581 93.9043L7.48312 95.6799L5.70751 96.1872L5.2002 94.4116Z" fill="#BB8D37"/>
<path d="M7.99096 93.9043L7.7373 95.9336L9.76657 96.1872L10.0202 94.158L7.99096 93.9043Z" fill="#BB8D37"/>
<path d="M12.6836 94.031L14.9665 93.7773L15.2202 96.0603L12.9373 96.3139L12.6836 94.031Z" fill="#BB8D37"/>
<path d="M18.0866 93.7773L17.7568 95.9842L19.9637 96.3139L20.2934 94.1071L18.0866 93.7773Z" fill="#BB8D37"/>
<path d="M20.6736 93.9043L20.4199 95.9336L22.4492 96.1872L22.7028 94.158L20.6736 93.9043Z" fill="#BB8D37"/>
<path d="M28.1054 93.8789L28.0039 96.1111L30.2361 96.2126L30.3376 93.9804L28.1054 93.8789Z" fill="#BB8D37"/>
<path d="M30.4395 94.2086L32.5448 93.7773L32.976 95.8827L30.8707 96.3139L30.4395 94.2086Z" fill="#BB8D37"/>
<path d="M35.8425 93.7773L35.5127 95.9842L37.7195 96.3139L38.0493 94.1071L35.8425 93.7773Z" fill="#BB8D37"/>
<path d="M38.2519 93.8789L38.1504 96.1111L40.3826 96.2126L40.484 93.9804L38.2519 93.8789Z" fill="#BB8D37"/>
<path d="M40.5859 94.2086L42.6913 93.7773L43.1225 95.8827L41.0172 96.3139L40.5859 94.2086Z" fill="#BB8D37"/>
<path d="M48.3223 94.4116L50.0979 93.9043L50.6052 95.6799L48.8296 96.1872L48.3223 94.4116Z" fill="#BB8D37"/>
<path d="M50.9345 93.8789L50.833 96.1111L53.0652 96.2126L53.1667 93.9804L50.9345 93.8789Z" fill="#BB8D37"/>
<path d="M53.4716 93.8789L53.3701 96.1111L55.6023 96.2126L55.7038 93.9804L53.4716 93.8789Z" fill="#BB8D37"/>
<path d="M56.0077 93.8789L55.9062 96.1111L58.1384 96.2126L58.2399 93.9804L56.0077 93.8789Z" fill="#BB8D37"/>
<path d="M61.2077 93.7773L60.8779 95.9842L63.0848 96.3139L63.4145 94.1071L61.2077 93.7773Z" fill="#BB8D37"/>
<path d="M63.6181 93.8789L63.5166 96.1111L65.7488 96.2126L65.8503 93.9804L63.6181 93.8789Z" fill="#BB8D37"/>
<path d="M65.9512 94.2086L68.0565 93.7773L68.4878 95.8827L66.3824 96.3139L65.9512 94.2086Z" fill="#BB8D37"/>
<path d="M76.3007 93.8789L76.1992 96.1111L78.4314 96.2126L78.5329 93.9804L76.3007 93.8789Z" fill="#BB8D37"/>
<path d="M78.8368 93.8789L78.7354 96.1111L80.9675 96.2126L81.069 93.9804L78.8368 93.8789Z" fill="#BB8D37"/>
<path d="M81.3739 93.8789L81.2725 96.1111L83.5047 96.2126L83.6061 93.9804L81.3739 93.8789Z" fill="#BB8D37"/>
<path d="M83.911 93.8789L83.8096 96.1111L86.0418 96.2126L86.1432 93.9804L83.911 93.8789Z" fill="#BB8D37"/>
<path d="M86.4472 93.8789L86.3457 96.1111L88.5779 96.2126L88.6794 93.9804L86.4472 93.8789Z" fill="#BB8D37"/>
<path d="M88.9833 93.8789L88.8818 96.1111L91.114 96.2126L91.2155 93.9804L88.9833 93.8789Z" fill="#BB8D37"/>
<path d="M91.5204 93.8789L91.4189 96.1111L93.6511 96.2126L93.7526 93.9804L91.5204 93.8789Z" fill="#BB8D37"/>
<path d="M94.4116 93.7773L93.8535 95.7559L95.8321 96.3139L96.3901 94.3354L94.4116 93.7773Z" fill="#BB8D37"/>
<path d="M25.3662 96.6184L27.5984 96.314L27.9028 98.5462L25.6706 98.8506L25.3662 96.6184Z" fill="#BB8D37"/>
<path d="M28.1054 96.4155L28.0039 98.6477L30.2361 98.7492L30.3376 96.517L28.1054 96.4155Z" fill="#BB8D37"/>
<path d="M32.9756 96.6945L35.1317 96.314L35.5122 98.4701L33.3561 98.8506L32.9756 96.6945Z" fill="#BB8D37"/>
<path d="M53.5983 96.314L53.2686 98.5208L55.4754 98.8506L55.8051 96.6437L53.5983 96.314Z" fill="#BB8D37"/>
<path d="M56.0077 96.4155L55.9062 98.6477L58.1384 98.7492L58.2399 96.517L56.0077 96.4155Z" fill="#BB8D37"/>
<path d="M58.8998 96.314L58.3418 98.2925L60.3203 98.8506L60.8784 96.872L58.8998 96.314Z" fill="#BB8D37"/>
<path d="M63.6181 96.4155L63.5166 98.6477L65.7488 98.7492L65.8503 96.517L63.6181 96.4155Z" fill="#BB8D37"/>
<path d="M68.4883 96.6945L70.6444 96.314L71.0249 98.4701L68.8688 98.8506L68.4883 96.6945Z" fill="#BB8D37"/>
<path d="M76.3007 96.4155L76.1992 98.6477L78.4314 98.7492L78.5329 96.517L76.3007 96.4155Z" fill="#BB8D37"/>
<path d="M86.4472 96.4155L86.3457 98.6477L88.5779 98.7492L88.6794 96.517L86.4472 96.4155Z" fill="#BB8D37"/>
<path d="M88.9833 96.4155L88.8818 98.6477L91.114 98.7492L91.2155 96.517L88.9833 96.4155Z" fill="#BB8D37"/>
<path d="M93.8535 96.5676L96.1364 96.314L96.3901 98.5969L94.1072 98.8506L93.8535 96.5676Z" fill="#BB8D37"/>
<path d="M25.5692 98.9521L25.4678 101.184L27.7 101.286L27.8014 99.0536L25.5692 98.9521Z" fill="#BB8D37"/>
<path d="M28.1054 98.9521L28.0039 101.184L30.2361 101.286L30.3376 99.0536L28.1054 98.9521Z" fill="#BB8D37"/>
<path d="M48.1953 98.9774L50.6051 98.8506L50.7319 101.26L48.3221 101.387L48.1953 98.9774Z" fill="#BB8D37"/>
<path d="M56.1344 98.8506L55.8047 101.057L58.0115 101.387L58.3413 99.1803L56.1344 98.8506Z" fill="#BB8D37"/>
<path d="M58.5448 98.9521L58.4434 101.184L60.6756 101.286L60.777 99.0536L58.5448 98.9521Z" fill="#BB8D37"/>
<path d="M63.6181 98.9521L63.5166 101.184L65.7488 101.286L65.8503 99.0536L63.6181 98.9521Z" fill="#BB8D37"/>
<path d="M76.3007 98.9521L76.1992 101.184L78.4314 101.286L78.5329 99.0536L76.3007 98.9521Z" fill="#BB8D37"/>
<path d="M81.1709 99.2311L83.327 98.8506L83.7075 101.007L81.5514 101.387L81.1709 99.2311Z" fill="#BB8D37"/>
<path d="M86.4472 98.9521L86.3457 101.184L88.5779 101.286L88.6794 99.0536L86.4472 98.9521Z" fill="#BB8D37"/>
<path d="M88.9833 98.9521L88.8818 101.184L91.114 101.286L91.2155 99.0536L88.9833 98.9521Z" fill="#BB8D37"/>
<path d="M91.8754 98.8506L91.3174 100.829L93.2959 101.387L93.854 99.4086L91.8754 98.8506Z" fill="#BB8D37"/>
<path d="M25.5692 101.488L25.4678 103.72L27.7 103.822L27.8014 101.59L25.5692 101.488Z" fill="#BB8D37"/>
<path d="M28.1054 101.488L28.0039 103.72L30.2361 103.822L30.3376 101.59L28.1054 101.488Z" fill="#BB8D37"/>
<path d="M30.6425 101.488L30.541 103.72L32.7732 103.822L32.8747 101.59L30.6425 101.488Z" fill="#BB8D37"/>
<path d="M33.1786 101.488L33.0771 103.72L35.3093 103.822L35.4108 101.59L33.1786 101.488Z" fill="#BB8D37"/>
<path d="M35.7157 101.488L35.6143 103.72L37.8465 103.822L37.9479 101.59L35.7157 101.488Z" fill="#BB8D37"/>
<path d="M38.4294 101.514L38.1758 103.543L40.205 103.797L40.4587 101.767L38.4294 101.514Z" fill="#BB8D37"/>
<path d="M45.6582 101.691L47.8904 101.387L48.1948 103.619L45.9626 103.923L45.6582 101.691Z" fill="#BB8D37"/>
<path d="M48.1953 101.818L50.3007 101.387L50.7319 103.492L48.6265 103.923L48.1953 101.818Z" fill="#BB8D37"/>
<path d="M58.5448 101.488L58.4434 103.72L60.6756 103.822L60.777 101.59L58.5448 101.488Z" fill="#BB8D37"/>
<path d="M63.415 101.64L65.698 101.387L65.9516 103.67L63.6687 103.923L63.415 101.64Z" fill="#BB8D37"/>
<path d="M71.0244 101.767L73.1805 101.387L73.561 103.543L71.4049 103.923L71.0244 101.767Z" fill="#BB8D37"/>
<path d="M76.3007 101.488L76.1992 103.72L78.4314 103.822L78.5329 101.59L76.3007 101.488Z" fill="#BB8D37"/>
<path d="M86.4472 101.488L86.3457 103.72L88.5779 103.822L88.6794 101.59L86.4472 101.488Z" fill="#BB8D37"/>
<path d="M91.5204 101.488L91.4189 103.72L93.6511 103.822L93.7526 101.59L91.5204 101.488Z" fill="#BB8D37"/>
<path d="M96.3906 101.514L98.8004 101.387L98.9272 103.796L96.5175 103.923L96.3906 101.514Z" fill="#BB8D37"/>
<path d="M25.696 103.924L25.3662 106.131L27.573 106.46L27.9028 104.254L25.696 103.924Z" fill="#BB8D37"/>
<path d="M28.1054 104.025L28.0039 106.258L30.2361 106.359L30.3376 104.127L28.1054 104.025Z" fill="#BB8D37"/>
<path d="M30.4395 104.355L32.5448 103.924L32.976 106.029L30.8707 106.46L30.4395 104.355Z" fill="#BB8D37"/>
<path d="M40.5859 104.051L42.9957 103.924L43.1225 106.334L40.7128 106.46L40.5859 104.051Z" fill="#BB8D37"/>
<path d="M45.6582 104.177L47.9411 103.924L48.1948 106.207L45.9119 106.46L45.6582 104.177Z" fill="#BB8D37"/>
<path d="M50.7324 104.304L52.8885 103.924L53.269 106.08L51.1129 106.46L50.7324 104.304Z" fill="#BB8D37"/>
<path d="M58.3418 104.177L60.6247 103.924L60.8784 106.207L58.5955 106.46L58.3418 104.177Z" fill="#BB8D37"/>
<path d="M76.3007 104.025L76.1992 106.258L78.4314 106.359L78.5329 104.127L76.3007 104.025Z" fill="#BB8D37"/>
<path d="M78.8368 104.025L78.7354 106.258L80.9675 106.359L81.069 104.127L78.8368 104.025Z" fill="#BB8D37"/>
<path d="M81.3739 104.025L81.2725 106.258L83.5047 106.359L83.6061 104.127L81.3739 104.025Z" fill="#BB8D37"/>
<path d="M83.911 104.025L83.8096 106.258L86.0418 106.359L86.1432 104.127L83.911 104.025Z" fill="#BB8D37"/>
<path d="M86.4472 104.025L86.3457 106.258L88.5779 106.359L88.6794 104.127L86.4472 104.025Z" fill="#BB8D37"/>
<path d="M88.9833 104.025L88.8818 106.258L91.114 106.359L91.2155 104.127L88.9833 104.025Z" fill="#BB8D37"/>
<path d="M91.5204 104.025L91.4189 106.258L93.6511 106.359L93.7526 104.127L91.5204 104.025Z" fill="#BB8D37"/>
<path d="M94.0565 104.025L93.9551 106.258L96.1873 106.359L96.2887 104.127L94.0565 104.025Z" fill="#BB8D37"/>
<path d="M96.3906 104.355L98.496 103.924L98.9272 106.029L96.8218 106.46L96.3906 104.355Z" fill="#BB8D37"/>
<path d="M33.1025 107.094L34.8781 106.587L35.3855 108.363L33.6099 108.87L33.1025 107.094Z" fill="#BB8D37"/>
<path d="M36.0707 106.46L35.5127 108.439L37.4912 108.997L38.0493 107.018L36.0707 106.46Z" fill="#BB8D37"/>
<path d="M40.789 106.562L40.6875 108.794L42.9197 108.895L43.0212 106.663L40.789 106.562Z" fill="#BB8D37"/>
<path d="M53.2686 106.587L55.6783 106.46L55.8051 108.87L53.3954 108.997L53.2686 106.587Z" fill="#BB8D37"/>
<path d="M65.9512 106.587L68.3609 106.46L68.4878 108.87L66.078 108.997L65.9512 106.587Z" fill="#BB8D37"/>
<path d="M71.0244 106.587L73.4342 106.46L73.561 108.87L71.1512 108.997L71.0244 106.587Z" fill="#BB8D37"/>
<path d="M76.0977 106.714L78.3806 106.46L78.6342 108.743L76.3513 108.997L76.0977 106.714Z" fill="#BB8D37"/>
<path d="M81.3739 106.562L81.2725 108.794L83.5047 108.895L83.6061 106.663L81.3739 106.562Z" fill="#BB8D37"/>
<path d="M83.911 106.562L83.8096 108.794L86.0418 108.895L86.1432 106.663L83.911 106.562Z" fill="#BB8D37"/>
<path d="M91.5204 106.562L91.4189 108.794L93.6511 108.895L93.7526 106.663L91.5204 106.562Z" fill="#BB8D37"/>
<path d="M27.9023 109.377L30.0584 108.997L30.4389 111.153L28.2828 111.533L27.9023 109.377Z" fill="#BB8D37"/>
<path d="M35.7157 109.098L35.6143 111.33L37.8465 111.432L37.9479 109.2L35.7157 109.098Z" fill="#BB8D37"/>
<path d="M40.5859 109.25L42.8689 108.997L43.1225 111.28L40.8396 111.533L40.5859 109.25Z" fill="#BB8D37"/>
<path d="M48.1953 109.123L50.6051 108.997L50.7319 111.406L48.3221 111.533L48.1953 109.123Z" fill="#BB8D37"/>
<path d="M53.5983 108.997L53.2686 111.203L55.4754 111.533L55.8051 109.326L53.5983 108.997Z" fill="#BB8D37"/>
<path d="M56.1853 109.124L55.9316 111.153L57.9609 111.406L58.2146 109.377L56.1853 109.124Z" fill="#BB8D37"/>
<path d="M63.415 109.301L65.6472 108.997L65.9516 111.229L63.7194 111.533L63.415 109.301Z" fill="#BB8D37"/>
<path d="M66.1542 109.098L66.0527 111.33L68.2849 111.432L68.3864 109.2L66.1542 109.098Z" fill="#BB8D37"/>
<path d="M68.6913 109.098L68.5898 111.33L70.822 111.432L70.9235 109.2L68.6913 109.098Z" fill="#BB8D37"/>
<path d="M71.2274 109.098L71.126 111.33L73.3582 111.432L73.4596 109.2L71.2274 109.098Z" fill="#BB8D37"/>
<path d="M81.5007 108.997L81.1709 111.203L83.3777 111.533L83.7075 109.326L81.5007 108.997Z" fill="#BB8D37"/>
<path d="M83.911 109.098L83.8096 111.33L86.0418 111.432L86.1432 109.2L83.911 109.098Z" fill="#BB8D37"/>
<path d="M91.5204 109.098L91.4189 111.33L93.6511 111.432L93.7526 109.2L91.5204 109.098Z" fill="#BB8D37"/>
<path d="M94.4116 108.997L93.8535 110.975L95.8321 111.533L96.3901 109.555L94.4116 108.997Z" fill="#BB8D37"/>
<path d="M35.7157 111.635L35.6143 113.867L37.8465 113.969L37.9479 111.737L35.7157 111.635Z" fill="#BB8D37"/>
<path d="M38.4294 111.66L38.1758 113.689L40.205 113.943L40.4587 111.914L38.4294 111.66Z" fill="#BB8D37"/>
<path d="M43.1221 111.661L45.5318 111.534L45.6587 113.943L43.2489 114.07L43.1221 111.661Z" fill="#BB8D37"/>
<path d="M48.3983 111.635L48.2969 113.867L50.5291 113.969L50.6305 111.737L48.3983 111.635Z" fill="#BB8D37"/>
<path d="M60.8779 111.838L63.1101 111.534L63.4145 113.766L61.1823 114.07L60.8779 111.838Z" fill="#BB8D37"/>
<path d="M63.415 111.965L65.5204 111.534L65.9516 113.639L63.8463 114.07L63.415 111.965Z" fill="#BB8D37"/>
<path d="M71.3542 111.534L71.0244 113.741L73.2312 114.07L73.561 111.863L71.3542 111.534Z" fill="#BB8D37"/>
<path d="M74.1196 111.534L73.5615 113.512L75.5401 114.07L76.0981 112.092L74.1196 111.534Z" fill="#BB8D37"/>
<path d="M84.0378 111.534L83.708 113.741L85.9148 114.07L86.2446 111.863L84.0378 111.534Z" fill="#BB8D37"/>
<path d="M86.6248 111.66L86.3711 113.689L88.4004 113.943L88.654 111.914L86.6248 111.66Z" fill="#BB8D37"/>
<path d="M91.5204 111.635L91.4189 113.867L93.6511 113.969L93.7526 111.737L91.5204 111.635Z" fill="#BB8D37"/>
<path d="M94.0565 111.635L93.9551 113.867L96.1873 113.969L96.2887 111.737L94.0565 111.635Z" fill="#BB8D37"/>
<path d="M35.5127 114.323L37.7956 114.07L38.0493 116.353L35.7664 116.606L35.5127 114.323Z" fill="#BB8D37"/>
<path d="M43.4518 114.07L43.1221 116.277L45.3289 116.606L45.6587 114.4L43.4518 114.07Z" fill="#BB8D37"/>
<path d="M45.8612 114.171L45.7598 116.404L47.992 116.505L48.0934 114.273L45.8612 114.171Z" fill="#BB8D37"/>
<path d="M48.3983 114.171L48.2969 116.404L50.5291 116.505L50.6305 114.273L48.3983 114.171Z" fill="#BB8D37"/>
<path d="M51.1121 114.197L50.8584 116.226L52.8877 116.48L53.1413 114.45L51.1121 114.197Z" fill="#BB8D37"/>
<path d="M60.8779 114.323L63.1609 114.07L63.4145 116.353L61.1316 116.606L60.8779 114.323Z" fill="#BB8D37"/>
<path d="M73.5615 114.323L75.8445 114.07L76.0981 116.353L73.8152 116.606L73.5615 114.323Z" fill="#BB8D37"/>
<path d="M81.1709 114.45L83.327 114.07L83.7075 116.226L81.5514 116.606L81.1709 114.45Z" fill="#BB8D37"/>
<path d="M91.6471 114.07L91.3174 116.277L93.5242 116.606L93.854 114.4L91.6471 114.07Z" fill="#BB8D37"/>
<path d="M94.0565 114.171L93.9551 116.404L96.1873 116.505L96.2887 114.273L94.0565 114.171Z" fill="#BB8D37"/>
<path d="M96.7712 114.197L96.5176 116.226L98.5468 116.48L98.8005 114.45L96.7712 114.197Z" fill="#BB8D37"/>
<path d="M20.1659 22.7529H7.73666H5.07324V25.4163V37.8456V40.509H7.73666H20.1659H22.8293V37.8456V25.4163V22.7529H20.1659ZM20.1659 37.8456H7.73666V25.4163H20.1659V37.8456Z" fill="#BB8D37"/>
<path d="M96.2636 22.7529H83.8343H81.1709V25.4163V37.8456V40.509H83.8343H96.2636H98.927V37.8456V25.4163V22.7529H96.2636ZM96.2636 37.8456H83.8343V25.4163H96.2636V37.8456Z" fill="#BB8D37"/>
<path d="M20.1659 98.8506H7.73666H5.07324V101.514V113.943V116.607H7.73666H20.1659H22.8293V113.943V101.514V98.8506H20.1659ZM20.1659 113.943H7.73666V101.514H20.1659V113.943Z" fill="#BB8D37"/>
<path d="M17.7562 27.8262H10.1465V35.4359H17.7562V27.8262Z" fill="#BB8D37"/>
<path d="M93.8539 27.8262H86.2441V35.4359H93.8539V27.8262Z" fill="#BB8D37"/>
<path d="M17.7562 103.924H10.1465V111.534H17.7562V103.924Z" fill="#BB8D37"/>
<g clip-path="url(#clip1_391_41168)">
<path d="M52 83.631C59.7051 83.631 65.9513 77.3848 65.9513 69.6797C65.9513 61.9747 59.7051 55.7285 52 55.7285C44.295 55.7285 38.0488 61.9747 38.0488 69.6797C38.0488 77.3848 44.295 83.631 52 83.631Z" fill="#BB8D37"/>
<path d="M55.9971 78.399H48.0044C45.4001 78.399 43.2812 76.2804 43.2812 73.6758V65.6831C43.2812 63.0786 45.4001 60.96 48.0044 60.96H55.9971C58.6017 60.96 60.7203 63.0786 60.7203 65.6831V73.6761C60.7203 76.2804 58.6017 78.399 55.9971 78.399ZM48.0044 62.4133C46.2014 62.4133 44.7346 63.8801 44.7346 65.6831V73.6761C44.7346 75.479 46.2014 76.9459 48.0044 76.9459H55.9971C57.8001 76.9459 59.267 75.479 59.267 73.6761V65.6831C59.267 63.8801 57.8001 62.4133 55.9971 62.4133H48.0044Z" fill="white"/>
<path d="M52.0004 74.0393C49.5964 74.0393 47.6406 72.0833 47.6406 69.6796C47.6406 67.2754 49.5964 65.3198 52.0004 65.3198C54.4044 65.3198 56.3601 67.2754 56.3601 69.6796C56.3601 72.0833 54.4044 74.0393 52.0004 74.0393ZM52.0004 66.7731C50.3977 66.7731 49.0939 68.0769 49.0939 69.6796C49.0939 71.2824 50.3977 72.586 52.0004 72.586C53.603 72.586 54.9068 71.2824 54.9068 69.6796C54.9068 68.0769 53.6032 66.7731 52.0004 66.7731Z" fill="white"/>
<path d="M56.6328 66.0464C57.1846 66.0464 57.6319 65.5991 57.6319 65.0474C57.6319 64.4956 57.1846 64.0483 56.6328 64.0483C56.0811 64.0483 55.6338 64.4956 55.6338 65.0474C55.6338 65.5991 56.0811 66.0464 56.6328 66.0464Z" fill="white"/>
</g>
<path d="M8.9659 7.50293C8.9659 8.16617 8.99346 8.89472 9.04858 9.68858C9.06362 9.98503 9.08116 10.1961 9.1012 10.3217L9.12375 10.5478H6.33496C6.3951 10.0755 6.4427 9.50519 6.47778 8.83693C6.49282 8.49024 6.50033 8.1109 6.50033 7.69889V6.86231C6.50033 6.25435 6.47277 5.58107 6.41765 4.84247C6.3976 4.60632 6.37004 4.34002 6.33496 4.04358L9.12375 3.83255L9.0561 4.57869C9.03605 4.78971 9.02352 4.98567 9.01851 5.16655C9.12375 4.97562 9.26657 4.79223 9.44698 4.61637C9.62739 4.44051 9.82784 4.28224 10.0483 4.14156C10.5194 3.85516 10.988 3.71196 11.454 3.71196C12.4813 3.71196 13.228 3.9858 13.6941 4.53346C14.0699 4.98567 14.2578 5.63885 14.2578 6.49301V7.72904C14.2578 8.59827 14.2804 9.30924 14.3255 9.86193C14.3455 10.1333 14.3681 10.3619 14.3931 10.5478H11.6194C11.6695 10.1408 11.7146 9.59563 11.7547 8.9123C11.7697 8.58571 11.7772 8.22897 11.7772 7.84209V6.97536C11.7772 6.30208 11.6745 5.80968 11.469 5.49817C11.2686 5.18665 10.9378 5.03089 10.4768 5.03089C10.2563 5.03089 10.0508 5.10123 9.86041 5.24192C9.67499 5.3826 9.51463 5.57353 9.37933 5.81471C9.24903 6.04583 9.1463 6.30962 9.07113 6.60606C9.00097 6.90251 8.9659 7.20146 8.9659 7.50293Z" fill="#5C5956"/>
<path d="M20.0368 3.71196C20.4528 3.71196 20.8737 3.75969 21.2997 3.85516C21.7808 3.96067 22.1666 4.12899 22.4573 4.36012C22.7981 4.62642 22.9685 4.94799 22.9685 5.32482C22.9685 5.59112 22.9208 5.79963 22.8256 5.95037C22.7505 6.07598 22.6302 6.17647 22.4648 6.25184L23.1864 6.23676C23.3468 6.23676 23.4596 6.23425 23.5247 6.22923H23.6826L23.5097 7.10349H23.1864C23.011 7.10349 22.8757 7.10098 22.7805 7.09595H21.8635L18.3906 7.10349C18.3856 7.13363 18.3831 7.17885 18.3831 7.23915V7.38235C18.3881 8.14104 18.5635 8.73896 18.9093 9.17609C19.0546 9.36702 19.2225 9.51273 19.4129 9.61322C19.6084 9.70868 19.8113 9.75641 20.0218 9.75641C20.4227 9.75641 20.8211 9.68607 21.217 9.54539C21.4676 9.45495 21.7131 9.33687 21.9537 9.19116L22.119 10.0277C21.9487 10.2187 21.6279 10.3945 21.1569 10.5553C20.7008 10.7111 20.2624 10.7889 19.8414 10.7889C19.2952 10.7889 18.779 10.7186 18.2929 10.5779C17.8068 10.4423 17.3834 10.2337 17.0225 9.95237C16.6317 9.65592 16.3285 9.28663 16.113 8.84447C15.8975 8.40232 15.7898 7.88479 15.7898 7.29191C15.7898 6.44277 16.0103 5.7318 16.4513 5.15901C16.8421 4.65154 17.3758 4.27722 18.0524 4.03604C18.6487 3.81999 19.3102 3.71196 20.0368 3.71196ZM19.9993 4.74449C19.8389 4.74449 19.681 4.77464 19.5257 4.83493C19.3703 4.89523 19.2275 4.98316 19.0972 5.09872C18.7965 5.36502 18.5911 5.73432 18.4808 6.20662H20.2248C20.4252 6.20662 20.5931 6.16642 20.7284 6.08603C20.8938 5.98052 20.9765 5.82727 20.9765 5.62629C20.9765 5.35497 20.8888 5.14143 20.7134 4.98567C20.543 4.82489 20.3049 4.74449 19.9993 4.74449Z" fill="#5C5956"/>
<path d="M28.5726 10.7889C28.0263 10.7839 27.5027 10.7111 27.0015 10.5704C26.5054 10.4297 26.0669 10.2212 25.6861 9.94483C25.2801 9.64839 24.9619 9.27909 24.7314 8.83693C24.5059 8.39478 24.3932 7.87977 24.3932 7.29191C24.3932 6.45282 24.6086 5.74688 25.0396 5.17409C25.4104 4.68169 25.9366 4.30736 26.6182 4.05112C27.1995 3.83506 27.856 3.72201 28.5876 3.71196C29.3243 3.71196 30.0083 3.83255 30.6397 4.07373C31.3012 4.335 31.8199 4.71435 32.1957 5.21177C32.6117 5.76446 32.8197 6.43021 32.8197 7.209C32.8197 8.05814 32.6017 8.76659 32.1657 9.33436C31.7798 9.83681 31.2461 10.2111 30.5646 10.4573C29.9482 10.6784 29.2842 10.7889 28.5726 10.7889ZM26.9865 7.24669C26.9865 8.08075 27.1594 8.72388 27.5052 9.17609C27.6505 9.36702 27.8184 9.51273 28.0088 9.61322C28.2042 9.70868 28.4072 9.75641 28.6177 9.75641C28.8231 9.75641 29.0211 9.70617 29.2115 9.60568C29.407 9.50017 29.5798 9.34441 29.7302 9.1384C29.8855 8.92737 30.0058 8.6661 30.091 8.35458C30.1812 8.03804 30.2263 7.67377 30.2263 7.26176C30.2263 6.42267 30.0534 5.77702 29.7076 5.32482C29.5623 5.13389 29.3919 4.99069 29.1965 4.89523C29.0061 4.79474 28.8056 4.74449 28.5951 4.74449C28.3897 4.74449 28.1892 4.79725 27.9938 4.90276C27.7983 5.00325 27.6279 5.1565 27.4826 5.3625C27.1519 5.81471 26.9865 6.44277 26.9865 7.24669Z" fill="#5C5956"/>
<path d="M37.0957 7.50293C37.0957 8.16617 37.1233 8.89472 37.1784 9.68858C37.1935 9.98503 37.211 10.1961 37.2311 10.3217L37.2536 10.5478H34.4648C34.5249 10.0755 34.5726 9.50519 34.6076 8.83693C34.6227 8.49024 34.6302 8.1109 34.6302 7.69889V6.86231C34.6302 6.25435 34.6026 5.58107 34.5475 4.84247C34.5275 4.60632 34.4999 4.34002 34.4648 4.04358L37.2536 3.83255L37.186 4.57869C37.1659 4.78971 37.1534 4.98567 37.1484 5.16655C37.2536 4.97562 37.3964 4.79223 37.5768 4.61637C37.7572 4.44051 37.9577 4.28224 38.1782 4.14156C38.6493 3.85516 39.1178 3.71196 39.5839 3.71196C40.6112 3.71196 41.3579 3.9858 41.8239 4.53346C42.1998 4.98567 42.3877 5.63885 42.3877 6.49301V7.72904C42.3877 8.59827 42.4102 9.30924 42.4553 9.86193C42.4754 10.1333 42.4979 10.3619 42.523 10.5478H39.7492C39.7993 10.1408 39.8444 9.59563 39.8845 8.9123C39.8996 8.58571 39.9071 8.22897 39.9071 7.84209V6.97536C39.9071 6.30208 39.8044 5.80968 39.5989 5.49817C39.3984 5.18665 39.0677 5.03089 38.6067 5.03089C38.3862 5.03089 38.1807 5.10123 37.9903 5.24192C37.8048 5.3826 37.6445 5.57353 37.5092 5.81471C37.3789 6.04583 37.2762 6.30962 37.201 6.60606C37.1308 6.90251 37.0957 7.20146 37.0957 7.50293Z" fill="#5C5956"/>
<path d="M43.416 11.6406C43.852 11.6657 44.4383 11.6908 45.1749 11.716C45.646 11.726 46.0369 11.731 46.3476 11.731C47.0842 11.731 47.7934 11.716 48.4749 11.6858L49.2792 11.6406V12.7711C48.728 12.7359 48.1441 12.7058 47.5278 12.6807C47.0366 12.6706 46.6332 12.6656 46.3175 12.6656C45.6009 12.6656 44.9018 12.6807 44.2203 12.7108L43.416 12.756V11.6406Z" fill="#5C5956"/>
<path d="M57.8733 4.62391C58.3795 5.1967 58.6325 6.02322 58.6325 7.10349C58.6325 7.64613 58.5699 8.14104 58.4446 8.58822C58.3193 9.0354 58.1289 9.41977 57.8733 9.74134C57.3271 10.4397 56.5052 10.7889 55.4078 10.7889C54.6761 10.7889 54.0798 10.6181 53.6187 10.2764C53.3832 10.1056 53.1877 9.88705 53.0324 9.62075V12.6505C53.0324 13.3288 53.0574 14.0096 53.1076 14.693C53.1376 15.0547 53.1652 15.3235 53.1903 15.4994H50.409C50.4591 15.0974 50.5042 14.5272 50.5443 13.7886C50.5593 13.4419 50.5668 13.0625 50.5668 12.6505V7.1261C50.5668 6.52316 50.5393 5.80717 50.4841 4.97813C50.4541 4.57617 50.429 4.27219 50.409 4.06619L53.1903 3.84762C53.1502 4.19934 53.1226 4.49327 53.1076 4.72942C53.2579 4.52342 53.4283 4.34756 53.6187 4.20185C54.0697 3.87526 54.6661 3.71196 55.4078 3.71196C56.5153 3.71196 57.3371 4.01594 57.8733 4.62391ZM55.9339 8.33197C56.0241 7.97021 56.0743 7.56072 56.0843 7.10349C56.0793 6.28952 55.9415 5.67653 55.6708 5.26453C55.4253 4.88769 55.0945 4.69927 54.6786 4.69927C54.2376 4.69927 53.8718 4.86759 53.5811 5.20423C53.2153 5.63131 53.0324 6.29455 53.0324 7.19393V7.23161C53.0324 8.03553 53.1877 8.65857 53.4984 9.10072C53.6237 9.2816 53.764 9.4248 53.9194 9.53031C54.0798 9.63583 54.2401 9.70617 54.4005 9.74134C54.4807 9.76646 54.5759 9.77903 54.6861 9.77903C54.9718 9.77903 55.2148 9.66597 55.4153 9.43987C55.6408 9.18362 55.8137 8.81432 55.9339 8.33197Z" fill="#5C5956"/>
<path d="M60.5281 6.86231C60.5281 6.25435 60.5005 5.58107 60.4454 4.84247C60.4203 4.50081 60.3953 4.23451 60.3702 4.04358L63.159 3.83255L63.1214 4.15663C63.1014 4.37268 63.0788 4.70681 63.0538 5.15901C63.2793 4.74198 63.585 4.40283 63.9709 4.14156C64.3868 3.85516 64.8253 3.71196 65.2863 3.71196C66.048 3.71196 66.6344 3.85767 67.0453 4.14909C67.4011 4.40032 67.6391 4.79223 67.7594 5.32482C67.9799 4.86257 68.3006 4.48322 68.7216 4.18678C69.1676 3.87023 69.6286 3.71196 70.1047 3.71196C71.122 3.71196 71.8311 3.9858 72.232 4.53346C72.3974 4.76962 72.5126 5.04847 72.5778 5.37004C72.6429 5.69161 72.6755 6.06593 72.6755 6.49301V7.59337C72.6755 8.45256 72.698 9.18614 72.7431 9.7941C72.7632 10.0805 72.7857 10.3317 72.8108 10.5478H70.037C70.0872 10.1257 70.1323 9.54287 70.1723 8.79925C70.1874 8.45759 70.1949 8.09331 70.1949 7.70643V6.97536C70.1949 6.56336 70.1874 6.25184 70.1723 6.04081C70.1623 5.82978 70.1323 5.65141 70.0821 5.5057C70.027 5.33989 69.9368 5.21931 69.8115 5.14394C69.6862 5.06857 69.5134 5.03089 69.2929 5.03089C69.1074 5.03089 68.9295 5.08365 68.7592 5.18916C68.5938 5.29467 68.4434 5.4429 68.3081 5.63383C68.1778 5.81973 68.0726 6.03327 67.9924 6.27445C67.9122 6.5106 67.8646 6.7568 67.8496 7.01305V7.59337C67.8496 8.45256 67.8722 9.18614 67.9173 9.7941C67.9423 10.1207 67.9674 10.3719 67.9924 10.5478H65.2112C65.2713 10.0453 65.3189 9.46248 65.354 8.79925C65.369 8.45759 65.3765 8.09331 65.3765 7.70643V6.97536C65.3765 6.56336 65.369 6.25184 65.354 6.04081C65.344 5.82978 65.3139 5.65141 65.2638 5.5057C65.2036 5.33989 65.1109 5.21931 64.9856 5.14394C64.8604 5.06857 64.6875 5.03089 64.467 5.03089C64.2665 5.03089 64.0761 5.09369 63.8957 5.21931C63.7203 5.34492 63.5649 5.51826 63.4296 5.73934C63.2993 5.95037 63.1941 6.19154 63.1139 6.46287C63.0388 6.73419 62.9987 7.00551 62.9936 7.27683V7.69889C62.9936 8.5229 63.0212 9.20372 63.0763 9.74134C63.1064 10.1031 63.134 10.3719 63.159 10.5478H60.3702C60.4203 10.1458 60.4655 9.57553 60.5055 8.83693C60.5206 8.49024 60.5281 8.1109 60.5281 7.69889V6.86231Z" fill="#5C5956"/>
<path d="M83.0165 7.05827C83.0165 7.67628 82.9062 8.22395 82.6857 8.70127C82.4652 9.17357 82.152 9.56548 81.7461 9.877C81.3502 10.1785 80.8791 10.4046 80.3329 10.5553C79.7917 10.7111 79.1953 10.7889 78.5439 10.7889C77.256 10.7889 76.3163 10.4799 75.725 9.86193C75.2489 9.3645 74.9934 8.65354 74.9583 7.72904C74.9533 7.68884 74.9508 7.63357 74.9508 7.56323V6.86985C74.9508 6.55331 74.9533 6.27194 74.9583 6.02574V2.49855C74.9583 1.78005 74.9307 0.97362 74.8756 0.0792621L74.823 -0.636727L74.7929 -0.892976L77.5817 -1.104C77.5216 -0.611604 77.4765 0.0239925 77.4464 0.802787C77.4314 1.16957 77.4239 1.55646 77.4239 1.96344V3.44818C77.4188 3.78482 77.4163 4.28224 77.4163 4.94045C77.6368 4.58371 77.9099 4.30485 78.2357 4.10387C78.6666 3.8426 79.1878 3.71196 79.7992 3.71196C80.8867 3.71196 81.706 4.0285 82.2572 4.66159C82.7634 5.24945 83.0165 6.04835 83.0165 7.05827ZM80.4832 7.00551C80.4832 6.56838 80.4432 6.18652 80.363 5.85993C80.2828 5.52831 80.1675 5.26704 80.0172 5.07611C79.8218 4.82489 79.5737 4.69927 79.273 4.69927C79.1026 4.69927 78.9373 4.73444 78.7769 4.80479C78.6165 4.88015 78.4562 4.99572 78.2958 5.15148C78.1355 5.30221 77.9926 5.4856 77.8673 5.70166C77.5717 6.20913 77.4239 6.77941 77.4239 7.41249V7.54815C77.4239 7.99031 77.4689 8.37719 77.5592 8.70881C77.6694 9.12082 77.8323 9.41224 78.0478 9.58307C78.1981 9.70366 78.371 9.76395 78.5664 9.76395C78.7117 9.76395 78.8521 9.73632 78.9874 9.68105C79.2229 9.62075 79.4334 9.5077 79.6188 9.34189C79.8092 9.17609 79.9696 8.9726 80.0999 8.73142C80.3555 8.26414 80.4832 7.68884 80.4832 7.00551Z" fill="#5C5956"/>
<path d="M91.7635 10.3292C91.5731 10.4498 91.3425 10.5453 91.0719 10.6156C90.7211 10.7161 90.3328 10.7663 89.9068 10.7663C89.556 10.7663 89.2629 10.6985 89.0273 10.5628C88.7918 10.4322 88.6164 10.2589 88.5011 10.0428C88.2355 10.2488 87.9148 10.4196 87.539 10.5553C87.123 10.706 86.7071 10.7814 86.2912 10.7814C85.5946 10.7814 85.0659 10.6658 84.7051 10.4347C84.3092 10.1785 84.1112 9.78656 84.1112 9.25899C84.1112 9.03289 84.1338 8.84447 84.1789 8.69374C84.229 8.53798 84.3117 8.40232 84.4269 8.28675C84.5372 8.17621 84.6926 8.07321 84.893 7.97775C85.0985 7.88228 85.3716 7.77928 85.7123 7.66874L88.2982 6.83217V6.09357C88.2982 5.64136 88.2305 5.30221 88.0952 5.07611C87.9248 4.80479 87.6292 4.66913 87.2082 4.66913C86.8424 4.66913 86.424 4.77966 85.9529 5.00074C85.6221 5.15148 85.324 5.33487 85.0584 5.55092L84.8178 4.70681C85.2538 4.38022 85.7775 4.12899 86.3889 3.95314C86.9451 3.79235 87.4838 3.71196 88.005 3.71196C88.5362 3.71196 88.9797 3.76723 89.3355 3.87777C89.6963 3.98831 89.982 4.15663 90.1925 4.38273C90.3979 4.59878 90.5433 4.86759 90.6284 5.18916C90.7186 5.5057 90.7637 5.89008 90.7637 6.34228V8.61083C90.7637 8.93742 90.7888 9.17609 90.8389 9.32682C90.9041 9.55795 91.0318 9.67602 91.2223 9.68105H91.2674C91.2924 9.68105 91.34 9.67602 91.4102 9.66597L91.6132 9.62075L91.7635 10.3292ZM87.118 9.68858C87.2684 9.68858 87.4688 9.6509 87.7194 9.57553C87.9549 9.50519 88.1478 9.40972 88.2982 9.28914V7.75918L87.554 8.03804C87.1531 8.17873 86.8649 8.30936 86.6896 8.42995C86.4741 8.58571 86.3663 8.77915 86.3663 9.01028C86.3663 9.26653 86.424 9.4449 86.5392 9.54539C86.6595 9.64085 86.8524 9.68858 87.118 9.68858Z" fill="#5C5956"/>
<path d="M98.0839 3.80994C98.154 3.84511 98.2041 3.87777 98.2342 3.90792L97.941 5.49817C97.8609 5.43787 97.7205 5.37758 97.5201 5.31728C97.4199 5.29216 97.3221 5.2796 97.2269 5.2796C97.0265 5.2796 96.8385 5.32733 96.6631 5.4228C96.4878 5.51826 96.3374 5.64639 96.2121 5.80717C96.0919 5.95791 95.9992 6.12623 95.934 6.31213C95.8689 6.49301 95.8363 6.66133 95.8363 6.81709V7.69889C95.8363 8.5229 95.8638 9.20372 95.919 9.74134C95.949 10.1031 95.9766 10.3719 96.0017 10.5478H93.2129C93.263 10.1458 93.3081 9.57553 93.3482 8.83693C93.3632 8.49024 93.3707 8.1109 93.3707 7.69889V6.86231C93.3707 6.24933 93.3432 5.57353 93.288 4.83493C93.263 4.49327 93.2379 4.22948 93.2129 4.04358L96.0017 3.83255C95.9465 4.20939 95.9039 4.69425 95.8739 5.28714C95.9741 4.95552 96.1219 4.65908 96.3174 4.3978C96.4677 4.1918 96.6456 4.02599 96.8511 3.90038C97.0565 3.77477 97.2921 3.71196 97.5577 3.71196C97.7681 3.71196 97.9435 3.74462 98.0839 3.80994Z" fill="#5C5956"/>
</g>
<defs>
<clipPath id="clip0_391_41168">
<rect width="104" height="122" fill="white"/>
</clipPath>
<clipPath id="clip1_391_41168">
<rect width="27.9024" height="27.9024" fill="white" transform="translate(38.0488 55.7285)"/>
</clipPath>
</defs>
</svg>
