<svg width="407" height="135" viewBox="0 0 407 135" fill="none" xmlns="http://www.w3.org/2000/svg">
<path fill-rule="evenodd" clip-rule="evenodd" d="M406.165 96.7583C398.912 96.8565 391.553 97.4294 384.436 97.9809C373.016 98.8672 361.207 99.7844 349.477 98.7785C318.393 96.1133 297.324 87.262 262.414 72.5883C258.983 71.1453 255.422 69.6551 251.703 68.1029C246.51 65.9359 240.586 64.1958 234.399 63.122C239.435 66.2013 247.866 69.2002 257.866 72.779C268.875 76.7068 282.58 81.6048 296.653 88.3022L300.243 90.0169L296.276 90.3062C287.915 90.9108 268.534 90.4431 249.794 89.9893C232.626 89.5737 216.432 89.1822 208.962 89.5902C201.88 89.9781 194.369 89.9166 186.669 89.423C184.529 90.9618 182.5 92.9071 180.572 95.4452L178.212 98.5629L178.692 94.6774C178.937 92.6581 179.283 90.7205 179.746 88.868C174.368 88.3539 168.936 87.6338 163.514 86.7208C157.206 85.6537 149.162 80.9571 140.653 75.9853C131.782 70.8002 122.614 65.4452 116.116 64.9149C110.576 64.4639 106.493 65.4008 103.899 67.6874C106.619 73.074 110.651 76.213 116.219 80.5521C118.817 82.5779 121.76 84.875 125.018 87.7607C132.082 94.0197 140.311 105.796 141.839 114.672L142.527 118.669L139.978 115.513C136.703 111.461 130.99 107.109 124.943 102.503C114.604 94.6389 102.946 85.7665 100.489 75.8285C100.472 75.8916 100.469 75.9541 100.465 76.0193C99.5768 92.1934 117.05 121.075 123.097 130.536L125.431 134.212L121.667 132.016C113.326 127.146 105.692 111.101 101.588 102.482C101.109 101.484 100.678 100.579 100.307 99.7983C97.7394 94.5402 96.5879 90.7186 96.3251 87.2407C89.6468 102.4 68.4783 114.324 59.5401 119.356C56.3583 121.154 53.2028 123.687 50.1455 126.135C44.1284 130.955 38.4599 135.508 32.9223 134.269C29.4814 133.496 26.5462 130.557 23.9663 125.284C22.7552 122.791 21.8522 120.275 20.985 117.839C19.3546 113.26 17.8036 108.936 14.3421 105.133L12.8695 103.515C0.612399 93.3962 0.47871 71.5284 0.80047 64.2108C1.17751 55.4 3.60231 51.3423 7.92616 45.7607C8.99236 43.8439 10.217 42.2028 11.62 40.9585C14.9627 36.2305 15.7221 33.0958 17.0529 27.5767C17.3131 26.4832 17.6044 25.3112 17.9288 24.0211C19.5599 17.6509 22.4384 14.0852 26.5177 13.4417C26.9354 13.3712 27.3781 13.3288 27.8179 13.3396C28.5004 7.7181 30.4717 2.68794 33.9398 1.02321C38.3531 -1.08344 43.64 2.53025 49.6315 11.7881C60.545 28.6303 64.1464 29.8825 70.6804 32.1765C73.6268 33.2058 77.2935 34.4882 82.3864 37.5039C85.3208 39.24 92.9759 44.2115 97.8689 51.3537C97.6461 48.6054 97.5214 45.7691 97.4191 43.0141C96.9282 30.3212 96.4217 17.1871 84.6676 9.57468L78.4425 5.54916L85.5455 7.68752C99.5816 11.9017 106.287 21.9997 105.467 37.6769C105.415 38.6084 105.361 39.6063 105.316 40.6716C105.119 44.7448 104.891 49.6173 104.381 54.5275C105.7 52.6246 107.45 50.8922 109.815 49.6341C116.086 46.2681 125.347 47.0302 137.304 51.9044L145.594 55.2825L136.753 53.9294C127.223 52.4719 113.207 55.199 106.225 62.2763C105.405 63.1122 104.702 63.9945 104.119 64.8967C107.087 63.0978 111.156 62.4003 116.285 62.8154C123.262 63.372 132.65 68.8658 141.728 74.1651C149.694 78.8214 157.931 83.6381 163.855 84.6401C169.356 85.5682 174.856 86.2892 180.286 86.801C182.998 77.5152 188.375 70.4978 196.317 65.8756C199.749 63.8886 203.525 62.4543 207.515 61.4855C192.688 60.7381 177.838 56.7595 171.2 44.2228C169.118 40.3181 168.274 36.2544 167.449 32.3253C165.97 25.2237 164.576 18.5272 156.017 13.7462L151.07 10.9788L156.685 11.7809C160.499 12.324 164.467 12.7288 168.661 13.1594C185.12 14.8239 203.781 16.7162 215.534 28.7329C222.471 35.8272 226.773 44.9923 227.705 53.7855C230.863 28.587 250.702 17.5444 269.593 17.6875C271.829 14.6472 274.842 12.517 279.318 11.9354L280.891 11.728L280.474 13.2533C280.307 13.8581 278.639 19.212 270.719 19.7914C268.635 22.9869 267.283 27.197 265.833 31.7219C261.979 43.8159 257.596 57.5223 237.461 59.86C235.607 60.0786 233.539 60.312 231.324 60.5507C238.892 61.5135 246.242 63.5321 252.517 66.159C256.236 67.7112 259.798 69.2014 263.242 70.6451C297.943 85.2352 318.894 94.0387 349.66 96.6758C361.217 97.6681 372.932 96.7578 384.271 95.8777C391.415 95.3224 398.814 94.7491 406.147 94.65L406.165 96.7583ZM189.791 87.4871C196.367 87.8148 202.773 87.8169 208.85 87.4846C216.387 87.071 232.648 87.4648 249.843 87.8818C265.824 88.2683 282.272 88.6656 291.856 88.3978C279.265 82.6574 267.105 78.3166 257.156 74.7686C244.42 70.2121 234.524 66.6791 229.976 62.4921C229.154 62.3935 228.33 62.3216 227.507 62.2497C227.327 63.3342 227.082 64.4018 226.784 65.4399C224.288 73.9514 217.746 79.833 208.351 81.9998C207.161 82.2761 205.986 82.5332 204.851 82.7859C199.203 84.0346 194.245 85.1317 189.791 87.4871ZM272.625 17.4003C275.208 16.7947 276.679 15.5274 277.498 14.4646C275.53 15.0506 273.954 16.0585 272.625 17.4003ZM229.696 58.5928C232.447 58.3168 234.986 58.0291 237.216 57.7645C255.994 55.5925 260.166 42.5684 263.826 31.0778C265.13 27.0253 266.388 23.077 268.236 19.8018C250.274 20.2436 231.946 31.2357 229.635 55.5731L229.583 55.7972C229.276 56.768 229.318 57.6912 229.696 58.5928ZM225.753 58.9501C225.753 58.9368 225.754 58.9236 225.754 58.9236C226.286 49.2365 221.961 38.3217 214.025 30.1983C202.816 18.732 185.335 16.9711 168.453 15.2566C165.824 14.9922 163.29 14.7329 160.81 14.4366C166.916 19.4165 168.237 25.7486 169.514 31.8915C170.308 35.6721 171.134 39.5879 173.055 43.2436C181.957 60.0287 207.279 60.4448 225.753 58.9501ZM186.079 87.2713C191.541 83.5712 197.648 82.2182 204.39 80.7266C205.525 80.4752 206.687 80.2187 207.876 79.945C218.92 77.3964 223.153 70.3255 224.748 64.8476C225.011 63.9544 225.235 63.0325 225.393 62.1069C215.373 61.5566 205.36 63.0622 197.377 67.7089C190.043 71.9642 185.043 78.4362 182.438 86.9938C183.66 87.097 184.869 87.1901 186.079 87.2713ZM181.376 91.2585C182.084 90.514 182.816 89.8307 183.545 89.1994C182.986 89.1567 182.428 89.1114 181.87 89.0621C181.684 89.7806 181.524 90.5125 181.376 91.2585ZM102.111 71.0767C102.055 72.104 102.117 73.1591 102.311 74.2442C103.932 83.8626 115.769 92.873 126.21 100.824C130.848 104.346 135.28 107.723 138.651 110.988C135.87 103.307 129.25 94.318 123.624 89.3377C120.417 86.4976 117.499 84.2233 114.926 82.2161C109.487 77.9775 105.327 74.7354 102.417 69.3878C102.374 69.4522 102.33 69.5192 102.287 69.5849C102.206 70.0756 102.139 70.5724 102.111 71.0767ZM103.235 62.5125C103.682 61.9231 104.18 61.3499 104.731 60.7929C110.526 54.9183 120.798 51.8388 129.8 51.4789C121.698 49.072 115.332 49.0694 110.808 51.4903C106.586 53.7543 104.53 57.899 103.408 61.5611C103.35 61.8783 103.293 62.1954 103.235 62.5125ZM98.4017 84.4292C98.1786 88.4916 99.1047 92.5278 102.2 98.8732C102.583 99.6604 103.014 100.572 103.493 101.575C106.604 108.108 111.784 119.008 117.597 125.682C110.416 113.786 100.633 95.5573 98.7088 81.75C98.552 82.6596 98.4503 83.5443 98.4017 84.4292ZM101.629 59.4347C102.623 53.0028 102.952 46.0406 103.213 40.5695C103.258 39.5042 103.299 38.5055 103.35 37.5741C103.998 25.2907 99.9596 16.9275 91.0379 12.18C98.6601 20.4197 99.1012 31.8285 99.5326 42.9299C99.6889 46.8891 99.831 50.6206 100.287 54.2225C100.369 54.921 100.466 55.5937 100.564 56.2397C101 57.278 101.356 58.3386 101.629 59.4347ZM93.7724 77.3442C93.8851 77.2356 93.998 77.1244 94.0975 77.0137C98.1428 72.8582 100.147 68.445 100.083 63.7809C99.4604 61.7447 98.9326 59.4468 98.517 56.808C94.634 47.7994 84.6864 41.3139 81.3121 39.3268C76.4003 36.4145 72.9954 35.2264 69.9839 34.1668C63.24 31.8078 59.1675 30.383 47.8602 12.932C42.6798 4.94655 38.0701 1.39684 34.8495 2.92837C32.2727 4.16155 30.5915 8.52705 29.9553 13.5505C44.4216 16.4937 65.3994 47.9024 71.8726 58.1076C77.5478 67.0479 79.1477 72.1821 76.9114 74.2614C73.6624 77.2835 64.3469 71.1958 59.1022 67.2975C48.3296 59.3106 33.2859 41.1205 28.9071 27.7737C27.7983 24.3895 27.326 19.8659 27.6218 15.4511C27.355 15.4497 27.1002 15.4757 26.8437 15.5284C23.6802 16.022 21.3646 19.058 19.9695 24.5336C19.645 25.8238 19.3671 26.9963 19.1076 28.0764C18.0739 32.3173 17.3492 35.3072 15.5203 38.717C18.1824 37.8755 21.1534 38.2121 24.2584 39.7573C27.5978 41.4089 29.7733 44.8116 30.7494 49.8835C33.2474 62.9669 26.8383 83.4316 21.5085 89.3478C21.1254 89.7605 20.7572 90.1527 20.3901 90.5183C28.0379 92.4585 37.2887 91.6958 45.4806 91.0206C46.2314 90.959 46.969 90.8981 47.6929 90.8404C53.2999 87.1683 60.1134 83.8842 69.733 82.4852C72.0336 82.1524 74.4188 81.9777 76.7238 81.8067C81.7089 81.4398 86.5333 81.0841 90.5706 79.2624C91.6214 78.5981 92.5864 78.0398 93.4381 77.5981C93.5494 77.5161 93.6608 77.4315 93.7724 77.3442ZM18.2939 106.813C20.4747 110.118 21.7345 113.668 22.9725 117.129C23.8161 119.51 24.6956 121.971 25.8592 124.357C28.1391 129.018 30.6005 131.587 33.3825 132.208C37.9312 133.227 43.2226 128.982 48.8213 124.49C51.9483 121.989 55.1735 119.4 58.5068 117.517C67.7206 112.327 95.2522 96.8154 96.2309 78.9927C96.2382 78.8596 96.2455 78.7279 96.2529 78.5935C95.8863 78.7068 95.4492 78.8897 94.9553 79.1348C92.1794 81.8052 88.792 83.9455 84.9871 85.6665C81.5258 88.1791 77.877 90.9457 74.827 93.2607C68.3226 98.2048 62.7096 102.472 59.8266 103.932C47.9241 109.959 31.9503 111.383 20.0595 107.474C19.4565 107.276 18.8679 107.054 18.2939 106.813ZM84.1216 83.6851C84.4138 83.4689 84.7055 83.258 84.9972 83.0498C82.3561 83.508 79.5955 83.7101 76.8752 83.9091C74.6104 84.0784 72.2654 84.2512 70.0456 84.5724C62.74 85.6353 57.0932 87.8451 52.3573 90.4799C60.6157 89.8069 73.7753 88.3528 84.1216 83.6851ZM24.702 106.54C35.506 108.85 48.7167 107.19 58.8622 102.05C61.5802 100.676 67.4018 96.259 73.5577 91.5827C75.0624 90.4308 76.5109 89.3332 77.9027 88.2938C69.081 90.9592 58.9541 92.1128 49.3855 92.8246C49.0639 92.8483 48.7288 92.8739 48.4072 92.899C45.9141 94.5492 43.6706 96.2745 41.5111 97.9283C36.1049 102.076 31.2139 105.833 24.702 106.54ZM29.7203 16.1267C29.5077 19.9989 29.8885 23.9972 30.9055 27.1094C35.045 39.709 49.8657 57.8334 60.3566 65.6034C69.6543 72.4963 74.4899 73.6333 75.4746 72.7158C75.8118 72.4086 77.1154 70.3034 70.0888 59.2375C57.8186 39.8785 40.5726 18.044 29.7592 15.6618C29.7371 15.8207 29.7291 15.9671 29.7203 16.1267ZM17.1603 103.882C27.1723 106.275 32.9825 101.819 40.2283 96.255C41.5239 95.2637 42.8477 94.2499 44.2246 93.2378C36.0465 93.9058 26.4962 94.5265 18.5647 92.1624C15.2835 94.7983 12.2725 95.4258 9.58679 94.0238C8.75665 93.5858 7.99022 92.9644 7.28518 92.193C9.55864 97.2147 12.774 101.365 17.1603 103.882ZM18.0659 89.8234C18.67 89.2733 19.2916 88.6428 19.9446 87.9326C24.8902 82.4505 31.0125 62.5905 28.6716 50.2899C27.832 45.8928 26.0429 42.9918 23.3276 41.6415C19.4033 39.7043 16.0798 39.9489 13.1829 42.3924C12.691 43.0861 12.1446 43.8035 11.5419 44.5712C11.0115 45.2361 10.5092 45.8758 10.0357 46.4771C10.9808 45.795 11.9687 45.302 13.013 44.999C15.792 44.2173 18.631 45.0138 20.8058 47.2153C24.0819 50.505 26.4847 57.7907 23.3948 68.365C21.063 76.3157 18.0457 78.2789 15.9234 78.5253C13.8683 78.7648 11.8839 77.472 10.4725 74.9814C7.5402 69.8047 7.43079 60.3746 13.0353 53.1015L13.1356 52.9736C14.7114 51.4986 15.9476 51.8334 16.5562 52.1738C19.3552 53.7022 19.1869 60.6599 18.4322 64.6798C17.4187 70.0122 15.1808 73.3367 12.2567 73.8448C12.2682 73.8775 12.2928 73.9109 12.3044 73.9422C13.2779 75.6586 14.5094 76.5672 15.6781 76.4298C16.6586 76.3168 19.1865 75.2451 21.372 67.7722C24.1991 58.0923 22.1557 51.5603 19.31 48.6947C17.679 47.0436 15.6427 46.4514 13.5954 47.033C11.0869 47.7494 8.842 49.9884 7.05085 53.4402C4.5289 61.937 4.18654 72.3019 5.67246 77.0815C7.81277 84.0418 12.3687 87.8449 18.0659 89.8234ZM4.67372 80.4407C5.78726 85.9259 7.72903 90.6719 10.5704 92.1559C12.1661 92.9923 14.0366 92.7106 16.1548 91.324C11.2309 89.3613 7.13107 86.0024 4.67372 80.4407ZM12.9559 71.318C14.4529 70.3058 15.6997 67.773 16.3584 64.2857C17.3355 59.1302 16.5445 54.5755 15.5477 54.0136C15.3532 53.9095 14.9514 54.1811 14.6426 54.4577C12.4268 57.3791 11.2054 60.662 10.766 63.8037C11.3741 63.1804 12.1618 62.6899 13.1374 62.4231C14.0953 62.2355 14.8496 62.5972 15.1802 63.3828C15.8542 64.9627 14.242 69.0423 12.9559 71.318ZM11.1162 70.3081C11.9615 68.7676 13.1763 65.8433 13.2714 64.5993C11.6735 65.2603 11.0217 67.1624 10.929 68.6081C10.9083 69.2276 10.9701 69.8089 11.1162 70.3081Z" fill="url(#paint0_linear_514_3109)"/>
<defs>
<linearGradient id="paint0_linear_514_3109" x1="-25.6655" y1="123.508" x2="220.581" y2="71.9181" gradientUnits="userSpaceOnUse">
<stop stop-color="#FFEEA0"/>
<stop offset="1" stop-color="#B78E43"/>
</linearGradient>
</defs>
</svg>
