<svg width="158" height="106" viewBox="0 0 158 106" fill="none" xmlns="http://www.w3.org/2000/svg">
<g clip-path="url(#clip0_514_5155)">
<path d="M55.0013 12.4664V3.36643H62.6583V12.4664H61.7093V3.93843L61.9563 4.19843H55.7033L55.9503 3.93843V12.4664H55.0013ZM69.0308 12.5314C68.4415 12.5314 67.9085 12.3971 67.4318 12.1284C66.9552 11.8511 66.5738 11.4568 66.2878 10.9454C66.0105 10.4254 65.8718 9.79276 65.8718 9.04743C65.8718 8.3021 66.0105 7.67376 66.2878 7.16243C66.5652 6.64243 66.9422 6.2481 67.4188 5.97943C67.8955 5.71076 68.4328 5.57643 69.0308 5.57643C69.6808 5.57643 70.2615 5.72376 70.7728 6.01843C71.2928 6.30443 71.7002 6.71176 71.9948 7.24043C72.2895 7.76043 72.4368 8.36276 72.4368 9.04743C72.4368 9.74076 72.2895 10.3474 71.9948 10.8674C71.7002 11.3874 71.2928 11.7948 70.7728 12.0894C70.2615 12.3841 69.6808 12.5314 69.0308 12.5314ZM65.5078 14.9884V5.64143H66.3918V7.69543L66.3008 9.06043L66.4308 10.4384V14.9884H65.5078ZM68.9658 11.7124C69.4512 11.7124 69.8845 11.6041 70.2658 11.3874C70.6472 11.1621 70.9505 10.8501 71.1758 10.4514C71.4012 10.0441 71.5138 9.5761 71.5138 9.04743C71.5138 8.51876 71.4012 8.0551 71.1758 7.65643C70.9505 7.25776 70.6472 6.94576 70.2658 6.72043C69.8845 6.4951 69.4512 6.38243 68.9658 6.38243C68.4805 6.38243 68.0428 6.4951 67.6528 6.72043C67.2715 6.94576 66.9682 7.25776 66.7428 7.65643C66.5262 8.0551 66.4178 8.51876 66.4178 9.04743C66.4178 9.5761 66.5262 10.0441 66.7428 10.4514C66.9682 10.8501 67.2715 11.1621 67.6528 11.3874C68.0428 11.6041 68.4805 11.7124 68.9658 11.7124ZM77.2279 12.5314C76.5693 12.5314 75.9756 12.3841 75.4469 12.0894C74.9269 11.7861 74.5153 11.3744 74.2119 10.8544C73.9086 10.3258 73.7569 9.72343 73.7569 9.04743C73.7569 8.36276 73.9086 7.76043 74.2119 7.24043C74.5153 6.72043 74.9269 6.3131 75.4469 6.01843C75.9669 5.72376 76.5606 5.57643 77.2279 5.57643C77.9039 5.57643 78.5019 5.72376 79.0219 6.01843C79.5506 6.3131 79.9623 6.72043 80.2569 7.24043C80.5603 7.76043 80.7119 8.36276 80.7119 9.04743C80.7119 9.72343 80.5603 10.3258 80.2569 10.8544C79.9623 11.3744 79.5506 11.7861 79.0219 12.0894C78.4933 12.3841 77.8953 12.5314 77.2279 12.5314ZM77.2279 11.7124C77.7219 11.7124 78.1596 11.6041 78.5409 11.3874C78.9223 11.1621 79.2213 10.8501 79.4379 10.4514C79.6633 10.0441 79.7759 9.5761 79.7759 9.04743C79.7759 8.5101 79.6633 8.0421 79.4379 7.64343C79.2213 7.24476 78.9223 6.9371 78.5409 6.72043C78.1596 6.4951 77.7263 6.38243 77.2409 6.38243C76.7556 6.38243 76.3223 6.4951 75.9409 6.72043C75.5596 6.9371 75.2563 7.24476 75.0309 7.64343C74.8056 8.0421 74.6929 8.5101 74.6929 9.04743C74.6929 9.5761 74.8056 10.0441 75.0309 10.4514C75.2563 10.8501 75.5596 11.1621 75.9409 11.3874C76.3223 11.6041 76.7513 11.7124 77.2279 11.7124ZM87.0006 9.58043C86.6019 9.75376 86.1989 9.89243 85.7916 9.99643C85.3929 10.0918 84.9942 10.1394 84.5956 10.1394C83.7896 10.1394 83.1526 9.95743 82.6846 9.59343C82.2166 9.22076 81.9826 8.64876 81.9826 7.87743V5.64143H82.8926V7.82543C82.8926 8.34543 83.0616 8.73543 83.3996 8.99543C83.7376 9.25543 84.1926 9.38543 84.7646 9.38543C85.1112 9.38543 85.4752 9.3421 85.8566 9.25543C86.2379 9.1601 86.6236 9.02576 87.0136 8.85243L87.0006 9.58043ZM86.9226 12.4664V5.64143H87.8456V12.4664H86.9226ZM90.4668 12.4664V5.64143H91.3898V11.0624L95.9528 5.64143H96.7718V12.4664H95.8488V7.03243L91.2988 12.4664H90.4668ZM100.717 12.4664V6.20043L100.951 6.44743H98.13V5.64143H104.227V6.44743H101.406L101.64 6.20043V12.4664H100.717ZM109.8 12.4664V10.9584L109.761 10.7114V8.18943C109.761 7.60876 109.596 7.16243 109.267 6.85043C108.946 6.53843 108.465 6.38243 107.824 6.38243C107.382 6.38243 106.961 6.4561 106.563 6.60343C106.164 6.75076 105.826 6.94576 105.549 7.18843L105.133 6.49943C105.479 6.20476 105.895 5.97943 106.381 5.82343C106.866 5.65876 107.377 5.57643 107.915 5.57643C108.799 5.57643 109.479 5.79743 109.956 6.23943C110.441 6.67276 110.684 7.33576 110.684 8.22843V12.4664H109.8ZM107.447 12.5314C106.935 12.5314 106.489 12.4491 106.108 12.2844C105.735 12.1111 105.449 11.8771 105.25 11.5824C105.05 11.2791 104.951 10.9324 104.951 10.5424C104.951 10.1871 105.033 9.86643 105.198 9.58043C105.371 9.28576 105.648 9.05176 106.03 8.87843C106.42 8.69643 106.94 8.60543 107.59 8.60543H109.943V9.29443H107.616C106.957 9.29443 106.498 9.41143 106.238 9.64543C105.986 9.87943 105.861 10.1698 105.861 10.5164C105.861 10.9064 106.012 11.2184 106.316 11.4524C106.619 11.6864 107.044 11.8034 107.59 11.8034C108.11 11.8034 108.556 11.6864 108.929 11.4524C109.31 11.2098 109.587 10.8631 109.761 10.4124L109.969 11.0494C109.795 11.5001 109.492 11.8598 109.059 12.1284C108.634 12.3971 108.097 12.5314 107.447 12.5314ZM113.141 12.4664V5.64143H114.064V11.0624L118.627 5.64143H119.446V12.4664H118.523V7.03243L113.973 12.4664H113.141ZM116.235 4.65343C115.663 4.65343 115.199 4.51043 114.844 4.22443C114.497 3.92976 114.315 3.50943 114.298 2.96343H114.961C114.969 3.3101 115.091 3.5831 115.325 3.78243C115.559 3.98176 115.862 4.08143 116.235 4.08143C116.607 4.08143 116.911 3.98176 117.145 3.78243C117.387 3.5831 117.513 3.3101 117.522 2.96343H118.185C118.176 3.50943 117.994 3.92976 117.639 4.22443C117.283 4.51043 116.815 4.65343 116.235 4.65343ZM123.391 12.4664V6.20043L123.625 6.44743H120.804V5.64143H126.901V6.44743H124.08L124.314 6.20043V12.4664H123.391ZM130.843 12.5314C130.132 12.5314 129.508 12.3841 128.971 12.0894C128.434 11.7861 128.013 11.3744 127.71 10.8544C127.407 10.3258 127.255 9.72343 127.255 9.04743C127.255 8.37143 127.398 7.77343 127.684 7.25343C127.979 6.73343 128.377 6.3261 128.88 6.03143C129.391 5.7281 129.963 5.57643 130.596 5.57643C131.237 5.57643 131.805 5.72376 132.299 6.01843C132.802 6.30443 133.196 6.71176 133.482 7.24043C133.768 7.76043 133.911 8.36276 133.911 9.04743C133.911 9.09076 133.907 9.13843 133.898 9.19043C133.898 9.23376 133.898 9.28143 133.898 9.33343H127.957V8.64443H133.404L133.04 8.91743C133.04 8.42343 132.932 7.98576 132.715 7.60443C132.507 7.21443 132.221 6.9111 131.857 6.69443C131.493 6.47776 131.073 6.36943 130.596 6.36943C130.128 6.36943 129.708 6.47776 129.335 6.69443C128.962 6.9111 128.672 7.21443 128.464 7.60443C128.256 7.99443 128.152 8.44076 128.152 8.94343V9.08643C128.152 9.60643 128.265 10.0658 128.49 10.4644C128.724 10.8544 129.045 11.1621 129.452 11.3874C129.868 11.6041 130.34 11.7124 130.869 11.7124C131.285 11.7124 131.671 11.6388 132.026 11.4914C132.39 11.3441 132.702 11.1188 132.962 10.8154L133.482 11.4134C133.179 11.7774 132.797 12.0548 132.338 12.2454C131.887 12.4361 131.389 12.5314 130.843 12.5314ZM135.369 14.3644L135.941 11.9594L136.045 12.5184C135.846 12.5184 135.677 12.4534 135.538 12.3234C135.408 12.1934 135.343 12.0244 135.343 11.8164C135.343 11.6084 135.408 11.4394 135.538 11.3094C135.677 11.1794 135.841 11.1144 136.032 11.1144C136.231 11.1144 136.392 11.1838 136.513 11.3224C136.643 11.4611 136.708 11.6258 136.708 11.8164C136.708 11.8858 136.704 11.9551 136.695 12.0244C136.686 12.0938 136.669 12.1718 136.643 12.2584C136.617 12.3451 136.582 12.4491 136.539 12.5704L135.993 14.3644H135.369ZM59.0963 23.5804C58.6976 23.7538 58.2946 23.8924 57.8873 23.9964C57.4886 24.0918 57.09 24.1394 56.6913 24.1394C55.8853 24.1394 55.2483 23.9574 54.7803 23.5934C54.3123 23.2208 54.0783 22.6488 54.0783 21.8774V19.6414H54.9883V21.8254C54.9883 22.3454 55.1573 22.7354 55.4953 22.9954C55.8333 23.2554 56.2883 23.3854 56.8603 23.3854C57.207 23.3854 57.571 23.3421 57.9523 23.2554C58.3336 23.1601 58.7193 23.0258 59.1093 22.8524L59.0963 23.5804ZM59.0183 26.4664V19.6414H59.9413V26.4664H59.0183ZM63.8625 26.4664V20.2004L64.0965 20.4474H61.2755V19.6414H67.3725V20.4474H64.5515L64.7855 20.2004V26.4664H63.8625ZM71.1977 26.5314C70.539 26.5314 69.9453 26.3841 69.4167 26.0894C68.8967 25.7861 68.485 25.3744 68.1817 24.8544C67.8783 24.3258 67.7267 23.7234 67.7267 23.0474C67.7267 22.3628 67.8783 21.7604 68.1817 21.2404C68.485 20.7204 68.8967 20.3131 69.4167 20.0184C69.9367 19.7238 70.5303 19.5764 71.1977 19.5764C71.8737 19.5764 72.4717 19.7238 72.9917 20.0184C73.5203 20.3131 73.932 20.7204 74.2267 21.2404C74.53 21.7604 74.6817 22.3628 74.6817 23.0474C74.6817 23.7234 74.53 24.3258 74.2267 24.8544C73.932 25.3744 73.5203 25.7861 72.9917 26.0894C72.463 26.3841 71.865 26.5314 71.1977 26.5314ZM71.1977 25.7124C71.6917 25.7124 72.1293 25.6041 72.5107 25.3874C72.892 25.1621 73.191 24.8501 73.4077 24.4514C73.633 24.0441 73.7457 23.5761 73.7457 23.0474C73.7457 22.5101 73.633 22.0421 73.4077 21.6434C73.191 21.2448 72.892 20.9371 72.5107 20.7204C72.1293 20.4951 71.696 20.3824 71.2107 20.3824C70.7253 20.3824 70.292 20.4951 69.9107 20.7204C69.5293 20.9371 69.226 21.2448 69.0007 21.6434C68.7753 22.0421 68.6627 22.5101 68.6627 23.0474C68.6627 23.5761 68.7753 24.0441 69.0007 24.4514C69.226 24.8501 69.5293 25.1621 69.9107 25.3874C70.292 25.6041 70.721 25.7124 71.1977 25.7124ZM80.0567 26.4664V19.6414H80.9797V22.6574H85.2827V19.6414H86.2057V26.4664H85.2827V23.4504H80.9797V26.4664H80.0567ZM93.0671 26.4664V24.9584L93.0281 24.7114V22.1894C93.0281 21.6088 92.8634 21.1624 92.5341 20.8504C92.2134 20.5384 91.7324 20.3824 91.0911 20.3824C90.6491 20.3824 90.2288 20.4561 89.8301 20.6034C89.4314 20.7508 89.0934 20.9458 88.8161 21.1884L88.4001 20.4994C88.7468 20.2048 89.1628 19.9794 89.6481 19.8234C90.1334 19.6588 90.6448 19.5764 91.1821 19.5764C92.0661 19.5764 92.7464 19.7974 93.2231 20.2394C93.7084 20.6728 93.9511 21.3358 93.9511 22.2284V26.4664H93.0671ZM90.7141 26.5314C90.2028 26.5314 89.7564 26.4491 89.3751 26.2844C89.0024 26.1111 88.7164 25.8771 88.5171 25.5824C88.3178 25.2791 88.2181 24.9324 88.2181 24.5424C88.2181 24.1871 88.3004 23.8664 88.4651 23.5804C88.6384 23.2858 88.9158 23.0518 89.2971 22.8784C89.6871 22.6964 90.2071 22.6054 90.8571 22.6054H93.2101V23.2944H90.8831C90.2244 23.2944 89.7651 23.4114 89.5051 23.6454C89.2538 23.8794 89.1281 24.1698 89.1281 24.5164C89.1281 24.9064 89.2798 25.2184 89.5831 25.4524C89.8864 25.6864 90.3111 25.8034 90.8571 25.8034C91.3771 25.8034 91.8234 25.6864 92.1961 25.4524C92.5774 25.2098 92.8548 24.8631 93.0281 24.4124L93.2361 25.0494C93.0628 25.5001 92.7594 25.8598 92.3261 26.1284C91.9014 26.3971 91.3641 26.5314 90.7141 26.5314ZM96.4082 26.4664V19.6414H97.3442L100.438 24.8804H100.048L103.194 19.6414H104.052V26.4664H103.207V20.6944L103.376 20.7724L100.438 25.6344H100.022L97.0582 20.7204L97.2532 20.6814V26.4664H96.4082ZM110.081 26.4664V19.6414H116.217V26.4664H115.294V20.2004L115.528 20.4474H110.77L111.004 20.2004V26.4664H110.081ZM118.841 26.4664V19.6414H119.764V25.0624L124.327 19.6414H125.146V26.4664H124.223V21.0324L119.673 26.4664H118.841ZM132.276 25.6604L132.068 25.9074V19.6414H132.991V25.9074L132.744 25.6604H136.553L136.306 25.9074V19.6414H137.229V26.4664H127.791V19.6414H128.714V25.9074L128.48 25.6604H132.276ZM139.969 29.0534C139.648 29.0534 139.34 29.0014 139.046 28.8974C138.76 28.7934 138.513 28.6374 138.305 28.4294L138.734 27.7404C138.907 27.9051 139.093 28.0308 139.293 28.1174C139.501 28.2128 139.73 28.2604 139.982 28.2604C140.285 28.2604 140.545 28.1738 140.762 28.0004C140.987 27.8358 141.199 27.5411 141.399 27.1164L141.841 26.1154L141.945 25.9724L144.753 19.6414H145.663L142.244 27.2854C142.053 27.7274 141.841 28.0784 141.607 28.3384C141.381 28.5984 141.134 28.7804 140.866 28.8844C140.597 28.9971 140.298 29.0534 139.969 29.0534ZM141.789 26.6614L138.643 19.6414H139.605L142.387 25.9074L141.789 26.6614ZM148.401 26.4664V20.2004L148.635 20.4474H145.814V19.6414H151.911V20.4474H149.09L149.324 20.2004V26.4664H148.401Z" fill="black"/>
<path d="M2.06542 105.197L2.03052 104.197C33.4502 103.1 58.0998 76.9924 57.5143 45.676L57.4888 44.7254L58.4882 44.6905C59.6044 76.6566 34.857 103.527 3.03196 105.155L2.06542 105.197Z" fill="#5C5956"/>
</g>
<defs>
<clipPath id="clip0_514_5155">
<rect width="156.94" height="104.722" fill="white" transform="translate(0.529785 0.466431)"/>
</clipPath>
</defs>
</svg>
