<svg width="365" height="405" viewBox="0 0 365 405" fill="none" xmlns="http://www.w3.org/2000/svg">
<path fill-rule="evenodd" clip-rule="evenodd" d="M238.181 371.743C249.56 357.952 261.694 317.657 247.74 290.172C234.104 262.687 187.213 250.451 178.927 218.582C174.751 202.138 184.596 182.292 166.466 164.545C153.614 151.784 122.235 143.766 97.9797 172.806C71.8864 203.314 69.6984 247.661 66.3109 274.699C63.1154 300.192 85.1658 368.691 107.692 386.739C130.563 404.777 163.316 407.897 188.563 402.795C215.296 397.372 230.207 381.316 238.181 371.743Z" fill="#E9E6E6"/>
<path fill-rule="evenodd" clip-rule="evenodd" d="M238.663 380.571C233.592 380.571 229.375 378.985 225.861 375.76C221.836 372.055 218.763 366.325 216.195 357.716C215.266 354.611 215.294 351.066 215.841 347.521C215.165 348.201 214.553 348.774 214.03 349.187C208.046 353.958 187.053 356.13 178.829 353.771C171.814 351.746 171.751 345.07 171.906 343.031C170.589 343.124 167.332 343.057 163.866 340.658C159.199 337.433 156.034 331.343 154.463 322.561C152.616 312.232 153.98 302.144 158.521 292.603C163.04 283.101 169.706 276.251 174.502 272.187C178.992 268.375 185.964 264.99 193.649 262.885C184.042 259.366 170.463 251.17 170.119 241.908C169.726 231.354 179.18 222.225 185.434 216.188C187.394 214.296 189.086 212.657 189.897 211.497C191.231 209.605 191.209 206.58 191.188 203.382C191.157 198.944 191.123 193.92 195.069 191.268C195.952 190.681 196.743 190.161 197.506 189.655C202.216 186.563 204.58 185.004 209.489 178.981C213.497 174.05 219.781 174.57 226.435 175.129C229.728 175.396 233.133 175.676 236.553 175.369C244.951 174.636 254.781 179.967 258.643 184.098C259.94 185.484 260.519 186.67 260.367 187.629C260.181 188.815 258.963 190.908 257.116 194.093C253.222 200.796 246.705 212.004 245.205 223.971C244.69 228.075 244.831 232.713 244.946 236.431C245.073 240.483 245.103 242.295 244.546 242.841C244.406 242.988 244.224 243.055 244.032 243.041C243.102 242.988 242.848 241.256 242.341 231.434C242.106 226.916 241.864 222.239 241.418 220.906C241.159 220.133 240.849 219.693 240.474 219.547C239.666 219.24 238.137 220.133 236.023 221.373C235.697 221.559 235.359 221.759 235 221.972C230.918 224.331 227.62 227.236 218.855 238.19C211.607 247.266 212.485 261.179 212.816 266.403C212.873 267.309 212.913 267.948 212.902 268.335C212.845 270.267 211.522 273.279 208.858 277.583C208.437 278.263 207.44 280.235 206.286 282.528C204.317 286.446 201.867 291.31 200.79 292.656L200.637 292.856C199.744 293.975 198.246 295.841 197.016 297.64C195.078 300.479 195.013 301.358 195.075 301.612C195.433 303.038 195.628 303.824 200.006 304.423C204.305 304.996 211.76 300.798 216.201 296.574C218.158 294.708 220.346 291.976 222.277 289.551C225.251 285.833 226.274 284.634 227.027 284.727C227.256 284.767 227.444 284.913 227.541 285.14C227.753 285.619 227.621 286.206 227.424 287.099C226.976 289.124 226.142 292.882 229.035 299.039C231.953 305.25 238.169 310.607 242.71 314.525C244.43 316.004 245.919 317.283 246.91 318.336C250.535 322.201 250.618 322.827 251.412 328.931L251.452 329.224C252.368 336.234 253.42 339.205 253.936 339.552C254.562 339.005 255.181 336.834 255.521 335.181C255.59 334.755 255.655 334.474 255.664 334.448C255.722 334.194 255.963 334.048 256.208 334.102C256.453 334.142 256.613 334.381 256.572 334.634C256.555 334.728 256.511 334.968 256.441 335.301C256.316 336.074 256.171 337.393 256.395 338.486C256.62 339.579 256.735 339.592 258.663 339.912C259.153 339.992 259.762 340.085 260.489 340.232C262.003 340.525 262.622 341.231 263.169 341.844C263.928 342.724 264.584 343.47 268.281 342.737C274.243 341.551 277.601 332.822 277.998 328.638L278.017 328.438C278.161 326.932 278.228 326.239 277.735 325.586C277.535 325.319 277.243 325.052 276.83 324.733C276.382 324.626 275.995 324.493 275.69 324.347C272.495 322.828 260.523 317.51 259.47 317.363C259.161 317.363 258.971 317.177 258.903 317.003C258.863 316.897 258.772 316.537 259.213 316.191C259.5 315.964 262.256 314.072 270.257 319.323C271.706 320.269 272.94 321.055 273.93 321.681C275.406 322.628 276.477 323.307 277.241 323.88C279.435 324.36 283.108 324.307 285.552 323.134C286.887 322.494 287.699 321.601 287.96 320.495C288.56 317.976 289.67 315.951 290.954 313.605C292.007 311.686 293.203 309.514 294.33 306.649C295.656 303.277 296.064 299.266 296.138 296.414C295.328 300.518 294.024 306.689 293.052 308.648C291.918 310.953 287.7 311.499 285.837 311.406C284.914 311.353 284.46 311.18 284.322 310.807C284.237 310.58 284.302 310.34 284.498 310.153C284.655 309.994 284.868 309.834 285.139 309.621C286.413 308.648 289.062 306.609 290.676 301.771C292.07 297.613 292.086 291.63 292.099 286.819C292.105 284.86 292.11 283.008 292.203 281.488C292.33 279.423 291.717 277.371 291.177 275.572C290.897 274.639 290.645 273.799 290.521 273.053C289.871 273.079 289.147 273.186 288.326 273.306C286.952 273.519 285.395 273.746 283.497 273.706C278.971 273.626 278.575 274.106 278.148 277.157C278.05 277.837 277.984 278.583 277.912 279.356C277.645 282.275 277.313 285.913 275.065 289.285C272.165 293.642 266.82 294.855 265.518 294.655C265.169 294.602 265.122 294.642 264.901 294.895C264.639 295.175 264.24 295.615 263.249 295.814C262.796 295.894 262.408 295.921 262.096 295.934C261.243 295.987 260.987 296.014 260.599 297.2C259.893 299.386 254.448 302.718 252.213 302.718C252.204 302.718 252.194 302.718 252.185 302.718C249.777 302.678 238.584 300.039 231.802 288.405C228.66 283.008 227.528 278.916 227.188 275.478C227.275 278.436 227.56 281.248 227.701 282.048C227.891 283.074 230.738 288.565 233.494 293.869C234.762 296.308 236.074 298.826 237.194 301.052C239.806 306.223 243.303 309.341 246.684 312.366C247.958 313.512 249.276 314.685 250.523 315.951C251.617 317.07 252.422 317.95 253.01 318.603C253.678 319.349 254.311 320.042 254.505 320.042C254.505 320.042 254.505 320.042 254.506 320.042C254.638 320.042 255.033 319.549 255.382 319.122L255.783 318.63C257.409 316.631 258.692 315.058 259.652 312.126C260.255 310.287 261.134 309.994 262.149 309.661C263.07 309.354 264.217 308.968 265.778 307.222C267.94 304.783 268.563 302.651 269.223 300.399C269.548 299.293 269.883 298.146 270.414 296.987C271.969 293.575 275.196 289.204 275.333 289.018C275.406 288.924 275.516 288.844 275.637 288.831C275.761 288.818 275.883 288.845 275.982 288.925C275.985 288.925 276.571 289.338 278.201 289.844C279.821 290.364 281.955 291.097 284.106 292.323C285.345 293.029 286.077 292.869 286.429 292.789C286.61 292.749 286.862 292.696 287.067 292.896C287.124 292.949 287.252 293.109 287.215 293.349C287.23 293.589 287.668 294.495 288.973 295.002C289.502 295.215 290.112 295.321 290.556 295.401C291.198 295.508 291.625 295.588 291.659 296.041C291.697 296.521 291.166 296.707 290.432 296.947C288.772 297.52 285.476 298.946 283.486 300.052C283.538 300.106 283.593 300.159 283.65 300.212C285.344 301.811 287.451 306.009 285.621 308.688C283.863 311.26 278.786 313.752 277.676 314.032C276.775 314.258 275.301 314.418 274.226 314.538C273.954 314.565 273.711 314.591 273.514 314.618L273.306 314.645C271.991 314.805 268.497 315.231 266.439 314.431C264.169 313.525 263.209 312.926 263.014 312.273C262.938 312.02 262.983 311.753 263.142 311.526C263.708 310.727 265.194 310.62 267.653 310.433C268.197 310.393 268.868 310.3 269.58 310.207C271.286 309.98 273.032 309.754 274.29 309.927C273.992 309.141 274.324 308.661 274.553 308.448C275.029 307.995 275.498 307.782 275.911 307.582C276.442 307.329 276.823 307.155 277.149 306.582C277.357 306.209 277.407 305.982 277.459 305.729C277.591 305.103 277.752 304.65 278.914 303.73C280.097 302.784 280.357 302.211 280.658 301.558C280.777 301.292 280.901 301.025 281.083 300.719C281.235 300.452 281.606 300.146 282.114 299.812C281.803 299.266 281.739 298.773 281.654 298.12C281.589 297.613 281.51 297 281.301 296.161C281.056 296.547 280.72 296.8 280.42 297.014C279.883 297.413 279.495 297.693 279.526 298.733C279.548 299.519 279.634 299.999 279.696 300.345C279.793 300.905 279.859 301.265 279.506 301.891L279.422 302.038C278.942 302.891 278.284 304.05 277.159 304.65C276.262 305.13 275.732 304.837 275.117 304.503C274.784 304.317 274.408 304.117 273.851 303.944C272.452 303.504 269.789 303.357 269.24 303.331C268.678 304.77 267.877 306.249 266.47 307.835C264.745 309.781 263.414 310.22 262.442 310.54C261.506 310.846 260.99 311.02 260.533 312.419C259.52 315.511 258.189 317.15 256.501 319.216L256.102 319.709C255.449 320.509 255.089 320.961 254.53 320.975C253.915 320.988 253.447 320.468 252.322 319.229C251.74 318.576 250.944 317.697 249.863 316.604C248.637 315.351 247.33 314.192 246.067 313.059C242.62 309.98 239.058 306.795 236.366 301.465C235.25 299.252 233.94 296.734 232.672 294.295C229.145 287.498 226.988 283.301 226.79 282.208C226.471 280.449 225.698 271.373 226.846 268.095C226.982 267.695 227.119 267.349 227.31 267.136C227.328 266.456 227.324 265.803 227.279 265.137C226.868 259.126 235.773 248.905 241.977 244.96C244.914 243.094 250.842 240.562 257.462 239.136C262.853 237.977 270.548 237.151 276.604 239.776C286.323 243.987 292.238 253.103 295.079 257.474C295.402 257.98 295.683 258.407 295.915 258.753C296.494 259.606 297.102 260.419 297.688 261.205C299.454 263.577 300.849 265.457 300.486 266.856C300.119 268.255 297.838 268.508 294.952 268.828C293.744 268.961 292.495 269.108 291.31 269.334C288.173 269.947 284.146 269.415 282.62 269.161C282.623 269.761 282.471 270.64 281.712 271.453C281.121 272.093 279.751 272.559 278.016 273.146C276.173 273.772 274.083 274.492 272.661 275.518C270.665 276.971 267.852 277.41 264.873 277.863C263.592 278.063 262.27 278.263 261.03 278.556C259.549 278.903 257.638 279.436 255.615 279.996C252.157 280.969 248.238 282.048 245.406 282.515C240.767 283.261 237.468 280.569 232.475 276.117C229.878 273.799 228.753 270.974 228.135 269.228C228.132 269.281 228.129 269.321 228.125 269.375C227.844 273.986 227.525 279.223 232.602 287.938C236.138 294.002 240.857 297.387 244.19 299.146C248.192 301.265 251.391 301.771 252.197 301.785C252.204 301.785 252.21 301.785 252.218 301.785C254.071 301.785 259.141 298.706 259.717 296.921C260.271 295.215 260.96 295.081 262.039 295.015C262.338 295.001 262.678 294.975 263.071 294.895C263.763 294.762 263.994 294.508 264.217 294.268C264.485 293.975 264.821 293.602 265.662 293.735C266.784 293.922 271.667 292.709 274.294 288.765C276.411 285.593 276.719 282.234 276.99 279.276C277.062 278.476 277.13 277.73 277.229 277.024C277.749 273.332 278.69 272.706 283.514 272.786C285.337 272.812 286.851 272.6 288.189 272.4C288.999 272.267 289.746 272.16 290.439 272.133C290.443 271.653 290.535 271.24 290.751 270.867C291.069 270.32 291.615 269.974 292.419 269.787C296.445 268.881 297.402 269.708 298.233 272.68C298.404 273.293 298.697 273.879 299.006 274.492C299.972 276.411 301.172 278.797 299.642 283.874C299.064 285.78 299.625 286.806 300.22 287.899C300.865 289.071 301.532 290.297 300.579 292.416C300.035 293.615 299.526 294.415 298.82 294.375C297.838 294.308 297.376 292.776 296.264 289.098C296.041 288.365 295.8 287.552 295.528 286.686C293.808 281.168 295.11 278.783 295.891 277.357C296.064 277.037 296.214 276.771 296.293 276.518C296.509 275.865 296.005 275.505 294.513 274.638C294.008 274.345 293.436 274.012 292.847 273.599C292.426 273.319 291.973 273.159 291.47 273.092C291.595 273.745 291.822 274.492 292.065 275.305C292.627 277.184 293.264 279.316 293.128 281.542C293.036 283.034 293.031 284.873 293.025 286.819C293.012 291.697 292.995 297.76 291.556 302.064C289.851 307.169 287.051 309.328 285.704 310.354C285.66 310.394 285.619 310.42 285.577 310.46C286.383 310.54 287.991 310.474 289.531 310.021C290.501 309.728 291.757 309.181 292.222 308.248C293.013 306.636 294.211 301.638 295.783 293.363C295.864 292.936 295.917 292.642 295.939 292.549C296.003 292.256 296.209 292.163 296.296 292.15C296.465 292.096 296.656 292.163 296.771 292.296C297.182 292.749 297.07 296.574 297.017 297.573C296.885 300.092 296.46 303.77 295.192 306.982C294.042 309.9 292.833 312.113 291.766 314.058C290.513 316.337 289.431 318.323 288.862 320.709C288.532 322.108 287.554 323.201 285.952 323.96C283.749 325.026 280.762 325.239 278.453 324.999C279.138 325.879 279.107 326.772 278.941 328.531L278.922 328.731C278.487 333.288 274.976 342.351 268.462 343.644C264.24 344.483 263.342 343.457 262.47 342.457C261.979 341.898 261.515 341.364 260.311 341.138C259.6 341.004 258.997 340.898 258.514 340.818C256.573 340.512 255.844 340.392 255.49 338.686C255.206 339.392 254.871 339.992 254.494 340.298C254.232 340.511 253.925 340.552 253.631 340.432C252.192 339.845 251.151 334.088 250.534 329.344L250.494 329.051C249.717 323.094 249.654 322.614 246.236 318.976C245.276 317.95 243.806 316.684 242.105 315.218C237.502 311.26 231.197 305.822 228.197 299.439C225.171 293.002 226.048 289.031 226.518 286.899C226.611 286.486 226.699 286.086 226.719 285.806C225.988 286.392 224.351 288.445 223.002 290.137C221.053 292.576 218.843 295.334 216.839 297.24C212.244 301.625 204.456 305.956 199.881 305.33C195.355 304.717 194.666 303.797 194.176 301.838C193.776 300.239 196.697 296.294 199.913 292.269L200.065 292.083C201.083 290.803 203.51 285.979 205.458 282.114C206.623 279.809 207.626 277.81 208.07 277.09C210.61 272.999 211.925 270.041 211.976 268.308C211.985 267.962 211.944 267.309 211.891 266.469C211.555 261.139 210.661 246.959 218.132 237.618C226.988 226.53 230.351 223.584 234.537 221.172C234.892 220.959 235.231 220.759 235.555 220.573C238.064 219.107 239.579 218.214 240.8 218.681C241.461 218.934 241.938 219.546 242.298 220.613C242.782 222.065 243.018 226.597 243.267 231.394C243.451 234.952 243.691 239.59 244.048 241.455C244.141 240.363 244.077 238.324 244.02 236.458C243.905 232.713 243.76 228.036 244.285 223.851C245.81 211.697 252.385 200.383 256.313 193.626C257.978 190.761 259.293 188.496 259.452 187.483C259.552 186.857 259.009 185.844 257.966 184.738C254.326 180.833 244.637 175.596 236.635 176.302C233.136 176.608 229.69 176.329 226.358 176.049C219.677 175.489 213.906 175.023 210.208 179.567C205.209 185.697 202.805 187.283 198.017 190.428C197.253 190.935 196.464 191.454 195.583 192.041C192.053 194.413 192.084 198.971 192.114 203.382C192.137 206.727 192.16 209.885 190.656 212.03C189.794 213.256 188.154 214.842 186.076 216.855C179.94 222.785 170.667 231.74 171.045 241.869C171.226 246.759 175.54 251.131 179.128 253.943C183.452 257.314 189.189 260.379 194.869 262.338C194.999 262.391 195.127 262.431 195.258 262.471C200.39 261.219 205.989 260.579 207.356 261.938C207.604 262.192 208.078 262.871 207.168 263.95C205.738 265.643 201.296 265.443 195.218 263.444C194.83 263.538 194.434 263.631 194.036 263.751C186.421 265.816 179.519 269.148 175.1 272.893C167.64 279.223 150.781 296.707 155.376 322.4C156.902 330.929 159.935 336.82 164.392 339.899C168.482 342.724 172.304 342.057 172.343 342.044C172.492 342.017 172.644 342.057 172.753 342.164C172.86 342.27 172.911 342.43 172.884 342.577C172.828 342.91 171.603 350.719 179.085 352.878C186.945 355.144 207.761 352.998 213.451 348.467C214.188 347.881 215.1 347.002 216.13 345.896C217.18 340.578 219.258 335.434 220.845 332.009C224.667 323.76 229.89 316.351 232.736 315.138C233.98 314.605 234.55 315.325 234.738 315.658C236.421 318.63 230.99 327.545 227.603 332.596C224.15 337.74 220.116 342.924 217.02 346.282C216.193 350.653 216.195 354.478 217.083 357.45C219.568 365.779 222.644 371.535 226.489 375.067C230.807 379.038 236.269 380.411 243.188 379.252C252.462 377.706 255.455 374.88 257.244 373.201C258.28 372.229 259.031 371.523 260.351 371.882C261.707 372.269 262.342 371.882 263.15 371.402C263.956 370.909 264.869 370.363 266.532 370.523C267.517 370.603 268.125 371.096 268.711 371.562C270.097 372.668 271.668 373.921 280.196 368.924C285.289 365.938 291.26 361.594 291.004 357.783C290.472 357.703 289.039 357.663 287.534 357.623C281.876 357.476 271.344 357.209 262.678 354.411C259.115 353.251 256.572 350.746 254.325 348.534L253.996 348.214C252.181 346.428 250.644 344.363 249.342 342.204C247.157 339.792 245.588 337.407 244.547 335.568C241.934 330.97 240.566 326.132 241.221 323.8C241.314 323.467 241.509 322.787 242.074 322.774C242.075 322.774 242.078 322.774 242.081 322.774C242.771 322.774 243.06 323.64 244.048 326.892C245.15 330.516 246.929 336.394 250.09 341.645C253.43 345.309 258.236 349.014 264.842 350.799C281.691 355.357 299.189 354.571 302.063 353.038C304.654 351.639 305.451 344.456 305.244 343.23C305.205 342.977 305.28 342.764 305.451 342.617C305.839 342.311 306.405 342.524 307.649 343.004C309.385 343.657 312.01 344.656 313.35 343.59C314.776 342.444 316.795 333.582 318.269 327.105C319.273 322.694 320.141 318.882 320.823 317.097C321.223 316.044 321.39 314.338 321.307 312.193C321.307 312.179 321.307 312.179 321.307 312.179C321.059 305.849 318.731 297.08 316.692 294.801C316.687 294.801 316.681 294.802 316.677 294.788C312.338 295.108 307.719 294.495 304.242 293.135C302.907 292.602 302.386 292.203 302.39 291.697C302.391 291.523 302.466 291.203 302.964 291.017C304.078 290.59 307.343 290.857 309.994 291.323C311.974 291.683 315.369 292.469 317.002 293.828C321.599 293.429 326.306 291.936 329.861 288.751C330.946 287.765 331.915 286.925 332.769 286.192C335.574 283.754 337.119 282.408 337.196 281.182C337.243 280.449 336.794 279.636 335.653 278.37C333.85 276.358 332.391 276.051 331.219 275.811C330.168 275.598 329.175 275.398 328.567 273.999C328.042 272.786 328.317 271.08 328.607 269.254C328.976 266.936 329.36 264.55 328.135 263.164C326.659 261.512 325.194 258.3 323.643 254.915C322.652 252.743 321.628 250.504 320.594 248.665C318.018 244.121 305.814 237.671 295.087 233.659C293.324 232.993 291.709 232.433 290.216 231.967C287.339 232.926 284.375 233.699 281.338 234.272C276.041 235.285 272.176 235.365 271.133 235.312C269.913 235.245 269.143 234.819 269.024 234.153C268.844 233.166 270.18 232.087 273.226 230.755C278.009 228.676 282.655 228.662 290.192 230.994C293.377 229.901 296.775 228.489 300.224 226.61C302.285 225.49 304.161 224.504 305.975 223.558C316.258 218.174 321.923 215.202 325.458 205.767L326.017 204.288C329.911 193.92 333.274 184.965 331.44 180.753C329.431 176.129 323.486 170.918 320.238 170.918C320.222 170.918 320.206 170.932 320.192 170.932C317.438 170.972 313.059 177.542 311.605 180.06C311.483 180.274 311.221 180.353 311.002 180.246C310.783 180.14 310.683 179.887 310.771 179.66C310.779 179.647 311.571 177.595 311.46 175.103C311.312 171.838 309.74 169.372 306.786 167.8C299.906 164.108 280.333 174.49 271.935 180.1C267.824 182.832 264.153 183.978 262.353 183.072C261.687 182.739 261.314 182.153 261.272 181.393C261.13 178.688 265.449 172.93 278.001 164.881C283.417 161.403 288.693 159.284 293.682 158.591C297.692 158.031 301.525 158.391 305.074 159.644C310.165 161.443 313.151 164.535 314.047 165.574C315.089 164.881 318.266 163.042 322.914 162.776C328.074 162.469 336.073 164.135 344.896 173.823C356.689 186.763 357.962 192.774 356.951 195.532C356.464 196.878 355.42 197.464 354.609 197.571C353.862 197.678 353.103 198.251 352.576 199.104C351.755 200.437 351.634 202.195 352.243 203.928C352.913 205.833 352.229 206.726 351.622 207.512C350.968 208.365 350.4 209.112 351.565 211.444C352.308 212.937 353.133 214.123 353.933 215.282C355.644 217.761 357.122 219.893 356.832 223.691C356.693 225.49 356.433 227.343 356.183 229.128C355.696 232.593 355.238 235.858 355.796 237.937C355.993 238.683 356.308 239.683 356.642 240.749C357.752 244.308 358.211 245.96 358.106 246.733C359.245 248.625 360.158 250.518 360.883 252.277C364.785 261.739 365.137 271.826 363.664 274.612C362.863 276.131 362.329 277.717 361.857 279.103C360.875 281.995 360.026 284.5 357.293 283.767C357.031 283.687 356.838 283.7 356.725 283.78C356.365 284.033 356.285 285.127 356.2 286.286C355.992 289.085 355.679 293.309 351.256 295.601C349.774 296.374 347.827 297.373 345.766 298.439C338.846 301.998 327.277 307.941 326.515 308.728C326.494 308.754 326.468 308.781 326.44 308.808L322.241 312.38C322.31 314.578 322.125 316.271 321.689 317.417C321.03 319.162 320.126 323.121 319.171 327.319C317.085 336.474 315.486 343.057 313.929 344.31C312.177 345.722 309.253 344.603 307.318 343.856C306.936 343.723 306.489 343.55 306.192 343.457C306.257 345.469 305.466 352.252 302.502 353.851C299.445 355.49 281.955 356.384 264.601 351.693C259.78 350.4 255.888 348.108 252.809 345.536C253.386 346.242 253.997 346.908 254.645 347.548L254.977 347.881C257.148 350.013 259.61 352.439 262.963 353.518C271.502 356.29 281.947 356.557 287.558 356.69C291.358 356.797 291.846 356.81 291.901 357.423C291.903 357.45 291.907 357.489 291.911 357.516C291.977 358.102 292.127 359.462 290.709 361.567C289.019 364.059 285.641 366.805 280.666 369.723C271.587 375.041 269.753 373.575 268.134 372.282C267.609 371.869 267.156 371.509 266.447 371.442C265.086 371.309 264.377 371.736 263.628 372.189C262.75 372.722 261.841 373.268 260.101 372.775C259.324 372.562 258.923 372.895 257.879 373.881C256.014 375.627 252.893 378.572 243.339 380.171C241.705 380.438 240.146 380.571 238.663 380.571ZM233.557 315.871C233.444 315.871 233.295 315.911 233.099 315.991C230.816 316.964 225.802 323.52 221.686 332.395C219.715 336.647 218.276 340.738 217.404 344.483C220.284 341.191 223.782 336.634 226.834 332.076C232.231 324.027 234.951 317.91 233.932 316.111C233.88 316.017 233.798 315.871 233.557 315.871ZM242.123 324.014C242.121 324.027 242.117 324.04 242.113 324.053C241.612 325.826 242.565 330.197 245.354 335.114C245.799 335.9 246.343 336.793 246.992 337.74C245.158 333.742 243.977 329.85 243.16 327.158C242.784 325.919 242.397 324.64 242.123 324.014ZM260.346 316.684C262.656 317.484 268.626 320.135 272.526 321.881C271.719 321.375 270.79 320.775 269.749 320.095C265.958 317.603 263.487 316.857 262.08 316.657C261.282 316.537 260.718 316.591 260.346 316.684ZM259.494 317.363C259.49 317.363 259.487 317.363 259.484 317.363C259.488 317.363 259.492 317.363 259.494 317.363ZM263.915 312.033C263.994 312.193 264.431 312.632 266.779 313.565C268.618 314.285 272.06 313.858 273.192 313.725L273.405 313.699C273.603 313.672 273.85 313.645 274.124 313.618C275.175 313.499 276.612 313.339 277.451 313.139C278.453 312.886 283.254 310.514 284.856 308.168C286.345 305.983 284.422 302.211 283.014 300.892C282.885 300.759 282.769 300.652 282.665 300.532C282.258 300.799 281.976 301.025 281.882 301.185C281.724 301.451 281.61 301.705 281.501 301.945C281.165 302.678 280.848 303.371 279.492 304.45C278.508 305.236 278.452 305.503 278.365 305.916C278.309 306.196 278.236 306.542 277.956 307.035C277.484 307.862 276.887 308.141 276.307 308.421C275.921 308.608 275.556 308.767 275.187 309.127C275.124 309.181 275.099 309.248 275.099 309.328C275.099 309.794 275.724 310.527 275.951 310.727L275.949 310.74C276.103 310.9 276.151 311.033 276.075 311.233C276.009 311.42 275.84 311.539 275.648 311.539C275.54 311.539 275.426 311.486 275.309 311.393L275.306 311.406C275.304 311.393 275.297 311.393 275.289 311.38C275.241 311.34 275.194 311.3 275.146 311.247C275.116 311.22 275.079 311.193 275.036 311.153C274.327 310.527 271.542 310.886 269.699 311.126C268.975 311.22 268.291 311.313 267.725 311.353C265.873 311.5 264.271 311.62 263.915 312.033ZM317.777 294.695C319.902 297.707 321.797 305.609 322.181 311.206L325.835 308.101C326.696 307.262 332.699 304.117 345.341 297.614C347.402 296.548 349.347 295.548 350.829 294.788C354.793 292.723 355.072 288.965 355.275 286.206C355.391 284.66 355.474 283.527 356.189 283.021C356.54 282.768 356.993 282.715 357.536 282.874C359.349 283.354 359.931 281.888 360.979 278.809C361.463 277.383 362.009 275.771 362.844 274.185C364.201 271.613 363.769 261.712 360.026 252.637C359.337 250.957 358.472 249.158 357.398 247.359C356.958 247.293 356.481 246.759 355.833 245.853C353.608 242.748 332.101 233.686 322.933 234.419C321.22 234.553 319.08 234.512 318.596 233.579C318.43 233.259 318.488 232.887 318.759 232.567C320.16 230.901 328.739 229.462 342.23 233.673C348.995 235.779 353.678 240.176 356.886 244.84C356.576 243.641 356.099 242.122 355.757 241.029C355.42 239.95 355.103 238.937 354.9 238.177C354.294 235.912 354.766 232.553 355.266 228.995C355.513 227.223 355.771 225.397 355.907 223.611C356.173 220.146 354.847 218.241 353.171 215.802C352.391 214.682 351.509 213.403 350.736 211.857C349.314 209.005 350.15 207.912 350.888 206.953C351.438 206.233 351.874 205.66 351.368 204.234C350.667 202.249 350.82 200.196 351.787 198.624C352.458 197.531 353.467 196.798 354.486 196.652C354.674 196.638 355.633 196.452 356.083 195.212C356.836 193.16 356.296 187.71 344.213 174.45C337.44 167.014 330.112 163.295 323.022 163.695C317.67 164.002 314.277 166.547 314.244 166.574C314.145 166.64 314.023 166.68 313.9 166.667C313.779 166.64 313.667 166.587 313.594 166.48C313.564 166.44 310.527 162.536 304.718 160.497C297.031 157.805 287.964 159.577 278.501 165.654C266.271 173.504 262.075 179.008 262.197 181.34C262.22 181.766 262.408 182.072 262.767 182.245C263.98 182.858 267.128 182.192 271.42 179.327C278.22 174.796 299.39 162.789 307.223 166.973C311.3 169.159 312.28 172.597 312.385 175.103C312.417 175.849 312.374 176.569 312.294 177.208C314.196 174.343 317.504 170.038 320.177 169.998C320.197 169.998 320.217 169.998 320.237 169.998C324.128 169.998 330.305 175.822 332.289 180.38C334.274 184.938 331.011 193.627 326.883 204.608L326.326 206.1C322.665 215.855 316.889 218.88 306.405 224.384C304.594 225.33 302.72 226.303 300.667 227.423C297.787 228.995 294.777 230.341 291.661 231.461C292.84 231.847 294.086 232.287 295.413 232.793C306.295 236.871 318.716 243.468 321.4 248.212C322.454 250.077 323.487 252.343 324.487 254.529C326.006 257.847 327.444 260.992 328.828 262.551C330.344 264.257 329.907 266.989 329.521 269.401C329.254 271.081 329 272.666 329.417 273.626C329.832 274.585 330.392 274.692 331.406 274.905C332.642 275.158 334.335 275.505 336.343 277.744C337.668 279.223 338.184 280.236 338.121 281.235C338.02 282.861 336.469 284.207 333.377 286.885C332.524 287.632 331.559 288.471 330.48 289.431C326.502 293.002 321.496 294.269 317.777 294.695ZM326.53 308.701C326.527 308.701 326.523 308.715 326.52 308.715C326.524 308.715 326.527 308.701 326.53 308.701ZM269.571 302.424C270.489 302.478 272.781 302.638 274.124 303.051C274.771 303.251 275.209 303.491 275.561 303.691C276.118 303.984 276.269 304.077 276.726 303.823C277.609 303.357 278.19 302.331 278.615 301.585L278.701 301.425C278.889 301.105 278.87 300.998 278.785 300.518C278.717 300.132 278.625 299.612 278.599 298.76C278.554 297.24 279.286 296.694 279.872 296.267C280.16 296.054 280.408 295.881 280.558 295.588C280.742 295.241 280.781 294.762 280.802 294.508C280.817 294.309 280.85 293.908 281.257 293.882C281.677 293.842 281.734 294.082 281.954 294.961C282.008 295.175 282.075 295.441 282.162 295.774C282.412 296.76 282.501 297.44 282.573 298C282.648 298.573 282.696 298.946 282.903 299.319C285.024 298.106 288.35 296.721 289.788 296.201C289.422 296.121 289.019 296.028 288.633 295.868C287.304 295.348 286.586 294.415 286.365 293.748C285.849 293.828 284.939 293.855 283.648 293.122C281.574 291.95 279.499 291.23 277.924 290.737C276.864 290.404 276.205 290.097 275.832 289.911C275.039 291.003 272.529 294.575 271.256 297.374C270.754 298.48 270.442 299.533 270.112 300.665C269.943 301.239 269.771 301.825 269.571 302.424ZM303.577 291.803C303.767 291.909 304.078 292.069 304.582 292.269C307.355 293.362 311.295 294.069 315.445 293.922C314.113 293.229 312.033 292.616 309.51 292.189C306.55 291.683 304.409 291.656 303.577 291.803ZM291.366 272.146C292.083 272.213 292.744 272.413 293.372 272.839C293.933 273.226 294.489 273.545 294.978 273.839C296.408 274.665 297.642 275.385 297.174 276.81C297.069 277.13 296.899 277.437 296.704 277.81C295.948 279.183 294.808 281.275 296.413 286.419C296.685 287.285 296.927 288.098 297.15 288.831C297.798 290.963 298.465 293.189 298.877 293.442C298.956 293.389 299.226 293.163 299.734 292.03C300.498 290.337 300.017 289.458 299.406 288.338C298.777 287.192 298.063 285.886 298.754 283.594C300.178 278.877 299.117 276.771 298.179 274.905C297.848 274.252 297.536 273.626 297.34 272.933C296.679 270.574 296.294 269.868 292.623 270.694C292.085 270.814 291.733 271.027 291.551 271.333C291.425 271.547 291.369 271.826 291.366 272.146ZM228.238 267.095C228.461 267.335 228.62 267.789 228.854 268.468C229.407 270.068 230.439 273.052 233.091 275.424C238.025 279.822 241.021 282.275 245.259 281.595C248.038 281.155 251.932 280.062 255.367 279.103C257.398 278.543 259.319 278.01 260.816 277.664C262.093 277.357 263.434 277.157 264.732 276.958C267.596 276.504 270.301 276.091 272.116 274.772C273.653 273.652 275.812 272.92 277.717 272.267C279.2 271.773 280.6 271.294 281.035 270.827C281.948 269.841 281.65 268.735 281.646 268.721C281.602 268.575 281.641 268.402 281.75 268.282C281.859 268.162 282.023 268.108 282.18 268.148C282.232 268.162 287.444 269.148 291.133 268.428C292.354 268.188 293.624 268.042 294.851 267.909C296.974 267.669 299.382 267.402 299.589 266.616C299.841 265.656 298.435 263.764 296.945 261.765C296.353 260.965 295.741 260.139 295.151 259.273C294.911 258.913 294.629 258.487 294.302 257.98C291.51 253.676 285.698 244.721 276.237 240.616C265.339 235.898 247.908 242.282 242.474 245.733C236.597 249.478 227.821 259.473 228.204 265.07C228.25 265.75 228.256 266.416 228.238 267.095ZM197 263.018C201.757 264.404 205.439 264.564 206.459 263.351C206.917 262.818 206.755 262.658 206.701 262.605C205.967 261.859 202.206 261.885 197 263.018ZM324.051 233.446C333.048 233.446 349.88 240.296 355.164 244.041C352.102 240.029 347.84 236.391 341.952 234.552C327.1 229.914 319.909 232.367 319.444 233.18C319.614 233.326 320.485 233.686 322.858 233.499C323.238 233.459 323.638 233.446 324.051 233.446ZM280.514 230.128C278.022 230.128 275.841 230.634 273.597 231.607C269.907 233.206 269.935 233.979 269.936 233.992C269.953 234.086 270.336 234.339 271.183 234.379C271.28 234.392 278.781 234.566 288.657 231.487C285.464 230.568 282.853 230.128 280.514 230.128Z" fill="url(#paint0_radial_391_41130)"/>
<path fill-rule="evenodd" clip-rule="evenodd" d="M65.3574 254.689C62.9053 254.689 60.8131 254.329 59.0806 253.809C54.0965 252.303 51.5245 249.252 51.0714 247.999C50.4317 246.28 50.1119 244.054 52.5906 240.549C55.5624 236.325 62.159 230.981 72.1806 224.678C74.033 223.505 75.8041 222.452 77.4899 221.479C74.4994 221.452 70.7813 220.919 65.9304 219.52C59.3338 217.614 56.0155 214.776 56.0954 211.071C56.242 204.181 68.5424 196.812 74.9258 195.253C80.9468 193.773 86.2587 193.227 90.7125 193.6C96.844 194.133 101.367 196.438 104.154 200.45C107.359 205.074 107.85 209.898 107.697 213.123C107.532 216.628 106.62 219.014 106.582 219.107C106.522 219.267 106.382 219.374 106.218 219.4C106.051 219.427 105.887 219.36 105.785 219.227C104.008 216.961 101.504 214.696 96.4002 215.082C92.6301 215.375 87.8206 217.041 81.8303 220.16C83.9773 219.733 85.6724 219.027 87.2849 218.361C90.7045 216.935 93.9348 215.589 100.2 217.268C104.099 218.321 106.346 220.293 106.876 223.132C108.05 229.448 100.14 238.444 94.1454 242.815C81.5038 252.037 72.0473 254.689 65.3574 254.689ZM79.4915 221.412C77.3606 222.598 75.0858 223.944 72.687 225.464C62.7587 231.7 56.2554 236.951 53.3502 241.083C50.8181 244.667 51.5511 246.626 51.9376 247.679C52.3374 248.745 54.7361 251.53 59.3471 252.916C65.5973 254.809 76.617 254.449 93.6003 242.055C99.3973 237.831 107.067 229.222 105.966 223.305C105.508 220.839 103.486 219.107 99.9598 218.174C94.0001 216.575 91.0537 217.801 87.6421 219.214C85.3899 220.146 82.9818 221.146 79.4915 221.412ZM87.8553 194.413C84.1172 194.413 79.8567 194.999 75.1391 196.145C68.849 197.678 57.1482 204.874 57.0283 211.098C56.9617 214.323 60.0401 216.855 66.1836 218.627C71.954 220.293 76.0639 220.706 79.2423 220.493C86.3653 216.575 91.9945 214.483 96.3309 214.163C101.371 213.79 104.144 215.882 105.969 217.988C106.663 215.576 108.25 207.979 103.394 200.983C100.77 197.198 96.4775 195.039 90.6325 194.533C89.7423 194.453 88.8148 194.413 87.8553 194.413Z" fill="url(#paint1_radial_391_41130)"/>
<path fill-rule="evenodd" clip-rule="evenodd" d="M58.0677 318.35C57.7612 318.35 57.468 318.323 57.1881 318.27C55.3224 317.87 54.3096 316.244 53.55 314.711C52.8437 313.259 51.6309 311.246 50.3516 309.114C49.6186 307.915 48.8857 306.688 48.1661 305.462C47.1399 306.235 45.834 306.982 44.1815 307.621C40.57 309.007 38.2111 309.327 36.7452 308.608C35.4258 307.968 35.0261 306.662 34.6263 305.383C34.2665 304.184 33.9201 303.05 32.8673 302.397C31.8411 301.758 30.7083 301.424 29.6155 301.105C28.0829 300.665 26.6437 300.252 25.9507 298.999C25.4176 298.027 25.431 296.68 25.9907 294.801C27.1768 290.803 25.3244 288.978 22.9656 286.659C21.8328 285.539 20.5535 284.26 19.5007 282.621C16.3956 277.797 15.7826 272.053 17.9815 268.641C19.4874 266.322 20.8866 264.27 21.4196 263.497C16.6754 259.1 10.5853 250.677 9.57251 248.731C8.87953 247.412 9.53252 246.453 10.2255 245.453C10.8652 244.52 11.5848 243.467 11.6914 241.775C11.8246 239.949 11.0916 239.51 9.75894 238.71C8.70615 238.07 7.40027 237.284 6.22754 235.525C3.57556 231.567 2.34949 229.755 7.86667 218.88C8.6796 217.281 9.50581 215.868 10.3454 214.615C9.97224 214.575 9.65247 214.455 9.39926 214.256C7.61351 212.896 6.80054 209.831 5.85435 206.286C5.16138 203.648 4.3618 200.649 3.04248 197.891C-0.0892639 191.334 -1.46193 183.085 2.16289 180.753C3.96196 179.594 6.5873 179.74 8.17316 179.833C8.02657 179.753 7.87999 179.66 7.69342 179.567C4.84155 177.981 3.21568 176.128 2.84254 174.05C2.49606 172.117 3.25558 170.038 5.09465 167.88C9.81224 162.322 23.4453 153.154 26.124 151.381C31.5345 147.783 36.5587 146.104 44.9144 148.809C52.897 151.395 58.774 155.033 65.9037 161.776C69.6218 165.294 72.8202 168.386 74.9791 170.491C73.7397 168.626 72.0872 166.24 70.2215 163.868C66.4367 159.004 54.4162 150.382 46.8334 147.09C43.4352 145.611 40.8231 145.358 39.4238 145.224C38.3843 145.118 37.8647 145.065 37.7181 144.585C37.5449 144.038 38.0779 143.585 39.3706 142.492C41.3563 140.813 43.1686 140.241 44.6212 139.774C45.9938 139.348 46.9 139.054 47.3798 138.095C47.8729 137.082 48.6458 136.695 49.3255 136.349C50.365 135.829 51.2712 135.376 51.5111 132.711C51.711 130.525 53.51 128.646 56.735 127.273C59.1871 126.234 60.9729 124.035 61.506 121.383C61.7858 120.024 62.0256 118.957 62.1989 118.225C62.5454 116.785 63.4516 116.199 64.2512 115.693C65.0108 115.213 65.6505 114.813 65.9037 113.734C66.2502 112.281 67.2763 112.081 68.5557 111.828C69.9949 111.548 71.9672 111.162 74.5393 108.976C76.1771 107.59 77.0793 106.417 77.7377 105.564C78.4466 104.645 78.9144 104.032 79.7206 103.952C80.4389 103.872 81.2518 104.205 82.9456 105.298C86.8583 107.804 94.9942 113.028 100.042 129.113C103.37 139.707 105.501 154.886 105.809 167.733C111.227 161.163 119.877 155.339 127.752 150.049C131.478 147.543 134.834 147.01 137.726 148.436C143.062 151.088 144.911 159.404 145.143 163.442C145.416 168.159 146.499 170.998 147.871 174.596C148.623 176.568 149.474 178.807 150.343 181.712C151.571 185.817 151.545 188.163 151.524 189.868C151.505 191.601 151.495 192.547 152.825 194.119C154.273 195.825 161.29 205.034 157.133 218.48C155.311 224.37 156.007 226.663 156.744 229.089C157.494 231.554 158.269 234.099 156.791 240.216C155.803 244.307 153.643 247.253 150.371 248.998C145.11 251.81 136.843 251.37 127.095 247.759C120.305 245.253 115.424 240.309 112.523 236.618C109.386 232.62 107.868 229.248 107.805 229.115C107.756 228.995 107.75 228.875 107.793 228.768C107.817 228.702 110.241 221.919 111.159 211.91C112.027 202.462 103.818 190.375 92.0623 183.818C80.199 177.195 65.8637 174.743 55.5356 177.568L55.1492 177.675C44.368 180.62 41.1164 181.513 34.693 189.255C33.6002 190.575 32.5874 191.747 31.6945 192.787C28.7094 196.238 26.9236 198.33 27.1501 199.703C27.2434 200.263 27.7231 200.77 28.6293 201.303C28.9359 201.476 29.8287 201.649 32.2541 200.756C32.9871 200.489 33.7867 200.143 34.6396 199.743C35.7457 196.812 38.7709 193.6 43.3419 188.762C49.4588 182.272 58.2409 177.222 60.733 178.754C61.2128 179.047 61.6925 179.713 61.1728 181.139C60.12 184.111 52.0041 190.054 49.5387 191.8C44.4746 195.412 39.3305 198.531 35.3992 200.41C34.8395 202.209 35.106 203.874 36.2788 205.86C39.1973 210.764 49.6054 216.814 53.1769 217.787C53.8832 216.788 54.7493 215.962 55.8554 215.388C57.0548 214.762 57.7612 214.642 58.161 215.016C58.3076 215.149 58.5341 215.482 58.2675 216.068C57.8144 217.135 55.7622 218.986 53.7898 218.84C53.7365 218.84 53.6699 218.827 53.6166 218.827C51.9641 221.572 51.4844 225.677 51.1245 230.021C50.5915 236.604 50.858 236.684 52.9103 237.258C53.4434 237.417 53.7632 237.671 53.8432 238.031C53.8965 238.244 53.8698 238.59 53.47 238.95C52.3906 239.91 48.8857 240.682 46.0605 239.683C45.2609 239.403 44.4613 239.056 43.6883 238.71C42.5023 238.19 41.3429 237.684 40.1969 237.404C39.9303 238.03 39.224 238.51 38.5177 238.963C37.0385 239.936 36.452 240.469 37.1317 241.535C38.4377 243.534 39.1974 243.614 41.0364 243.814C42.0759 243.934 43.3685 244.067 45.1676 244.587C47.1 245.16 49.512 247.066 51.631 249.718C53.1635 251.61 54.8294 254.328 54.4962 255.768C54.4162 256.114 54.0964 256.887 52.817 256.674C50.3383 256.274 49.1256 254.795 47.5931 252.916C46.5003 251.584 45.1409 249.931 42.942 248.172C39.8636 245.72 38.9308 245.733 37.5315 245.76C36.572 245.773 35.3593 245.8 33.2271 245.093C31.0549 244.374 30.1486 243.774 29.9887 242.961C29.7888 241.962 30.8415 241.055 32.4274 239.683C32.9738 239.203 33.5868 238.67 34.2398 238.057C35.839 236.565 37.4516 236.151 39.0508 236.271C38.8376 236.045 38.491 235.752 37.9312 235.392C32.5073 231.94 30.2019 224.89 31.1748 220.333C31.4413 219.093 31.7478 218.267 32.3875 218.214C33.1871 218.147 33.6535 219.32 34.5064 221.452C34.9328 222.518 35.4126 223.744 35.9856 224.877C36.4787 225.837 36.7985 226.636 37.065 227.276C37.8912 229.301 38.1045 229.848 41.5694 230.767C44.1414 231.434 46.1404 231.234 47.2332 230.194C48.2594 229.208 48.5259 227.476 47.9928 225.037C47.6064 223.211 46.98 222.132 46.3536 222.132C46.3403 222.132 46.3403 222.132 46.327 222.132C45.5008 222.158 44.3547 223.877 44.0348 226.116C43.7949 227.875 42.9954 228.968 41.8893 229.048C40.2369 229.168 38.611 226.969 37.5182 223.185C36.2788 218.88 37.0385 216.708 37.5449 215.269C37.8647 214.389 37.9979 213.936 37.7447 213.416C37.1316 212.15 35.679 210.138 34.3997 210.085C33.8533 210.071 33.347 210.444 32.8939 211.204C31.4547 213.656 30.3619 217.734 29.7089 220.173C29.4823 220.999 29.3091 221.652 29.1891 222.012C29.0692 222.345 28.8026 222.545 28.4428 222.572C27.3633 222.678 25.3644 221.079 24.3382 219.28C23.3787 217.587 23.352 215.961 24.2715 214.669C25.351 213.176 26.8302 212.07 28.2562 211.004C30.1086 209.605 31.7212 208.405 31.8811 206.7C31.9744 205.607 31.6146 204.82 30.895 204.621C30.0554 204.381 28.736 204.954 27.8165 206.78C26.2839 209.791 26.9369 210.564 26.9502 210.578C26.9369 210.551 26.9235 210.551 26.9235 210.551L26.3506 211.271C26.124 211.098 25.1245 210.045 26.9902 206.366C28.1629 204.048 29.922 203.368 31.1481 203.728C32.0543 203.994 32.9738 204.927 32.8006 206.793C32.6007 208.898 30.7616 210.285 28.8026 211.737C27.4433 212.763 26.0307 213.829 25.0312 215.215C23.9651 216.695 24.8313 218.401 25.4443 219.293C26.4971 220.813 27.9231 221.665 28.3229 221.665C28.4428 221.305 28.6027 220.706 28.8159 219.933C29.4823 217.454 30.5883 213.297 32.0942 210.738C32.7339 209.658 33.5202 209.125 34.4264 209.165C36.2521 209.232 37.8912 211.617 38.5709 213.017C39.0107 213.91 38.7442 214.682 38.4243 215.575C37.9312 216.975 37.2516 218.907 38.411 222.932C39.4638 226.61 40.8898 228.182 41.836 228.115C42.449 228.075 42.942 227.262 43.1153 225.996C43.4484 223.678 44.7145 221.265 46.287 221.199C47.1133 221.172 48.246 221.785 48.899 224.85C49.4987 227.609 49.1522 229.634 47.8729 230.86C46.5269 232.153 44.2614 232.42 41.3429 231.66C37.5982 230.674 37.1318 229.901 36.1989 227.622C35.9457 226.996 35.6391 226.223 35.1594 225.29C34.573 224.131 34.0799 222.891 33.6401 221.785C33.2537 220.812 32.7739 219.613 32.4807 219.226C32.3875 219.386 32.2541 219.746 32.0809 220.519C31.1747 224.784 33.3336 231.367 38.4243 234.605C39.4638 235.272 40.0501 235.871 40.2367 236.458C41.5294 236.751 42.7955 237.311 44.0615 237.871C44.8211 238.19 45.6073 238.537 46.367 238.817C49.1922 239.816 52.3506 238.777 52.8837 238.23C52.8303 238.217 52.7637 238.19 52.6571 238.15C49.7919 237.337 49.6853 236.364 50.205 229.941C50.5515 225.623 51.0446 221.506 52.6705 218.6C48.4193 217.321 38.3444 211.151 35.4792 206.327C34.3198 204.354 33.9466 202.649 34.2931 200.916C33.6801 201.196 33.107 201.422 32.574 201.622C30.4284 202.408 28.9759 202.569 28.1629 202.102C27.0035 201.436 26.3904 200.716 26.2439 199.863C25.924 198.051 27.7232 195.972 30.9882 192.187C31.8811 191.147 32.8939 189.975 33.9866 188.655C40.5966 180.699 44.2081 179.7 54.9093 176.782L55.2824 176.675C65.837 173.783 80.4496 176.275 92.5128 183.005C98.1539 186.15 103.258 190.748 106.887 195.945C110.689 201.383 112.533 207.086 112.081 212.003C111.235 221.212 109.122 227.729 108.727 228.888C109.467 230.447 115.569 242.508 127.416 246.893C136.913 250.397 144.91 250.864 149.935 248.185C152.963 246.572 154.968 243.814 155.891 240.003C157.31 234.126 156.572 231.7 155.856 229.355C155.078 226.796 154.343 224.37 156.247 218.2C160.262 205.22 153.512 196.359 152.117 194.719C150.564 192.894 150.578 191.681 150.599 189.868C150.616 188.216 150.643 185.95 149.456 181.979C148.596 179.101 147.751 176.888 147.006 174.929C145.606 171.251 144.498 168.346 144.218 163.495C143.961 159.031 141.909 151.555 137.313 149.276C134.742 147.996 131.699 148.516 128.268 150.821C120.101 156.312 111.09 162.362 105.837 169.186C105.907 174.623 105.639 179.58 104.98 183.512C104.734 184.977 104.151 185.923 103.338 186.163C102.757 186.35 102.128 186.137 101.611 185.591C100.205 184.098 99.5558 180.14 101.452 174.996C102.233 172.89 103.419 170.851 104.909 168.879C104.707 155.899 102.562 140.227 99.1587 129.393C94.2119 113.627 86.2653 108.523 82.4459 106.071C81.0133 105.152 80.2763 104.818 79.8219 104.871C79.4261 104.911 79.1036 105.311 78.4719 106.138C77.7869 107.017 76.8514 108.23 75.139 109.683C72.3804 112.028 70.1815 112.455 68.7423 112.734C67.4363 112.988 67.0098 113.107 66.8099 113.947C66.4634 115.386 65.5571 115.96 64.7576 116.479C63.9979 116.946 63.3583 117.359 63.1051 118.438C62.9318 119.158 62.6919 120.211 62.4254 121.57C61.8124 124.515 59.8267 126.967 57.0948 128.126C55.0825 128.993 52.6437 130.499 52.4305 132.791C52.1373 135.962 50.8714 136.615 49.7386 137.175C49.1123 137.495 48.5792 137.775 48.206 138.508C47.5664 139.827 46.327 140.214 44.9011 140.667C43.5284 141.093 41.8093 141.639 39.9702 143.185C39.6237 143.492 39.104 143.932 38.8242 144.225C39.0107 144.252 39.2773 144.278 39.5172 144.291C40.9698 144.438 43.675 144.704 47.2065 146.237C55.0425 149.649 67.0231 158.258 70.9544 163.295C74.8724 168.306 77.9309 173.383 77.9629 173.437C78.0815 173.636 78.0348 173.89 77.8509 174.037C77.6683 174.183 77.4045 174.169 77.2379 173.996C77.1886 173.956 72.1005 168.919 65.2773 162.456C58.2542 155.806 52.4705 152.234 44.6212 149.689C36.6253 147.104 31.8144 148.716 26.6437 152.141C19.2741 157.032 9.39915 164.254 5.78766 168.479C4.1485 170.425 3.45547 172.237 3.74866 173.876C4.08182 175.676 5.56113 177.315 8.14648 178.754C9.54576 179.54 10.0256 179.86 9.879 180.367C9.73241 180.86 9.22591 180.819 8.1198 180.766C6.65388 180.673 4.21518 180.539 2.6693 181.526C-0.35582 183.485 0.950226 191.334 3.88205 197.491C5.24136 200.329 6.04083 203.368 6.76047 206.047C7.65335 209.432 8.42632 212.35 9.95886 213.523C10.1055 213.63 10.3987 213.749 10.9584 213.696C15.5693 207.233 20.2469 205.567 23.6052 204.914C24.2316 204.794 24.6181 204.914 24.7913 205.274C24.9246 205.567 25.2178 206.18 22.0595 208.712C20.0605 210.311 14.7964 214.016 11.4915 214.562C10.5586 215.921 9.61244 217.494 8.69292 219.306C3.42894 229.688 4.46838 231.247 7.00041 235.005C8.05321 236.605 9.21269 237.297 10.2388 237.91C11.6115 238.736 12.7841 239.456 12.6242 241.842C12.4909 243.787 11.6514 245 10.985 245.973C10.2921 246.986 9.97229 247.505 10.3854 248.292C11.4115 250.264 17.635 258.846 22.3126 263.058C22.3392 263.071 22.3526 263.098 22.3793 263.111C22.9923 263.671 23.5919 264.15 24.1383 264.51C24.6048 264.843 25.1511 265.23 25.7775 265.683C31.3213 269.668 42.8621 277.97 55.2558 271.907C69.3553 265.017 81.4744 257.687 85.4217 253.689C86.0894 253.01 86.865 252.183 87.6846 251.304C92.1849 246.506 97.7874 240.509 101.331 241.762C101.9 241.962 102.337 242.402 102.626 243.055C104.885 248.105 97.782 265.883 96.3348 269.388C95.6605 271.027 94.9662 272.866 94.2279 274.798C93.3643 277.077 92.4714 279.436 91.4453 281.928C87.975 290.364 82.7804 301.078 73.3266 309.1C65.7704 315.497 61.0928 318.35 58.0677 318.35ZM48.8857 304.849C49.632 306.142 50.4049 307.435 51.1379 308.635C52.4306 310.78 53.6566 312.806 54.3896 314.298C55.3224 316.231 56.1886 317.11 57.3747 317.363C60.0267 317.91 64.7576 315.151 72.7269 308.394C82.0288 300.505 87.1582 289.911 90.5884 281.568C91.6093 279.09 92.5008 276.744 93.363 274.478C94.1026 272.519 94.7996 270.681 95.4793 269.041C99.7158 258.753 103.307 246.852 101.779 243.428C101.596 243.014 101.347 242.761 101.022 242.642C98.0499 241.589 92.2196 247.826 88.3603 251.943C87.5367 252.823 86.7584 253.662 86.0814 254.342C82.0674 258.407 69.8484 265.803 55.6689 272.733C52.3773 274.345 49.1655 274.985 46.1004 274.985C37.1317 274.985 29.469 269.481 25.2312 266.429C24.6182 265.989 24.085 265.603 23.6186 265.283C23.1388 264.963 22.6457 264.576 22.126 264.123C21.5396 264.95 20.207 266.922 18.7677 269.148C17.0619 271.773 17.0352 277.077 20.2736 282.114C21.2864 283.673 22.4725 284.86 23.6186 285.992C26.084 288.431 28.2163 290.537 26.8837 295.055C26.4039 296.667 26.3638 297.813 26.7636 298.56C27.27 299.466 28.4695 299.812 29.8688 300.212C30.9749 300.532 32.2276 300.892 33.3603 301.611C34.7063 302.451 35.1328 303.863 35.5192 305.116C35.879 306.302 36.1988 307.315 37.145 307.781C38.3444 308.368 40.5433 308.035 43.8483 306.755C45.4741 306.129 46.7268 305.409 47.6863 304.637C45.5807 300.945 43.8083 297.36 43.755 294.948C43.6884 291.99 44.9544 291.376 45.714 291.27C47.7529 290.976 50.4715 293.749 51.2978 296.947C51.7109 298.56 52.0574 301.931 48.8857 304.849ZM46.0205 292.176C45.9671 292.176 45.9006 292.176 45.8473 292.189C44.7812 292.336 44.6612 293.962 44.6745 294.921C44.7279 297.094 46.4203 300.545 48.406 304.01C51.0446 301.438 50.7648 298.573 50.4049 297.174C49.672 294.375 47.4597 292.176 46.0205 292.176ZM37.9579 244.827C39.3039 244.827 40.5033 245.04 43.5151 247.452C45.794 249.265 47.1799 250.971 48.2993 252.33C49.8319 254.182 50.8314 255.408 52.9636 255.768C53.5233 255.861 53.5766 255.661 53.6033 255.555C53.7632 254.835 52.8837 252.743 50.9114 250.291C48.899 247.785 46.6602 246 44.9011 245.48C43.1953 244.973 41.9425 244.84 40.9431 244.734C39.0374 244.534 37.8914 244.414 36.3588 242.029C35.1061 240.096 36.8519 238.95 38.0113 238.19C38.5044 237.87 38.9973 237.537 39.2372 237.231C37.758 237.058 36.3055 237.404 34.8796 238.737C34.2132 239.363 33.5869 239.896 33.0272 240.389C31.8411 241.416 30.8017 242.308 30.895 242.774C30.9483 243.054 31.4546 243.521 33.5069 244.214C35.4926 244.867 36.572 244.853 37.5182 244.827C37.6648 244.827 37.8113 244.827 37.9579 244.827ZM57.4014 215.748C57.2148 215.788 56.8683 215.908 56.2952 216.201C55.4823 216.628 54.816 217.201 54.243 217.907C55.1225 217.814 56.0154 217.255 56.6151 216.708C57.0415 216.322 57.2948 215.962 57.4014 215.748ZM23.7651 205.82C20.7267 206.419 16.5422 207.886 12.3444 213.39C12.5043 213.336 12.6776 213.283 12.8775 213.203C14.8098 212.47 17.4751 210.951 19.9938 209.112C22.1127 207.579 23.352 206.393 23.7651 205.82ZM59.5736 179.407C58.5341 179.407 56.6018 180.007 53.9631 181.513C50.5382 183.445 46.9134 186.323 44.0082 189.402C39.957 193.706 37.2116 196.611 35.9456 199.117C45.1542 194.466 59.0805 184.257 60.3065 180.833C60.4665 180.366 60.5997 179.753 60.2399 179.54C60.0933 179.447 59.8668 179.407 59.5736 179.407ZM104.924 170.425C103.826 172.024 102.939 173.65 102.322 175.316C100.441 180.42 101.268 183.871 102.285 184.951C102.44 185.111 102.752 185.377 103.067 185.284C103.413 185.177 103.855 184.617 104.066 183.351C104.668 179.767 104.941 175.316 104.924 170.425Z" fill="url(#paint2_radial_391_41130)"/>
<path fill-rule="evenodd" clip-rule="evenodd" d="M120.545 306.648C118.69 306.648 116.7 305.702 114.765 304.783C112.045 303.49 109.479 302.277 107.693 303.796C105.971 305.249 104.111 306.542 102.166 306.129C100.354 305.742 98.7281 303.917 97.049 300.398C93.6361 293.229 89.6034 284.1 89.5635 284.007C89.4595 283.767 89.5648 283.501 89.8007 283.394C90.0339 283.287 90.3071 283.394 90.4097 283.633C90.4524 283.727 94.4783 292.842 97.8859 299.999C99.4091 303.197 100.872 304.903 102.361 305.223C103.615 305.489 104.986 304.876 107.093 303.09C109.335 301.185 112.297 302.584 115.161 303.943C117.356 304.983 119.625 306.062 121.466 305.609C124.214 304.943 125.525 301.877 126.794 298.906C127.457 297.346 128.085 295.88 128.905 294.774C130.207 293.015 131.731 293.535 133.077 294.002C134.555 294.522 135.831 294.961 137.183 292.935C138.467 291.016 138.97 289.097 139.555 286.885C140.259 284.233 141.056 281.208 143.421 277.397C147.558 270.72 150.163 265.949 148.744 260.832C147.377 255.888 145.62 254.662 145.602 254.648C145.42 254.515 145.348 254.289 145.431 254.089C145.515 253.875 145.728 253.755 145.943 253.795C145.996 253.809 151.264 254.715 156.94 250.451C162.705 246.119 171.454 230.887 168.742 220.612C167.224 214.855 166.741 206.38 167.513 199.01C167.813 196.131 168.355 192.88 169.32 189.828C168.522 189.468 167.77 189.055 167.081 188.602C163.454 186.256 161.393 183.005 161.572 179.927C161.725 177.301 163.852 174.49 167.562 172.011C173.534 168.026 183.846 165.081 192.375 168.053L192.913 168.239C198.574 170.212 201.462 171.211 203.605 171.211C203.639 171.211 203.672 171.211 203.705 171.211C205.802 171.171 207.333 170.118 210.386 168.026L211.039 167.573C212.335 166.68 212.983 165.614 213.016 164.308C213.131 159.79 205.871 154.18 205.798 154.127C205.594 153.98 205.556 153.686 205.711 153.486C205.865 153.273 206.157 153.233 206.36 153.393C206.674 153.633 214.071 159.337 213.943 164.334C213.901 165.934 213.1 167.28 211.564 168.332L210.912 168.786C204.452 173.237 204.229 173.157 192.61 169.105L192.07 168.919C183.841 166.053 173.863 168.919 168.077 172.784C164.665 175.063 162.632 177.688 162.497 179.993C162.338 182.725 164.24 185.657 167.586 187.829C168.213 188.229 168.894 188.616 169.615 188.949C170.834 185.484 172.646 182.379 175.341 180.593C178.329 178.634 181.359 178.22 183.657 179.473C185.445 180.446 186.543 182.326 186.522 184.364C186.498 186.763 185.013 188.895 182.447 190.228C178.637 192.2 173.99 191.747 170.186 190.201C167.244 199.543 167.692 213.003 169.637 220.373C170.891 225.13 169.912 231.42 166.88 238.097C164.352 243.667 160.667 248.811 157.497 251.197C153.127 254.489 149.04 254.875 147.045 254.821C147.768 255.754 148.784 257.5 149.637 260.579C151.157 266.069 148.475 271 144.209 277.877C141.917 281.581 141.138 284.527 140.451 287.125C139.871 289.324 139.322 291.403 137.955 293.442C136.205 296.067 134.302 295.414 132.772 294.881C131.352 294.388 130.507 294.161 129.651 295.321C128.893 296.347 128.288 297.76 127.647 299.265C126.351 302.291 124.884 305.729 121.686 306.515C121.314 306.608 120.931 306.648 120.545 306.648ZM170.478 189.335C174.07 190.801 178.454 191.254 182.022 189.402C184.272 188.229 185.576 186.39 185.597 184.364C185.613 182.659 184.7 181.086 183.213 180.286C181.226 179.207 178.543 179.594 175.851 181.366C173.462 182.952 171.71 185.804 170.478 189.335Z" fill="url(#paint3_radial_391_41130)"/>
<path fill-rule="evenodd" clip-rule="evenodd" d="M200.144 160.097C197.065 160.097 193.07 159.431 188.924 158.738C184.657 158.032 180.248 157.285 177.042 157.379C171.529 157.525 168.47 154.193 165.768 151.248C164.503 149.876 163.31 148.57 161.956 147.69C160.946 147.037 159.142 146.078 157.051 144.971C149.86 141.16 138.994 135.416 137.164 130.059C134.778 123.089 130.214 116.252 126.064 110.509C123.044 106.311 121.624 99.1946 120.48 93.4775C119.898 90.5723 119.396 88.0535 118.817 86.7076C118.14 85.135 118.6 82.4296 120.08 79.2712C122.278 74.5803 126.585 69.2366 131.256 67.8506C136.096 66.4247 142.885 70.7692 148.566 76.2331C148.112 73.7144 147.98 71.3155 148.289 69.1299C149.078 63.5594 150.665 59.4282 152.066 55.7767C153.787 51.299 155.149 47.7543 154.494 43.2232C154.382 42.4503 154.259 41.6637 154.14 40.9041C152.936 33.1347 151.688 25.1126 159.49 20.6482C165.621 17.1433 171.596 11.2663 175.548 7.375C177.141 5.8158 178.399 4.57628 179.26 3.88329C182.503 1.29794 194.283 -1.32751 199.719 0.751434C200.366 0.991302 200.994 1.2449 201.607 1.48477C206.023 3.23055 209.836 4.72304 216.475 4.07004C224.254 3.2971 232.166 9.76012 232.499 10.0266C232.639 10.1466 232.698 10.3336 232.648 10.5069C232.6 10.6934 232.453 10.8131 232.271 10.853C232.223 10.853 227.35 11.5997 222.572 12.8657C221.611 13.1322 220.76 13.252 219.935 13.3719C218.218 13.6118 216.737 13.8249 214.802 15.1842C211.823 17.2897 209.003 19.8486 206.274 22.314C204.066 24.313 201.979 26.2052 199.869 27.8177C198.894 28.564 197.822 29.6034 196.581 30.7895C194.866 32.4553 192.923 34.3342 190.658 35.9867C188.968 37.2127 187.076 38.2524 185.406 39.1719C183.211 40.3846 181.316 41.4241 180.472 42.5302C178.894 44.5958 178.321 48.5939 178.138 51.9922C179.337 49.6467 181.628 46.6212 185.859 42.8764C192.034 37.4125 196.283 34.6408 199.697 32.4286C202.417 30.6562 204.565 29.2573 206.567 27.165C207.475 26.2055 208.331 25.2191 209.159 24.2596C212.511 20.3816 215.678 16.7166 222.024 15.3573C231.558 13.3316 238.505 12.3454 243.888 12.2787C250.103 12.2121 254.004 16.8501 256.402 20.3417C257.269 21.6077 259.872 21.7809 262.387 21.9541C265.176 22.1407 267.81 22.3139 268.946 23.8464C269.656 24.8059 270.048 25.992 270.462 27.2314C271.307 29.7768 272.265 32.6686 276.209 35.2273C280.36 37.9193 287.234 43.5297 286.634 50.886C286.32 54.7374 286.929 60.388 287.468 65.3721C287.746 67.9174 288.007 70.3291 288.105 72.1948C288.4 77.6986 283.087 84.362 279.667 87.2672C276.65 89.8259 269.136 98.3548 267.187 102.846C265.584 106.537 258.182 114.374 255.292 117.346C257.235 116.706 260.925 115.026 265.653 110.669C269.663 106.977 273.721 100.754 277.3 95.2631C280.211 90.7987 282.959 86.588 285.256 84.3891C289.894 79.938 296.98 82.4433 300.383 83.6427C300.872 83.8159 301.295 83.9756 301.633 84.0689C303.236 84.562 303.038 87.2542 302.786 90.6658C302.511 94.3706 302.172 98.9813 304.267 101.087C306.062 102.886 306.752 106.911 306.067 111.602C305.271 117.039 302.475 123.902 297.017 126.847C288.329 131.551 280.592 139.72 278.404 144.571C277.186 147.277 273.173 150.649 268.417 152.941C262.528 155.793 256.288 156.712 250.848 155.539C244.143 154.086 237.633 154.926 231.89 155.659C227.326 156.246 223.386 156.739 220.427 155.912C215.601 154.566 211.038 150.982 209.331 147.197C208.369 145.065 208.346 142.946 209.264 141.04C209.817 139.907 209.996 139.188 209.815 138.841C209.595 138.441 208.674 138.268 207.365 138.082C206.109 138.308 205.096 138.535 204.704 138.788C204.949 139.841 205.853 143.825 206.307 147.983C207.033 154.606 206.293 158.471 204.106 159.458C203.106 159.911 201.749 160.097 200.144 160.097ZM177.57 156.445C180.798 156.445 185.003 157.152 189.077 157.831C194.969 158.804 201.062 159.817 203.724 158.617C207.359 156.978 204.969 143.719 203.742 138.748C203.71 138.615 203.737 138.481 203.816 138.375C203.998 138.121 204.323 137.908 204.812 137.735C201.955 137.295 198.125 136.442 193.343 134.07C180.965 127.913 178.978 123.036 175.02 113.307L174.585 112.241C174.026 110.869 173.452 109.483 172.874 108.07C169.008 98.6885 165.008 88.973 164.058 83.3226C163.19 78.1652 165.058 71.5954 169.763 63.2397C171.07 60.9209 173.289 59.8412 175.692 60.361C178.727 61.014 182.013 64.3058 182.517 70.1828C182.814 73.6344 183.028 79.4311 183.256 85.5747C183.625 95.4896 184.041 106.738 184.901 109.936C185.389 111.748 185.526 113.947 185.303 115.813C186.793 116.36 188.681 117.119 191.086 118.119C192.182 118.572 193.358 118.931 194.59 119.224C194.746 118.718 194.904 118.225 195.061 117.718C195.733 115.599 196.367 113.587 196.603 111.948C196.848 110.242 197.562 108.523 198.253 106.857C199.925 102.819 201.504 99.0211 196.689 95.5696C195.663 94.8366 194.78 94.2507 194.001 93.7176C189.196 90.506 188.841 90.0259 189.295 80.4575C189.737 71.1289 190.999 59.6815 196.895 53.8845C201.251 49.6066 204.112 47.2609 205.855 47.9806C206.751 48.3537 207.199 49.4335 207.223 51.2992C207.265 54.6841 203.463 61.7338 199.785 68.5436C197.144 73.4345 194.65 78.0588 194.441 79.9246C194.076 83.1896 196.116 88.4268 197.175 88.5334C197.183 88.5468 197.957 88.5867 198.373 84.8686C199.492 74.9004 203.521 59.7478 208.178 57.2291C210.163 56.1497 211.315 54.7237 212.241 53.5643C213.332 52.2183 214.275 51.0457 215.928 51.6454C216.956 52.0185 219.191 51.5659 221.354 51.1261C224.205 50.5531 227.153 49.9667 228.733 50.8463C230.283 51.7125 231.237 53.7776 232.079 55.6166C232.691 56.936 233.323 58.3085 233.944 58.5351C235.387 59.0815 238.263 61.4271 239.309 63.746C239.761 64.7321 239.837 65.6387 239.538 66.4249C238.513 69.1169 238.729 77.9518 239.843 78.858C240.736 79.591 241.244 81.1103 241.076 82.5495C240.952 83.6156 240.346 85.588 237.674 86.9073C236.151 87.6403 234.421 88.7997 232.746 89.9058C229.619 91.9714 226.918 93.7705 225.33 93.2641C223.7 92.7444 222.996 91.7185 221.455 89.5062C220.733 88.4668 219.832 87.1744 218.549 85.4953C216.691 83.0832 215.269 82.0303 214.017 81.1108C212.576 80.058 211.215 79.0581 209.606 76.3261C208.882 75.0868 208.058 73.9542 207.263 72.8481C205.564 70.4893 204.096 68.4501 204.476 66.6377C204.664 65.7448 205.274 64.9989 206.342 64.3726C208.567 63.0666 210.901 62.44 213.154 61.827C215.269 61.254 217.266 60.7077 218.966 59.655C221.27 58.229 222.266 58.9349 223.644 59.9211C224.654 60.6274 225.911 61.5207 228.249 62.0405C232.165 62.92 234.774 65.6248 235.912 67.8637C236.644 69.3029 236.83 70.6626 236.424 71.5955C235.991 72.595 235.651 75.0739 235.323 77.4727C234.927 80.3645 234.518 83.363 233.858 84.7756C232.803 87.0678 228.642 90.5987 226.677 90.8786C226.084 90.9586 225.759 90.7457 225.589 90.5591C225.399 90.3326 224.891 89.9861 224.354 89.613C222.937 88.6535 221.176 87.4406 221.28 86.0946C221.332 85.4149 221.854 84.8288 222.831 84.3624C224.199 83.6961 225.259 83.4558 226.032 83.2692C227.447 82.936 227.826 82.8564 228.148 80.8974C228.493 78.7918 229.474 77.6453 230.423 76.5259C231.106 75.7263 231.814 74.9005 232.317 73.6745C233.523 70.7427 232.579 67.7707 231.909 67.1576C231.396 66.6779 230.843 66.3314 230.539 66.2115C230.556 66.2915 230.588 66.3981 230.64 66.5447C231.119 67.8507 230.88 68.2641 230.26 68.8371C229.978 69.0903 229.626 69.4231 229.263 70.1027C228.78 71.0223 228.802 72.1949 228.825 73.3277C228.848 74.4471 228.87 75.5135 228.375 76.2864C228.169 76.5929 228.205 76.7792 228.244 76.9658C228.276 77.1257 228.331 77.4056 228.131 77.6321C227.859 77.9519 227.458 77.9652 225.327 77.8852C223.973 77.8319 222.977 78.1523 222.102 78.4188C220.531 78.9119 219.174 79.3381 217.083 77.1525C216.337 76.3663 215.672 75.7934 215.087 75.2869C213.412 73.8344 212.401 72.9681 213.93 70.2895C214.623 69.0901 215.005 68.0642 215.344 67.1713C215.868 65.7853 216.321 64.5856 217.68 63.4395C218.224 62.9864 218.542 62.5867 218.795 62.2669C219.687 61.1475 220.136 61.0009 222.891 61.9071C223.6 62.1336 224.291 62.3465 224.902 62.533C227.135 63.1994 228.483 63.6131 228.714 64.506C228.82 64.9191 228.662 65.3318 228.245 65.7716C228.241 65.7716 228.236 65.772 228.232 65.7853L228.195 65.825C225.958 68.1171 223.932 70.7556 225.847 72.9145C226.759 73.9406 226.837 75.0471 226.061 75.9533C225.689 76.3797 225.156 76.7259 224.543 76.9658C224.803 76.9525 225.075 76.9525 225.361 76.9658C225.993 76.9791 226.885 77.0191 227.307 76.9925C227.264 76.7126 227.258 76.2999 227.598 75.7802C227.937 75.2471 227.919 74.3275 227.9 73.3413C227.876 72.1553 227.85 70.8093 228.444 69.6765C228.881 68.8503 229.314 68.4503 229.63 68.1571C230.027 67.784 230.088 67.7304 229.77 66.8642C229.667 66.5843 229.355 65.7316 229.918 65.3584C230.703 64.8387 232.238 66.1984 232.539 66.4783C233.644 67.5044 234.439 70.9559 233.173 74.0343C232.614 75.3936 231.859 76.2733 231.128 77.1395C230.182 78.2456 229.366 79.2047 229.062 81.0438C228.658 83.5092 227.862 83.8025 226.244 84.1756C225.471 84.3622 224.509 84.5751 223.231 85.1881C222.78 85.4147 222.235 85.7485 222.204 86.1616C222.14 86.9878 223.788 88.1067 224.878 88.8529C225.515 89.2927 226.018 89.6396 226.288 89.9461C226.294 89.9461 226.368 89.9858 226.546 89.9591C228.095 89.7326 232.025 86.5346 233.018 84.3891C233.619 83.0964 234.036 80.0443 234.405 77.3523C234.757 74.7803 235.09 72.3417 235.574 71.2356C235.865 70.5693 235.683 69.4632 235.086 68.2905C234.045 66.2382 231.648 63.7592 228.047 62.9462C225.527 62.3865 224.129 61.4004 223.108 60.6675C221.783 59.7346 221.236 59.3482 219.454 60.441C217.637 61.5604 215.578 62.1201 213.398 62.7198C211.201 63.3195 208.93 63.933 206.812 65.1723C205.982 65.6654 205.514 66.2114 205.384 66.8245C205.088 68.2371 206.444 70.1159 208.014 72.3015C208.822 73.4209 209.659 74.5936 210.404 75.8596C211.916 78.4183 213.144 79.325 214.564 80.3644C215.868 81.3239 217.347 82.4163 219.283 84.935C220.581 86.6275 221.489 87.9339 222.218 88.9733C223.72 91.1455 224.281 91.9449 225.611 92.3713C226.777 92.7445 229.677 90.8259 232.234 89.1334C233.933 88.0006 235.69 86.8408 237.266 86.0679C239.43 85.0151 240.031 83.5096 240.155 82.4435C240.303 81.1641 239.815 80.0308 239.256 79.5777C237.598 78.2184 237.654 68.7571 238.675 66.0918C238.88 65.5454 238.811 64.8791 238.465 64.1195C237.499 61.9872 234.739 59.828 233.62 59.4148C232.64 59.0417 231.99 57.629 231.238 56.0032C230.455 54.2974 229.567 52.3787 228.28 51.659C226.999 50.9394 224.097 51.5258 221.535 52.0456C219.143 52.5253 216.884 52.9785 215.61 52.5121C214.62 52.1523 214.086 52.752 212.962 54.1513C211.984 55.364 210.766 56.8831 208.618 58.0425C204.46 60.2947 200.385 75.247 199.293 84.9754C199.068 86.9877 198.592 89.6265 197.072 89.4666C195.013 89.2267 193.183 82.8296 193.52 79.8178C193.748 77.7789 196.168 73.3011 198.97 68.1038C202.422 61.707 206.335 54.4573 206.296 51.3122C206.278 49.8996 206.003 49.0469 205.502 48.8337C203.987 48.2073 199.635 52.4852 197.544 54.5508C191.876 60.1079 190.654 71.3425 190.221 80.4978C189.782 89.7864 189.96 89.9058 194.516 92.9576C195.301 93.4773 196.191 94.0776 197.229 94.8238C202.641 98.6885 200.846 103.019 199.108 107.204C198.439 108.816 197.748 110.482 197.52 112.068C197.273 113.787 196.628 115.839 195.946 117.998C195.797 118.478 195.646 118.958 195.497 119.425C200.309 120.424 205.863 120.437 210.91 120.451C216.294 120.464 220.944 120.464 223.248 121.743C224.206 122.263 225.268 122.982 226.396 123.795C226.55 123.689 226.705 123.596 226.865 123.489C231.945 120.197 238.903 115.693 242.076 110.989C246.936 103.792 259.28 85.495 261.363 80.924C260.506 81.1906 259.082 81.6434 257.389 82.2697C256.464 82.6162 255.449 82.6833 254.275 82.7766C251.747 82.9632 248.6 83.203 244.773 86.3614C240.662 89.7596 236.081 91.3854 235.168 90.9723C234.961 90.879 234.831 90.6923 234.825 90.4791C234.814 90.1459 235.037 89.8125 236.18 89.2128C239.272 87.5603 240.278 86.4148 242.28 84.1093C242.583 83.7495 242.906 83.3895 243.262 82.9764C243.948 82.2034 244.481 81.5237 244.951 80.924C246.327 79.1516 247.32 77.8854 250.459 76.4328C253.611 74.9803 258.887 76.0462 261.322 77.9386C262.525 78.8714 262.664 79.7247 262.566 80.2844C262.565 80.2977 262.562 80.2977 262.561 80.3111C262.096 82.7365 252.334 97.4352 242.845 111.508C239.701 116.172 233.352 120.384 228.044 123.835C230.16 123.102 232.317 122.356 234.442 121.57C241.608 118.905 247.348 120.304 251.503 125.741C252.564 127.127 252.902 128.233 252.536 129.126C251.849 130.792 248.947 131.205 245.271 131.711C244.294 131.845 243.286 131.991 242.263 132.164C240.073 132.524 237.565 131.951 234.595 130.392C232.125 129.113 229.654 127.3 227.474 125.714C227.25 125.554 227.027 125.395 226.805 125.235C226.771 125.248 226.735 125.248 226.702 125.261C226.102 125.475 225.5 125.674 224.895 125.887C222.564 127.433 220.58 128.886 220.621 129.513C220.625 129.592 220.8 129.673 220.853 129.699C223.678 131.045 229.531 130.672 232.343 130.498C233.545 130.418 233.934 130.392 234.141 130.446C234.374 130.512 234.531 130.699 234.533 130.925C234.534 131.285 234.535 131.525 230.503 132.911C227.92 133.79 224.746 134.75 221.565 135.616C218.077 136.576 214.149 137.108 210.993 137.548C210.617 137.601 210.233 137.655 209.852 137.708C210.205 137.881 210.464 138.095 210.63 138.401C210.982 139.054 210.829 139.947 210.097 141.453C209.292 143.106 209.319 144.918 210.175 146.823C211.752 150.315 216.168 153.767 220.676 155.02C223.454 155.806 227.31 155.313 231.772 154.74C237.59 153.994 244.182 153.154 251.044 154.633C256.283 155.766 262.309 154.873 268.014 152.114C273.269 149.569 276.646 146.224 277.557 144.198C279.808 139.201 287.718 130.832 296.574 126.034C301.735 123.249 304.386 116.679 305.149 111.468C305.784 107.124 305.179 103.313 303.611 101.74C301.216 99.3415 301.575 94.4901 301.862 90.5988C302.056 87.9601 302.258 85.2282 301.361 84.9617C301.006 84.8551 300.574 84.6951 300.074 84.5218C296.596 83.2824 290.123 81.0041 285.896 85.0554C283.677 87.1876 280.957 91.3456 278.077 95.77C274.467 101.3 270.374 107.577 266.282 111.349C258.936 118.118 254.065 118.638 253.862 118.652C253.668 118.678 253.483 118.571 253.4 118.385C253.317 118.211 253.354 118.011 253.491 117.865C253.599 117.758 264.446 106.831 266.337 102.473C268.372 97.7953 275.916 89.2398 279.069 86.5611C282.352 83.7759 287.458 77.4188 287.181 72.2481C287.082 70.4091 286.823 68.0105 286.548 65.4651C286.005 60.441 285.389 54.7506 285.711 50.806C286.27 43.9295 279.683 38.5857 275.704 36.0004C271.487 33.2684 270.432 30.0836 269.583 27.5249C269.176 26.2988 268.823 25.2459 268.201 24.393C267.32 23.2069 264.78 23.0335 262.325 22.8736C259.589 22.7003 256.759 22.5005 255.638 20.8746C253.359 17.543 249.664 13.1319 243.9 13.2119C238.581 13.2785 231.692 14.2514 222.218 16.2637C216.177 17.5564 213.108 21.1015 209.859 24.8596C209.026 25.8324 208.161 26.8315 207.237 27.791C205.161 29.9766 202.973 31.4026 200.202 33.2017C196.813 35.4005 192.597 38.1455 186.475 43.5694C180.596 48.7668 178.631 52.4584 178.058 54.7506C178.052 56.5097 178.126 57.7357 178.128 57.7757C178.143 57.9889 178.008 58.1756 177.803 58.2423C177.598 58.3089 177.375 58.2157 177.267 58.0425C177.211 57.9359 176.594 56.816 177.125 54.6172C177.143 50.8724 177.541 44.8358 179.735 41.9706C180.698 40.7046 182.673 39.6119 184.959 38.3592C186.605 37.453 188.47 36.4267 190.113 35.2273C192.326 33.6148 194.244 31.7623 195.938 30.1232C197.199 28.9104 198.289 27.8579 199.305 27.085C201.386 25.4991 203.458 23.6196 205.651 21.634C208.399 19.1419 211.243 16.57 214.267 14.4378C216.383 12.9319 218.045 12.7057 219.804 12.4525C220.601 12.3326 221.426 12.2255 222.332 11.9723C225.816 11.0394 229.349 10.3999 231.067 10.1067C228.837 8.48083 222.544 4.3898 216.567 4.9895C209.705 5.66914 205.795 4.13663 201.268 2.35088C200.655 2.09767 200.033 1.85739 199.389 1.61752C194.065 -0.421432 182.622 2.39046 179.837 4.616C179.014 5.269 177.771 6.48212 176.197 8.04132C172.211 11.9593 166.185 17.8897 159.95 21.4479C152.703 25.6058 153.845 32.9617 155.057 40.7577C155.176 41.5306 155.299 42.3169 155.411 43.0898C156.099 47.8607 154.631 51.6855 152.932 56.1099C151.547 59.708 149.98 63.7995 149.206 69.2633C148.858 71.7154 149.111 74.5141 149.772 77.4193C152.196 79.8847 154.364 82.5095 156.012 84.8817C157.693 87.2938 160.885 91.9981 163.357 96.2626C166.781 102.166 166.721 103.592 166.21 104.205C165.853 104.632 165.231 104.659 164.365 104.272C160.452 102.513 151.584 89.4796 148.903 77.8722C143.155 72.0885 136.142 67.3841 131.517 68.7434C127.148 70.0361 122.96 75.3137 120.92 79.6714C119.571 82.5366 119.104 85.0417 119.669 86.3477C120.284 87.7736 120.796 90.3326 121.389 93.3044C122.513 98.9282 123.913 105.938 126.816 109.963C131.006 115.773 135.615 122.676 138.041 129.766C139.752 134.763 150.853 140.64 157.484 144.158C159.682 145.317 161.417 146.237 162.462 146.917C163.913 147.85 165.146 149.196 166.45 150.622C169.145 153.553 171.933 156.592 177.018 156.445C177.198 156.445 177.383 156.445 177.57 156.445ZM174.502 61.1607C172.895 61.1607 171.497 62.0401 170.571 63.6926C165.972 71.8618 164.141 78.2323 164.972 83.1631C165.905 88.7203 169.883 98.3816 173.731 107.724C174.309 109.123 174.885 110.522 175.443 111.895L175.879 112.961C179.75 122.463 181.692 127.233 193.756 133.244C199.56 136.122 203.942 136.696 206.843 137.082C207.013 137.109 207.18 137.122 207.341 137.149C208.299 136.989 209.468 136.829 210.867 136.629C213.995 136.202 217.891 135.67 221.321 134.723C225.907 133.471 229.682 132.245 231.827 131.445C228.776 131.645 223.309 131.885 220.456 130.539C219.863 130.259 219.715 129.859 219.695 129.566C219.648 128.86 220.313 128.06 221.706 126.994C218.518 128.113 215.311 129.326 212.182 130.725C205.221 133.844 199.922 135.03 195.018 131.325C192.109 129.139 192.991 124.595 194.32 120.118C193.063 119.811 191.86 119.437 190.731 118.971C188.292 117.958 186.521 117.252 185.155 116.746C184.867 118.185 184.326 119.304 183.532 119.664C182.93 119.944 181.97 119.931 180.832 118.265C179.819 116.786 179.256 115.666 179.797 115C180.296 114.373 181.375 114.414 184.425 115.493C184.585 113.894 184.486 111.961 184.005 110.175C183.119 106.87 182.719 96.0627 182.331 85.6013C182.104 79.4845 181.89 73.6877 181.594 70.2628C181.129 64.8656 178.198 61.8538 175.498 61.2674C175.158 61.1875 174.826 61.1607 174.502 61.1607ZM195.228 120.317C193.977 124.515 193.123 128.74 195.575 130.592C199.603 133.63 203.848 133.444 211.802 129.885C215.976 128.006 220.273 126.487 224.481 125.048C224.822 124.821 225.182 124.582 225.56 124.342C224.569 123.636 223.636 123.009 222.8 122.556C220.705 121.396 216.165 121.384 210.907 121.37C205.787 121.357 200.149 121.357 195.228 120.317ZM227.878 124.861C227.925 124.901 227.972 124.928 228.019 124.968C230.174 126.54 232.615 128.313 235.026 129.579C237.81 131.031 240.126 131.578 242.109 131.245C243.144 131.071 244.161 130.925 245.146 130.792C248.256 130.365 251.196 129.953 251.677 128.78C251.905 128.233 251.599 127.393 250.766 126.301C246.888 121.223 241.505 119.931 234.765 122.436C232.474 123.289 230.15 124.088 227.878 124.861ZM180.827 115.52C180.595 115.52 180.527 115.573 180.514 115.586C180.503 115.613 180.396 115.986 181.594 117.732C181.946 118.252 182.614 119.064 183.144 118.825C183.653 118.585 184.063 117.679 184.293 116.426C183.903 116.293 183.547 116.173 183.22 116.066C181.85 115.626 181.164 115.52 180.827 115.52ZM150.233 79.2446C153.25 90.079 161.234 101.847 164.743 103.419C165.331 103.686 165.501 103.606 165.503 103.606C165.524 103.579 166.076 102.806 162.556 96.7291C160.1 92.4913 156.924 87.8137 155.251 85.4016C153.865 83.4159 152.141 81.2835 150.233 79.2446ZM254.015 76.673C252.851 76.673 251.743 76.8591 250.847 77.2723C247.913 78.6316 247.025 79.7645 245.68 81.4837C245.202 82.11 244.661 82.8031 243.956 83.5893C243.601 84.0025 243.28 84.3621 242.979 84.7086C241.079 86.8941 239.985 88.1605 237.139 89.7464C238.801 89.16 241.483 87.8802 244.183 85.6547C248.238 82.2964 251.547 82.0431 254.205 81.8565C255.311 81.7632 256.267 81.6968 257.069 81.4036C259.231 80.604 260.961 80.0711 261.654 79.8712C261.575 79.3781 261.078 78.9251 260.754 78.6719C259.265 77.5125 256.51 76.673 254.015 76.673ZM220.455 62.2532C220 62.2532 219.827 62.467 219.52 62.8402C219.255 63.1733 218.89 63.6397 218.274 64.1461C217.102 65.1323 216.727 66.1185 216.211 67.5045C215.861 68.424 215.463 69.4767 214.735 70.7561C213.585 72.755 214.03 73.141 215.692 74.5803C216.265 75.0734 216.976 75.7 217.753 76.5129C219.447 78.2853 220.291 78.0188 221.823 77.5391C221.967 77.4991 222.115 77.4456 222.27 77.4057C221.354 77.4057 220.48 77.2191 219.832 76.7927C217.741 75.4334 216.245 72.5285 216.283 71.7555C216.301 71.449 216.494 71.3153 216.577 71.2753C216.681 71.222 216.896 71.1554 217.16 71.3287C217.548 71.5819 219.631 72.8347 222.6 72.7947C223.077 72.7814 223.89 72.6746 223.977 71.9683C224.066 71.2354 223.321 70.1828 222.107 69.8763C221.241 69.6497 220.493 69.6632 219.894 69.6765C219.21 69.7032 218.624 69.7165 218.226 69.3167C217.873 68.9702 217.84 68.4372 217.847 68.0641C217.857 67.3844 217.933 66.691 218.404 66.3046C218.947 65.8648 219.738 66.0247 221.045 66.2779L221.166 66.3046C222.968 66.6644 226.953 65.2918 227.644 65.0519C227.799 64.8787 227.827 64.7724 227.818 64.7324C227.716 64.346 226.008 63.8259 224.634 63.4128C224.019 63.2262 223.321 63.0267 222.602 62.7868C221.477 62.4137 220.854 62.2532 220.455 62.2532ZM217.483 72.5683C217.947 73.5411 218.975 75.1401 220.337 76.0196C221.751 76.9392 224.451 76.4061 225.357 75.3533C225.825 74.8069 225.759 74.2071 225.152 73.5274C224.947 73.2876 224.776 73.0613 224.638 72.8214C224.273 73.3811 223.562 73.7142 222.612 73.7142C220.319 73.7542 218.5 73.0614 217.483 72.5683ZM220.395 68.7434C220.942 68.7434 221.603 68.7833 222.34 68.9699C223.161 69.1831 223.805 69.6364 224.242 70.1561C224.533 68.7835 225.461 67.4778 226.344 66.4516C224.734 66.9314 222.38 67.4908 220.986 67.211L220.865 67.1973C219.967 67.0108 219.193 66.8647 218.986 67.0379C218.895 67.1045 218.785 67.3445 218.771 68.0908C218.766 68.5039 218.845 68.6234 218.879 68.6634C218.995 68.77 219.44 68.7571 219.87 68.7571C220.031 68.7438 220.205 68.7434 220.395 68.7434Z" fill="url(#paint4_linear_391_41130)"/>
<defs>
<radialGradient id="paint0_radial_391_41130" cx="0" cy="0" r="1" gradientUnits="userSpaceOnUse" gradientTransform="translate(258.02 141.794) rotate(90) scale(304.201 182.037)">
<stop stop-color="#FEE49A"/>
<stop offset="1" stop-color="#BB8D37"/>
</radialGradient>
<radialGradient id="paint1_radial_391_41130" cx="0" cy="0" r="1" gradientUnits="userSpaceOnUse" gradientTransform="translate(78.8855 188.931) rotate(90) scale(83.7751 49.3137)">
<stop stop-color="#FEE49A"/>
<stop offset="1" stop-color="#BB8D37"/>
</radialGradient>
<radialGradient id="paint2_radial_391_41130" cx="0" cy="0" r="1" gradientUnits="userSpaceOnUse" gradientTransform="translate(78.4307 87.9825) rotate(90) scale(293.486 136.814)">
<stop stop-color="#FEE49A"/>
<stop offset="1" stop-color="#BB8D37"/>
</radialGradient>
<radialGradient id="paint3_radial_391_41130" cx="0" cy="0" r="1" gradientUnits="userSpaceOnUse" gradientTransform="translate(151.117 141.882) rotate(90) scale(209.912 107.444)">
<stop stop-color="#FEE49A"/>
<stop offset="1" stop-color="#BB8D37"/>
</radialGradient>
<linearGradient id="paint4_linear_391_41130" x1="343.981" y1="-21.6905" x2="169.84" y2="205.835" gradientUnits="userSpaceOnUse">
<stop stop-color="#FFEEA0"/>
<stop offset="1" stop-color="#B78E43"/>
</linearGradient>
</defs>
</svg>
