<svg width="97" height="97" viewBox="0 0 97 97" fill="none" xmlns="http://www.w3.org/2000/svg">
<path d="M30.7468 79.2477C13.7676 69.4432 7.94971 47.7302 17.7522 30.7505C27.5546 13.7708 49.2655 7.95413 66.2447 17.7587C83.2239 27.5632 89.0418 49.2761 79.2394 66.2559C69.4369 83.2356 47.7261 89.0523 30.7468 79.2477Z" fill="url(#paint0_radial_391_43100)"/>
<path d="M62.2959 35.5076C58.8973 30.626 53.5137 27.8357 47.5237 27.8357C41.5373 27.8357 36.1536 30.626 32.7549 35.5076C29.3774 40.3545 28.5947 46.4564 30.6642 51.8611C31.2177 53.3605 32.0955 54.7891 33.2731 56.1142L46.3426 71.3184C46.6352 71.6671 47.0689 71.8411 47.5237 71.8411C47.982 71.8411 48.4156 71.6671 48.7117 71.3184L61.7741 56.1499C62.9552 54.79 63.8365 53.3596 64.383 51.8951C66.4561 46.4555 65.677 40.3545 62.2959 35.5076ZM61.4673 50.814C61.0477 51.9298 60.3533 53.0463 59.4155 54.1272C59.4155 54.1272 59.4119 54.1272 59.4084 54.1272L47.5237 67.9353L35.6317 54.1272C34.6939 53.0463 34.0064 51.9306 33.5763 50.7799C31.8664 46.3167 32.5152 41.2611 35.3145 37.2511C38.1244 33.2411 42.5738 30.9396 47.5237 30.9396C52.4772 30.9396 56.9264 33.2411 59.7363 37.2511C62.5321 41.2611 63.1842 46.3159 61.4673 50.814Z" fill="white"/>
<path d="M47.5223 36.9722C42.7205 36.9722 38.8105 40.8417 38.8105 45.5839C38.8105 50.3261 42.7205 54.1974 47.5223 54.1974C52.3312 54.1974 56.2375 50.3261 56.2375 45.5839C56.2375 40.8417 52.3312 36.9722 47.5223 36.9722ZM47.5223 51.1293C44.4339 51.1293 41.9236 48.6524 41.9236 45.5839C41.9236 42.5503 44.4339 40.0403 47.5223 40.0403C50.6107 40.0403 53.1244 42.5503 53.1244 45.5839C53.1244 48.6524 50.6107 51.1293 47.5223 51.1293Z" fill="white"/>
<defs>
<radialGradient id="paint0_radial_391_43100" cx="0" cy="0" r="1" gradientUnits="userSpaceOnUse" gradientTransform="translate(49.1779 -4.55726) rotate(89.9984) scale(148.092 73.4128)">
<stop stop-color="#FEE49A"/>
<stop offset="1" stop-color="#BB8D37"/>
</radialGradient>
</defs>
</svg>
