<svg width="28" height="29" viewBox="0 0 28 29" fill="none" xmlns="http://www.w3.org/2000/svg">
<g clip-path="url(#clip0_391_43072)">
<path d="M14 28.631C21.7051 28.631 27.9513 22.3848 27.9513 14.6797C27.9513 6.97469 21.7051 0.728516 14 0.728516C6.295 0.728516 0.0488281 6.97469 0.0488281 14.6797C0.0488281 22.3848 6.295 28.631 14 28.631Z" fill="#BB8D37"/>
<path d="M17.9971 23.399H10.0044C7.40009 23.399 5.28125 21.2804 5.28125 18.6758V10.6831C5.28125 8.07858 7.40009 5.95996 10.0044 5.95996H17.9971C20.6017 5.95996 22.7203 8.07858 22.7203 10.6831V18.6761C22.7203 21.2804 20.6017 23.399 17.9971 23.399ZM10.0044 7.41329C8.20141 7.41329 6.73457 8.88013 6.73457 10.6831V18.6761C6.73457 20.479 8.20141 21.9459 10.0044 21.9459H17.9971C19.8001 21.9459 21.267 20.479 21.267 18.6761V10.6831C21.267 8.88013 19.8001 7.41329 17.9971 7.41329H10.0044Z" fill="white"/>
<path d="M14.0004 19.0393C11.5964 19.0393 9.64062 17.0833 9.64062 14.6796C9.64062 12.2754 11.5964 10.3198 14.0004 10.3198C16.4044 10.3198 18.3601 12.2754 18.3601 14.6796C18.3601 17.0833 16.4044 19.0393 14.0004 19.0393ZM14.0004 11.7731C12.3977 11.7731 11.0939 13.0769 11.0939 14.6796C11.0939 16.2824 12.3977 17.586 14.0004 17.586C15.603 17.586 16.9068 16.2824 16.9068 14.6796C16.9068 13.0769 15.6032 11.7731 14.0004 11.7731Z" fill="white"/>
<path d="M18.6328 11.0464C19.1846 11.0464 19.6319 10.5991 19.6319 10.0474C19.6319 9.49562 19.1846 9.04834 18.6328 9.04834C18.0811 9.04834 17.6338 9.49562 17.6338 10.0474C17.6338 10.5991 18.0811 11.0464 18.6328 11.0464Z" fill="white"/>
</g>
<defs>
<clipPath id="clip0_391_43072">
<rect width="27.9024" height="27.9024" fill="white" transform="translate(0.0488281 0.728516)"/>
</clipPath>
</defs>
</svg>
