<svg width="97" height="97" viewBox="0 0 97 97" fill="none" xmlns="http://www.w3.org/2000/svg">
<path d="M30.7553 79.2435C13.7761 69.4401 7.95893 47.7286 17.7623 30.7494C27.5656 13.7701 49.2772 7.95295 66.2564 17.7563C83.2356 27.5596 89.0528 49.2712 79.2495 66.2504C69.4461 83.2296 47.7345 89.0468 30.7553 79.2435Z" fill="url(#paint0_radial_391_43113)"/>
<path d="M63.3567 64.3086C62.846 64.3086 62.3952 63.97 62.2468 63.4904C62.1041 63.0108 62.2982 62.475 62.729 62.1929C63.8191 61.4876 64.7464 60.5568 65.4512 59.4848C66.119 58.4693 66.3473 57.6798 66.1333 57.0592C65.6967 55.8461 63.3597 54.9717 61.3737 54.3511C59.5845 53.7869 57.6213 54.2374 56.2915 55.5633L55.5381 56.2974C55.404 56.4385 55.2385 56.5509 55.0558 56.6074C54.5393 56.7484 51.7031 57.2566 46.4526 52.0659C45.9989 51.6146 45.9959 50.8809 46.4496 50.4295C46.9005 50.0064 47.6368 50.0064 48.0877 50.4295C51.5319 53.8429 53.5493 54.3222 54.2113 54.3787L54.6565 53.9558C56.5969 52.0093 59.4617 51.3326 62.0784 52.1789C64.6751 52.997 67.5086 54.0406 68.3133 56.2974C68.7841 57.6233 68.4675 59.0897 67.3888 60.7259C66.5071 62.08 65.3485 63.2365 63.9874 64.1392C63.7991 64.252 63.5793 64.3086 63.3567 64.3086ZM57.7981 65.8321C52.5019 65.8321 46.4239 62.813 40.9965 57.4531C40.6969 57.171 40.5743 56.7488 40.6799 56.3539C40.7883 55.9308 41.1022 55.6203 41.5103 55.5357C41.9126 55.4229 42.3435 55.5353 42.6345 55.8456C47.7538 60.8952 53.6405 63.7726 58.3631 63.5469C58.6684 63.5187 58.9681 63.6318 59.1992 63.8293C59.4275 64.0267 59.5645 64.3364 59.576 64.6185C59.6102 65.2674 59.1165 65.8039 58.4773 65.8321C58.2519 65.8321 58.0264 65.8321 57.7981 65.8321Z" fill="white"/>
<path d="M41.8323 57.3865C41.527 57.3865 41.2301 57.2733 41.0132 57.0476C35.1777 51.2646 32.0275 44.5799 32.5897 39.1354C32.9178 35.7502 34.804 32.7307 37.6946 30.9534C39.344 29.8815 40.8506 29.5717 42.169 30.0512C44.4489 30.8411 45.5276 33.6344 46.358 36.2015C47.2026 38.7968 46.5034 41.6167 44.5573 43.535L44.1036 43.9868C44.1578 44.5792 44.6087 46.5825 48.1014 50.0241C48.538 50.4754 48.5322 51.2084 48.0871 51.6316C47.6391 52.0829 46.9172 52.0836 46.4663 51.6605C41.2158 46.4698 41.7238 43.6488 41.8807 43.141C41.9349 42.9718 42.0348 42.8027 42.169 42.6617L42.9222 41.9275C44.2548 40.6016 44.7286 38.684 44.1522 36.9067C43.5158 34.932 42.6283 32.6177 41.3984 32.1945C40.7935 31.997 39.9746 32.2234 38.9645 32.8722C36.6503 34.2827 35.1407 36.68 34.8895 39.36C34.3987 44.1274 37.295 50.1367 42.6483 55.4402C42.9764 55.7505 43.0764 56.2581 42.8966 56.6812C42.7197 57.1044 42.2973 57.3865 41.8293 57.3865H41.8323Z" fill="white"/>
<defs>
<radialGradient id="paint0_radial_391_43113" cx="0" cy="0" r="1" gradientUnits="userSpaceOnUse" gradientTransform="translate(49.1901 -4.55777) rotate(90.0006) scale(148.084 73.4144)">
<stop stop-color="#FEE49A"/>
<stop offset="1" stop-color="#BB8D37"/>
</radialGradient>
</defs>
</svg>
