<svg width="104" height="122" viewBox="0 0 104 122" fill="none" xmlns="http://www.w3.org/2000/svg">
<g clip-path="url(#clip0_511_7094)">
<path d="M30.4385 23.1275L32.5946 22.747L32.9751 24.9031L30.819 25.2836L30.4385 23.1275Z" fill="#BB8D37"/>
<path d="M38.1748 23.3813L39.9504 22.874L40.4577 24.6496L38.6821 25.1569L38.1748 23.3813Z" fill="#BB8D37"/>
<path d="M41.143 22.747L40.585 24.7256L42.5635 25.2836L43.1215 23.3051L41.143 22.747Z" fill="#BB8D37"/>
<path d="M45.6572 22.8739L48.067 22.747L48.1938 25.1568L45.7841 25.2836L45.6572 22.8739Z" fill="#BB8D37"/>
<path d="M50.7314 23.0514L52.9636 22.747L53.268 24.9792L51.0358 25.2836L50.7314 23.0514Z" fill="#BB8D37"/>
<path d="M53.8256 22.747L53.2676 24.7256L55.2461 25.2836L55.8042 23.3051L53.8256 22.747Z" fill="#BB8D37"/>
<path d="M63.4141 22.8739L65.8238 22.747L65.9506 25.1568L63.5409 25.2836L63.4141 22.8739Z" fill="#BB8D37"/>
<path d="M73.6875 23.3813L75.4631 22.874L75.9704 24.6496L74.1948 25.1569L73.6875 23.3813Z" fill="#BB8D37"/>
<path d="M76.6547 22.747L76.0967 24.7256L78.0752 25.2836L78.6333 23.3051L76.6547 22.747Z" fill="#BB8D37"/>
<path d="M25.3652 25.6643L27.5213 25.2838L27.9018 27.4399L25.7457 27.8204L25.3652 25.6643Z" fill="#BB8D37"/>
<path d="M32.9746 25.6643L35.1307 25.2838L35.5112 27.4399L33.3551 27.8204L32.9746 25.6643Z" fill="#BB8D37"/>
<path d="M40.788 25.3854L40.6865 27.6176L42.9187 27.719L43.0202 25.4868L40.788 25.3854Z" fill="#BB8D37"/>
<path d="M45.987 25.2838L45.6572 27.4906L47.8641 27.8204L48.1938 25.6136L45.987 25.2838Z" fill="#BB8D37"/>
<path d="M48.3974 25.3854L48.2959 27.6176L50.5281 27.719L50.6296 25.4868L48.3974 25.3854Z" fill="#BB8D37"/>
<path d="M50.9335 25.3854L50.832 27.6176L53.0642 27.719L53.1657 25.4868L50.9335 25.3854Z" fill="#BB8D37"/>
<path d="M53.2676 25.715L55.3729 25.2838L55.8042 27.3892L53.6988 27.8204L53.2676 25.715Z" fill="#BB8D37"/>
<path d="M60.877 25.5882L63.1091 25.2838L63.4135 27.516L61.1813 27.8204L60.877 25.5882Z" fill="#BB8D37"/>
<path d="M63.4141 25.715L65.5194 25.2838L65.9506 27.3892L63.8453 27.8204L63.4141 25.715Z" fill="#BB8D37"/>
<path d="M76.0967 25.5375L78.3796 25.2838L78.6333 27.5667L76.3503 27.8204L76.0967 25.5375Z" fill="#BB8D37"/>
<path d="M35.5117 27.9472L37.9215 27.8203L38.0483 30.2301L35.6385 30.3569L35.5117 27.9472Z" fill="#BB8D37"/>
<path d="M40.788 27.9219L40.6865 30.1541L42.9187 30.2556L43.0202 28.0234L40.788 27.9219Z" fill="#BB8D37"/>
<path d="M50.7314 28.074L53.0144 27.8203L53.268 30.1033L50.9851 30.3569L50.7314 28.074Z" fill="#BB8D37"/>
<path d="M60.877 28.074L63.1599 27.8203L63.4135 30.1033L61.1306 30.3569L60.877 28.074Z" fill="#BB8D37"/>
<path d="M65.9502 28.2008L68.1063 27.8203L68.4868 29.9764L66.3307 30.3569L65.9502 28.2008Z" fill="#BB8D37"/>
<path d="M71.0234 27.9472L73.4332 27.8203L73.56 30.2301L71.1503 30.3569L71.0234 27.9472Z" fill="#BB8D37"/>
<path d="M27.9014 30.6615L30.1336 30.3571L30.438 32.5893L28.2058 32.8937L27.9014 30.6615Z" fill="#BB8D37"/>
<path d="M30.9965 30.3571L30.4385 32.3357L32.417 32.8937L32.9751 30.9152L30.9965 30.3571Z" fill="#BB8D37"/>
<path d="M35.5117 30.6108L37.7946 30.3571L38.0483 32.64L35.7654 32.8937L35.5117 30.6108Z" fill="#BB8D37"/>
<path d="M40.788 30.4584L40.6865 32.6906L42.9187 32.7921L43.0202 30.5599L40.788 30.4584Z" fill="#BB8D37"/>
<path d="M43.3241 30.4584L43.2227 32.6906L45.4549 32.7921L45.5563 30.5599L43.3241 30.4584Z" fill="#BB8D37"/>
<path d="M46.2153 30.3571L45.6572 32.3357L47.6358 32.8937L48.1938 30.9152L46.2153 30.3571Z" fill="#BB8D37"/>
<path d="M53.2676 30.6615L55.4998 30.3571L55.8042 32.5893L53.572 32.8937L53.2676 30.6615Z" fill="#BB8D37"/>
<path d="M56.1843 30.4838L55.9307 32.5131L57.9599 32.7667L58.2136 30.7375L56.1843 30.4838Z" fill="#BB8D37"/>
<path d="M68.4873 30.6615L70.7195 30.3571L71.0239 32.5893L68.7917 32.8937L68.4873 30.6615Z" fill="#BB8D37"/>
<path d="M71.2265 30.4584L71.125 32.6906L73.3572 32.7921L73.4587 30.5599L71.2265 30.4584Z" fill="#BB8D37"/>
<path d="M73.7636 30.4584L73.6621 32.6906L75.8943 32.7921L75.9958 30.5599L73.7636 30.4584Z" fill="#BB8D37"/>
<path d="M76.4773 30.4838L76.2236 32.5131L78.2529 32.7667L78.5066 30.7375L76.4773 30.4838Z" fill="#BB8D37"/>
<path d="M28.1044 32.9949L28.0029 35.2271L30.2351 35.3286L30.3366 33.0964L28.1044 32.9949Z" fill="#BB8D37"/>
<path d="M30.6415 32.9949L30.54 35.2271L32.7722 35.3286L32.8737 33.0964L30.6415 32.9949Z" fill="#BB8D37"/>
<path d="M40.788 32.9949L40.6865 35.2271L42.9187 35.3286L43.0202 33.0964L40.788 32.9949Z" fill="#BB8D37"/>
<path d="M43.3241 32.9949L43.2227 35.2271L45.4549 35.3286L45.5563 33.0964L43.3241 32.9949Z" fill="#BB8D37"/>
<path d="M45.6572 33.3246L47.7626 32.8934L48.1938 34.9987L46.0884 35.43L45.6572 33.3246Z" fill="#BB8D37"/>
<path d="M50.7314 33.1978L52.9636 32.8934L53.268 35.1256L51.0358 35.43L50.7314 33.1978Z" fill="#BB8D37"/>
<path d="M53.2676 33.3246L55.3729 32.8934L55.8042 34.9987L53.6988 35.43L53.2676 33.3246Z" fill="#BB8D37"/>
<path d="M60.877 33.1978L63.1091 32.8934L63.4135 35.1256L61.1813 35.43L60.877 33.1978Z" fill="#BB8D37"/>
<path d="M63.9721 32.8934L63.4141 34.8719L65.3926 35.43L65.9506 33.4514L63.9721 32.8934Z" fill="#BB8D37"/>
<path d="M68.6903 32.9949L68.5889 35.2271L70.8211 35.3286L70.9225 33.0964L68.6903 32.9949Z" fill="#BB8D37"/>
<path d="M71.2265 32.9949L71.125 35.2271L73.3572 35.3286L73.4587 33.0964L71.2265 32.9949Z" fill="#BB8D37"/>
<path d="M73.5605 33.3246L75.6659 32.8934L76.0971 34.9987L73.9918 35.43L73.5605 33.3246Z" fill="#BB8D37"/>
<path d="M25.3652 35.7343L27.5974 35.4299L27.9018 37.6621L25.6696 37.9665L25.3652 35.7343Z" fill="#BB8D37"/>
<path d="M28.1044 35.5315L28.0029 37.7637L30.2351 37.8651L30.3366 35.6329L28.1044 35.5315Z" fill="#BB8D37"/>
<path d="M30.6415 35.5315L30.54 37.7637L32.7722 37.8651L32.8737 35.6329L30.6415 35.5315Z" fill="#BB8D37"/>
<path d="M40.788 35.5315L40.6865 37.7637L42.9187 37.8651L43.0202 35.6329L40.788 35.5315Z" fill="#BB8D37"/>
<path d="M43.1211 35.8611L45.2265 35.4299L45.6577 37.5353L43.5523 37.9665L43.1211 35.8611Z" fill="#BB8D37"/>
<path d="M50.9335 35.5315L50.832 37.7637L53.0642 37.8651L53.1657 35.6329L50.9335 35.5315Z" fill="#BB8D37"/>
<path d="M55.8037 35.7343L58.0359 35.4299L58.3403 37.6621L56.1081 37.9665L55.8037 35.7343Z" fill="#BB8D37"/>
<path d="M58.5438 35.5315L58.4424 37.7637L60.6746 37.8651L60.776 35.6329L58.5438 35.5315Z" fill="#BB8D37"/>
<path d="M61.08 35.5315L60.9785 37.7637L63.2107 37.8651L63.3122 35.6329L61.08 35.5315Z" fill="#BB8D37"/>
<path d="M63.6171 35.5315L63.5156 37.7637L65.7478 37.8651L65.8493 35.6329L63.6171 35.5315Z" fill="#BB8D37"/>
<path d="M66.1532 35.5315L66.0518 37.7637L68.284 37.8651L68.3854 35.6329L66.1532 35.5315Z" fill="#BB8D37"/>
<path d="M68.6903 35.5315L68.5889 37.7637L70.8211 37.8651L70.9225 35.6329L68.6903 35.5315Z" fill="#BB8D37"/>
<path d="M71.2265 35.5315L71.125 37.7637L73.3572 37.8651L73.4587 35.6329L71.2265 35.5315Z" fill="#BB8D37"/>
<path d="M76.0967 35.5567L78.5064 35.4299L78.6333 37.8397L76.2235 37.9665L76.0967 35.5567Z" fill="#BB8D37"/>
<path d="M25.5683 38.0682L25.4668 40.3004L27.699 40.4019L27.8005 38.1697L25.5683 38.0682Z" fill="#BB8D37"/>
<path d="M30.6415 38.0682L30.54 40.3004L32.7722 40.4019L32.8737 38.1697L30.6415 38.0682Z" fill="#BB8D37"/>
<path d="M35.5117 38.0937L37.9215 37.9669L38.0483 40.3767L35.6385 40.5035L35.5117 38.0937Z" fill="#BB8D37"/>
<path d="M40.788 38.0682L40.6865 40.3004L42.9187 40.4019L43.0202 38.1697L40.788 38.0682Z" fill="#BB8D37"/>
<path d="M45.6572 38.3474L47.8133 37.9669L48.1938 40.123L46.0377 40.5035L45.6572 38.3474Z" fill="#BB8D37"/>
<path d="M50.9335 38.0682L50.832 40.3004L53.0642 40.4019L53.1657 38.1697L50.9335 38.0682Z" fill="#BB8D37"/>
<path d="M56.0067 38.0682L55.9053 40.3004L58.1375 40.4019L58.2389 38.1697L56.0067 38.0682Z" fill="#BB8D37"/>
<path d="M61.08 38.0682L60.9785 40.3004L63.2107 40.4019L63.3122 38.1697L61.08 38.0682Z" fill="#BB8D37"/>
<path d="M65.9502 38.2206L68.2331 37.9669L68.4868 40.2498L66.2039 40.5035L65.9502 38.2206Z" fill="#BB8D37"/>
<path d="M71.2265 38.0682L71.125 40.3004L73.3572 40.4019L73.4587 38.1697L71.2265 38.0682Z" fill="#BB8D37"/>
<path d="M76.0967 38.2206L78.3796 37.9669L78.6333 40.2498L76.3503 40.5035L76.0967 38.2206Z" fill="#BB8D37"/>
<path d="M25.695 40.5032L25.3652 42.71L27.5721 43.0398L27.9018 40.833L25.695 40.5032Z" fill="#BB8D37"/>
<path d="M28.1044 40.6048L28.0029 42.837L30.2351 42.9384L30.3366 40.7062L28.1044 40.6048Z" fill="#BB8D37"/>
<path d="M30.4385 40.9344L32.5438 40.5032L32.9751 42.6086L30.8697 43.0398L30.4385 40.9344Z" fill="#BB8D37"/>
<path d="M35.7147 40.6048L35.6133 42.837L37.8455 42.9384L37.9469 40.7062L35.7147 40.6048Z" fill="#BB8D37"/>
<path d="M38.2509 40.6048L38.1494 42.837L40.3816 42.9384L40.4831 40.7062L38.2509 40.6048Z" fill="#BB8D37"/>
<path d="M40.788 40.6048L40.6865 42.837L42.9187 42.9384L43.0202 40.7062L40.788 40.6048Z" fill="#BB8D37"/>
<path d="M43.6791 40.5032L43.1211 42.4817L45.0996 43.0398L45.6577 41.0613L43.6791 40.5032Z" fill="#BB8D37"/>
<path d="M48.1943 40.8076L50.4265 40.5032L50.7309 42.7354L48.4987 43.0398L48.1943 40.8076Z" fill="#BB8D37"/>
<path d="M50.9335 40.6048L50.832 42.837L53.0642 42.9384L53.1657 40.7062L50.9335 40.6048Z" fill="#BB8D37"/>
<path d="M56.0067 40.6048L55.9053 42.837L58.1375 42.9384L58.2389 40.7062L56.0067 40.6048Z" fill="#BB8D37"/>
<path d="M61.08 40.6048L60.9785 42.837L63.2107 42.9384L63.3122 40.7062L61.08 40.6048Z" fill="#BB8D37"/>
<path d="M71.2265 40.6048L71.125 42.837L73.3572 42.9384L73.4587 40.7062L71.2265 40.6048Z" fill="#BB8D37"/>
<path d="M15.3457 43.674L17.1213 43.1667L17.6286 44.9423L15.853 45.4496L15.3457 43.674Z" fill="#BB8D37"/>
<path d="M17.9579 43.1413L17.8564 45.3735L20.0886 45.475L20.1901 43.2428L17.9579 43.1413Z" fill="#BB8D37"/>
<path d="M20.495 43.1413L20.3936 45.3735L22.6257 45.475L22.7272 43.2428L20.495 43.1413Z" fill="#BB8D37"/>
<path d="M23.3862 43.0397L22.8281 45.0183L24.8067 45.5763L25.3647 43.5978L23.3862 43.0397Z" fill="#BB8D37"/>
<path d="M27.9014 43.2934L30.1843 43.0397L30.438 45.3227L28.155 45.5763L27.9014 43.2934Z" fill="#BB8D37"/>
<path d="M32.9746 43.3441L35.2068 43.0397L35.5112 45.2719L33.279 45.5763L32.9746 43.3441Z" fill="#BB8D37"/>
<path d="M35.7147 43.1413L35.6133 45.3735L37.8455 45.475L37.9469 43.2428L35.7147 43.1413Z" fill="#BB8D37"/>
<path d="M43.3241 43.1413L43.2227 45.3735L45.4549 45.475L45.5563 43.2428L43.3241 43.1413Z" fill="#BB8D37"/>
<path d="M48.5241 43.0397L48.1943 45.2466L50.4012 45.5763L50.7309 43.3695L48.5241 43.0397Z" fill="#BB8D37"/>
<path d="M50.9335 43.1413L50.832 45.3735L53.0642 45.475L53.1657 43.2428L50.9335 43.1413Z" fill="#BB8D37"/>
<path d="M55.8037 43.2934L58.0866 43.0397L58.3403 45.3227L56.0574 45.5763L55.8037 43.2934Z" fill="#BB8D37"/>
<path d="M61.2067 43.0397L60.877 45.2466L63.0838 45.5763L63.4135 43.3695L61.2067 43.0397Z" fill="#BB8D37"/>
<path d="M63.9721 43.0397L63.4141 45.0183L65.3926 45.5763L65.9506 43.5978L63.9721 43.0397Z" fill="#BB8D37"/>
<path d="M68.6143 43.674L70.3899 43.1667L70.8972 44.9423L69.1216 45.4496L68.6143 43.674Z" fill="#BB8D37"/>
<path d="M71.2265 43.1413L71.125 45.3735L73.3572 45.475L73.4587 43.2428L71.2265 43.1413Z" fill="#BB8D37"/>
<path d="M73.9412 43.1667L73.6875 45.196L75.7168 45.4496L75.9704 43.4203L73.9412 43.1667Z" fill="#BB8D37"/>
<path d="M81.1699 43.3441L83.4021 43.0397L83.7065 45.2719L81.4743 45.5763L81.1699 43.3441Z" fill="#BB8D37"/>
<path d="M84.2651 43.0397L83.707 45.0183L85.6856 45.5763L86.2436 43.5978L84.2651 43.0397Z" fill="#BB8D37"/>
<path d="M93.8525 43.4202L96.0086 43.0397L96.3891 45.1958L94.233 45.5763L93.8525 43.4202Z" fill="#BB8D37"/>
<path d="M5.07227 45.7033L7.48202 45.5765L7.60885 47.9863L5.19909 48.1131L5.07227 45.7033Z" fill="#BB8D37"/>
<path d="M10.1455 45.8809L12.3777 45.5765L12.6821 47.8087L10.4499 48.1131L10.1455 45.8809Z" fill="#BB8D37"/>
<path d="M13.0623 45.7032L12.8086 47.7325L14.8379 47.9861L15.0915 45.9569L13.0623 45.7032Z" fill="#BB8D37"/>
<path d="M23.1579 45.5765L22.8281 47.7833L25.035 48.1131L25.3647 45.9063L23.1579 45.5765Z" fill="#BB8D37"/>
<path d="M25.7458 45.7032L25.4922 47.7325L27.5215 47.9861L27.7751 45.9569L25.7458 45.7032Z" fill="#BB8D37"/>
<path d="M33.3044 45.5765L32.9746 47.7833L35.1814 48.1131L35.5112 45.9063L33.3044 45.5765Z" fill="#BB8D37"/>
<path d="M35.7147 45.6778L35.6133 47.91L37.8455 48.0115L37.9469 45.7793L35.7147 45.6778Z" fill="#BB8D37"/>
<path d="M40.7119 46.2105L42.4875 45.7032L42.9948 47.4788L41.2192 47.9861L40.7119 46.2105Z" fill="#BB8D37"/>
<path d="M43.3241 45.6778L43.2227 47.91L45.4549 48.0115L45.5563 45.7793L43.3241 45.6778Z" fill="#BB8D37"/>
<path d="M50.7314 45.8302L53.0144 45.5765L53.268 47.8594L50.9851 48.1131L50.7314 45.8302Z" fill="#BB8D37"/>
<path d="M58.3408 45.957L60.4969 45.5765L60.8774 47.7326L58.7213 48.1131L58.3408 45.957Z" fill="#BB8D37"/>
<path d="M63.7438 45.5765L63.4141 47.7833L65.6209 48.1131L65.9506 45.9063L63.7438 45.5765Z" fill="#BB8D37"/>
<path d="M66.3308 45.7032L66.0771 47.7325L68.1064 47.9861L68.3601 45.9569L66.3308 45.7032Z" fill="#BB8D37"/>
<path d="M76.0967 45.7033L78.5064 45.5765L78.6333 47.9863L76.2235 48.1131L76.0967 45.7033Z" fill="#BB8D37"/>
<path d="M81.4997 45.5765L81.1699 47.7833L83.3768 48.1131L83.7065 45.9063L81.4997 45.5765Z" fill="#BB8D37"/>
<path d="M83.9101 45.6778L83.8086 47.91L86.0408 48.0115L86.1423 45.7793L83.9101 45.6778Z" fill="#BB8D37"/>
<path d="M86.8012 45.5765L86.2432 47.555L88.2217 48.1131L88.7797 46.1346L86.8012 45.5765Z" fill="#BB8D37"/>
<path d="M5.40202 48.1128L5.07227 50.3196L7.27909 50.6493L7.60885 48.4425L5.40202 48.1128Z" fill="#BB8D37"/>
<path d="M7.8124 48.2143L7.71094 50.4465L9.94313 50.548L10.0446 48.3158L7.8124 48.2143Z" fill="#BB8D37"/>
<path d="M10.1455 48.544L12.2509 48.1128L12.6821 50.2181L10.5767 50.6493L10.1455 48.544Z" fill="#BB8D37"/>
<path d="M15.2188 48.4172L17.4509 48.1128L17.7553 50.345L15.5231 50.6493L15.2188 48.4172Z" fill="#BB8D37"/>
<path d="M17.9579 48.2143L17.8564 50.4465L20.0886 50.548L20.1901 48.3158L17.9579 48.2143Z" fill="#BB8D37"/>
<path d="M20.6726 48.2397L20.4189 50.269L22.4482 50.5226L22.7019 48.4934L20.6726 48.2397Z" fill="#BB8D37"/>
<path d="M30.4385 48.4933L32.5946 48.1128L32.9751 50.2689L30.819 50.6493L30.4385 48.4933Z" fill="#BB8D37"/>
<path d="M35.8415 48.1128L35.5117 50.3196L37.7185 50.6493L38.0483 48.4425L35.8415 48.1128Z" fill="#BB8D37"/>
<path d="M38.4285 48.2397L38.1748 50.269L40.2041 50.5226L40.4577 48.4934L38.4285 48.2397Z" fill="#BB8D37"/>
<path d="M43.4508 48.1128L43.1211 50.3196L45.3279 50.6493L45.6577 48.4425L43.4508 48.1128Z" fill="#BB8D37"/>
<path d="M45.8603 48.2143L45.7588 50.4465L47.991 50.548L48.0924 48.3158L45.8603 48.2143Z" fill="#BB8D37"/>
<path d="M48.5749 48.2397L48.3213 50.269L50.3506 50.5226L50.6042 48.4934L48.5749 48.2397Z" fill="#BB8D37"/>
<path d="M55.8037 48.2396L58.2135 48.1128L58.3403 50.5225L55.9305 50.6493L55.8037 48.2396Z" fill="#BB8D37"/>
<path d="M60.877 48.2396L63.2867 48.1128L63.4135 50.5225L61.0038 50.6493L60.877 48.2396Z" fill="#BB8D37"/>
<path d="M68.6143 48.747L70.3899 48.2397L70.8972 50.0153L69.1216 50.5226L68.6143 48.747Z" fill="#BB8D37"/>
<path d="M71.5815 48.1128L71.0234 50.0913L73.002 50.6493L73.56 48.6708L71.5815 48.1128Z" fill="#BB8D37"/>
<path d="M76.4264 48.1128L76.0967 50.3196L78.3035 50.6493L78.6333 48.4425L76.4264 48.1128Z" fill="#BB8D37"/>
<path d="M79.1918 48.1128L78.6338 50.0913L80.6123 50.6493L81.1704 48.6708L79.1918 48.1128Z" fill="#BB8D37"/>
<path d="M83.9101 48.2143L83.8086 50.4465L86.0408 50.548L86.1423 48.3158L83.9101 48.2143Z" fill="#BB8D37"/>
<path d="M86.4462 48.2143L86.3447 50.4465L88.5769 50.548L88.6784 48.3158L86.4462 48.2143Z" fill="#BB8D37"/>
<path d="M89.1599 48.2397L88.9062 50.269L90.9355 50.5226L91.1892 48.4934L89.1599 48.2397Z" fill="#BB8D37"/>
<path d="M15.4218 50.7514L15.3203 52.9836L17.5525 53.085L17.654 50.8528L15.4218 50.7514Z" fill="#BB8D37"/>
<path d="M17.9579 50.7514L17.8564 52.9836L20.0886 53.085L20.1901 50.8528L17.9579 50.7514Z" fill="#BB8D37"/>
<path d="M32.9746 51.0303L35.1307 50.6498L35.5112 52.8059L33.3551 53.1864L32.9746 51.0303Z" fill="#BB8D37"/>
<path d="M40.585 51.0303L42.7411 50.6498L43.1215 52.8059L40.9654 53.1864L40.585 51.0303Z" fill="#BB8D37"/>
<path d="M53.3945 51.2838L55.1701 50.7765L55.6775 52.5521L53.9018 53.0594L53.3945 51.2838Z" fill="#BB8D37"/>
<path d="M56.0067 50.7514L55.9053 52.9836L58.1375 53.085L58.2389 50.8528L56.0067 50.7514Z" fill="#BB8D37"/>
<path d="M60.877 50.9035L63.1599 50.6498L63.4135 52.9327L61.1306 53.1864L60.877 50.9035Z" fill="#BB8D37"/>
<path d="M71.0234 50.9035L73.3064 50.6498L73.56 52.9327L71.2771 53.1864L71.0234 50.9035Z" fill="#BB8D37"/>
<path d="M78.8358 50.7514L78.7344 52.9836L80.9666 53.085L81.068 50.8528L78.8358 50.7514Z" fill="#BB8D37"/>
<path d="M83.9101 50.7514L83.8086 52.9836L86.0408 53.085L86.1423 50.8528L83.9101 50.7514Z" fill="#BB8D37"/>
<path d="M86.2432 51.081L88.3485 50.6498L88.7797 52.7552L86.6744 53.1864L86.2432 51.081Z" fill="#BB8D37"/>
<path d="M91.3164 50.9542L93.5486 50.6498L93.853 52.882L91.6208 53.1864L91.3164 50.9542Z" fill="#BB8D37"/>
<path d="M94.0556 50.7514L93.9541 52.9836L96.1863 53.085L96.2878 50.8528L94.0556 50.7514Z" fill="#BB8D37"/>
<path d="M96.7703 50.7765L96.5166 52.8058L98.5459 53.0594L98.7995 51.0301L96.7703 50.7765Z" fill="#BB8D37"/>
<path d="M7.60938 53.4907L9.84157 53.1863L10.146 55.4185L7.91377 55.7229L7.60938 53.4907Z" fill="#BB8D37"/>
<path d="M10.3485 53.2876L10.2471 55.5198L12.4793 55.6213L12.5807 53.3891L10.3485 53.2876Z" fill="#BB8D37"/>
<path d="M12.8856 53.2876L12.7842 55.5198L15.0164 55.6213L15.1178 53.3891L12.8856 53.2876Z" fill="#BB8D37"/>
<path d="M15.4218 53.2876L15.3203 55.5198L17.5525 55.6213L17.654 53.3891L15.4218 53.2876Z" fill="#BB8D37"/>
<path d="M17.9579 53.2876L17.8564 55.5198L20.0886 55.6213L20.1901 53.3891L17.9579 53.2876Z" fill="#BB8D37"/>
<path d="M20.495 53.2876L20.3936 55.5198L22.6257 55.6213L22.7272 53.3891L20.495 53.2876Z" fill="#BB8D37"/>
<path d="M23.0312 53.2876L22.9297 55.5198L25.1619 55.6213L25.2633 53.3891L23.0312 53.2876Z" fill="#BB8D37"/>
<path d="M25.9233 53.1863L25.3652 55.1649L27.3438 55.7229L27.9018 53.7444L25.9233 53.1863Z" fill="#BB8D37"/>
<path d="M30.4385 53.3132L32.8482 53.1863L32.9751 55.5961L30.5653 55.7229L30.4385 53.3132Z" fill="#BB8D37"/>
<path d="M38.0479 53.5668L40.2039 53.1863L40.5844 55.3424L38.4283 55.7229L38.0479 53.5668Z" fill="#BB8D37"/>
<path d="M43.248 53.8203L45.0237 53.313L45.531 55.0886L43.7554 55.5959L43.248 53.8203Z" fill="#BB8D37"/>
<path d="M46.0378 53.313L45.7842 55.3423L47.8134 55.5959L48.0671 53.5667L46.0378 53.313Z" fill="#BB8D37"/>
<path d="M50.7314 53.5668L52.8875 53.1863L53.268 55.3424L51.1119 55.7229L50.7314 53.5668Z" fill="#BB8D37"/>
<path d="M55.8037 53.44L58.0866 53.1863L58.3403 55.4693L56.0574 55.7229L55.8037 53.44Z" fill="#BB8D37"/>
<path d="M63.541 53.8203L65.3166 53.313L65.8239 55.0886L64.0483 55.5959L63.541 53.8203Z" fill="#BB8D37"/>
<path d="M66.5082 53.1863L65.9502 55.1649L67.9287 55.7229L68.4868 53.7444L66.5082 53.1863Z" fill="#BB8D37"/>
<path d="M73.5605 53.3132L75.9703 53.1863L76.0971 55.5961L73.6874 55.7229L73.5605 53.3132Z" fill="#BB8D37"/>
<path d="M78.8358 53.2876L78.7344 55.5198L80.9666 55.6213L81.068 53.3891L78.8358 53.2876Z" fill="#BB8D37"/>
<path d="M81.3729 53.2876L81.2715 55.5198L83.5037 55.6213L83.6051 53.3891L81.3729 53.2876Z" fill="#BB8D37"/>
<path d="M83.9101 53.2876L83.8086 55.5198L86.0408 55.6213L86.1423 53.3891L83.9101 53.2876Z" fill="#BB8D37"/>
<path d="M91.5194 53.2876L91.418 55.5198L93.6502 55.6213L93.7516 53.3891L91.5194 53.2876Z" fill="#BB8D37"/>
<path d="M93.8525 53.6176L95.9579 53.1863L96.3891 55.2917L94.2838 55.7229L93.8525 53.6176Z" fill="#BB8D37"/>
<path d="M5.07227 56.0272L7.30446 55.7228L7.60885 57.955L5.37666 58.2594L5.07227 56.0272Z" fill="#BB8D37"/>
<path d="M7.8124 55.8242L7.71094 58.0564L9.94313 58.1578L10.0446 55.9256L7.8124 55.8242Z" fill="#BB8D37"/>
<path d="M12.8856 55.8242L12.7842 58.0564L15.0164 58.1578L15.1178 55.9256L12.8856 55.8242Z" fill="#BB8D37"/>
<path d="M15.2188 56.1541L17.3241 55.7228L17.7553 57.8282L15.65 58.2594L15.2188 56.1541Z" fill="#BB8D37"/>
<path d="M25.5683 55.8242L25.4668 58.0564L27.699 58.1578L27.8005 55.9256L25.5683 55.8242Z" fill="#BB8D37"/>
<path d="M30.6415 55.8242L30.54 58.0564L32.7722 58.1578L32.8737 55.9256L30.6415 55.8242Z" fill="#BB8D37"/>
<path d="M33.5327 55.7228L32.9746 57.7014L34.9531 58.2594L35.5112 56.2809L33.5327 55.7228Z" fill="#BB8D37"/>
<path d="M66.28 55.7228L65.9502 57.9297L68.157 58.2594L68.4868 56.0526L66.28 55.7228Z" fill="#BB8D37"/>
<path d="M69.0454 55.7228L68.4873 57.7014L70.4658 58.2594L71.0239 56.2809L69.0454 55.7228Z" fill="#BB8D37"/>
<path d="M73.7636 55.8242L73.6621 58.0564L75.8943 58.1578L75.9958 55.9256L73.7636 55.8242Z" fill="#BB8D37"/>
<path d="M76.2997 55.8242L76.1982 58.0564L78.4304 58.1578L78.5319 55.9256L76.2997 55.8242Z" fill="#BB8D37"/>
<path d="M78.8358 55.8242L78.7344 58.0564L80.9666 58.1578L81.068 55.9256L78.8358 55.8242Z" fill="#BB8D37"/>
<path d="M83.9101 55.8242L83.8086 58.0564L86.0408 58.1578L86.1423 55.9256L83.9101 55.8242Z" fill="#BB8D37"/>
<path d="M86.6238 55.8495L86.3701 57.8788L88.3994 58.1325L88.653 56.1032L86.6238 55.8495Z" fill="#BB8D37"/>
<path d="M91.5194 55.8242L91.418 58.0564L93.6502 58.1578L93.7516 55.9256L91.5194 55.8242Z" fill="#BB8D37"/>
<path d="M5.40202 58.2594L5.07227 60.4662L7.27909 60.796L7.60885 58.5891L5.40202 58.2594Z" fill="#BB8D37"/>
<path d="M7.8124 58.3609L7.71094 60.5931L9.94313 60.6946L10.0446 58.4624L7.8124 58.3609Z" fill="#BB8D37"/>
<path d="M12.6826 58.513L14.9655 58.2594L15.2192 60.5423L12.9363 60.796L12.6826 58.513Z" fill="#BB8D37"/>
<path d="M17.8818 58.8934L19.6574 58.3861L20.1648 60.1617L18.3892 60.669L17.8818 58.8934Z" fill="#BB8D37"/>
<path d="M20.6726 58.3861L20.4189 60.4153L22.4482 60.669L22.7019 58.6397L20.6726 58.3861Z" fill="#BB8D37"/>
<path d="M25.3652 58.513L27.6482 58.2594L27.9018 60.5423L25.6189 60.796L25.3652 58.513Z" fill="#BB8D37"/>
<path d="M30.6415 58.3609L30.54 60.5931L32.7722 60.6946L32.8737 58.4624L30.6415 58.3609Z" fill="#BB8D37"/>
<path d="M33.1776 58.3609L33.0762 60.5931L35.3084 60.6946L35.4098 58.4624L33.1776 58.3609Z" fill="#BB8D37"/>
<path d="M68.4873 58.513L70.7702 58.2594L71.0239 60.5423L68.741 60.796L68.4873 58.513Z" fill="#BB8D37"/>
<path d="M73.7636 58.3609L73.6621 60.5931L75.8943 60.6946L75.9958 58.4624L73.7636 58.3609Z" fill="#BB8D37"/>
<path d="M78.6338 58.513L80.9167 58.2594L81.1704 60.5423L78.8874 60.796L78.6338 58.513Z" fill="#BB8D37"/>
<path d="M83.9101 58.3609L83.8086 60.5931L86.0408 60.6946L86.1423 58.4624L83.9101 58.3609Z" fill="#BB8D37"/>
<path d="M88.9062 58.8934L90.6819 58.3861L91.1892 60.1617L89.4136 60.669L88.9062 58.8934Z" fill="#BB8D37"/>
<path d="M91.5194 58.3609L91.418 60.5931L93.6502 60.6946L93.7516 58.4624L91.5194 58.3609Z" fill="#BB8D37"/>
<path d="M94.2332 58.3861L93.9795 60.4153L96.0088 60.669L96.2624 58.6397L94.2332 58.3861Z" fill="#BB8D37"/>
<path d="M7.93913 60.7959L7.60938 63.0027L9.8162 63.3325L10.146 61.1257L7.93913 60.7959Z" fill="#BB8D37"/>
<path d="M10.7036 60.7959L10.1455 62.7744L12.124 63.3325L12.6821 61.3539L10.7036 60.7959Z" fill="#BB8D37"/>
<path d="M15.2188 60.9227L17.6285 60.7959L17.7553 63.2057L15.3456 63.3325L15.2188 60.9227Z" fill="#BB8D37"/>
<path d="M22.8281 61.1764L24.9842 60.7959L25.3647 62.952L23.2086 63.3325L22.8281 61.1764Z" fill="#BB8D37"/>
<path d="M28.0283 61.4299L29.8039 60.9226L30.3112 62.6982L28.5356 63.2055L28.0283 61.4299Z" fill="#BB8D37"/>
<path d="M30.6415 60.8972L30.54 63.1294L32.7722 63.2309L32.8737 60.9987L30.6415 60.8972Z" fill="#BB8D37"/>
<path d="M33.1776 60.8972L33.0762 63.1294L35.3084 63.2309L35.4098 60.9987L33.1776 60.8972Z" fill="#BB8D37"/>
<path d="M36.0698 60.7959L35.5117 62.7744L37.4903 63.3325L38.0483 61.3539L36.0698 60.7959Z" fill="#BB8D37"/>
<path d="M65.9502 60.9227L68.36 60.7959L68.4868 63.2057L66.077 63.3325L65.9502 60.9227Z" fill="#BB8D37"/>
<path d="M73.5605 61.0496L75.8435 60.7959L76.0971 63.0788L73.8142 63.3325L73.5605 61.0496Z" fill="#BB8D37"/>
<path d="M81.1699 61.1003L83.4021 60.7959L83.7065 63.0281L81.4743 63.3325L81.1699 61.1003Z" fill="#BB8D37"/>
<path d="M83.9101 60.8972L83.8086 63.1294L86.0408 63.2309L86.1423 60.9987L83.9101 60.8972Z" fill="#BB8D37"/>
<path d="M86.6238 60.9226L86.3701 62.9519L88.3994 63.2055L88.653 61.1763L86.6238 60.9226Z" fill="#BB8D37"/>
<path d="M91.5194 60.8972L91.418 63.1294L93.6502 63.2309L93.7516 60.9987L91.5194 60.8972Z" fill="#BB8D37"/>
<path d="M96.3896 60.9227L98.7994 60.7959L98.9262 63.2057L96.5165 63.3325L96.3896 60.9227Z" fill="#BB8D37"/>
<path d="M5.07227 63.7132L7.22836 63.3327L7.60885 65.4888L5.45275 65.8693L5.07227 63.7132Z" fill="#BB8D37"/>
<path d="M10.4753 63.3327L10.1455 65.5395L12.3523 65.8693L12.6821 63.6624L10.4753 63.3327Z" fill="#BB8D37"/>
<path d="M12.8856 63.434L12.7842 65.6662L15.0164 65.7676L15.1178 63.5355L12.8856 63.434Z" fill="#BB8D37"/>
<path d="M15.2188 63.7639L17.3241 63.3327L17.7553 65.438L15.65 65.8693L15.2188 63.7639Z" fill="#BB8D37"/>
<path d="M20.292 63.7132L22.4481 63.3327L22.8286 65.4888L20.6725 65.8693L20.292 63.7132Z" fill="#BB8D37"/>
<path d="M25.3652 63.7132L27.5213 63.3327L27.9018 65.4888L25.7457 65.8693L25.3652 63.7132Z" fill="#BB8D37"/>
<path d="M35.7147 63.434L35.6133 65.6662L37.8455 65.7676L37.9469 63.5355L35.7147 63.434Z" fill="#BB8D37"/>
<path d="M66.1532 63.434L66.0518 65.6662L68.284 65.7676L68.3854 63.5355L66.1532 63.434Z" fill="#BB8D37"/>
<path d="M78.6338 63.6371L80.866 63.3327L81.1704 65.5649L78.9382 65.8693L78.6338 63.6371Z" fill="#BB8D37"/>
<path d="M81.1699 63.7639L83.2753 63.3327L83.7065 65.438L81.6011 65.8693L81.1699 63.7639Z" fill="#BB8D37"/>
<path d="M88.7803 63.6371L91.0125 63.3327L91.3169 65.5649L89.0847 65.8693L88.7803 63.6371Z" fill="#BB8D37"/>
<path d="M91.5194 63.434L91.418 65.6662L93.6502 65.7676L93.7516 63.5355L91.5194 63.434Z" fill="#BB8D37"/>
<path d="M94.0556 63.434L93.9541 65.6662L96.1863 65.7676L96.2878 63.5355L94.0556 63.434Z" fill="#BB8D37"/>
<path d="M96.3896 63.7639L98.495 63.3327L98.9262 65.438L96.8209 65.8693L96.3896 63.7639Z" fill="#BB8D37"/>
<path d="M12.6826 66.1229L14.9655 65.8692L15.2192 68.1521L12.9363 68.4058L12.6826 66.1229Z" fill="#BB8D37"/>
<path d="M22.8281 65.996L25.2379 65.8692L25.3647 68.279L22.955 68.4058L22.8281 65.996Z" fill="#BB8D37"/>
<path d="M30.5654 66.5035L32.341 65.9962L32.8484 67.7718L31.0727 68.2791L30.5654 66.5035Z" fill="#BB8D37"/>
<path d="M33.1776 65.9708L33.0762 68.203L35.3084 68.3044L35.4098 66.0722L33.1776 65.9708Z" fill="#BB8D37"/>
<path d="M35.7147 65.9708L35.6133 68.203L37.8455 68.3044L37.9469 66.0722L35.7147 65.9708Z" fill="#BB8D37"/>
<path d="M66.1532 65.9708L66.0518 68.203L68.284 68.3044L68.3854 66.0722L66.1532 65.9708Z" fill="#BB8D37"/>
<path d="M71.0234 66.1736L73.2556 65.8692L73.56 68.1014L71.3278 68.4058L71.0234 66.1736Z" fill="#BB8D37"/>
<path d="M73.7636 65.9708L73.6621 68.203L75.8943 68.3044L75.9958 66.0722L73.7636 65.9708Z" fill="#BB8D37"/>
<path d="M76.2997 65.9708L76.1982 68.203L78.4304 68.3044L78.5319 66.0722L76.2997 65.9708Z" fill="#BB8D37"/>
<path d="M78.6338 66.3004L80.7392 65.8692L81.1704 67.9746L79.065 68.4058L78.6338 66.3004Z" fill="#BB8D37"/>
<path d="M86.2432 66.1736L88.4754 65.8692L88.7797 68.1014L86.5476 68.4058L86.2432 66.1736Z" fill="#BB8D37"/>
<path d="M88.9823 65.9708L88.8809 68.203L91.1131 68.3044L91.2145 66.0722L88.9823 65.9708Z" fill="#BB8D37"/>
<path d="M91.3164 66.3004L93.4218 65.8692L93.853 67.9746L91.7476 68.4058L91.3164 66.3004Z" fill="#BB8D37"/>
<path d="M7.73633 69.0397L9.51194 68.5324L10.0193 70.308L8.24365 70.8153L7.73633 69.0397Z" fill="#BB8D37"/>
<path d="M10.5261 68.5324L10.2725 70.5617L12.3017 70.8153L12.5554 68.7861L10.5261 68.5324Z" fill="#BB8D37"/>
<path d="M17.8818 69.0397L19.6574 68.5324L20.1648 70.308L18.3892 70.8153L17.8818 69.0397Z" fill="#BB8D37"/>
<path d="M20.495 68.5073L20.3936 70.7395L22.6257 70.841L22.7272 68.6088L20.495 68.5073Z" fill="#BB8D37"/>
<path d="M23.0312 68.5073L22.9297 70.7395L25.1619 70.841L25.2633 68.6088L23.0312 68.5073Z" fill="#BB8D37"/>
<path d="M25.9233 68.4057L25.3652 70.3843L27.3438 70.9423L27.9018 68.9638L25.9233 68.4057Z" fill="#BB8D37"/>
<path d="M35.5117 68.6594L37.7946 68.4057L38.0483 70.6887L35.7654 70.9423L35.5117 68.6594Z" fill="#BB8D37"/>
<path d="M66.28 68.4057L65.9502 70.6126L68.157 70.9423L68.4868 68.7355L66.28 68.4057Z" fill="#BB8D37"/>
<path d="M68.6903 68.5073L68.5889 70.7395L70.8211 70.841L70.9225 68.6088L68.6903 68.5073Z" fill="#BB8D37"/>
<path d="M71.2265 68.5073L71.125 70.7395L73.3572 70.841L73.4587 68.6088L71.2265 68.5073Z" fill="#BB8D37"/>
<path d="M73.7636 68.5073L73.6621 70.7395L75.8943 70.841L75.9958 68.6088L73.7636 68.5073Z" fill="#BB8D37"/>
<path d="M81.1699 68.5326L83.5797 68.4057L83.7065 70.8155L81.2968 70.9423L81.1699 68.5326Z" fill="#BB8D37"/>
<path d="M86.4462 68.5073L86.3447 70.7395L88.5769 70.841L88.6784 68.6088L86.4462 68.5073Z" fill="#BB8D37"/>
<path d="M88.7803 68.837L90.8856 68.4057L91.3169 70.5111L89.2115 70.9423L88.7803 68.837Z" fill="#BB8D37"/>
<path d="M5.07227 71.0691L7.48202 70.9423L7.60885 73.352L5.19909 73.4788L5.07227 71.0691Z" fill="#BB8D37"/>
<path d="M12.6826 71.0691L15.0924 70.9423L15.2192 73.352L12.8094 73.4788L12.6826 71.0691Z" fill="#BB8D37"/>
<path d="M23.0312 71.0438L22.9297 73.276L25.1619 73.3775L25.2633 71.1453L23.0312 71.0438Z" fill="#BB8D37"/>
<path d="M25.5683 71.0438L25.4668 73.276L27.699 73.3775L27.8005 71.1453L25.5683 71.0438Z" fill="#BB8D37"/>
<path d="M28.1044 71.0438L28.0029 73.276L30.2351 73.3775L30.3366 71.1453L28.1044 71.0438Z" fill="#BB8D37"/>
<path d="M30.6415 71.0438L30.54 73.276L32.7722 73.3775L32.8737 71.1453L30.6415 71.0438Z" fill="#BB8D37"/>
<path d="M33.3552 71.0692L33.1016 73.0985L35.1308 73.3521L35.3845 71.3229L33.3552 71.0692Z" fill="#BB8D37"/>
<path d="M73.8903 70.9423L73.5605 73.1491L75.7674 73.4788L76.0971 71.272L73.8903 70.9423Z" fill="#BB8D37"/>
<path d="M76.4773 71.0692L76.2236 73.0985L78.2529 73.3521L78.5066 71.3229L76.4773 71.0692Z" fill="#BB8D37"/>
<path d="M81.3729 71.0438L81.2715 73.276L83.5037 73.3775L83.6051 71.1453L81.3729 71.0438Z" fill="#BB8D37"/>
<path d="M83.9101 71.0438L83.8086 73.276L86.0408 73.3775L86.1423 71.1453L83.9101 71.0438Z" fill="#BB8D37"/>
<path d="M86.2432 71.3735L88.3485 70.9423L88.7797 73.0476L86.6744 73.4788L86.2432 71.3735Z" fill="#BB8D37"/>
<path d="M91.3164 71.0691L93.7262 70.9423L93.853 73.352L91.4432 73.4788L91.3164 71.0691Z" fill="#BB8D37"/>
<path d="M5.27529 73.5803L5.17383 75.8125L7.40602 75.914L7.50749 73.6818L5.27529 73.5803Z" fill="#BB8D37"/>
<path d="M12.6826 73.7324L14.9655 73.4788L15.2192 75.7617L12.9363 76.0153L12.6826 73.7324Z" fill="#BB8D37"/>
<path d="M20.4189 74.113L22.1946 73.6057L22.7019 75.3813L20.9263 75.8886L20.4189 74.113Z" fill="#BB8D37"/>
<path d="M23.0312 73.5803L22.9297 75.8125L25.1619 75.914L25.2633 73.6818L23.0312 73.5803Z" fill="#BB8D37"/>
<path d="M30.6415 73.5803L30.54 75.8125L32.7722 75.914L32.8737 73.6818L30.6415 73.5803Z" fill="#BB8D37"/>
<path d="M35.5117 73.6056L37.9215 73.4788L38.0483 75.8885L35.6385 76.0153L35.5117 73.6056Z" fill="#BB8D37"/>
<path d="M68.4873 73.8592L70.6434 73.4788L71.0239 75.6349L68.8678 76.0153L68.4873 73.8592Z" fill="#BB8D37"/>
<path d="M78.7598 74.113L80.5354 73.6057L81.0427 75.3813L79.2671 75.8886L78.7598 74.113Z" fill="#BB8D37"/>
<path d="M81.1699 73.91L83.2753 73.4788L83.7065 75.5841L81.6011 76.0153L81.1699 73.91Z" fill="#BB8D37"/>
<path d="M91.6462 73.4788L91.3164 75.6856L93.5232 76.0153L93.853 73.8085L91.6462 73.4788Z" fill="#BB8D37"/>
<path d="M94.0556 73.5803L93.9541 75.8125L96.1863 75.914L96.2878 73.6818L94.0556 73.5803Z" fill="#BB8D37"/>
<path d="M96.7703 73.6057L96.5166 75.635L98.5459 75.8886L98.7995 73.8594L96.7703 73.6057Z" fill="#BB8D37"/>
<path d="M5.40202 76.0153L5.07227 78.2221L7.27909 78.5519L7.60885 76.345L5.40202 76.0153Z" fill="#BB8D37"/>
<path d="M7.8124 76.1169L7.71094 78.349L9.94313 78.4505L10.0446 76.2183L7.8124 76.1169Z" fill="#BB8D37"/>
<path d="M10.7036 76.0153L10.1455 77.9938L12.124 78.5519L12.6821 76.5733L10.7036 76.0153Z" fill="#BB8D37"/>
<path d="M15.2188 76.3958L17.3748 76.0153L17.7553 78.1714L15.5992 78.5519L15.2188 76.3958Z" fill="#BB8D37"/>
<path d="M23.0312 76.1169L22.9297 78.349L25.1619 78.4505L25.2633 76.2183L23.0312 76.1169Z" fill="#BB8D37"/>
<path d="M25.5683 76.1169L25.4668 78.349L27.699 78.4505L27.8005 76.2183L25.5683 76.1169Z" fill="#BB8D37"/>
<path d="M28.1044 76.1169L28.0029 78.349L30.2351 78.4505L30.3366 76.2183L28.1044 76.1169Z" fill="#BB8D37"/>
<path d="M30.6415 76.1169L30.54 78.349L32.7722 78.4505L32.8737 76.2183L30.6415 76.1169Z" fill="#BB8D37"/>
<path d="M35.5117 76.2689L37.7946 76.0153L38.0483 78.2982L35.7654 78.5519L35.5117 76.2689Z" fill="#BB8D37"/>
<path d="M65.9502 76.1421L68.36 76.0153L68.4868 78.425L66.077 78.5519L65.9502 76.1421Z" fill="#BB8D37"/>
<path d="M73.5605 76.1421L75.9703 76.0153L76.0971 78.425L73.6874 78.5519L73.5605 76.1421Z" fill="#BB8D37"/>
<path d="M86.2432 76.3958L88.3993 76.0153L88.7797 78.1714L86.6237 78.5519L86.2432 76.3958Z" fill="#BB8D37"/>
<path d="M10.3485 78.6536L10.2471 80.8858L12.4793 80.9873L12.5807 78.7551L10.3485 78.6536Z" fill="#BB8D37"/>
<path d="M13.2407 78.5521L12.6826 80.5306L14.6612 81.0886L15.2192 79.1101L13.2407 78.5521Z" fill="#BB8D37"/>
<path d="M17.7559 78.8565L19.9881 78.5521L20.2924 80.7843L18.0602 81.0886L17.7559 78.8565Z" fill="#BB8D37"/>
<path d="M20.495 78.6536L20.3936 80.8858L22.6257 80.9873L22.7272 78.7551L20.495 78.6536Z" fill="#BB8D37"/>
<path d="M22.8281 78.9833L24.9335 78.5521L25.3647 80.6574L23.2593 81.0886L22.8281 78.9833Z" fill="#BB8D37"/>
<path d="M30.6415 78.6536L30.54 80.8858L32.7722 80.9873L32.8737 78.7551L30.6415 78.6536Z" fill="#BB8D37"/>
<path d="M33.5327 78.5521L32.9746 80.5306L34.9531 81.0886L35.5112 79.1101L33.5327 78.5521Z" fill="#BB8D37"/>
<path d="M66.28 78.5521L65.9502 80.7589L68.157 81.0886L68.4868 78.8818L66.28 78.5521Z" fill="#BB8D37"/>
<path d="M68.6903 78.6536L68.5889 80.8858L70.8211 80.9873L70.9225 78.7551L68.6903 78.6536Z" fill="#BB8D37"/>
<path d="M71.2265 78.6536L71.125 80.8858L73.3572 80.9873L73.4587 78.7551L71.2265 78.6536Z" fill="#BB8D37"/>
<path d="M73.7636 78.6536L73.6621 80.8858L75.8943 80.9873L75.9958 78.7551L73.7636 78.6536Z" fill="#BB8D37"/>
<path d="M76.6547 78.5521L76.0967 80.5306L78.0752 81.0886L78.6333 79.1101L76.6547 78.5521Z" fill="#BB8D37"/>
<path d="M81.1699 78.6789L83.5797 78.5521L83.7065 80.9618L81.2968 81.0886L81.1699 78.6789Z" fill="#BB8D37"/>
<path d="M10.4753 81.0886L10.1455 83.2954L12.3523 83.6252L12.6821 81.4183L10.4753 81.0886Z" fill="#BB8D37"/>
<path d="M12.6826 81.5198L14.788 81.0886L15.2192 83.194L13.1138 83.6252L12.6826 81.5198Z" fill="#BB8D37"/>
<path d="M17.7559 81.3423L20.0388 81.0886L20.2924 83.3715L18.0095 83.6252L17.7559 81.3423Z" fill="#BB8D37"/>
<path d="M28.0283 81.7229L29.8039 81.2155L30.3112 82.9912L28.5356 83.4985L28.0283 81.7229Z" fill="#BB8D37"/>
<path d="M30.6415 81.1902L30.54 83.4224L32.7722 83.5238L32.8737 81.2916L30.6415 81.1902Z" fill="#BB8D37"/>
<path d="M33.1776 81.1902L33.0762 83.4224L35.3084 83.5238L35.4098 81.2916L33.1776 81.1902Z" fill="#BB8D37"/>
<path d="M36.0698 81.0886L35.5117 83.0671L37.4903 83.6252L38.0483 81.6466L36.0698 81.0886Z" fill="#BB8D37"/>
<path d="M68.6903 81.1902L68.5889 83.4224L70.8211 83.5238L70.9225 81.2916L68.6903 81.1902Z" fill="#BB8D37"/>
<path d="M76.2997 81.1902L76.1982 83.4224L78.4304 83.5238L78.5319 81.2916L76.2997 81.1902Z" fill="#BB8D37"/>
<path d="M78.8358 81.1902L78.7344 83.4224L80.9666 83.5238L81.068 81.2916L78.8358 81.1902Z" fill="#BB8D37"/>
<path d="M81.3729 81.1902L81.2715 83.4224L83.5037 83.5238L83.6051 81.2916L81.3729 81.1902Z" fill="#BB8D37"/>
<path d="M84.2651 81.0886L83.707 83.0671L85.6856 83.6252L86.2436 81.6466L84.2651 81.0886Z" fill="#BB8D37"/>
<path d="M91.3164 81.2154L93.7262 81.0886L93.853 83.4983L91.4432 83.6252L91.3164 81.2154Z" fill="#BB8D37"/>
<path d="M5.07227 83.752L7.48202 83.6251L7.60885 86.0349L5.19909 86.1617L5.07227 83.752Z" fill="#BB8D37"/>
<path d="M15.2188 83.752L17.6285 83.6251L17.7553 86.0349L15.3456 86.1617L15.2188 83.752Z" fill="#BB8D37"/>
<path d="M20.292 84.0056L22.4481 83.6251L22.8286 85.7812L20.6725 86.1617L20.292 84.0056Z" fill="#BB8D37"/>
<path d="M25.3652 83.752L27.775 83.6251L27.9018 86.0349L25.4921 86.1617L25.3652 83.752Z" fill="#BB8D37"/>
<path d="M33.3044 83.6251L32.9746 85.832L35.1814 86.1617L35.5112 83.9549L33.3044 83.6251Z" fill="#BB8D37"/>
<path d="M35.7147 83.7267L35.6133 85.9589L37.8455 86.0603L37.9469 83.8281L35.7147 83.7267Z" fill="#BB8D37"/>
<path d="M48.1943 84.0056L50.3504 83.6251L50.7309 85.7812L48.5748 86.1617L48.1943 84.0056Z" fill="#BB8D37"/>
<path d="M60.877 83.9295L63.1091 83.6251L63.4135 85.8573L61.1813 86.1617L60.877 83.9295Z" fill="#BB8D37"/>
<path d="M63.6171 83.7267L63.5156 85.9589L65.7478 86.0603L65.8493 83.8281L63.6171 83.7267Z" fill="#BB8D37"/>
<path d="M66.1532 83.7267L66.0518 85.9589L68.284 86.0603L68.3854 83.8281L66.1532 83.7267Z" fill="#BB8D37"/>
<path d="M68.6903 83.7267L68.5889 85.9589L70.8211 86.0603L70.9225 83.8281L68.6903 83.7267Z" fill="#BB8D37"/>
<path d="M73.6875 84.2594L75.4631 83.7521L75.9704 85.5277L74.1948 86.035L73.6875 84.2594Z" fill="#BB8D37"/>
<path d="M76.2997 83.7267L76.1982 85.9589L78.4304 86.0603L78.5319 83.8281L76.2997 83.7267Z" fill="#BB8D37"/>
<path d="M78.6338 84.0563L80.7392 83.6251L81.1704 85.7305L79.065 86.1617L78.6338 84.0563Z" fill="#BB8D37"/>
<path d="M83.9101 83.7267L83.8086 85.9589L86.0408 86.0603L86.1423 83.8281L83.9101 83.7267Z" fill="#BB8D37"/>
<path d="M91.6462 83.6251L91.3164 85.832L93.5232 86.1617L93.853 83.9549L91.6462 83.6251Z" fill="#BB8D37"/>
<path d="M94.2332 83.7521L93.9795 85.7813L96.0088 86.035L96.2624 84.0057L94.2332 83.7521Z" fill="#BB8D37"/>
<path d="M5.40202 86.1617L5.07227 88.3685L7.27909 88.6982L7.60885 86.4914L5.40202 86.1617Z" fill="#BB8D37"/>
<path d="M7.8124 86.2632L7.71094 88.4954L9.94313 88.5969L10.0446 86.3647L7.8124 86.2632Z" fill="#BB8D37"/>
<path d="M10.5261 86.2886L10.2725 88.3179L12.3017 88.5715L12.5554 86.5423L10.5261 86.2886Z" fill="#BB8D37"/>
<path d="M15.5485 86.1617L15.2188 88.3685L17.4256 88.6982L17.7553 86.4914L15.5485 86.1617Z" fill="#BB8D37"/>
<path d="M18.1355 86.2886L17.8818 88.3179L19.9111 88.5715L20.1648 86.5423L18.1355 86.2886Z" fill="#BB8D37"/>
<path d="M22.9551 86.7959L24.7307 86.2886L25.238 88.0642L23.4624 88.5715L22.9551 86.7959Z" fill="#BB8D37"/>
<path d="M25.5683 86.2632L25.4668 88.4954L27.699 88.5969L27.8005 86.3647L25.5683 86.2632Z" fill="#BB8D37"/>
<path d="M28.1044 86.2632L28.0029 88.4954L30.2351 88.5969L30.3366 86.3647L28.1044 86.2632Z" fill="#BB8D37"/>
<path d="M30.9965 86.1617L30.4385 88.1402L32.417 88.6982L32.9751 86.7197L30.9965 86.1617Z" fill="#BB8D37"/>
<path d="M35.5117 86.4153L37.7946 86.1617L38.0483 88.4446L35.7654 88.6982L35.5117 86.4153Z" fill="#BB8D37"/>
<path d="M40.585 86.466L42.8172 86.1617L43.1215 88.3938L40.8894 88.6982L40.585 86.466Z" fill="#BB8D37"/>
<path d="M43.5017 86.2886L43.248 88.3179L45.2773 88.5715L45.531 86.5423L43.5017 86.2886Z" fill="#BB8D37"/>
<path d="M50.8574 86.7959L52.633 86.2886L53.1403 88.0642L51.3647 88.5715L50.8574 86.7959Z" fill="#BB8D37"/>
<path d="M53.6482 86.2886L53.3945 88.3179L55.4238 88.5715L55.6775 86.5423L53.6482 86.2886Z" fill="#BB8D37"/>
<path d="M58.3408 86.466L60.573 86.1617L60.8774 88.3938L58.6452 88.6982L58.3408 86.466Z" fill="#BB8D37"/>
<path d="M60.877 86.5929L62.9823 86.1617L63.4135 88.267L61.3082 88.6982L60.877 86.5929Z" fill="#BB8D37"/>
<path d="M68.6903 86.2632L68.5889 88.4954L70.8211 88.5969L70.9225 86.3647L68.6903 86.2632Z" fill="#BB8D37"/>
<path d="M71.5815 86.1617L71.0234 88.1402L73.002 88.6982L73.56 86.7197L71.5815 86.1617Z" fill="#BB8D37"/>
<path d="M81.2969 86.7959L83.0725 86.2886L83.5798 88.0642L81.8042 88.5715L81.2969 86.7959Z" fill="#BB8D37"/>
<path d="M83.9101 86.2632L83.8086 88.4954L86.0408 88.5969L86.1423 86.3647L83.9101 86.2632Z" fill="#BB8D37"/>
<path d="M86.8012 86.1617L86.2432 88.1402L88.2217 88.6982L88.7797 86.7197L86.8012 86.1617Z" fill="#BB8D37"/>
<path d="M20.292 89.0787L22.4481 88.6982L22.8286 90.8543L20.6725 91.2348L20.292 89.0787Z" fill="#BB8D37"/>
<path d="M30.6415 88.7997L30.54 91.0319L32.7722 91.1334L32.8737 88.9012L30.6415 88.7997Z" fill="#BB8D37"/>
<path d="M40.788 88.7997L40.6865 91.0319L42.9187 91.1334L43.0202 88.9012L40.788 88.7997Z" fill="#BB8D37"/>
<path d="M48.1943 89.0787L50.3504 88.6982L50.7309 90.8543L48.5748 91.2348L48.1943 89.0787Z" fill="#BB8D37"/>
<path d="M58.5438 88.7997L58.4424 91.0319L60.6746 91.1334L60.776 88.9012L58.5438 88.7997Z" fill="#BB8D37"/>
<path d="M68.8171 88.6982L68.4873 90.905L70.6941 91.2348L71.0239 89.0279L68.8171 88.6982Z" fill="#BB8D37"/>
<path d="M71.2265 88.7997L71.125 91.0319L73.3572 91.1334L73.4587 88.9012L71.2265 88.7997Z" fill="#BB8D37"/>
<path d="M74.1186 88.6982L73.5605 90.6767L75.5391 91.2348L76.0971 89.2562L74.1186 88.6982Z" fill="#BB8D37"/>
<path d="M78.6338 89.0787L80.7899 88.6982L81.1704 90.8543L79.0143 91.2348L78.6338 89.0787Z" fill="#BB8D37"/>
<path d="M86.2432 88.9518L88.5261 88.6982L88.7797 90.9811L86.4968 91.2348L86.2432 88.9518Z" fill="#BB8D37"/>
<path d="M91.3164 89.0026L93.5486 88.6982L93.853 90.9304L91.6208 91.2348L91.3164 89.0026Z" fill="#BB8D37"/>
<path d="M94.2332 88.8251L93.9795 90.8544L96.0088 91.1081L96.2624 89.0788L94.2332 88.8251Z" fill="#BB8D37"/>
<path d="M10.2725 91.8692L12.0481 91.3619L12.5554 93.1375L10.7798 93.6448L10.2725 91.8692Z" fill="#BB8D37"/>
<path d="M13.2407 91.2352L12.6826 93.2137L14.6612 93.7718L15.2192 91.7932L13.2407 91.2352Z" fill="#BB8D37"/>
<path d="M17.7559 91.362L20.1656 91.2352L20.2924 93.645L17.8827 93.7718L17.7559 91.362Z" fill="#BB8D37"/>
<path d="M25.4922 91.8692L27.2678 91.3619L27.7751 93.1375L25.9995 93.6448L25.4922 91.8692Z" fill="#BB8D37"/>
<path d="M28.1044 91.3365L28.0029 93.5687L30.2351 93.6701L30.3366 91.438L28.1044 91.3365Z" fill="#BB8D37"/>
<path d="M30.6415 91.3365L30.54 93.5687L32.7722 93.6701L32.8737 91.438L30.6415 91.3365Z" fill="#BB8D37"/>
<path d="M33.1776 91.3365L33.0762 93.5687L35.3084 93.6701L35.4098 91.438L33.1776 91.3365Z" fill="#BB8D37"/>
<path d="M36.0698 91.2352L35.5117 93.2137L37.4903 93.7718L38.0483 91.7932L36.0698 91.2352Z" fill="#BB8D37"/>
<path d="M40.788 91.3365L40.6865 93.5687L42.9187 93.6701L43.0202 91.438L40.788 91.3365Z" fill="#BB8D37"/>
<path d="M43.5017 91.3619L43.248 93.3911L45.2773 93.6448L45.531 91.6155L43.5017 91.3619Z" fill="#BB8D37"/>
<path d="M55.8037 91.5396L58.0359 91.2352L58.3403 93.4674L56.1081 93.7718L55.8037 91.5396Z" fill="#BB8D37"/>
<path d="M58.5438 91.3365L58.4424 93.5687L60.6746 93.6701L60.776 91.438L58.5438 91.3365Z" fill="#BB8D37"/>
<path d="M61.435 91.2352L60.877 93.2137L62.8555 93.7718L63.4135 91.7932L61.435 91.2352Z" fill="#BB8D37"/>
<path d="M65.9502 91.362L68.36 91.2352L68.4868 93.645L66.077 93.7718L65.9502 91.362Z" fill="#BB8D37"/>
<path d="M71.3532 91.2352L71.0234 93.442L73.2303 93.7718L73.56 91.565L71.3532 91.2352Z" fill="#BB8D37"/>
<path d="M73.7636 91.3365L73.6621 93.5687L75.8943 93.6701L75.9958 91.438L73.7636 91.3365Z" fill="#BB8D37"/>
<path d="M76.6547 91.2352L76.0967 93.2137L78.0752 93.7718L78.6333 91.7932L76.6547 91.2352Z" fill="#BB8D37"/>
<path d="M81.1699 91.362L83.5797 91.2352L83.7065 93.645L81.2968 93.7718L81.1699 91.362Z" fill="#BB8D37"/>
<path d="M91.5194 91.3365L91.418 93.5687L93.6502 93.6701L93.7516 91.438L91.5194 91.3365Z" fill="#BB8D37"/>
<path d="M5.19922 94.4057L6.97483 93.8984L7.48215 95.674L5.70654 96.1813L5.19922 94.4057Z" fill="#BB8D37"/>
<path d="M7.98999 93.8984L7.73633 95.9277L9.7656 96.1813L10.0193 94.1521L7.98999 93.8984Z" fill="#BB8D37"/>
<path d="M12.6826 94.0251L14.9655 93.7715L15.2192 96.0544L12.9363 96.308L12.6826 94.0251Z" fill="#BB8D37"/>
<path d="M18.0856 93.7715L17.7559 95.9783L19.9627 96.308L20.2924 94.1012L18.0856 93.7715Z" fill="#BB8D37"/>
<path d="M20.6726 93.8984L20.4189 95.9277L22.4482 96.1813L22.7019 94.1521L20.6726 93.8984Z" fill="#BB8D37"/>
<path d="M28.1044 93.873L28.0029 96.1052L30.2351 96.2067L30.3366 93.9745L28.1044 93.873Z" fill="#BB8D37"/>
<path d="M30.4385 94.2027L32.5438 93.7715L32.9751 95.8768L30.8697 96.308L30.4385 94.2027Z" fill="#BB8D37"/>
<path d="M35.8415 93.7715L35.5117 95.9783L37.7185 96.308L38.0483 94.1012L35.8415 93.7715Z" fill="#BB8D37"/>
<path d="M38.2509 93.873L38.1494 96.1052L40.3816 96.2067L40.4831 93.9745L38.2509 93.873Z" fill="#BB8D37"/>
<path d="M40.585 94.2027L42.6903 93.7715L43.1215 95.8768L41.0162 96.308L40.585 94.2027Z" fill="#BB8D37"/>
<path d="M48.3213 94.4057L50.0969 93.8984L50.6042 95.674L48.8286 96.1813L48.3213 94.4057Z" fill="#BB8D37"/>
<path d="M50.9335 93.873L50.832 96.1052L53.0642 96.2067L53.1657 93.9745L50.9335 93.873Z" fill="#BB8D37"/>
<path d="M53.4706 93.873L53.3691 96.1052L55.6013 96.2067L55.7028 93.9745L53.4706 93.873Z" fill="#BB8D37"/>
<path d="M56.0067 93.873L55.9053 96.1052L58.1375 96.2067L58.2389 93.9745L56.0067 93.873Z" fill="#BB8D37"/>
<path d="M61.2067 93.7715L60.877 95.9783L63.0838 96.308L63.4135 94.1012L61.2067 93.7715Z" fill="#BB8D37"/>
<path d="M63.6171 93.873L63.5156 96.1052L65.7478 96.2067L65.8493 93.9745L63.6171 93.873Z" fill="#BB8D37"/>
<path d="M65.9502 94.2027L68.0556 93.7715L68.4868 95.8768L66.3814 96.308L65.9502 94.2027Z" fill="#BB8D37"/>
<path d="M76.2997 93.873L76.1982 96.1052L78.4304 96.2067L78.5319 93.9745L76.2997 93.873Z" fill="#BB8D37"/>
<path d="M78.8358 93.873L78.7344 96.1052L80.9666 96.2067L81.068 93.9745L78.8358 93.873Z" fill="#BB8D37"/>
<path d="M81.3729 93.873L81.2715 96.1052L83.5037 96.2067L83.6051 93.9745L81.3729 93.873Z" fill="#BB8D37"/>
<path d="M83.9101 93.873L83.8086 96.1052L86.0408 96.2067L86.1423 93.9745L83.9101 93.873Z" fill="#BB8D37"/>
<path d="M86.4462 93.873L86.3447 96.1052L88.5769 96.2067L88.6784 93.9745L86.4462 93.873Z" fill="#BB8D37"/>
<path d="M88.9823 93.873L88.8809 96.1052L91.1131 96.2067L91.2145 93.9745L88.9823 93.873Z" fill="#BB8D37"/>
<path d="M91.5194 93.873L91.418 96.1052L93.6502 96.2067L93.7516 93.9745L91.5194 93.873Z" fill="#BB8D37"/>
<path d="M94.4106 93.7715L93.8525 95.75L95.8311 96.308L96.3891 94.3295L94.4106 93.7715Z" fill="#BB8D37"/>
<path d="M25.3652 96.6126L27.5974 96.3082L27.9018 98.5404L25.6696 98.8448L25.3652 96.6126Z" fill="#BB8D37"/>
<path d="M28.1044 96.4095L28.0029 98.6417L30.2351 98.7432L30.3366 96.511L28.1044 96.4095Z" fill="#BB8D37"/>
<path d="M32.9746 96.6887L35.1307 96.3082L35.5112 98.4643L33.3551 98.8448L32.9746 96.6887Z" fill="#BB8D37"/>
<path d="M53.5973 96.3082L53.2676 98.5151L55.4744 98.8448L55.8042 96.638L53.5973 96.3082Z" fill="#BB8D37"/>
<path d="M56.0067 96.4095L55.9053 98.6417L58.1375 98.7432L58.2389 96.511L56.0067 96.4095Z" fill="#BB8D37"/>
<path d="M58.8989 96.3082L58.3408 98.2868L60.3194 98.8448L60.8774 96.8663L58.8989 96.3082Z" fill="#BB8D37"/>
<path d="M63.6171 96.4095L63.5156 98.6417L65.7478 98.7432L65.8493 96.511L63.6171 96.4095Z" fill="#BB8D37"/>
<path d="M68.4873 96.6887L70.6434 96.3082L71.0239 98.4643L68.8678 98.8448L68.4873 96.6887Z" fill="#BB8D37"/>
<path d="M76.2997 96.4095L76.1982 98.6417L78.4304 98.7432L78.5319 96.511L76.2997 96.4095Z" fill="#BB8D37"/>
<path d="M86.4462 96.4095L86.3447 98.6417L88.5769 98.7432L88.6784 96.511L86.4462 96.4095Z" fill="#BB8D37"/>
<path d="M88.9823 96.4095L88.8809 98.6417L91.1131 98.7432L91.2145 96.511L88.9823 96.4095Z" fill="#BB8D37"/>
<path d="M93.8525 96.5619L96.1355 96.3082L96.3891 98.5912L94.1062 98.8448L93.8525 96.5619Z" fill="#BB8D37"/>
<path d="M25.5683 98.9461L25.4668 101.178L27.699 101.28L27.8005 99.0475L25.5683 98.9461Z" fill="#BB8D37"/>
<path d="M28.1044 98.9461L28.0029 101.178L30.2351 101.28L30.3366 99.0475L28.1044 98.9461Z" fill="#BB8D37"/>
<path d="M48.1943 98.9716L50.6041 98.8448L50.7309 101.255L48.3212 101.381L48.1943 98.9716Z" fill="#BB8D37"/>
<path d="M56.1335 98.8448L55.8037 101.052L58.0105 101.381L58.3403 99.1745L56.1335 98.8448Z" fill="#BB8D37"/>
<path d="M58.5438 98.9461L58.4424 101.178L60.6746 101.28L60.776 99.0475L58.5438 98.9461Z" fill="#BB8D37"/>
<path d="M63.6171 98.9461L63.5156 101.178L65.7478 101.28L65.8493 99.0475L63.6171 98.9461Z" fill="#BB8D37"/>
<path d="M76.2997 98.9461L76.1982 101.178L78.4304 101.28L78.5319 99.0475L76.2997 98.9461Z" fill="#BB8D37"/>
<path d="M81.1699 99.2252L83.326 98.8448L83.7065 101.001L81.5504 101.381L81.1699 99.2252Z" fill="#BB8D37"/>
<path d="M86.4462 98.9461L86.3447 101.178L88.5769 101.28L88.6784 99.0475L86.4462 98.9461Z" fill="#BB8D37"/>
<path d="M88.9823 98.9461L88.8809 101.178L91.1131 101.28L91.2145 99.0475L88.9823 98.9461Z" fill="#BB8D37"/>
<path d="M91.8745 98.8448L91.3164 100.823L93.2949 101.381L93.853 99.4028L91.8745 98.8448Z" fill="#BB8D37"/>
<path d="M25.5683 101.483L25.4668 103.715L27.699 103.816L27.8005 101.584L25.5683 101.483Z" fill="#BB8D37"/>
<path d="M28.1044 101.483L28.0029 103.715L30.2351 103.816L30.3366 101.584L28.1044 101.483Z" fill="#BB8D37"/>
<path d="M30.6415 101.483L30.54 103.715L32.7722 103.816L32.8737 101.584L30.6415 101.483Z" fill="#BB8D37"/>
<path d="M33.1776 101.483L33.0762 103.715L35.3084 103.816L35.4098 101.584L33.1776 101.483Z" fill="#BB8D37"/>
<path d="M35.7147 101.483L35.6133 103.715L37.8455 103.816L37.9469 101.584L35.7147 101.483Z" fill="#BB8D37"/>
<path d="M38.4285 101.508L38.1748 103.537L40.2041 103.791L40.4577 101.762L38.4285 101.508Z" fill="#BB8D37"/>
<path d="M45.6572 101.685L47.8894 101.381L48.1938 103.613L45.9616 103.918L45.6572 101.685Z" fill="#BB8D37"/>
<path d="M48.1943 101.812L50.2997 101.381L50.7309 103.486L48.6256 103.918L48.1943 101.812Z" fill="#BB8D37"/>
<path d="M58.5438 101.483L58.4424 103.715L60.6746 103.816L60.776 101.584L58.5438 101.483Z" fill="#BB8D37"/>
<path d="M63.4141 101.635L65.697 101.381L65.9506 103.664L63.6677 103.918L63.4141 101.635Z" fill="#BB8D37"/>
<path d="M71.0234 101.762L73.1795 101.381L73.56 103.537L71.4039 103.918L71.0234 101.762Z" fill="#BB8D37"/>
<path d="M76.2997 101.483L76.1982 103.715L78.4304 103.816L78.5319 101.584L76.2997 101.483Z" fill="#BB8D37"/>
<path d="M86.4462 101.483L86.3447 103.715L88.5769 103.816L88.6784 101.584L86.4462 101.483Z" fill="#BB8D37"/>
<path d="M91.5194 101.483L91.418 103.715L93.6502 103.816L93.7516 101.584L91.5194 101.483Z" fill="#BB8D37"/>
<path d="M96.3896 101.508L98.7994 101.381L98.9262 103.791L96.5165 103.918L96.3896 101.508Z" fill="#BB8D37"/>
<path d="M25.695 103.918L25.3652 106.125L27.5721 106.455L27.9018 104.248L25.695 103.918Z" fill="#BB8D37"/>
<path d="M28.1044 104.019L28.0029 106.252L30.2351 106.353L30.3366 104.121L28.1044 104.019Z" fill="#BB8D37"/>
<path d="M30.4385 104.349L32.5438 103.918L32.9751 106.023L30.8697 106.455L30.4385 104.349Z" fill="#BB8D37"/>
<path d="M40.585 104.045L42.9947 103.918L43.1215 106.328L40.7118 106.455L40.585 104.045Z" fill="#BB8D37"/>
<path d="M45.6572 104.172L47.9402 103.918L48.1938 106.201L45.9109 106.455L45.6572 104.172Z" fill="#BB8D37"/>
<path d="M50.7314 104.299L52.8875 103.918L53.268 106.074L51.1119 106.455L50.7314 104.299Z" fill="#BB8D37"/>
<path d="M58.3408 104.172L60.6237 103.918L60.8774 106.201L58.5945 106.455L58.3408 104.172Z" fill="#BB8D37"/>
<path d="M76.2997 104.019L76.1982 106.252L78.4304 106.353L78.5319 104.121L76.2997 104.019Z" fill="#BB8D37"/>
<path d="M78.8358 104.019L78.7344 106.252L80.9666 106.353L81.068 104.121L78.8358 104.019Z" fill="#BB8D37"/>
<path d="M81.3729 104.019L81.2715 106.252L83.5037 106.353L83.6051 104.121L81.3729 104.019Z" fill="#BB8D37"/>
<path d="M83.9101 104.019L83.8086 106.252L86.0408 106.353L86.1423 104.121L83.9101 104.019Z" fill="#BB8D37"/>
<path d="M86.4462 104.019L86.3447 106.252L88.5769 106.353L88.6784 104.121L86.4462 104.019Z" fill="#BB8D37"/>
<path d="M88.9823 104.019L88.8809 106.252L91.1131 106.353L91.2145 104.121L88.9823 104.019Z" fill="#BB8D37"/>
<path d="M91.5194 104.019L91.418 106.252L93.6502 106.353L93.7516 104.121L91.5194 104.019Z" fill="#BB8D37"/>
<path d="M94.0556 104.019L93.9541 106.252L96.1863 106.353L96.2878 104.121L94.0556 104.019Z" fill="#BB8D37"/>
<path d="M96.3896 104.349L98.495 103.918L98.9262 106.023L96.8209 106.455L96.3896 104.349Z" fill="#BB8D37"/>
<path d="M33.1016 107.089L34.8772 106.581L35.3845 108.357L33.6089 108.864L33.1016 107.089Z" fill="#BB8D37"/>
<path d="M36.0698 106.455L35.5117 108.433L37.4903 108.991L38.0483 107.013L36.0698 106.455Z" fill="#BB8D37"/>
<path d="M40.788 106.556L40.6865 108.788L42.9187 108.89L43.0202 106.657L40.788 106.556Z" fill="#BB8D37"/>
<path d="M53.2676 106.581L55.6773 106.455L55.8042 108.864L53.3944 108.991L53.2676 106.581Z" fill="#BB8D37"/>
<path d="M65.9502 106.581L68.36 106.455L68.4868 108.864L66.077 108.991L65.9502 106.581Z" fill="#BB8D37"/>
<path d="M71.0234 106.581L73.4332 106.455L73.56 108.864L71.1503 108.991L71.0234 106.581Z" fill="#BB8D37"/>
<path d="M76.0967 106.708L78.3796 106.455L78.6333 108.738L76.3503 108.991L76.0967 106.708Z" fill="#BB8D37"/>
<path d="M81.3729 106.556L81.2715 108.788L83.5037 108.89L83.6051 106.657L81.3729 106.556Z" fill="#BB8D37"/>
<path d="M83.9101 106.556L83.8086 108.788L86.0408 108.89L86.1423 106.657L83.9101 106.556Z" fill="#BB8D37"/>
<path d="M91.5194 106.556L91.418 108.788L93.6502 108.89L93.7516 106.657L91.5194 106.556Z" fill="#BB8D37"/>
<path d="M27.9014 109.371L30.0575 108.991L30.438 111.147L28.2819 111.527L27.9014 109.371Z" fill="#BB8D37"/>
<path d="M35.7147 109.092L35.6133 111.325L37.8455 111.426L37.9469 109.194L35.7147 109.092Z" fill="#BB8D37"/>
<path d="M40.585 109.245L42.8679 108.991L43.1215 111.274L40.8386 111.527L40.585 109.245Z" fill="#BB8D37"/>
<path d="M48.1943 109.118L50.6041 108.991L50.7309 111.401L48.3212 111.527L48.1943 109.118Z" fill="#BB8D37"/>
<path d="M53.5973 108.991L53.2676 111.198L55.4744 111.527L55.8042 109.321L53.5973 108.991Z" fill="#BB8D37"/>
<path d="M56.1843 109.118L55.9307 111.147L57.9599 111.401L58.2136 109.371L56.1843 109.118Z" fill="#BB8D37"/>
<path d="M63.4141 109.295L65.6463 108.991L65.9506 111.223L63.7185 111.527L63.4141 109.295Z" fill="#BB8D37"/>
<path d="M66.1532 109.092L66.0518 111.325L68.284 111.426L68.3854 109.194L66.1532 109.092Z" fill="#BB8D37"/>
<path d="M68.6903 109.092L68.5889 111.325L70.8211 111.426L70.9225 109.194L68.6903 109.092Z" fill="#BB8D37"/>
<path d="M71.2265 109.092L71.125 111.325L73.3572 111.426L73.4587 109.194L71.2265 109.092Z" fill="#BB8D37"/>
<path d="M81.4997 108.991L81.1699 111.198L83.3768 111.527L83.7065 109.321L81.4997 108.991Z" fill="#BB8D37"/>
<path d="M83.9101 109.092L83.8086 111.325L86.0408 111.426L86.1423 109.194L83.9101 109.092Z" fill="#BB8D37"/>
<path d="M91.5194 109.092L91.418 111.325L93.6502 111.426L93.7516 109.194L91.5194 109.092Z" fill="#BB8D37"/>
<path d="M94.4106 108.991L93.8525 110.969L95.8311 111.527L96.3891 109.549L94.4106 108.991Z" fill="#BB8D37"/>
<path d="M35.7147 111.629L35.6133 113.861L37.8455 113.963L37.9469 111.731L35.7147 111.629Z" fill="#BB8D37"/>
<path d="M38.4285 111.654L38.1748 113.684L40.2041 113.937L40.4577 111.908L38.4285 111.654Z" fill="#BB8D37"/>
<path d="M43.1211 111.654L45.5308 111.528L45.6577 113.937L43.2479 114.064L43.1211 111.654Z" fill="#BB8D37"/>
<path d="M48.3974 111.629L48.2959 113.861L50.5281 113.963L50.6296 111.731L48.3974 111.629Z" fill="#BB8D37"/>
<path d="M60.877 111.832L63.1091 111.528L63.4135 113.76L61.1813 114.064L60.877 111.832Z" fill="#BB8D37"/>
<path d="M63.4141 111.959L65.5194 111.528L65.9506 113.633L63.8453 114.064L63.4141 111.959Z" fill="#BB8D37"/>
<path d="M71.3532 111.528L71.0234 113.734L73.2303 114.064L73.56 111.857L71.3532 111.528Z" fill="#BB8D37"/>
<path d="M74.1186 111.528L73.5605 113.506L75.5391 114.064L76.0971 112.086L74.1186 111.528Z" fill="#BB8D37"/>
<path d="M84.0368 111.528L83.707 113.734L85.9139 114.064L86.2436 111.857L84.0368 111.528Z" fill="#BB8D37"/>
<path d="M86.6238 111.654L86.3701 113.684L88.3994 113.937L88.653 111.908L86.6238 111.654Z" fill="#BB8D37"/>
<path d="M91.5194 111.629L91.418 113.861L93.6502 113.963L93.7516 111.731L91.5194 111.629Z" fill="#BB8D37"/>
<path d="M94.0556 111.629L93.9541 113.861L96.1863 113.963L96.2878 111.731L94.0556 111.629Z" fill="#BB8D37"/>
<path d="M35.5117 114.318L37.7946 114.064L38.0483 116.347L35.7654 116.601L35.5117 114.318Z" fill="#BB8D37"/>
<path d="M43.4508 114.064L43.1211 116.271L45.3279 116.601L45.6577 114.394L43.4508 114.064Z" fill="#BB8D37"/>
<path d="M45.8603 114.165L45.7588 116.398L47.991 116.499L48.0924 114.267L45.8603 114.165Z" fill="#BB8D37"/>
<path d="M48.3974 114.165L48.2959 116.398L50.5281 116.499L50.6296 114.267L48.3974 114.165Z" fill="#BB8D37"/>
<path d="M51.1111 114.191L50.8574 116.22L52.8867 116.474L53.1403 114.445L51.1111 114.191Z" fill="#BB8D37"/>
<path d="M60.877 114.318L63.1599 114.064L63.4135 116.347L61.1306 116.601L60.877 114.318Z" fill="#BB8D37"/>
<path d="M73.5605 114.318L75.8435 114.064L76.0971 116.347L73.8142 116.601L73.5605 114.318Z" fill="#BB8D37"/>
<path d="M81.1699 114.445L83.326 114.064L83.7065 116.22L81.5504 116.601L81.1699 114.445Z" fill="#BB8D37"/>
<path d="M91.6462 114.064L91.3164 116.271L93.5232 116.601L93.853 114.394L91.6462 114.064Z" fill="#BB8D37"/>
<path d="M94.0556 114.165L93.9541 116.398L96.1863 116.499L96.2878 114.267L94.0556 114.165Z" fill="#BB8D37"/>
<path d="M96.7703 114.191L96.5166 116.22L98.5459 116.474L98.7995 114.445L96.7703 114.191Z" fill="#BB8D37"/>
<path d="M20.1649 22.7471H7.73568H5.07227V25.4105V37.8398V40.5032H7.73568H20.1649H22.8284V37.8398V25.4105V22.7471H20.1649ZM20.1649 37.8398H7.73568V25.4105H20.1649V37.8398Z" fill="#BB8D37"/>
<path d="M96.2626 22.747H83.8333H81.1699V25.4105V37.8397V40.5031H83.8333H96.2626H98.926V37.8397V25.4105V22.747H96.2626ZM96.2626 37.8397H83.8333V25.4105H96.2626V37.8397Z" fill="#BB8D37"/>
<path d="M20.1649 98.8448H7.73568H5.07227V101.508V113.937V116.601H7.73568H20.1649H22.8284V113.937V101.508V98.8448H20.1649ZM20.1649 113.937H7.73568V101.508H20.1649V113.937Z" fill="#BB8D37"/>
<path d="M17.7553 27.8203H10.1455V35.4301H17.7553V27.8203Z" fill="#BB8D37"/>
<path d="M93.8529 27.8203H86.2432V35.4301H93.8529V27.8203Z" fill="#BB8D37"/>
<path d="M17.7553 103.918H10.1455V111.528H17.7553V103.918Z" fill="#BB8D37"/>
<g clip-path="url(#clip1_511_7094)">
<path d="M51.9991 83.6253C59.7041 83.6253 65.9503 77.3791 65.9503 69.6741C65.9503 61.969 59.7041 55.7228 51.9991 55.7228C44.294 55.7228 38.0479 61.969 38.0479 69.6741C38.0479 77.3791 44.294 83.6253 51.9991 83.6253Z" fill="#BB8D37"/>
<path d="M55.9962 78.3936H48.0034C45.3991 78.3936 43.2803 76.2749 43.2803 73.6704V65.6777C43.2803 63.0732 45.3991 60.9545 48.0034 60.9545H55.9962C58.6007 60.9545 60.7193 63.0732 60.7193 65.6777V73.6706C60.7193 76.2749 58.6007 78.3936 55.9962 78.3936ZM48.0034 62.4079C46.2004 62.4079 44.7336 63.8747 44.7336 65.6777V73.6706C44.7336 75.4736 46.2004 76.9404 48.0034 76.9404H55.9962C57.7991 76.9404 59.266 75.4736 59.266 73.6706V65.6777C59.266 63.8747 57.7991 62.4079 55.9962 62.4079H48.0034Z" fill="white"/>
<path d="M51.9994 74.0339C49.5954 74.0339 47.6396 72.0779 47.6396 69.6741C47.6396 67.2699 49.5954 65.3144 51.9994 65.3144C54.4034 65.3144 56.3592 67.2699 56.3592 69.6741C56.3592 72.0779 54.4034 74.0339 51.9994 74.0339ZM51.9994 66.7677C50.3968 66.7677 49.093 68.0715 49.093 69.6741C49.093 71.277 50.3968 72.5805 51.9994 72.5805C53.6021 72.5805 54.9058 71.277 54.9058 69.6741C54.9058 68.0715 53.6023 66.7677 51.9994 66.7677Z" fill="white"/>
<path d="M56.6319 66.0411C57.1836 66.0411 57.6309 65.5938 57.6309 65.0421C57.6309 64.4903 57.1836 64.043 56.6319 64.043C56.0801 64.043 55.6328 64.4903 55.6328 65.0421C55.6328 65.5938 56.0801 66.0411 56.6319 66.0411Z" fill="white"/>
</g>
<path d="M8.96492 7.4968C8.96492 8.16003 8.99248 8.88858 9.0476 9.68245C9.06264 9.97889 9.08018 10.1899 9.10022 10.3155L9.12277 10.5416H6.33398C6.39412 10.0693 6.44173 9.49906 6.47681 8.8308C6.49184 8.48411 6.49936 8.10476 6.49936 7.69275V6.85618C6.49936 6.24822 6.4718 5.57494 6.41667 4.83634C6.39663 4.60019 6.36906 4.33389 6.33398 4.03744L9.12277 3.82642L9.05512 4.57255C9.03508 4.78358 9.02255 4.97953 9.01754 5.16042C9.12277 4.96949 9.2656 4.78609 9.446 4.61024C9.62641 4.43438 9.82686 4.27611 10.0474 4.13542C10.5184 3.84903 10.987 3.70583 11.453 3.70583C12.4803 3.70583 13.227 3.97966 13.6931 4.52733C14.0689 4.97953 14.2569 5.63272 14.2569 6.48688V7.7229C14.2569 8.59214 14.2794 9.3031 14.3245 9.85579C14.3446 10.1271 14.3671 10.3557 14.3922 10.5416H11.6184C11.6685 10.1347 11.7136 9.5895 11.7537 8.90617C11.7687 8.57958 11.7763 8.22284 11.7763 7.83595V6.96923C11.7763 6.29595 11.6735 5.80355 11.4681 5.49203C11.2676 5.18051 10.9369 5.02476 10.4758 5.02476C10.2553 5.02476 10.0499 5.0951 9.85944 5.23578C9.67402 5.37647 9.51366 5.5674 9.37835 5.80857C9.24806 6.0397 9.14533 6.30349 9.07016 6.59993C9 6.89637 8.96492 7.19533 8.96492 7.4968Z" fill="#5C5956"/>
<path d="M20.0359 3.70583C20.4518 3.70583 20.8728 3.75356 21.2987 3.84903C21.7798 3.95454 22.1657 4.12286 22.4563 4.35399C22.7971 4.62028 22.9675 4.94185 22.9675 5.31869C22.9675 5.58498 22.9199 5.7935 22.8247 5.94424C22.7495 6.06985 22.6292 6.17034 22.4638 6.2457L23.1855 6.23063C23.3458 6.23063 23.4586 6.22812 23.5237 6.22309H23.6816L23.5087 7.09735H23.1855C23.0101 7.09735 22.8748 7.09484 22.7796 7.08982H21.8625L18.3897 7.09735C18.3846 7.1275 18.3821 7.17272 18.3821 7.23302V7.37621C18.3871 8.13491 18.5625 8.73282 18.9083 9.16995C19.0536 9.36088 19.2215 9.50659 19.412 9.60708C19.6074 9.70255 19.8104 9.75028 20.0208 9.75028C20.4217 9.75028 20.8201 9.67994 21.216 9.53925C21.4666 9.44881 21.7121 9.33074 21.9527 9.18503L22.1181 10.0216C21.9477 10.2125 21.627 10.3884 21.1559 10.5492C20.6999 10.7049 20.2614 10.7828 19.8404 10.7828C19.2942 10.7828 18.778 10.7125 18.2919 10.5718C17.8058 10.4361 17.3824 10.2276 17.0216 9.94623C16.6307 9.64979 16.3275 9.28049 16.112 8.83834C15.8965 8.39618 15.7888 7.87866 15.7888 7.28577C15.7888 6.43663 16.0093 5.72567 16.4503 5.15288C16.8412 4.64541 17.3749 4.27108 18.0514 4.02991C18.6477 3.81385 19.3092 3.70583 20.0359 3.70583ZM19.9983 4.73836C19.8379 4.73836 19.6801 4.76851 19.5247 4.8288C19.3694 4.88909 19.2265 4.97702 19.0962 5.09259C18.7956 5.35888 18.5901 5.72818 18.4799 6.20048H20.2238C20.4242 6.20048 20.5921 6.16029 20.7274 6.0799C20.8928 5.97438 20.9755 5.82114 20.9755 5.62016C20.9755 5.34883 20.8878 5.13529 20.7124 4.97953C20.542 4.81875 20.304 4.73836 19.9983 4.73836Z" fill="#5C5956"/>
<path d="M28.5716 10.7828C28.0254 10.7778 27.5017 10.7049 27.0006 10.5642C26.5044 10.4236 26.0659 10.215 25.6851 9.9387C25.2792 9.64225 24.961 9.27295 24.7304 8.8308C24.5049 8.38865 24.3922 7.87364 24.3922 7.28577C24.3922 6.44668 24.6077 5.74074 25.0386 5.16795C25.4095 4.67555 25.9357 4.30123 26.6172 4.04498C27.1985 3.82893 27.855 3.71588 28.5866 3.70583C29.3233 3.70583 30.0073 3.82642 30.6388 4.06759C31.3003 4.32886 31.8189 4.70821 32.1948 5.20564C32.6107 5.75833 32.8187 6.42407 32.8187 7.20287C32.8187 8.052 32.6007 8.76046 32.1647 9.32822C31.7788 9.83067 31.2451 10.205 30.5636 10.4512C29.9472 10.6723 29.2832 10.7828 28.5716 10.7828ZM26.9855 7.24055C26.9855 8.07462 27.1584 8.71775 27.5042 9.16995C27.6495 9.36088 27.8174 9.50659 28.0078 9.60708C28.2033 9.70255 28.4062 9.75028 28.6167 9.75028C28.8222 9.75028 29.0201 9.70004 29.2105 9.59955C29.406 9.49403 29.5789 9.33827 29.7292 9.13227C29.8846 8.92124 30.0048 8.65997 30.09 8.34845C30.1802 8.03191 30.2253 7.66763 30.2253 7.25562C30.2253 6.41654 30.0524 5.77089 29.7067 5.31869C29.5613 5.12776 29.3909 4.98456 29.1955 4.88909C29.0051 4.7886 28.8046 4.73836 28.5942 4.73836C28.3887 4.73836 28.1882 4.79112 27.9928 4.89663C27.7974 4.99712 27.627 5.15037 27.4816 5.35637C27.1509 5.80857 26.9855 6.43663 26.9855 7.24055Z" fill="#5C5956"/>
<path d="M37.0948 7.4968C37.0948 8.16003 37.1223 8.88858 37.1775 9.68245C37.1925 9.97889 37.21 10.1899 37.2301 10.3155L37.2526 10.5416H34.4638C34.524 10.0693 34.5716 9.49906 34.6067 8.8308C34.6217 8.48411 34.6292 8.10476 34.6292 7.69275V6.85618C34.6292 6.24822 34.6016 5.57494 34.5465 4.83634C34.5265 4.60019 34.4989 4.33389 34.4638 4.03744L37.2526 3.82642L37.185 4.57255C37.1649 4.78358 37.1524 4.97953 37.1474 5.16042C37.2526 4.96949 37.3954 4.78609 37.5759 4.61024C37.7563 4.43438 37.9567 4.27611 38.1772 4.13542C38.6483 3.84903 39.1168 3.70583 39.5829 3.70583C40.6102 3.70583 41.3569 3.97966 41.8229 4.52733C42.1988 4.97953 42.3867 5.63272 42.3867 6.48688V7.7229C42.3867 8.59214 42.4093 9.3031 42.4544 9.85579C42.4744 10.1271 42.497 10.3557 42.522 10.5416H39.7483C39.7984 10.1347 39.8435 9.5895 39.8836 8.90617C39.8986 8.57958 39.9061 8.22284 39.9061 7.83595V6.96923C39.9061 6.29595 39.8034 5.80355 39.5979 5.49203C39.3975 5.18051 39.0667 5.02476 38.6057 5.02476C38.3852 5.02476 38.1797 5.0951 37.9893 5.23578C37.8039 5.37647 37.6435 5.5674 37.5082 5.80857C37.3779 6.0397 37.2752 6.30349 37.2 6.59993C37.1299 6.89637 37.0948 7.19533 37.0948 7.4968Z" fill="#5C5956"/>
<path d="M43.415 11.6345C43.851 11.6596 44.4373 11.6847 45.174 11.7098C45.645 11.7199 46.0359 11.7249 46.3466 11.7249C47.0833 11.7249 47.7924 11.7098 48.4739 11.6797L49.2782 11.6345V12.765C48.727 12.7298 48.1432 12.6997 47.5268 12.6745C47.0357 12.6645 46.6323 12.6595 46.3165 12.6595C45.5999 12.6595 44.9009 12.6745 44.2193 12.7047L43.415 12.7499V11.6345Z" fill="#5C5956"/>
<path d="M57.8723 4.61777C58.3785 5.19056 58.6315 6.01709 58.6315 7.09735C58.6315 7.64 58.5689 8.13491 58.4436 8.58209C58.3183 9.02927 58.1279 9.41364 57.8723 9.73521C57.3261 10.4336 56.5043 10.7828 55.4068 10.7828C54.6751 10.7828 54.0788 10.612 53.6177 10.2703C53.3822 10.0995 53.1868 9.88092 53.0314 9.61462V12.6444C53.0314 13.3227 53.0565 14.0035 53.1066 14.6868C53.1367 15.0486 53.1642 15.3174 53.1893 15.4933H50.408C50.4581 15.0913 50.5032 14.521 50.5433 13.7824C50.5583 13.4357 50.5659 13.0564 50.5659 12.6444V7.11996C50.5659 6.51703 50.5383 5.80104 50.4832 4.972C50.4531 4.57004 50.428 4.26606 50.408 4.06005L53.1893 3.84149C53.1492 4.1932 53.1216 4.48714 53.1066 4.72329C53.2569 4.51728 53.4273 4.34143 53.6177 4.19571C54.0688 3.86912 54.6651 3.70583 55.4068 3.70583C56.5143 3.70583 57.3361 4.00981 57.8723 4.61777ZM55.933 8.32584C56.0232 7.96408 56.0733 7.55458 56.0833 7.09735C56.0783 6.28339 55.9405 5.6704 55.6699 5.25839C55.4243 4.88156 55.0936 4.69314 54.6776 4.69314C54.2366 4.69314 53.8708 4.86146 53.5802 5.1981C53.2143 5.62518 53.0314 6.28841 53.0314 7.18779V7.22548C53.0314 8.0294 53.1868 8.65243 53.4975 9.09459C53.6228 9.27547 53.7631 9.41866 53.9184 9.52418C54.0788 9.62969 54.2391 9.70004 54.3995 9.73521C54.4797 9.76033 54.5749 9.77289 54.6851 9.77289C54.9708 9.77289 55.2138 9.65984 55.4143 9.43374C55.6398 9.17749 55.8127 8.80819 55.933 8.32584Z" fill="#5C5956"/>
<path d="M60.5271 6.85618C60.5271 6.24822 60.4996 5.57494 60.4444 4.83634C60.4194 4.49467 60.3943 4.22837 60.3693 4.03744L63.158 3.82642L63.1205 4.1505C63.1004 4.36655 63.0779 4.70068 63.0528 5.15288C63.2783 4.73585 63.584 4.39669 63.9699 4.13542C64.3858 3.84903 64.8243 3.70583 65.2853 3.70583C66.0471 3.70583 66.6334 3.85154 67.0443 4.14296C67.4001 4.39418 67.6382 4.78609 67.7584 5.31869C67.9789 4.85643 68.2996 4.47709 68.7206 4.18064C69.1666 3.8641 69.6276 3.70583 70.1037 3.70583C71.121 3.70583 71.8301 3.97966 72.231 4.52733C72.3964 4.76348 72.5116 5.04234 72.5768 5.36391C72.6419 5.68547 72.6745 6.0598 72.6745 6.48688V7.58724C72.6745 8.44643 72.6971 9.18 72.7422 9.78796C72.7622 10.0744 72.7848 10.3256 72.8098 10.5416H70.0361C70.0862 10.1196 70.1313 9.53674 70.1714 8.79312C70.1864 8.45145 70.1939 8.08718 70.1939 7.70029V6.96923C70.1939 6.55722 70.1864 6.2457 70.1714 6.03468C70.1613 5.82365 70.1313 5.64528 70.0812 5.49957C70.026 5.33376 69.9358 5.21317 69.8106 5.13781C69.6853 5.06244 69.5124 5.02476 69.2919 5.02476C69.1065 5.02476 68.9286 5.07751 68.7582 5.18303C68.5928 5.28854 68.4425 5.43676 68.3072 5.62769C68.1769 5.8136 68.0716 6.02714 67.9914 6.26831C67.9113 6.50446 67.8637 6.75066 67.8486 7.00691V7.58724C67.8486 8.44643 67.8712 9.18 67.9163 9.78796C67.9413 10.1146 67.9664 10.3658 67.9914 10.5416H65.2102C65.2703 10.0392 65.3179 9.45635 65.353 8.79312C65.368 8.45145 65.3755 8.08718 65.3755 7.70029V6.96923C65.3755 6.55722 65.368 6.2457 65.353 6.03468C65.343 5.82365 65.3129 5.64528 65.2628 5.49957C65.2027 5.33376 65.11 5.21317 64.9847 5.13781C64.8594 5.06244 64.6865 5.02476 64.466 5.02476C64.2655 5.02476 64.0751 5.08756 63.8947 5.21317C63.7193 5.33878 63.564 5.51213 63.4287 5.73321C63.2984 5.94424 63.1931 6.18541 63.1129 6.45673C63.0378 6.72805 62.9977 6.99938 62.9927 7.2707V7.69275C62.9927 8.51677 63.0202 9.19759 63.0754 9.73521C63.1054 10.097 63.133 10.3658 63.158 10.5416H60.3693C60.4194 10.1397 60.4645 9.5694 60.5046 8.8308C60.5196 8.48411 60.5271 8.10476 60.5271 7.69275V6.85618Z" fill="#5C5956"/>
<path d="M83.0155 7.05213C83.0155 7.67014 82.9052 8.21781 82.6847 8.69514C82.4642 9.16744 82.151 9.55935 81.7451 9.87087C81.3492 10.1723 80.8782 10.3984 80.3319 10.5492C79.7907 10.7049 79.1944 10.7828 78.5429 10.7828C77.255 10.7828 76.3154 10.4738 75.724 9.85579C75.248 9.35837 74.9924 8.64741 74.9573 7.7229C74.9523 7.68271 74.9498 7.62744 74.9498 7.55709V6.86372C74.9498 6.54717 74.9523 6.2658 74.9573 6.0196V2.49242C74.9573 1.77391 74.9297 0.967486 74.8746 0.0731281L74.822 -0.642861L74.7919 -0.89911L77.5807 -1.11014C77.5206 -0.617738 77.4755 0.0178585 77.4454 0.796653C77.4304 1.16344 77.4229 1.55033 77.4229 1.95731V3.44204C77.4179 3.77868 77.4154 4.27611 77.4154 4.93431C77.6358 4.57758 77.909 4.29872 78.2347 4.09774C78.6657 3.83646 79.1869 3.70583 79.7982 3.70583C80.8857 3.70583 81.705 4.02237 82.2563 4.65546C82.7624 5.24332 83.0155 6.04221 83.0155 7.05213ZM80.4823 6.99938C80.4823 6.56225 80.4422 6.18039 80.362 5.85379C80.2818 5.52218 80.1666 5.26091 80.0162 5.06998C79.8208 4.81875 79.5727 4.69314 79.272 4.69314C79.1017 4.69314 78.9363 4.72831 78.7759 4.79865C78.6156 4.87402 78.4552 4.98958 78.2948 5.14534C78.1345 5.29608 77.9917 5.47947 77.8664 5.69552C77.5707 6.203 77.4229 6.77327 77.4229 7.40636V7.54202C77.4229 7.98417 77.468 8.37106 77.5582 8.70268C77.6684 9.11468 77.8313 9.4061 78.0468 9.57694C78.1971 9.69752 78.37 9.75782 78.5654 9.75782C78.7108 9.75782 78.8511 9.73018 78.9864 9.67491C79.2219 9.61462 79.4324 9.50157 79.6178 9.33576C79.8083 9.16995 79.9686 8.96646 80.0989 8.72529C80.3545 8.25801 80.4823 7.68271 80.4823 6.99938Z" fill="#5C5956"/>
<path d="M91.7625 10.3231C91.5721 10.4437 91.3416 10.5391 91.071 10.6095C90.7202 10.71 90.3318 10.7602 89.9058 10.7602C89.555 10.7602 89.2619 10.6924 89.0264 10.5567C88.7908 10.4261 88.6154 10.2527 88.5002 10.0367C88.2346 10.2427 87.9138 10.4135 87.538 10.5492C87.1221 10.6999 86.7061 10.7753 86.2902 10.7753C85.5936 10.7753 85.0649 10.6597 84.7041 10.4286C84.3082 10.1723 84.1103 9.78043 84.1103 9.25286C84.1103 9.02675 84.1328 8.83834 84.1779 8.6876C84.228 8.53184 84.3107 8.39618 84.426 8.28062C84.5362 8.17008 84.6916 8.06708 84.892 7.97161C85.0975 7.87615 85.3706 7.77315 85.7114 7.66261L88.2972 6.82603V6.08743C88.2972 5.63523 88.2296 5.29608 88.0942 5.06998C87.9239 4.79865 87.6282 4.66299 87.2072 4.66299C86.8414 4.66299 86.423 4.77353 85.9519 4.99461C85.6212 5.14534 85.323 5.32874 85.0574 5.54479L84.8169 4.70068C85.2528 4.37408 85.7765 4.12286 86.3879 3.947C86.9442 3.78622 87.4829 3.70583 88.004 3.70583C88.5352 3.70583 88.9787 3.7611 89.3345 3.87164C89.6954 3.98217 89.981 4.1505 90.1915 4.3766C90.3969 4.59265 90.5423 4.86146 90.6275 5.18303C90.7177 5.49957 90.7628 5.88394 90.7628 6.33614V8.6047C90.7628 8.93129 90.7878 9.16995 90.8379 9.32069C90.9031 9.55181 91.0309 9.66989 91.2213 9.67491H91.2664C91.2915 9.67491 91.3391 9.66989 91.4092 9.65984L91.6122 9.61462L91.7625 10.3231ZM87.117 9.68245C87.2674 9.68245 87.4678 9.64477 87.7184 9.5694C87.9539 9.49906 88.1469 9.40359 88.2972 9.283V7.75305L87.553 8.03191C87.1521 8.17259 86.864 8.30323 86.6886 8.42382C86.4731 8.57958 86.3653 8.77302 86.3653 9.00414C86.3653 9.26039 86.423 9.43876 86.5382 9.53925C86.6585 9.63472 86.8514 9.68245 87.117 9.68245Z" fill="#5C5956"/>
<path d="M98.0829 3.80381C98.153 3.83898 98.2031 3.87164 98.2332 3.90178L97.9401 5.49203C97.8599 5.43174 97.7196 5.37144 97.5191 5.31115C97.4189 5.28603 97.3212 5.27347 97.2259 5.27347C97.0255 5.27347 96.8376 5.3212 96.6622 5.41667C96.4868 5.51213 96.3364 5.64025 96.2112 5.80104C96.0909 5.95177 95.9982 6.12009 95.933 6.306C95.8679 6.48688 95.8353 6.6552 95.8353 6.81096V7.69275C95.8353 8.51677 95.8629 9.19759 95.918 9.73521C95.9481 10.097 95.9756 10.3658 96.0007 10.5416H93.2119C93.262 10.1397 93.3071 9.5694 93.3472 8.8308C93.3622 8.48411 93.3697 8.10476 93.3697 7.69275V6.85618C93.3697 6.24319 93.3422 5.5674 93.2871 4.8288C93.262 4.48714 93.2369 4.22335 93.2119 4.03744L96.0007 3.82642C95.9456 4.20325 95.903 4.68811 95.8729 5.281C95.9731 4.94939 96.1209 4.65294 96.3164 4.39167C96.4667 4.18567 96.6446 4.01986 96.8501 3.89425C97.0556 3.76863 97.2911 3.70583 97.5567 3.70583C97.7672 3.70583 97.9426 3.73849 98.0829 3.80381Z" fill="#5C5956"/>
</g>
<defs>
<clipPath id="clip0_511_7094">
<rect width="104" height="122" fill="white" transform="translate(-0.000976562 -0.00598145)"/>
</clipPath>
<clipPath id="clip1_511_7094">
<rect width="27.9024" height="27.9024" fill="white" transform="translate(38.0479 55.7228)"/>
</clipPath>
</defs>
</svg>
