<svg width="97" height="97" viewBox="0 0 97 97" fill="none" xmlns="http://www.w3.org/2000/svg">
<path d="M30.7436 79.2435C13.7644 69.4401 7.94721 47.7286 17.7506 30.7494C27.5539 13.7701 49.2655 7.95295 66.2447 17.7563C83.2239 27.5596 89.0411 49.2712 79.2377 66.2504C69.4344 83.2296 47.7228 89.0468 30.7436 79.2435Z" fill="url(#paint0_radial_391_43110)"/>
<path d="M61.4273 34.0485C57.8524 30.486 53.0858 28.5068 48.0545 28.5068C37.5945 28.5068 29.1207 36.9513 29.1207 47.3749C29.1207 50.6735 30.0475 53.9721 31.6364 56.7429L28.9883 66.5068L39.051 63.8679C41.8315 65.3193 44.8768 66.111 48.0545 66.111C58.5144 66.111 66.9883 57.6666 66.9883 47.2429C66.8559 42.361 65.0022 37.611 61.4273 34.0485ZM57.1904 54.1041C56.7932 55.1596 54.9395 56.2152 54.0127 56.3471C53.2182 56.4791 52.159 56.4791 51.0998 56.2152C50.4378 55.9513 49.5109 55.6874 48.4517 55.1596C43.6851 53.1804 40.6399 48.4304 40.375 48.0346C40.1102 47.7707 38.389 45.5277 38.389 43.1527C38.389 40.7777 39.5806 39.7221 39.9778 39.1943C40.375 38.6666 40.9047 38.6666 41.3019 38.6666C41.5667 38.6666 41.9639 38.6666 42.2287 38.6666C42.4935 38.6666 42.8907 38.5346 43.2879 39.4582C43.6851 40.3818 44.612 42.7568 44.7444 42.8888C44.8768 43.1527 44.8768 43.4166 44.7444 43.6804C44.612 43.9443 44.4796 44.2082 44.2148 44.4721C43.9499 44.736 43.6851 45.1318 43.5527 45.2638C43.2879 45.5277 43.0231 45.7916 43.2879 46.1874C43.5527 46.7152 44.4796 48.1666 45.936 49.486C47.7897 51.0693 49.2461 51.5971 49.7757 51.861C50.3054 52.1249 50.5702 51.9929 50.835 51.7291C51.0998 51.4652 52.0266 50.4096 52.2914 49.8818C52.5562 49.3541 52.9534 49.486 53.3506 49.6179C53.7479 49.7499 56.1311 50.9374 56.5283 51.2013C57.058 51.4652 57.3228 51.5971 57.4552 51.7291C57.5876 52.1249 57.5876 53.0485 57.1904 54.1041Z" fill="white"/>
<defs>
<radialGradient id="paint0_radial_391_43110" cx="0" cy="0" r="1" gradientUnits="userSpaceOnUse" gradientTransform="translate(49.1784 -4.55777) rotate(90.0006) scale(148.084 73.4144)">
<stop stop-color="#FEE49A"/>
<stop offset="1" stop-color="#BB8D37"/>
</radialGradient>
</defs>
</svg>
