<svg width="98" height="97" viewBox="0 0 98 97" fill="none" xmlns="http://www.w3.org/2000/svg">
<path d="M31.6236 79.1275C14.6281 69.3524 8.82064 47.6769 18.6522 30.7141C28.4838 13.7512 50.2315 7.92436 67.227 17.6995C84.2224 27.4746 90.0299 49.1501 80.1983 66.1129C70.3667 83.0758 48.6191 88.9026 31.6236 79.1275Z" fill="url(#paint0_radial_1216_395)"/>
<path d="M60.4119 31.3868C53.5148 30.0696 46.3525 30.0696 39.4555 31.3868C36.4049 32.0453 32.5585 35.7333 31.8953 38.631C30.7016 44.2946 30.7016 50.0899 31.8953 55.7536C32.6911 58.6513 36.5375 62.3392 39.4555 62.9978C39.5881 62.9978 39.7208 63.1295 39.7208 63.2612V71.5591C39.7208 71.9542 40.2513 72.2176 40.5166 71.8225L44.4956 67.7394C44.4956 67.7394 47.6789 64.4466 48.2094 63.9198C48.2094 63.9198 48.3421 63.788 48.4747 63.788C52.4538 63.9198 56.5654 63.5246 60.5445 62.8661C63.5951 62.2075 67.4415 58.5195 68.1047 55.6219C69.2984 49.9582 69.2984 44.1629 68.1047 38.4992C67.3089 35.7333 63.4625 32.0453 60.4119 31.3868ZM60.5445 56.1487C59.8813 57.4658 59.0855 58.5195 57.7592 59.1781C57.3613 59.3098 56.9634 59.4415 56.5654 59.5732C56.0349 59.4415 55.637 59.3098 55.2391 59.1781C50.9948 57.4658 47.0157 55.095 43.8325 51.6705C42.1082 49.6948 40.6492 47.4557 39.4555 45.0849C38.925 43.8995 38.3944 42.8458 37.9965 41.6603C37.5986 40.6066 38.2618 39.5529 38.925 38.7627C39.5881 37.9724 40.3839 37.4455 41.3124 37.0504C41.9756 36.6553 42.6387 36.9187 43.1693 37.4455C44.2304 38.7627 45.2914 40.0798 46.0873 41.5286C46.6178 42.4506 46.4852 43.5043 45.5567 44.1629C45.2914 44.2946 45.1588 44.4263 44.8935 44.6897C44.7609 44.8214 44.4956 44.9532 44.363 45.2166C44.0977 45.6117 44.0977 46.0069 44.2304 46.402C45.2914 49.4314 47.281 51.8022 50.3316 53.1193C50.8621 53.3828 51.26 53.5145 51.9232 53.5145C52.8517 53.3828 53.2496 52.3291 53.9127 51.8022C54.5759 51.2754 55.3717 51.2754 56.1675 51.6705C56.8307 52.0656 57.4939 52.5925 58.2897 53.1193C58.9529 53.6462 59.6161 54.0413 60.2792 54.5682C60.6771 54.8316 60.8098 55.4902 60.5445 56.1487ZM54.9738 46.2703C54.7085 46.2703 54.8412 46.2703 54.9738 46.2703C54.4433 46.2703 54.3106 46.0069 54.178 45.6117C54.178 45.3483 54.178 44.9532 54.0454 44.6897C53.9127 44.1629 53.6475 43.636 53.1169 43.2409C52.8517 43.1092 52.5864 42.9775 52.3211 42.8458C51.9232 42.714 51.6579 42.714 51.26 42.714C50.8621 42.5823 50.7295 42.3189 50.7295 41.9238C50.7295 41.6603 51.1274 41.3969 51.3927 41.3969C53.5148 41.5286 55.1065 42.714 55.3717 45.2166C55.3717 45.3483 55.3717 45.6117 55.3717 45.7434C55.3717 46.0069 55.2391 46.2703 54.9738 46.2703ZM53.6475 40.4749C52.9843 40.2115 52.3211 39.9481 51.5253 39.8164C51.26 39.8164 50.8621 39.6847 50.5969 39.6847C50.199 39.6847 49.9337 39.4212 50.0663 39.0261C50.0663 38.631 50.3316 38.3675 50.7295 38.4992C52.0558 38.631 53.2496 38.8944 54.4433 39.4212C56.8307 40.6066 58.1571 42.5823 58.555 45.2166C58.555 45.3483 58.555 45.48 58.555 45.6117C58.555 45.8751 58.555 46.1386 58.555 46.5337C58.555 46.6654 58.555 46.7971 58.555 46.9288C58.4223 47.4557 57.4939 47.5874 57.3613 46.9288C57.3613 46.7971 57.2286 46.5337 57.2286 46.402C57.2286 45.2166 56.9634 44.0312 56.4328 42.9775C55.637 41.7921 54.7085 41.0018 53.6475 40.4749ZM60.8098 48.3777C60.4119 48.3777 60.1466 47.9825 60.1466 47.5874C60.1466 46.7971 60.014 46.0069 59.8813 45.2166C59.3508 41.0018 55.9023 37.5773 51.7906 36.9187C51.1274 36.787 50.4642 36.787 49.9337 36.6553C49.5358 36.6553 49.0052 36.6553 48.8726 36.1284C48.74 35.7333 49.1379 35.3381 49.5358 35.3381C49.6684 35.3381 49.8011 35.3381 49.8011 35.3381C50.0663 35.3381 55.2391 35.4699 49.8011 35.3381C55.3717 35.4699 60.014 39.1578 60.9424 44.6897C61.075 45.6117 61.2077 46.5337 61.2077 47.5874C61.4729 47.9825 61.2077 48.3777 60.8098 48.3777Z" fill="white"/>
<defs>
<radialGradient id="paint0_radial_1216_395" cx="0" cy="0" r="1" gradientUnits="userSpaceOnUse" gradientTransform="translate(50.1547 -4.56826) rotate(90.0484) scale(147.871 73.52)">
<stop stop-color="#FEE49A"/>
<stop offset="1" stop-color="#BB8D37"/>
</radialGradient>
</defs>
</svg>
