<svg width="98" height="97" viewBox="0 0 98 97" fill="none" xmlns="http://www.w3.org/2000/svg">
<path d="M31.6236 79.1275C14.6281 69.3524 8.82064 47.6769 18.6522 30.7141C28.4838 13.7512 50.2315 7.92436 67.227 17.6995C84.2224 27.4746 90.0299 49.1501 80.1983 66.1129C70.3667 83.0758 48.6191 88.9026 31.6236 79.1275Z" fill="url(#paint0_radial_1216_388)"/>
<g clip-path="url(#clip0_1216_388)">
<path d="M58.9494 67.7737H41.1893C35.4025 67.7737 30.6943 63.066 30.6943 57.2787V39.5186C30.6943 33.7313 35.4025 29.0237 41.1893 29.0237H58.9494C64.7367 29.0237 69.4443 33.7313 69.4443 39.5186V57.2792C69.4443 63.066 64.7367 67.7737 58.9494 67.7737ZM41.1893 32.253C37.183 32.253 33.9237 35.5124 33.9237 39.5186V57.2792C33.9237 61.2855 37.183 64.5448 41.1893 64.5448H58.9494C62.9557 64.5448 66.215 61.2855 66.215 57.2792V39.5186C66.215 35.5124 62.9557 32.253 58.9494 32.253H41.1893Z" fill="white"/>
<path d="M50.0684 58.0865C44.7267 58.0865 40.3809 53.7403 40.3809 48.399C40.3809 43.0569 44.7267 38.7115 50.0684 38.7115C55.41 38.7115 59.7559 43.0569 59.7559 48.399C59.7559 53.7403 55.41 58.0865 50.0684 58.0865ZM50.0684 41.9409C46.5072 41.9409 43.6102 44.8379 43.6102 48.399C43.6102 51.9607 46.5072 54.8572 50.0684 54.8572C53.6295 54.8572 56.5265 51.9607 56.5265 48.399C56.5265 44.8379 53.63 41.9409 50.0684 41.9409Z" fill="white"/>
<path d="M60.3615 40.3264C61.5875 40.3264 62.5814 39.3325 62.5814 38.1065C62.5814 36.8805 61.5875 35.8866 60.3615 35.8866C59.1355 35.8866 58.1416 36.8805 58.1416 38.1065C58.1416 39.3325 59.1355 40.3264 60.3615 40.3264Z" fill="white"/>
</g>
<defs>
<radialGradient id="paint0_radial_1216_388" cx="0" cy="0" r="1" gradientUnits="userSpaceOnUse" gradientTransform="translate(50.1547 -4.56826) rotate(90.0484) scale(147.871 73.52)">
<stop stop-color="#FEE49A"/>
<stop offset="1" stop-color="#BB8D37"/>
</radialGradient>
<clipPath id="clip0_1216_388">
<rect width="38" height="38" fill="white" transform="translate(31 29.3989)"/>
</clipPath>
</defs>
</svg>
