<svg width="40" height="40" viewBox="0 0 40 40" fill="none" xmlns="http://www.w3.org/2000/svg">
<rect x="1" y="1" width="38" height="38" rx="19" stroke="#BB8D37" stroke-width="2"/>
<g opacity="0.8">
<path fill-rule="evenodd" clip-rule="evenodd" d="M20.0003 9.33331C20.7367 9.33331 21.3337 9.93027 21.3337 10.6666V29.3333C21.3337 30.0697 20.7367 30.6666 20.0003 30.6666C19.2639 30.6666 18.667 30.0697 18.667 29.3333V10.6666C18.667 9.93027 19.2639 9.33331 20.0003 9.33331Z" fill="#B68C6E"/>
<path fill-rule="evenodd" clip-rule="evenodd" d="M19.0569 9.72384C19.5776 9.20314 20.4218 9.20314 20.9425 9.72384L30.2758 19.0572C30.7965 19.5779 30.7965 20.4221 30.2758 20.9428C29.7551 21.4635 28.9109 21.4635 28.3902 20.9428L19.9997 12.5523L11.6092 20.9428C11.0885 21.4635 10.2442 21.4635 9.72353 20.9428C9.20283 20.4221 9.20283 19.5779 9.72353 19.0572L19.0569 9.72384Z" fill="#B68C6E"/>
</g>
</svg>
