<svg width="44" height="44" viewBox="0 0 44 44" fill="none" xmlns="http://www.w3.org/2000/svg">
<path d="M11.3993 29.2017C9.04562 24.0852 11.2854 18.0294 16.4019 15.6758C21.5184 13.3221 27.5741 15.5619 29.9278 20.6784C32.2814 25.7949 30.0417 31.8506 24.9252 34.2043C19.8087 36.5579 13.7529 34.3182 11.3993 29.2017Z" fill="white"/>
<path fill-rule="evenodd" clip-rule="evenodd" d="M20.3357 26.686L17.4904 23.834C17.3079 23.6607 17.3079 23.3675 17.4904 23.181C17.6704 23.0077 17.9649 23.0077 18.1461 23.181L20.6648 25.6999L23.1849 23.181C23.3648 23.0077 23.6593 23.0077 23.8392 23.181C24.0204 23.3675 24.0204 23.6607 23.8392 23.834L20.994 26.686C20.902 26.7793 20.7848 26.8191 20.6648 26.8191C20.5462 26.8191 20.4276 26.7793 20.3357 26.686Z" fill="#C0CF8E"/>
<path d="M5.65582 27.2784C2.53233 18.4599 7.14906 8.77897 15.9676 5.65547C24.7861 2.53198 34.467 7.14871 37.5905 15.9672C40.714 24.7857 36.0973 34.4667 27.2788 37.5902C18.4602 40.7137 8.77931 36.0969 5.65582 27.2784Z" fill="#B78E43" fill-opacity="0.262745"/>
<path d="M9.15162 26.0395C6.712 19.1518 10.3179 11.5905 17.2057 9.15083C24.0934 6.7112 31.6548 10.3171 34.0944 17.2049C36.534 24.0926 32.9281 31.654 26.0403 34.0936C19.1526 36.5332 11.5912 32.9273 9.15162 26.0395Z" fill="url(#paint0_radial_963_91)"/>
<path d="M16.165 22.0496C16.0784 21.9696 16.0371 21.8364 16.0371 21.7431C16.0371 21.6631 16.0784 21.5299 16.165 21.45L16.7674 20.85C16.9393 20.6768 17.1965 20.6768 17.3698 20.85L17.4111 20.89L19.7752 23.4223C19.8618 23.5155 19.9911 23.5155 20.0777 23.4223L25.8374 17.452H25.8801C26.0533 17.2788 26.3092 17.2788 26.4825 17.452L27.0861 18.0516C27.2554 18.2249 27.2554 18.478 27.0861 18.6513L20.207 25.7944C20.119 25.8744 20.0337 25.9275 19.9045 25.9275C19.7752 25.9275 19.6912 25.8744 19.6033 25.7944L16.2503 22.1827L16.165 22.0496Z" fill="white"/>
<defs>
<radialGradient id="paint0_radial_963_91" cx="0" cy="0" r="1" gradientUnits="userSpaceOnUse" gradientTransform="translate(21.7334 6.3949) rotate(90.0001) scale(36.2325 22.8565)">
<stop stop-color="#FEE49A"/>
<stop offset="1" stop-color="#BB8D37"/>
</radialGradient>
</defs>
</svg>
