<svg width="365" height="381" viewBox="0 0 365 381" fill="none" xmlns="http://www.w3.org/2000/svg">
<path fill-rule="evenodd" clip-rule="evenodd" d="M125.803 380.571C130.874 380.571 135.091 378.985 138.605 375.76C142.629 372.055 145.702 366.325 148.271 357.716C149.199 354.611 149.171 351.066 148.625 347.521C149.301 348.201 149.912 348.774 150.436 349.187C156.42 353.958 177.413 356.13 185.637 353.771C192.652 351.746 192.715 345.07 192.56 343.031C193.877 343.124 197.134 343.057 200.6 340.658C205.267 337.433 208.432 331.343 210.003 322.561C211.85 312.232 210.485 302.144 205.945 292.603C201.426 283.101 194.76 276.251 189.964 272.187C185.474 268.375 178.502 264.99 170.816 262.885C180.423 259.366 194.003 251.17 194.347 241.908C194.74 231.354 185.286 222.225 179.032 216.188C177.072 214.296 175.379 212.657 174.569 211.497C173.235 209.605 173.256 206.58 173.278 203.382C173.308 198.944 173.343 193.92 169.397 191.268C168.514 190.681 167.723 190.161 166.96 189.655C162.25 186.563 159.886 185.004 154.976 178.981C150.969 174.05 144.684 174.57 138.03 175.129C134.737 175.396 131.332 175.676 127.913 175.369C119.515 174.636 109.685 179.967 105.823 184.098C104.526 185.484 103.946 186.67 104.098 187.629C104.285 188.815 105.503 190.908 107.35 194.093C111.244 200.796 117.761 212.004 119.261 223.971C119.776 228.075 119.634 232.713 119.52 236.431C119.393 240.483 119.363 242.295 119.92 242.841C120.06 242.988 120.242 243.055 120.434 243.041C121.364 242.988 121.618 241.256 122.125 231.434C122.36 226.916 122.602 222.239 123.047 220.906C123.307 220.133 123.616 219.693 123.992 219.547C124.8 219.24 126.328 220.133 128.443 221.373C128.768 221.559 129.107 221.759 129.465 221.972C133.547 224.331 136.846 227.236 145.611 238.19C152.859 247.266 151.981 261.179 151.65 266.403C151.593 267.309 151.553 267.948 151.564 268.335C151.621 270.267 152.944 273.279 155.608 277.583C156.029 278.263 157.026 280.235 158.18 282.528C160.148 286.446 162.599 291.31 163.676 292.656L163.829 292.856C164.722 293.975 166.22 295.841 167.45 297.64C169.388 300.479 169.453 301.358 169.39 301.612C169.033 303.038 168.837 303.824 164.46 304.423C160.16 304.996 152.706 300.798 148.265 296.574C146.308 294.708 144.119 291.976 142.188 289.551C139.215 285.833 138.192 284.634 137.439 284.727C137.21 284.767 137.022 284.913 136.924 285.14C136.712 285.619 136.844 286.206 137.042 287.099C137.489 289.124 138.324 292.882 135.43 299.039C132.513 305.25 126.296 310.607 121.756 314.525C120.036 316.004 118.547 317.283 117.556 318.336C113.931 322.201 113.848 322.827 113.054 328.931L113.014 329.224C112.098 336.234 111.046 339.205 110.53 339.552C109.903 339.005 109.285 336.834 108.945 335.181C108.876 334.755 108.811 334.474 108.801 334.448C108.744 334.194 108.503 334.048 108.258 334.102C108.012 334.142 107.853 334.381 107.894 334.634C107.911 334.728 107.955 334.968 108.024 335.301C108.15 336.074 108.295 337.393 108.071 338.486C107.846 339.579 107.731 339.592 105.803 339.912C105.312 339.992 104.703 340.085 103.977 340.232C102.463 340.525 101.844 341.231 101.297 341.844C100.538 342.724 99.8819 343.47 96.1851 342.737C90.2228 341.551 86.8646 332.822 86.4674 328.638L86.4488 328.438C86.3049 326.932 86.2382 326.239 86.7313 325.586C86.9312 325.319 87.2231 325.052 87.6362 324.733C88.084 324.626 88.4704 324.493 88.7756 324.347C91.9713 322.828 103.943 317.51 104.995 317.363C105.304 317.363 105.495 317.177 105.563 317.003C105.603 316.897 105.694 316.537 105.253 316.191C104.966 315.964 102.21 314.072 94.2088 319.323C92.7602 320.269 91.5261 321.055 90.536 321.681C89.0594 322.628 87.9893 323.307 87.2244 323.88C85.0308 324.36 81.358 324.307 78.9139 323.134C77.5786 322.494 76.7671 321.601 76.5059 320.495C75.9062 317.976 74.7961 315.951 73.5114 313.605C72.4586 311.686 71.2632 309.514 70.1357 306.649C68.8098 303.277 68.402 299.266 68.3273 296.414C69.1376 300.518 70.4422 306.689 71.4137 308.648C72.5478 310.953 76.7657 311.499 78.6287 311.406C79.5523 311.353 80.0054 311.18 80.144 310.807C80.2293 310.58 80.164 310.34 79.9681 310.153C79.8108 309.994 79.5976 309.834 79.327 309.621C78.053 308.648 75.4037 306.609 73.7899 301.771C72.3959 297.613 72.38 291.63 72.3666 286.819C72.3613 284.86 72.356 283.008 72.2627 281.488C72.1361 279.423 72.7491 277.371 73.2888 275.572C73.5687 274.639 73.8205 273.799 73.9444 273.053C74.5948 273.079 75.3185 273.186 76.1394 273.306C77.5133 273.519 79.0712 273.746 80.9689 273.706C85.4946 273.626 85.8904 274.106 86.3182 277.157C86.4155 277.837 86.4821 278.583 86.554 279.356C86.8206 282.275 87.1524 285.913 89.4006 289.285C92.3004 293.642 97.6457 294.855 98.9477 294.655C99.2969 294.602 99.3435 294.642 99.5647 294.895C99.8273 295.175 100.226 295.615 101.217 295.814C101.67 295.894 102.058 295.921 102.37 295.934C103.223 295.987 103.479 296.014 103.867 297.2C104.573 299.386 110.018 302.718 112.253 302.718C112.262 302.718 112.272 302.718 112.281 302.718C114.689 302.678 125.882 300.039 132.664 288.405C135.806 283.008 136.938 278.916 137.278 275.478C137.191 278.436 136.906 281.248 136.764 282.048C136.575 283.074 133.727 288.565 130.971 293.869C129.704 296.308 128.391 298.826 127.272 301.052C124.66 306.223 121.163 309.341 117.782 312.366C116.508 313.512 115.19 314.685 113.943 315.951C112.849 317.07 112.044 317.95 111.456 318.603C110.788 319.349 110.155 320.042 109.961 320.042C109.961 320.042 109.961 320.042 109.959 320.042C109.827 320.042 109.433 319.549 109.084 319.122L108.683 318.63C107.057 316.631 105.774 315.058 104.814 312.126C104.21 310.287 103.332 309.994 102.317 309.661C101.396 309.354 100.248 308.968 98.6878 307.222C96.5263 304.783 95.9026 302.651 95.243 300.399C94.9178 299.293 94.5833 298.146 94.0515 296.987C92.4963 293.575 89.27 289.204 89.1327 289.018C89.0594 288.924 88.9501 288.844 88.8288 288.831C88.7049 288.818 88.5823 288.845 88.4837 288.925C88.4811 288.925 87.8947 289.338 86.2649 289.844C84.6444 290.364 82.5108 291.097 80.3599 292.323C79.1205 293.029 78.3889 292.869 78.0371 292.789C77.8558 292.749 77.604 292.696 77.3987 292.896C77.3414 292.949 77.2135 293.109 77.2508 293.349C77.2361 293.589 76.7977 294.495 75.493 295.002C74.964 295.215 74.3536 295.321 73.9098 295.401C73.2674 295.508 72.8411 295.588 72.8064 296.041C72.7691 296.521 73.2995 296.707 74.0337 296.947C75.6942 297.52 78.9899 298.946 80.9796 300.052C80.9276 300.106 80.8729 300.159 80.8156 300.212C79.1218 301.811 77.0149 306.009 78.8446 308.688C80.6024 311.26 85.6798 313.752 86.7899 314.032C87.6908 314.258 89.1647 314.418 90.2402 314.538C90.512 314.565 90.7546 314.591 90.9518 314.618L91.1597 314.645C92.475 314.805 95.9693 315.231 98.0269 314.431C100.296 313.525 101.257 312.926 101.452 312.273C101.528 312.02 101.482 311.753 101.324 311.526C100.757 310.727 99.2716 310.62 96.8128 310.433C96.2691 310.393 95.5975 310.3 94.8858 310.207C93.18 309.98 91.4342 309.754 90.1762 309.927C90.4734 309.141 90.1416 308.661 89.9124 308.448C89.4366 307.995 88.9675 307.782 88.5543 307.582C88.0239 307.329 87.6429 307.155 87.3164 306.582C87.1085 306.209 87.0591 305.982 87.0071 305.729C86.8752 305.103 86.714 304.65 85.5519 303.73C84.3685 302.784 84.1086 302.211 83.8074 301.558C83.6888 301.292 83.5649 301.025 83.3823 300.719C83.2304 300.452 82.8599 300.146 82.3522 299.812C82.6627 299.266 82.7267 298.773 82.812 298.12C82.8773 297.613 82.9558 297 83.1651 296.161C83.4103 296.547 83.7461 296.8 84.046 297.014C84.583 297.413 84.9709 297.693 84.9402 298.733C84.9176 299.519 84.8323 299.999 84.7696 300.345C84.6724 300.905 84.6071 301.265 84.9602 301.891L85.0442 302.038C85.5239 302.891 86.1822 304.05 87.307 304.65C88.2039 305.13 88.7343 304.837 89.3486 304.503C89.6818 304.317 90.0576 304.117 90.6146 303.944C92.0139 303.504 94.6766 303.357 95.2256 303.331C95.788 304.77 96.5889 306.249 97.9962 307.835C99.7207 309.781 101.052 310.22 102.023 310.54C102.96 310.846 103.476 311.02 103.933 312.419C104.946 315.511 106.277 317.15 107.964 319.216L108.364 319.709C109.017 320.509 109.377 320.961 109.935 320.975C110.551 320.988 111.019 320.468 112.144 319.229C112.726 318.576 113.522 317.697 114.602 316.604C115.828 315.351 117.136 314.192 118.399 313.059C121.845 309.98 125.408 306.795 128.1 301.465C129.216 299.252 130.526 296.734 131.794 294.295C135.321 287.498 137.477 283.301 137.676 282.208C137.994 280.449 138.767 271.373 137.62 268.095C137.484 267.695 137.347 267.349 137.156 267.136C137.138 266.456 137.142 265.803 137.187 265.137C137.597 259.126 128.693 248.905 122.489 244.96C119.552 243.094 113.624 240.562 107.004 239.136C101.613 237.977 93.9183 237.151 87.8614 239.776C78.1424 243.987 72.228 253.103 69.3868 257.474C69.0643 257.98 68.7831 258.407 68.5512 258.753C67.9715 259.606 67.3638 260.419 66.7774 261.205C65.0117 263.577 63.6164 265.457 63.9802 266.856C64.3467 268.255 66.6282 268.508 69.5134 268.828C70.7221 268.961 71.9708 269.108 73.1555 269.334C76.2926 269.947 80.3199 269.415 81.8458 269.161C81.8431 269.761 81.9951 270.64 82.7533 271.453C83.345 272.093 84.715 272.559 86.4501 273.146C88.2932 273.772 90.3828 274.492 91.8047 275.518C93.801 276.971 96.6142 277.41 99.5927 277.863C100.873 278.063 102.195 278.263 103.436 278.556C104.917 278.903 106.828 279.436 108.851 279.996C112.309 280.969 116.228 282.048 119.06 282.515C123.699 283.261 126.997 280.569 131.991 276.117C134.588 273.799 135.713 270.974 136.331 269.228C136.334 269.281 136.337 269.321 136.341 269.375C136.622 273.986 136.94 279.223 131.864 287.938C128.327 294.002 123.608 297.387 120.276 299.146C116.274 301.265 113.075 301.771 112.269 301.785C112.262 301.785 112.256 301.785 112.248 301.785C110.395 301.785 105.324 298.706 104.749 296.921C104.194 295.215 103.505 295.081 102.427 295.015C102.127 295.001 101.788 294.975 101.394 294.895C100.703 294.762 100.472 294.508 100.248 294.268C99.9805 293.975 99.6447 293.602 98.8038 293.735C97.6817 293.922 92.7988 292.709 90.1722 288.765C88.0546 285.593 87.7468 282.234 87.4763 279.276C87.4043 278.476 87.3363 277.73 87.2363 277.024C86.7166 273.332 85.7758 272.706 80.9516 272.786C79.1285 272.812 77.6146 272.6 76.2766 272.4C75.4663 272.267 74.7201 272.16 74.0271 272.133C74.0231 271.653 73.9311 271.24 73.7152 270.867C73.3967 270.32 72.8504 269.974 72.0468 269.787C68.0209 268.881 67.064 269.708 66.2324 272.68C66.0618 273.293 65.7687 273.879 65.4595 274.492C64.4933 276.411 63.2939 278.797 64.8238 283.874C65.4021 285.78 64.8411 286.806 64.2454 287.899C63.6004 289.071 62.9341 290.297 63.8869 292.416C64.4306 293.615 64.9397 294.415 65.646 294.375C66.6282 294.308 67.0893 292.776 68.2021 289.098C68.4246 288.365 68.6659 287.552 68.9377 286.686C70.6582 281.168 69.3561 278.783 68.5752 277.357C68.4019 277.037 68.2514 276.771 68.1727 276.518C67.9568 275.865 68.4606 275.505 69.9531 274.638C70.4582 274.345 71.0299 274.012 71.619 273.599C72.0401 273.319 72.4932 273.159 72.9956 273.092C72.8704 273.745 72.6438 274.492 72.4013 275.305C71.8389 277.184 71.2018 279.316 71.3378 281.542C71.4297 283.034 71.4351 284.873 71.4404 286.819C71.4538 291.697 71.471 297.76 72.9103 302.064C74.6148 307.169 77.4147 309.328 78.762 310.354C78.806 310.394 78.8473 310.42 78.8886 310.46C78.0824 310.54 76.4752 310.474 74.9347 310.021C73.9645 309.728 72.7091 309.181 72.244 308.248C71.4524 306.636 70.2543 301.638 68.6831 293.363C68.6018 292.936 68.5486 292.642 68.5273 292.549C68.4633 292.256 68.2567 292.163 68.1701 292.15C68.0009 292.096 67.8103 292.163 67.6944 292.296C67.2839 292.749 67.3958 296.574 67.4491 297.573C67.5811 300.092 68.0062 303.77 69.2736 306.982C70.4236 309.9 71.6323 312.113 72.6998 314.058C73.9525 316.337 75.0346 318.323 75.6037 320.709C75.9342 322.108 76.9123 323.201 78.5141 323.96C80.717 325.026 83.7035 325.239 86.013 324.999C85.328 325.879 85.3586 326.772 85.5252 328.531L85.5439 328.731C85.9783 333.288 89.4899 342.351 96.0039 343.644C100.226 344.483 101.124 343.457 101.995 342.457C102.487 341.898 102.951 341.364 104.154 341.138C104.866 341.004 105.468 340.898 105.952 340.818C107.892 340.512 108.621 340.392 108.976 338.686C109.26 339.392 109.594 339.992 109.971 340.298C110.234 340.511 110.54 340.552 110.835 340.432C112.274 339.845 113.315 334.088 113.932 329.344L113.972 329.051C114.749 323.094 114.812 322.614 118.23 318.976C119.189 317.95 120.659 316.684 122.361 315.218C126.964 311.26 133.269 305.822 136.269 299.439C139.295 293.002 138.418 289.031 137.948 286.899C137.855 286.486 137.767 286.086 137.747 285.806C138.478 286.392 140.115 288.445 141.463 290.137C143.413 292.576 145.623 295.334 147.627 297.24C152.222 301.625 160.01 305.956 164.585 305.33C169.111 304.717 169.8 303.797 170.29 301.838C170.69 300.239 167.769 296.294 164.553 292.269L164.401 292.083C163.383 290.803 160.956 285.979 159.008 282.114C157.843 279.809 156.84 277.81 156.396 277.09C153.856 272.999 152.54 270.041 152.49 268.308C152.48 267.962 152.522 267.309 152.575 266.469C152.911 261.139 153.805 246.959 146.334 237.618C137.477 226.53 134.115 223.584 129.929 221.172C129.573 220.959 129.235 220.759 128.911 220.573C126.402 219.107 124.887 218.214 123.666 218.681C123.005 218.934 122.528 219.546 122.168 220.613C121.684 222.065 121.448 226.597 121.199 231.394C121.015 234.952 120.775 239.59 120.418 241.455C120.325 240.363 120.389 238.324 120.446 236.458C120.561 232.713 120.706 228.036 120.181 223.851C118.656 211.697 112.081 200.383 108.152 193.626C106.488 190.761 105.173 188.496 105.014 187.483C104.914 186.857 105.456 185.844 106.5 184.738C110.139 180.833 119.829 175.596 127.83 176.302C131.33 176.608 134.776 176.329 138.108 176.049C144.788 175.489 150.56 175.023 154.258 179.567C159.257 185.697 161.661 187.283 166.449 190.428C167.213 190.935 168.002 191.454 168.883 192.041C172.413 194.413 172.382 198.971 172.352 203.382C172.329 206.727 172.306 209.885 173.809 212.03C174.672 213.256 176.312 214.842 178.39 216.855C184.525 222.785 193.799 231.74 193.421 241.869C193.24 246.759 188.926 251.131 185.338 253.943C181.014 257.314 175.277 260.379 169.597 262.338C169.466 262.391 169.338 262.431 169.208 262.471C164.076 261.219 158.477 260.579 157.11 261.938C156.862 262.192 156.388 262.871 157.298 263.95C158.728 265.643 163.17 265.443 169.248 263.444C169.636 263.538 170.031 263.631 170.43 263.751C178.045 265.816 184.947 269.148 189.366 272.893C196.826 279.223 213.685 296.707 209.09 322.4C207.564 330.929 204.531 336.82 200.073 339.899C195.984 342.724 192.161 342.057 192.123 342.044C191.974 342.017 191.822 342.057 191.712 342.164C191.606 342.27 191.555 342.43 191.582 342.577C191.638 342.91 192.862 350.719 185.381 352.878C177.521 355.144 156.705 352.998 151.014 348.467C150.278 347.881 149.366 347.002 148.336 345.896C147.286 340.578 145.208 335.434 143.621 332.009C139.799 323.76 134.576 316.351 131.73 315.138C130.486 314.605 129.916 315.325 129.728 315.658C128.045 318.63 133.475 327.545 136.863 332.596C140.316 337.74 144.35 342.924 147.446 346.282C148.273 350.653 148.271 354.478 147.383 357.45C144.898 365.779 141.822 371.535 137.977 375.067C133.659 379.038 128.197 380.411 121.278 379.252C112.004 377.706 109.011 374.88 107.222 373.201C106.185 372.229 105.435 371.523 104.114 371.882C102.759 372.269 102.123 371.882 101.316 371.402C100.51 370.909 99.5967 370.363 97.9336 370.523C96.9487 370.603 96.341 371.096 95.7547 371.562C94.3687 372.668 92.7975 373.921 84.2699 368.924C79.1765 365.938 73.2061 361.594 73.462 357.783C73.9937 357.703 75.4264 357.663 76.9323 357.623C82.5894 357.476 93.1213 357.209 101.788 354.411C105.351 353.251 107.894 350.746 110.141 348.534L110.47 348.214C112.285 346.428 113.821 344.363 115.123 342.204C117.309 339.792 118.878 337.407 119.918 335.568C122.532 330.97 123.9 326.132 123.245 323.8C123.151 323.467 122.957 322.787 122.392 322.774C122.39 322.774 122.388 322.774 122.385 322.774C121.695 322.774 121.406 323.64 120.418 326.892C119.316 330.516 117.537 336.394 114.376 341.645C111.036 345.309 106.229 349.014 99.6234 350.799C82.7747 355.357 65.2769 354.571 62.4024 353.038C59.8117 351.639 59.0148 344.456 59.2213 343.23C59.2613 342.977 59.1854 342.764 59.0148 342.617C58.627 342.311 58.0606 342.524 56.8172 343.004C55.0807 343.657 52.4555 344.656 51.1162 343.59C49.6902 342.444 47.6712 333.582 46.1973 327.105C45.1925 322.694 44.3249 318.882 43.6426 317.097C43.2428 316.044 43.0763 314.338 43.1589 312.193C43.1589 312.179 43.1589 312.179 43.1589 312.179C43.4068 305.849 45.7348 297.08 47.7738 294.801C47.7791 294.801 47.7845 294.802 47.7885 294.788C52.1276 295.108 56.7466 294.495 60.2235 293.135C61.5588 292.602 62.0799 292.203 62.0759 291.697C62.0746 291.523 61.9999 291.203 61.5015 291.017C60.3874 290.59 57.1224 290.857 54.4717 291.323C52.4914 291.683 49.0972 292.469 47.4633 293.828C42.867 293.429 38.1601 291.936 34.6046 288.751C33.5198 287.765 32.5509 286.925 31.6967 286.192C28.8915 283.754 27.3469 282.408 27.2696 281.182C27.223 280.449 27.6721 279.636 28.8128 278.37C30.6159 276.358 32.0751 276.051 33.2465 275.811C34.298 275.598 35.2909 275.398 35.8986 273.999C36.4237 272.786 36.1491 271.08 35.8586 269.254C35.4894 266.936 35.1056 264.55 36.3303 263.164C37.8069 261.512 39.2715 258.3 40.8228 254.915C41.8142 252.743 42.8377 250.504 43.8718 248.665C46.4478 244.121 58.6523 237.671 69.3788 233.659C71.1419 232.993 72.757 232.433 74.2496 231.967C77.1268 232.926 80.0907 233.699 83.1278 234.272C88.4251 235.285 92.2898 235.365 93.3332 235.312C94.5526 235.245 95.3229 234.819 95.4415 234.153C95.6214 233.166 94.2861 232.087 91.2396 230.755C86.4568 228.676 81.8111 228.662 74.2736 230.994C71.0886 229.901 67.6904 228.489 64.2415 226.61C62.1812 225.49 60.3048 224.504 58.4911 223.558C48.2083 218.174 42.5432 215.202 39.0077 205.767L38.4493 204.288C34.5553 193.92 31.1917 184.965 33.0254 180.753C35.035 176.129 40.98 170.918 44.2277 170.918C44.2437 170.918 44.2596 170.932 44.2743 170.932C47.0275 170.972 51.4066 177.542 52.8606 180.06C52.9832 180.274 53.2444 180.353 53.4642 180.246C53.6828 180.14 53.7828 179.887 53.6948 179.66C53.6868 179.647 52.8952 177.595 53.0058 175.103C53.1537 171.838 54.7263 169.372 57.6795 167.8C64.56 164.108 84.1326 174.49 92.531 180.1C96.6422 182.832 100.312 183.978 102.113 183.072C102.779 182.739 103.152 182.153 103.194 181.393C103.336 178.688 99.017 172.93 86.4647 164.881C81.0488 161.403 75.7729 159.284 70.7835 158.591C66.7735 158.031 62.9407 158.391 59.3919 159.644C54.3012 161.443 51.3147 164.535 50.4192 165.574C49.377 164.881 46.2 163.042 41.5517 162.776C36.3917 162.469 28.393 164.135 19.5695 173.823C7.77687 186.763 6.50424 192.774 7.51439 195.532C8.00215 196.878 9.04561 197.464 9.85719 197.571C10.6035 197.678 11.3631 198.251 11.8895 199.104C12.7104 200.437 12.8317 202.195 12.2227 203.928C11.5524 205.833 12.2373 206.726 12.8436 207.512C13.498 208.365 14.0657 209.112 12.901 211.444C12.1573 212.937 11.3325 214.123 10.5329 215.282C8.82175 217.761 7.34377 219.893 7.63429 223.691C7.77288 225.49 8.03275 227.343 8.28329 229.128C8.76971 232.593 9.22819 235.858 8.66981 237.937C8.47258 238.683 8.15806 239.683 7.82356 240.749C6.71346 244.308 6.255 245.96 6.36028 246.733C5.22086 248.625 4.30801 250.518 3.58305 252.277C-0.318957 261.739 -0.670744 271.826 0.801837 274.612C1.60276 276.131 2.1371 277.717 2.60886 279.103C3.59102 281.995 4.43999 284.5 7.17326 283.767C7.43446 283.687 7.62765 283.7 7.74092 283.78C8.10074 284.033 8.18067 285.127 8.26596 286.286C8.47386 289.085 8.78706 293.309 13.2101 295.601C14.692 296.374 16.6391 297.373 18.6994 298.439C25.6198 301.998 37.1886 307.941 37.9508 308.728C37.9722 308.754 37.9975 308.781 38.0255 308.808L42.2246 312.38C42.1553 314.578 42.3406 316.271 42.7763 317.417C43.436 319.162 44.3396 323.121 45.2951 327.319C47.3807 336.474 48.9799 343.057 50.5365 344.31C52.2889 345.722 55.2127 344.603 57.1478 343.856C57.5302 343.723 57.9766 343.55 58.2738 343.457C58.2085 345.469 59.0001 352.252 61.9639 353.851C65.021 355.49 82.5107 356.384 99.8646 351.693C104.686 350.4 108.577 348.108 111.657 345.536C111.08 346.242 110.468 346.908 109.821 347.548L109.489 347.881C107.318 350.013 104.855 352.439 101.502 353.518C92.9641 356.29 82.5187 356.557 76.9083 356.69C73.1075 356.797 72.6198 356.81 72.5652 357.423C72.5625 357.45 72.5585 357.489 72.5545 357.516C72.4892 358.102 72.3386 359.462 73.7565 361.567C75.4464 364.059 78.8246 366.805 83.7994 369.723C92.8788 375.041 94.7125 373.575 96.3317 372.282C96.8568 371.869 97.3098 371.509 98.0188 371.442C99.3795 371.309 100.089 371.736 100.837 372.189C101.716 372.722 102.625 373.268 104.365 372.775C105.142 372.562 105.543 372.895 106.586 373.881C108.452 375.627 111.573 378.572 121.127 380.171C122.761 380.438 124.32 380.571 125.803 380.571ZM130.909 315.871C131.022 315.871 131.171 315.911 131.367 315.991C133.65 316.964 138.663 323.52 142.78 332.395C144.751 336.647 146.19 340.738 147.062 344.483C144.182 341.191 140.684 336.634 137.632 332.076C132.235 324.027 129.515 317.91 130.534 316.111C130.586 316.017 130.668 315.871 130.909 315.871ZM122.342 324.014C122.345 324.027 122.349 324.04 122.353 324.053C122.854 325.826 121.901 330.197 119.112 335.114C118.667 335.9 118.123 336.793 117.474 337.74C119.308 333.742 120.489 329.85 121.306 327.158C121.681 325.919 122.069 324.64 122.342 324.014ZM104.12 316.684C101.81 317.484 95.84 320.135 91.9393 321.881C92.7469 321.375 93.6758 320.775 94.7166 320.095C98.5079 317.603 100.979 316.857 102.386 316.657C103.184 316.537 103.748 316.591 104.12 316.684ZM104.971 317.363C104.975 317.363 104.979 317.363 104.982 317.363C104.978 317.363 104.974 317.363 104.971 317.363ZM100.551 312.033C100.472 312.193 100.035 312.632 97.687 313.565C95.848 314.285 92.4057 313.858 91.2743 313.725L91.0611 313.699C90.8625 313.672 90.616 313.645 90.3414 313.618C89.2913 313.499 87.8534 313.339 87.0152 313.139C86.013 312.886 81.2114 310.514 79.6096 308.168C78.121 305.983 80.0441 302.211 81.4513 300.892C81.5806 300.759 81.6965 300.652 81.8005 300.532C82.2082 300.799 82.4895 301.025 82.5841 301.185C82.7413 301.451 82.8559 301.705 82.9652 301.945C83.3011 302.678 83.6182 303.371 84.9735 304.45C85.9583 305.236 86.0143 305.503 86.1009 305.916C86.1569 306.196 86.2302 306.542 86.51 307.035C86.9818 307.862 87.5788 308.141 88.1585 308.421C88.545 308.608 88.9102 308.767 89.2793 309.127C89.3419 309.181 89.3672 309.248 89.3672 309.328C89.3672 309.794 88.7423 310.527 88.5144 310.727L88.5171 310.74C88.3625 310.9 88.3145 311.033 88.3904 311.233C88.4571 311.42 88.6263 311.539 88.8182 311.539C88.9261 311.539 89.0395 311.486 89.1567 311.393L89.1594 311.406C89.1621 311.393 89.1687 311.393 89.1767 311.38C89.2247 311.34 89.2713 311.3 89.3193 311.247C89.35 311.22 89.3873 311.193 89.4299 311.153C90.1389 310.527 92.9241 310.886 94.7671 311.126C95.4908 311.22 96.1744 311.313 96.7408 311.353C98.5932 311.5 100.195 311.62 100.551 312.033ZM46.6891 294.695C44.5635 297.707 42.6685 305.609 42.2847 311.206L38.6305 308.101C37.7696 307.262 31.7673 304.117 19.1244 297.614C17.0642 296.548 15.1185 295.548 13.6366 294.788C9.67328 292.723 9.39343 288.965 9.19087 286.206C9.07493 284.66 8.99225 283.527 8.27662 283.021C7.92613 282.768 7.47305 282.715 6.92933 282.874C5.11692 283.354 4.53454 281.888 3.48707 278.809C3.00332 277.383 2.45698 275.771 1.62141 274.185C0.264765 271.613 0.696532 261.712 4.43995 252.637C5.12894 250.957 5.99381 249.158 7.06793 247.359C7.5077 247.293 7.98481 246.759 8.63248 245.853C10.858 242.748 32.3643 233.686 41.533 234.419C43.2455 234.553 45.3857 234.512 45.8695 233.579C46.0361 233.259 45.9774 232.887 45.7069 232.567C44.3063 230.901 35.7267 229.462 22.2362 233.673C15.4703 235.779 10.7874 240.176 7.57971 244.84C7.89022 243.641 8.36729 242.122 8.70845 241.029C9.04561 239.95 9.36279 238.937 9.56535 238.177C10.1717 235.912 9.69997 232.553 9.20022 228.995C8.95235 227.223 8.69512 225.397 8.55919 223.611C8.29266 220.146 9.61862 218.241 11.2951 215.802C12.0747 214.682 12.957 213.403 13.7299 211.857C15.1518 209.005 14.3162 207.912 13.5779 206.953C13.0276 206.233 12.5918 205.66 13.0982 204.234C13.7992 202.249 13.6459 200.196 12.6784 198.624C12.0081 197.531 10.9993 196.798 9.97977 196.652C9.79187 196.638 8.83236 196.452 8.38325 195.212C7.63031 193.16 8.17001 187.71 20.2532 174.45C27.0257 167.014 34.354 163.295 41.4437 163.695C46.7956 164.002 50.1886 166.547 50.2219 166.574C50.3205 166.64 50.4431 166.68 50.5657 166.667C50.687 166.64 50.7989 166.587 50.8722 166.48C50.9015 166.44 53.9387 162.536 59.7477 160.497C67.4345 157.805 76.5018 159.577 85.965 165.654C98.1948 173.504 102.391 179.008 102.269 181.34C102.246 181.766 102.058 182.072 101.698 182.245C100.486 182.858 97.3378 182.192 93.0454 179.327C86.2462 174.796 65.0757 162.789 57.2424 166.973C53.1658 169.159 52.1863 172.597 52.081 175.103C52.049 175.849 52.0917 176.569 52.1716 177.208C50.2699 174.343 46.9622 170.038 44.2889 169.998C44.2689 169.998 44.249 169.998 44.229 169.998C40.3376 169.998 34.1608 175.822 32.1764 180.38C30.1921 184.938 33.4545 193.627 37.583 204.608L38.1401 206.1C41.8009 215.855 47.5766 218.88 58.0606 224.384C59.8717 225.33 61.7454 226.303 63.799 227.423C66.6788 228.995 69.6893 230.341 72.805 231.461C71.6256 231.847 70.3796 232.287 69.0523 232.793C58.1712 236.871 45.7495 243.468 43.0656 248.212C42.0115 250.077 40.9786 252.343 39.9791 254.529C38.4599 257.847 37.022 260.992 35.6373 262.551C34.1221 264.257 34.5593 266.989 34.9444 269.401C35.2123 271.081 35.4655 272.666 35.0484 273.626C34.6339 274.585 34.0742 274.692 33.06 274.905C31.8233 275.158 30.1308 275.505 28.1225 277.744C26.7979 279.223 26.2822 280.236 26.3448 281.235C26.4461 282.861 27.9973 284.207 31.089 286.885C31.9419 287.632 32.9068 288.471 33.9862 289.431C37.9642 293.002 42.9696 294.269 46.6891 294.695ZM37.9362 308.701C37.9389 308.701 37.9428 308.715 37.9455 308.715C37.9415 308.715 37.9389 308.701 37.9362 308.701ZM94.8951 302.424C93.9769 302.478 91.6847 302.638 90.3414 303.051C89.6951 303.251 89.2566 303.491 88.9048 303.691C88.3478 303.984 88.1972 304.077 87.7401 303.823C86.8566 303.357 86.2755 302.331 85.8504 301.585L85.7651 301.425C85.5772 301.105 85.5958 300.998 85.6811 300.518C85.7491 300.132 85.8411 299.612 85.8664 298.76C85.9117 297.24 85.1801 296.694 84.5937 296.267C84.3059 296.054 84.058 295.881 83.9074 295.588C83.7235 295.241 83.6848 294.762 83.6635 294.508C83.6489 294.309 83.6155 293.908 83.2091 293.882C82.7893 293.842 82.732 294.082 82.5121 294.961C82.4575 295.175 82.3908 295.441 82.3042 295.774C82.0536 296.76 81.9644 297.44 81.8924 298C81.8178 298.573 81.7698 298.946 81.5633 299.319C79.4417 298.106 76.1154 296.721 74.6775 296.201C75.0439 296.121 75.4464 296.028 75.8329 295.868C77.1615 295.348 77.8798 294.415 78.101 293.748C78.6167 293.828 79.5269 293.855 80.8183 293.122C82.8919 291.95 84.9668 291.23 86.542 290.737C87.6015 290.404 88.2611 290.097 88.6343 289.911C89.4272 291.003 91.9367 294.575 93.2093 297.374C93.7118 298.48 94.0235 299.533 94.354 300.665C94.5233 301.239 94.6952 301.825 94.8951 302.424ZM60.8884 291.803C60.6992 291.909 60.3874 292.069 59.8837 292.269C57.1104 293.362 53.1711 294.069 49.0212 293.922C50.3525 293.229 52.4328 292.616 54.9555 292.189C57.9153 291.683 60.0569 291.656 60.8884 291.803ZM73.0996 272.146C72.3826 272.213 71.7216 272.413 71.0939 272.839C70.5329 273.226 69.9771 273.545 69.4881 273.839C68.0581 274.665 66.8242 275.385 67.2919 276.81C67.3972 277.13 67.5664 277.437 67.7623 277.81C68.5179 279.183 69.6573 281.275 68.0528 286.419C67.781 287.285 67.5384 288.098 67.3158 288.831C66.6682 290.963 66.0005 293.189 65.5888 293.442C65.5101 293.389 65.2396 293.163 64.7319 292.03C63.9682 290.337 64.4493 289.458 65.0596 288.338C65.6887 287.192 66.403 285.886 65.7113 283.594C64.2881 278.877 65.3489 276.771 66.287 274.905C66.6175 274.252 66.9294 273.626 67.1253 272.933C67.7863 270.574 68.1714 269.868 71.8429 270.694C72.3813 270.814 72.7331 271.027 72.9144 271.333C73.041 271.547 73.0969 271.826 73.0996 272.146ZM136.227 267.095C136.005 267.335 135.846 267.789 135.612 268.468C135.059 270.068 134.027 273.052 131.375 275.424C126.44 279.822 123.445 282.275 119.207 281.595C116.428 281.155 112.534 280.062 109.099 279.103C107.068 278.543 105.147 278.01 103.649 277.664C102.373 277.357 101.032 277.157 99.734 276.958C96.8701 276.504 94.1648 276.091 92.3498 274.772C90.8132 273.652 88.6543 272.92 86.7486 272.267C85.2654 271.773 83.8661 271.294 83.4303 270.827C82.5174 269.841 82.816 268.735 82.82 268.721C82.8639 268.575 82.8253 268.402 82.716 268.282C82.6067 268.162 82.4428 268.108 82.2856 268.148C82.2336 268.162 77.0216 269.148 73.3328 268.428C72.1121 268.188 70.8421 268.042 69.6147 267.909C67.4918 267.669 65.0837 267.402 64.8771 266.616C64.6253 265.656 66.0312 263.764 67.5211 261.765C68.1128 260.965 68.7244 260.139 69.3148 259.273C69.5547 258.913 69.8372 258.487 70.1637 257.98C72.9556 253.676 78.7674 244.721 88.2292 240.616C99.1263 235.898 116.557 242.282 121.992 245.733C127.869 249.478 136.644 259.473 136.262 265.07C136.215 265.75 136.21 266.416 136.227 267.095ZM167.466 263.018C162.708 264.404 159.026 264.564 158.007 263.351C157.548 262.818 157.711 262.658 157.764 262.605C158.499 261.859 162.259 261.885 167.466 263.018ZM40.4149 233.446C31.4182 233.446 14.5855 240.296 9.30149 244.041C12.3639 240.029 16.6257 236.391 22.5134 234.552C37.3658 229.914 44.5568 232.367 45.0219 233.18C44.8514 233.326 43.9811 233.686 41.6077 233.499C41.2279 233.459 40.828 233.446 40.4149 233.446ZM83.9514 230.128C86.4434 230.128 88.625 230.634 90.8691 231.607C94.5593 233.206 94.5313 233.979 94.53 233.992C94.5126 234.086 94.1302 234.339 93.2826 234.379C93.1853 234.392 85.6852 234.566 75.8089 231.487C79.0019 230.568 81.6126 230.128 83.9514 230.128Z" fill="url(#paint0_radial_960_1104)"/>
<path fill-rule="evenodd" clip-rule="evenodd" d="M299.108 254.689C301.561 254.689 303.653 254.329 305.385 253.809C310.369 252.303 312.941 249.252 313.394 247.999C314.034 246.28 314.354 244.054 311.875 240.549C308.903 236.325 302.307 230.981 292.285 224.678C290.433 223.505 288.662 222.452 286.976 221.479C289.966 221.452 293.685 220.919 298.535 219.52C305.132 217.614 308.45 214.776 308.37 211.071C308.224 204.181 295.923 196.812 289.54 195.253C283.519 193.773 278.207 193.227 273.753 193.6C267.622 194.133 263.099 196.438 260.312 200.45C257.107 205.074 256.615 209.898 256.769 213.123C256.934 216.628 257.845 219.014 257.884 219.107C257.944 219.267 258.084 219.374 258.248 219.4C258.415 219.427 258.578 219.36 258.681 219.227C260.457 216.961 262.962 214.696 268.066 215.082C271.836 215.375 276.645 217.041 282.635 220.16C280.489 219.733 278.793 219.027 277.181 218.361C273.761 216.935 270.531 215.589 264.266 217.268C260.367 218.321 258.12 220.293 257.59 223.132C256.416 229.448 264.326 238.444 270.32 242.815C282.962 252.037 292.419 254.689 299.108 254.689ZM284.974 221.412C287.105 222.598 289.38 223.944 291.779 225.464C301.707 231.7 308.21 236.951 311.116 241.083C313.648 244.667 312.915 246.626 312.528 247.679C312.128 248.745 309.73 251.53 305.119 252.916C298.869 254.809 287.849 254.449 270.866 242.055C265.068 237.831 257.399 229.222 258.5 223.305C258.958 220.839 260.98 219.107 264.506 218.174C270.466 216.575 273.412 217.801 276.824 219.214C279.076 220.146 281.484 221.146 284.974 221.412ZM276.611 194.413C280.349 194.413 284.609 194.999 289.327 196.145C295.617 197.678 307.318 204.874 307.438 211.098C307.504 214.323 304.426 216.855 298.282 218.627C292.512 220.293 288.402 220.706 285.224 220.493C278.1 216.575 272.471 214.483 268.135 214.163C263.095 213.79 260.322 215.882 258.497 217.988C257.803 215.576 256.216 207.979 261.072 200.983C263.696 197.198 267.988 195.039 273.833 194.533C274.724 194.453 275.651 194.413 276.611 194.413Z" fill="url(#paint1_radial_960_1104)"/>
<path fill-rule="evenodd" clip-rule="evenodd" d="M306.398 318.35C306.705 318.35 306.998 318.323 307.278 318.27C309.143 317.87 310.156 316.244 310.916 314.711C311.622 313.259 312.835 311.246 314.114 309.114C314.847 307.915 315.58 306.688 316.3 305.462C317.326 306.235 318.632 306.982 320.284 307.621C323.896 309.007 326.255 309.327 327.721 308.608C329.04 307.968 329.44 306.662 329.84 305.383C330.199 304.184 330.546 303.05 331.599 302.397C332.625 301.758 333.758 301.424 334.85 301.105C336.383 300.665 337.822 300.252 338.515 298.999C339.048 298.027 339.035 296.68 338.475 294.801C337.289 290.803 339.141 288.978 341.5 286.659C342.633 285.539 343.912 284.26 344.965 282.621C348.07 277.797 348.683 272.053 346.484 268.641C344.978 266.322 343.579 264.27 343.046 263.497C347.79 259.1 353.88 250.677 354.893 248.731C355.586 247.412 354.933 246.453 354.24 245.453C353.601 244.52 352.881 243.467 352.774 241.775C352.641 239.949 353.374 239.51 354.707 238.71C355.76 238.07 357.066 237.284 358.238 235.525C360.89 231.567 362.116 229.755 356.599 218.88C355.786 217.281 354.96 215.868 354.12 214.615C354.494 214.575 354.813 214.455 355.067 214.256C356.852 212.896 357.665 209.831 358.611 206.286C359.304 203.648 360.104 200.649 361.423 197.891C364.555 191.334 365.928 183.085 362.303 180.753C360.504 179.594 357.879 179.74 356.293 179.833C356.439 179.753 356.586 179.66 356.772 179.567C359.624 177.981 361.25 176.128 361.623 174.05C361.97 172.117 361.21 170.038 359.371 167.88C354.654 162.322 341.02 153.154 338.342 151.381C332.931 147.783 327.907 146.104 319.551 148.809C311.569 151.395 305.692 155.033 298.562 161.776C294.844 165.294 291.646 168.386 289.487 170.491C290.726 168.626 292.379 166.24 294.244 163.868C298.029 159.004 310.05 150.382 317.632 147.09C321.031 145.611 323.643 145.358 325.042 145.224C326.081 145.118 326.601 145.065 326.748 144.585C326.921 144.038 326.388 143.585 325.095 142.492C323.11 140.813 321.297 140.241 319.845 139.774C318.472 139.348 317.566 139.054 317.086 138.095C316.593 137.082 315.82 136.695 315.14 136.349C314.101 135.829 313.195 135.376 312.955 132.711C312.755 130.525 310.956 128.646 307.731 127.273C305.279 126.234 303.493 124.035 302.96 121.383C302.68 120.024 302.44 118.957 302.267 118.225C301.92 116.785 301.014 116.199 300.215 115.693C299.455 115.213 298.815 114.813 298.562 113.734C298.216 112.281 297.189 112.081 295.91 111.828C294.471 111.548 292.499 111.162 289.927 108.976C288.289 107.59 287.386 106.417 286.728 105.564C286.019 104.645 285.551 104.032 284.745 103.952C284.027 103.872 283.214 104.205 281.52 105.298C277.608 107.804 269.472 113.028 264.424 129.113C261.096 139.707 258.965 154.886 258.657 167.733C253.239 161.163 244.588 155.339 236.714 150.049C232.988 147.543 229.632 147.01 226.74 148.436C221.404 151.088 219.555 159.404 219.323 163.442C219.049 168.159 217.967 170.998 216.595 174.596C215.843 176.568 214.991 178.807 214.123 181.712C212.895 185.817 212.921 188.163 212.942 189.868C212.961 191.601 212.971 192.547 211.641 194.119C210.193 195.825 203.176 205.034 207.333 218.48C209.154 224.37 208.459 226.663 207.722 229.089C206.972 231.554 206.197 234.099 207.675 240.216C208.663 244.307 210.823 247.253 214.095 248.998C219.356 251.81 227.622 251.37 237.371 247.759C244.161 245.253 249.042 240.309 251.943 236.618C255.08 232.62 256.598 229.248 256.661 229.115C256.71 228.995 256.715 228.875 256.673 228.768C256.649 228.702 254.225 221.919 253.307 211.91C252.439 202.462 260.648 190.375 272.404 183.818C284.267 177.195 298.602 174.743 308.93 177.568L309.317 177.675C320.098 180.62 323.349 181.513 329.773 189.255C330.866 190.575 331.878 191.747 332.771 192.787C335.756 196.238 337.542 198.33 337.316 199.703C337.222 200.263 336.743 200.77 335.836 201.303C335.53 201.476 334.637 201.649 332.212 200.756C331.479 200.489 330.679 200.143 329.826 199.743C328.72 196.812 325.695 193.6 321.124 188.762C315.007 182.272 306.225 177.222 303.733 178.754C303.253 179.047 302.773 179.713 303.293 181.139C304.346 184.111 312.462 190.054 314.927 191.8C319.991 195.412 325.135 198.531 329.067 200.41C329.626 202.209 329.36 203.874 328.187 205.86C325.269 210.764 314.86 216.814 311.289 217.787C310.583 216.788 309.716 215.962 308.61 215.388C307.411 214.762 306.705 214.642 306.305 215.016C306.158 215.149 305.932 215.482 306.198 216.068C306.651 217.135 308.704 218.986 310.676 218.84C310.729 218.84 310.796 218.827 310.849 218.827C312.502 221.572 312.981 225.677 313.341 230.021C313.874 236.604 313.608 236.684 311.555 237.258C311.022 237.417 310.703 237.671 310.623 238.031C310.569 238.244 310.596 238.59 310.996 238.95C312.075 239.91 315.58 240.682 318.405 239.683C319.205 239.403 320.005 239.056 320.778 238.71C321.964 238.19 323.123 237.684 324.269 237.404C324.535 238.03 325.242 238.51 325.948 238.963C327.427 239.936 328.014 240.469 327.334 241.535C326.028 243.534 325.268 243.614 323.429 243.814C322.39 243.934 321.097 244.067 319.298 244.587C317.366 245.16 314.954 247.066 312.835 249.718C311.302 251.61 309.636 254.328 309.97 255.768C310.05 256.114 310.369 256.887 311.649 256.674C314.128 256.274 315.34 254.795 316.873 252.916C317.966 251.584 319.325 249.931 321.524 248.172C324.602 245.72 325.535 245.733 326.934 245.76C327.894 245.773 329.106 245.8 331.239 245.093C333.411 244.374 334.317 243.774 334.477 242.961C334.677 241.962 333.624 241.055 332.038 239.683C331.492 239.203 330.879 238.67 330.226 238.057C328.627 236.565 327.014 236.151 325.415 236.271C325.628 236.045 325.975 235.752 326.535 235.392C331.958 231.94 334.264 224.89 333.291 220.333C333.025 219.093 332.718 218.267 332.078 218.214C331.279 218.147 330.812 219.32 329.959 221.452C329.533 222.518 329.053 223.744 328.48 224.877C327.987 225.837 327.667 226.636 327.401 227.276C326.575 229.301 326.361 229.848 322.896 230.767C320.324 231.434 318.325 231.234 317.233 230.194C316.206 229.208 315.94 227.476 316.473 225.037C316.859 223.211 317.486 222.132 318.112 222.132C318.126 222.132 318.125 222.132 318.139 222.132C318.965 222.158 320.111 223.877 320.431 226.116C320.671 227.875 321.47 228.968 322.576 229.048C324.229 229.168 325.855 226.969 326.948 223.185C328.187 218.88 327.427 216.708 326.921 215.269C326.601 214.389 326.468 213.936 326.721 213.416C327.334 212.15 328.787 210.138 330.066 210.085C330.613 210.071 331.119 210.444 331.572 211.204C333.011 213.656 334.104 217.734 334.757 220.173C334.983 220.999 335.157 221.652 335.277 222.012C335.397 222.345 335.663 222.545 336.023 222.572C337.103 222.678 339.101 221.079 340.128 219.28C341.087 217.587 341.114 215.961 340.194 214.669C339.115 213.176 337.636 212.07 336.21 211.004C334.357 209.605 332.745 208.405 332.585 206.7C332.491 205.607 332.851 204.82 333.571 204.621C334.41 204.381 335.73 204.954 336.649 206.78C338.182 209.791 337.529 210.564 337.516 210.578C337.529 210.551 337.542 210.551 337.542 210.551L338.115 211.271C338.342 211.098 339.341 210.045 337.476 206.366C336.303 204.048 334.544 203.368 333.318 203.728C332.412 203.994 331.492 204.927 331.665 206.793C331.865 208.898 333.704 210.285 335.663 211.737C337.023 212.763 338.435 213.829 339.435 215.215C340.501 216.695 339.635 218.401 339.022 219.293C337.969 220.813 336.543 221.665 336.143 221.665C336.023 221.305 335.863 220.706 335.65 219.933C334.984 217.454 333.878 213.297 332.372 210.738C331.732 209.658 330.946 209.125 330.039 209.165C328.214 209.232 326.575 211.617 325.895 213.017C325.455 213.91 325.722 214.682 326.042 215.575C326.535 216.975 327.214 218.907 326.055 222.932C325.002 226.61 323.576 228.182 322.63 228.115C322.017 228.075 321.524 227.262 321.351 225.996C321.017 223.678 319.751 221.265 318.179 221.199C317.353 221.172 316.22 221.785 315.567 224.85C314.967 227.609 315.314 229.634 316.593 230.86C317.939 232.153 320.204 232.42 323.123 231.66C326.868 230.674 327.334 229.901 328.267 227.622C328.52 226.996 328.827 226.223 329.306 225.29C329.893 224.131 330.386 222.891 330.826 221.785C331.212 220.812 331.692 219.613 331.985 219.226C332.078 219.386 332.212 219.746 332.385 220.519C333.291 224.784 331.132 231.367 326.042 234.605C325.002 235.272 324.416 235.871 324.229 236.458C322.936 236.751 321.67 237.311 320.404 237.871C319.645 238.19 318.858 238.537 318.099 238.817C315.274 239.816 312.115 238.777 311.582 238.23C311.635 238.217 311.702 238.19 311.809 238.15C314.674 237.337 314.781 236.364 314.261 229.941C313.914 225.623 313.421 221.506 311.795 218.6C316.047 217.321 326.121 211.151 328.987 206.327C330.146 204.354 330.519 202.649 330.173 200.916C330.786 201.196 331.359 201.422 331.892 201.622C334.037 202.408 335.49 202.569 336.303 202.102C337.462 201.436 338.075 200.716 338.222 199.863C338.542 198.051 336.743 195.972 333.478 192.187C332.585 191.147 331.572 189.975 330.479 188.655C323.869 180.699 320.258 179.7 309.557 176.782L309.183 176.675C298.629 173.783 284.016 176.275 271.953 183.005C266.312 186.15 261.208 190.748 257.579 195.945C253.777 201.383 251.933 207.086 252.384 212.003C253.231 221.212 255.344 227.729 255.739 228.888C254.999 230.447 248.897 242.508 237.05 246.893C227.553 250.397 219.556 250.864 214.53 248.185C211.503 246.572 209.498 243.814 208.575 240.003C207.155 234.126 207.894 231.7 208.609 229.355C209.388 226.796 210.123 224.37 208.219 218.2C204.204 205.22 210.954 196.359 212.349 194.719C213.901 192.894 213.888 191.681 213.867 189.868C213.849 188.216 213.823 185.95 215.01 181.979C215.87 179.101 216.715 176.888 217.46 174.929C218.86 171.251 219.968 168.346 220.247 163.495C220.505 159.031 222.557 151.555 227.153 149.276C229.724 147.996 232.766 148.516 236.198 150.821C244.364 156.312 253.376 162.362 258.629 169.186C258.559 174.623 258.826 179.58 259.486 183.512C259.731 184.977 260.315 185.923 261.128 186.163C261.709 186.35 262.338 186.137 262.855 185.591C264.261 184.098 264.91 180.14 263.014 174.996C262.233 172.89 261.047 170.851 259.557 168.879C259.759 155.899 261.904 140.227 265.307 129.393C270.254 113.627 278.201 108.523 282.02 106.071C283.453 105.152 284.189 104.818 284.644 104.871C285.04 104.911 285.362 105.311 285.994 106.138C286.679 107.017 287.614 108.23 289.327 109.683C292.085 112.028 294.284 112.455 295.724 112.734C297.03 112.988 297.456 113.107 297.656 113.947C298.002 115.386 298.909 115.96 299.708 116.479C300.468 116.946 301.108 117.359 301.361 118.438C301.534 119.158 301.774 120.211 302.04 121.57C302.653 124.515 304.639 126.967 307.371 128.126C309.383 128.993 311.822 130.499 312.035 132.791C312.328 135.962 313.594 136.615 314.727 137.175C315.354 137.495 315.887 137.775 316.26 138.508C316.899 139.827 318.139 140.214 319.565 140.667C320.937 141.093 322.657 141.639 324.496 143.185C324.842 143.492 325.362 143.932 325.642 144.225C325.455 144.252 325.189 144.278 324.949 144.291C323.496 144.438 320.791 144.704 317.259 146.237C309.423 149.649 297.443 158.258 293.511 163.295C289.593 168.306 286.535 173.383 286.503 173.437C286.384 173.636 286.431 173.89 286.615 174.037C286.798 174.183 287.061 174.169 287.228 173.996C287.277 173.956 292.365 168.919 299.189 162.456C306.212 155.806 311.995 152.234 319.845 149.689C327.841 147.104 332.651 148.716 337.822 152.141C345.192 157.032 355.067 164.254 358.678 168.479C360.317 170.425 361.01 172.237 360.717 173.876C360.384 175.676 358.905 177.315 356.319 178.754C354.92 179.54 354.44 179.86 354.587 180.367C354.733 180.86 355.24 180.819 356.346 180.766C357.812 180.673 360.251 180.539 361.797 181.526C364.822 183.485 363.516 191.334 360.584 197.491C359.224 200.329 358.425 203.368 357.705 206.047C356.812 209.432 356.04 212.35 354.507 213.523C354.36 213.63 354.067 213.749 353.507 213.696C348.896 207.233 344.219 205.567 340.861 204.914C340.234 204.794 339.848 204.914 339.675 205.274C339.541 205.567 339.248 206.18 342.406 208.712C344.405 210.311 349.669 214.016 352.974 214.562C353.907 215.921 354.853 217.494 355.773 219.306C361.037 229.688 359.997 231.247 357.465 235.005C356.413 236.605 355.253 237.297 354.227 237.91C352.854 238.736 351.682 239.456 351.842 241.842C351.975 243.787 352.814 245 353.481 245.973C354.174 246.986 354.494 247.505 354.08 248.292C353.054 250.264 346.831 258.846 342.153 263.058C342.127 263.071 342.113 263.098 342.087 263.111C341.474 263.671 340.874 264.15 340.327 264.51C339.861 264.843 339.315 265.23 338.688 265.683C333.145 269.668 321.604 277.97 309.21 271.907C295.111 265.017 282.991 257.687 279.044 253.689C278.376 253.01 277.601 252.183 276.781 251.304C272.281 246.506 266.678 240.509 263.135 241.762C262.566 241.962 262.129 242.402 261.84 243.055C259.581 248.105 266.684 265.883 268.131 269.388C268.805 271.027 269.5 272.866 270.238 274.798C271.102 277.077 271.994 279.436 273.021 281.928C276.491 290.364 281.685 301.078 291.139 309.1C298.695 315.497 303.373 318.35 306.398 318.35ZM315.58 304.849C314.834 306.142 314.061 307.435 313.328 308.635C312.035 310.78 310.809 312.806 310.076 314.298C309.143 316.231 308.277 317.11 307.091 317.363C304.439 317.91 299.708 315.151 291.739 308.394C282.437 300.505 277.308 289.911 273.877 281.568C272.857 279.09 271.965 276.744 271.103 274.478C270.363 272.519 269.666 270.681 268.987 269.041C264.75 258.753 261.159 246.852 262.687 243.428C262.87 243.014 263.119 242.761 263.444 242.642C266.416 241.589 272.246 247.826 276.106 251.943C276.929 252.823 277.707 253.662 278.384 254.342C282.398 258.407 294.617 265.803 308.797 272.733C312.089 274.345 315.3 274.985 318.365 274.985C327.334 274.985 334.997 269.481 339.235 266.429C339.848 265.989 340.381 265.603 340.847 265.283C341.327 264.963 341.82 264.576 342.34 264.123C342.926 264.95 344.259 266.922 345.698 269.148C347.404 271.773 347.431 277.077 344.192 282.114C343.179 283.673 341.993 284.86 340.847 285.992C338.382 288.431 336.25 290.537 337.582 295.055C338.062 296.667 338.102 297.813 337.702 298.56C337.196 299.466 335.996 299.812 334.597 300.212C333.491 300.532 332.238 300.892 331.105 301.611C329.76 302.451 329.333 303.863 328.947 305.116C328.587 306.302 328.267 307.315 327.321 307.781C326.121 308.368 323.922 308.035 320.618 306.755C318.992 306.129 317.739 305.409 316.78 304.637C318.885 300.945 320.658 297.36 320.711 294.948C320.777 291.99 319.511 291.376 318.752 291.27C316.713 290.976 313.994 293.749 313.168 296.947C312.755 298.56 312.408 301.931 315.58 304.849ZM318.445 292.176C318.499 292.176 318.565 292.176 318.619 292.189C319.685 292.336 319.805 293.962 319.791 294.921C319.738 297.094 318.046 300.545 316.06 304.01C313.421 301.438 313.701 298.573 314.061 297.174C314.794 294.375 317.006 292.176 318.445 292.176ZM326.508 244.827C325.162 244.827 323.962 245.04 320.951 247.452C318.672 249.265 317.286 250.971 316.166 252.33C314.634 254.182 313.634 255.408 311.502 255.768C310.942 255.861 310.889 255.661 310.863 255.555C310.703 254.835 311.582 252.743 313.554 250.291C315.567 247.785 317.806 246 319.565 245.48C321.271 244.973 322.523 244.84 323.523 244.734C325.428 244.534 326.574 244.414 328.107 242.029C329.36 240.096 327.614 238.95 326.455 238.19C325.961 237.87 325.468 237.537 325.229 237.231C326.708 237.058 328.16 237.404 329.586 238.737C330.253 239.363 330.879 239.896 331.439 240.389C332.625 241.416 333.664 242.308 333.571 242.774C333.518 243.054 333.011 243.521 330.959 244.214C328.973 244.867 327.894 244.853 326.948 244.827C326.801 244.827 326.654 244.827 326.508 244.827ZM307.064 215.748C307.251 215.788 307.598 215.908 308.171 216.201C308.983 216.628 309.65 217.201 310.223 217.907C309.343 217.814 308.45 217.255 307.851 216.708C307.424 216.322 307.171 215.962 307.064 215.748ZM340.701 205.82C343.739 206.419 347.924 207.886 352.121 213.39C351.962 213.336 351.788 213.283 351.588 213.203C349.656 212.47 346.991 210.951 344.472 209.112C342.353 207.579 341.114 206.393 340.701 205.82ZM304.892 179.407C305.932 179.407 307.864 180.007 310.503 181.513C313.928 183.445 317.552 186.323 320.458 189.402C324.509 193.706 327.254 196.611 328.52 199.117C319.312 194.466 305.385 184.257 304.159 180.833C303.999 180.366 303.866 179.753 304.226 179.54C304.372 179.447 304.599 179.407 304.892 179.407ZM259.542 170.425C260.64 172.024 261.526 173.65 262.143 175.316C264.025 180.42 263.198 183.871 262.181 184.951C262.026 185.111 261.714 185.377 261.398 185.284C261.053 185.177 260.611 184.617 260.4 183.351C259.798 179.767 259.525 175.316 259.542 170.425Z" fill="url(#paint2_radial_960_1104)"/>
<path fill-rule="evenodd" clip-rule="evenodd" d="M243.921 306.648C245.776 306.648 247.766 305.702 249.701 304.783C252.42 303.49 254.987 302.277 256.773 303.796C258.495 305.249 260.355 306.542 262.299 306.129C264.112 305.742 265.738 303.917 267.417 300.398C270.83 293.229 274.862 284.1 274.902 284.007C275.006 283.767 274.901 283.501 274.665 283.394C274.432 283.287 274.159 283.394 274.056 283.633C274.013 283.727 269.988 292.842 266.58 299.999C265.057 303.197 263.593 304.903 262.105 305.223C260.851 305.489 259.48 304.876 257.373 303.09C255.131 301.185 252.169 302.584 249.305 303.943C247.11 304.983 244.84 306.062 243 305.609C240.252 304.943 238.941 301.877 237.672 298.906C237.008 297.346 236.381 295.88 235.561 294.774C234.259 293.015 232.734 293.535 231.389 294.002C229.911 294.522 228.635 294.961 227.283 292.935C225.999 291.016 225.496 289.097 224.911 286.885C224.207 284.233 223.41 281.208 221.045 277.397C216.908 270.72 214.303 265.949 215.722 260.832C217.089 255.888 218.846 254.662 218.864 254.648C219.046 254.515 219.118 254.289 219.035 254.089C218.951 253.875 218.738 253.755 218.523 253.795C218.47 253.809 213.202 254.715 207.526 250.451C201.761 246.119 193.012 230.887 195.724 220.612C197.242 214.855 197.724 206.38 196.953 199.01C196.653 196.131 196.111 192.88 195.146 189.828C195.944 189.468 196.696 189.055 197.385 188.602C201.012 186.256 203.072 183.005 202.894 179.927C202.741 177.301 200.614 174.49 196.904 172.011C190.932 168.026 180.62 165.081 172.091 168.053L171.552 168.239C165.891 170.212 163.003 171.211 160.861 171.211C160.827 171.211 160.794 171.211 160.761 171.211C158.664 171.171 157.133 170.118 154.08 168.026L153.427 167.573C152.13 166.68 151.483 165.614 151.449 164.308C151.335 159.79 158.595 154.18 158.668 154.127C158.872 153.98 158.91 153.686 158.755 153.486C158.6 153.273 158.308 153.233 158.106 153.393C157.791 153.633 150.395 159.337 150.523 164.334C150.564 165.934 151.365 167.28 152.902 168.332L153.554 168.786C160.014 173.237 160.237 173.157 171.856 169.105L172.396 168.919C180.625 166.053 190.603 168.919 196.389 172.784C199.801 175.063 201.834 177.688 201.969 179.993C202.127 182.725 200.226 185.657 196.88 187.829C196.253 188.229 195.572 188.616 194.851 188.949C193.632 185.484 191.819 182.379 189.125 180.593C186.137 178.634 183.107 178.22 180.809 179.473C179.021 180.446 177.922 182.326 177.944 184.364C177.968 186.763 179.452 188.895 182.019 190.228C185.829 192.2 190.476 191.747 194.28 190.201C197.222 199.543 196.774 213.003 194.829 220.373C193.575 225.13 194.554 231.42 197.586 238.097C200.114 243.667 203.799 248.811 206.969 251.197C211.339 254.489 215.426 254.875 217.421 254.821C216.697 255.754 215.682 257.5 214.829 260.579C213.308 266.069 215.991 271 220.257 277.877C222.549 281.581 223.327 284.527 224.015 287.125C224.595 289.324 225.144 291.403 226.511 293.442C228.261 296.067 230.164 295.414 231.694 294.881C233.114 294.388 233.959 294.161 234.815 295.321C235.573 296.347 236.178 297.76 236.819 299.265C238.114 302.291 239.582 305.729 242.78 306.515C243.152 306.608 243.534 306.648 243.921 306.648ZM193.988 189.335C190.396 190.801 186.012 191.254 182.444 189.402C180.193 188.229 178.89 186.39 178.869 184.364C178.853 182.659 179.766 181.086 181.253 180.286C183.24 179.207 185.922 179.594 188.614 181.366C191.004 182.952 192.756 185.804 193.988 189.335Z" fill="url(#paint3_radial_960_1104)"/>
<path fill-rule="evenodd" clip-rule="evenodd" d="M164.322 160.097C167.401 160.097 171.396 159.431 175.542 158.738C179.809 158.032 184.217 157.285 187.424 157.379C192.937 157.525 195.995 154.193 198.698 151.248C199.963 149.876 201.155 148.57 202.509 147.69C203.519 147.037 205.324 146.078 207.415 144.971C214.606 141.16 225.472 135.416 227.302 130.059C229.687 123.089 234.252 116.252 238.402 110.509C241.421 106.311 242.842 99.1946 243.985 93.4775C244.568 90.5723 245.07 88.0535 245.649 86.7076C246.326 85.135 245.866 82.4296 244.385 79.2712C242.188 74.5803 237.881 69.2366 233.21 67.8506C228.369 66.4247 221.581 70.7692 215.9 76.2331C216.354 73.7144 216.486 71.3155 216.177 69.1299C215.388 63.5594 213.801 59.4282 212.4 55.7767C210.678 51.299 209.316 47.7543 209.972 43.2232C210.084 42.4503 210.207 41.6637 210.325 40.9041C211.53 33.1347 212.777 25.1126 204.976 20.6482C198.845 17.1433 192.87 11.2663 188.918 7.375C187.325 5.8158 186.067 4.57628 185.206 3.88329C181.962 1.29794 170.183 -1.32751 164.747 0.751434C164.1 0.991302 163.472 1.2449 162.859 1.48477C158.443 3.23055 154.63 4.72304 147.991 4.07004C140.212 3.2971 132.3 9.76012 131.967 10.0266C131.827 10.1466 131.768 10.3336 131.817 10.5069C131.865 10.6934 132.013 10.8131 132.195 10.853C132.243 10.853 137.116 11.5997 141.894 12.8657C142.854 13.1322 143.706 13.252 144.531 13.3719C146.247 13.6118 147.729 13.8249 149.664 15.1842C152.643 17.2897 155.463 19.8486 158.192 22.314C160.4 24.313 162.487 26.2052 164.597 27.8177C165.572 28.564 166.644 29.6034 167.884 30.7895C169.599 32.4553 171.542 34.3342 173.808 35.9867C175.498 37.2127 177.39 38.2524 179.06 39.1719C181.255 40.3846 183.15 41.4241 183.993 42.5302C185.571 44.5958 186.144 48.5939 186.328 51.9922C185.129 49.6467 182.838 46.6212 178.607 42.8764C172.431 37.4125 168.183 34.6408 164.769 32.4286C162.049 30.6562 159.9 29.2573 157.899 27.165C156.991 26.2055 156.134 25.2191 155.307 24.2596C151.955 20.3816 148.787 16.7166 142.441 15.3573C132.908 13.3316 125.96 12.3454 120.578 12.2787C114.362 12.2121 110.462 16.8501 108.064 20.3417C107.197 21.6077 104.594 21.7809 102.079 21.9541C99.29 22.1407 96.6553 22.3139 95.5199 23.8464C94.8096 24.8059 94.4178 25.992 94.0033 27.2314C93.1584 29.7768 92.2003 32.6686 88.257 35.2273C84.1058 37.9193 77.232 43.5297 77.8317 50.886C78.1462 54.7374 77.5371 60.388 76.9974 65.3721C76.7202 67.9174 76.459 70.3291 76.3604 72.1948C76.0659 77.6986 81.3792 84.362 84.7987 87.2672C87.8159 89.8259 95.3293 98.3548 97.279 102.846C98.8822 106.537 106.284 114.374 109.174 117.346C107.231 116.706 103.541 115.026 98.8129 110.669C94.803 106.977 90.745 100.754 87.1655 95.2631C84.255 90.7987 81.5071 86.588 79.2096 84.3891C74.572 79.938 67.4863 82.4433 64.0827 83.6427C63.5936 83.8159 63.1711 83.9756 62.8327 84.0689C61.2295 84.562 61.4281 87.2542 61.6799 90.6658C61.9544 94.3706 62.2942 98.9813 60.1993 101.087C58.4042 102.886 57.7139 106.911 58.3989 111.602C59.1945 117.039 61.9904 123.902 67.449 126.847C76.1365 131.551 83.8739 139.72 86.0621 144.571C87.2801 147.277 91.2928 150.649 96.049 152.941C101.938 155.793 108.177 156.712 113.617 155.539C120.323 154.086 126.833 154.926 132.576 155.659C137.14 156.246 141.079 156.739 144.039 155.912C148.865 154.566 153.428 150.982 155.135 147.197C156.097 145.065 156.12 142.946 155.201 141.04C154.648 139.907 154.47 139.188 154.651 138.841C154.871 138.441 155.792 138.268 157.101 138.082C158.357 138.308 159.37 138.535 159.762 138.788C159.517 139.841 158.613 143.825 158.159 147.983C157.432 154.606 158.173 158.471 160.36 159.458C161.36 159.911 162.716 160.097 164.322 160.097ZM186.896 156.445C183.668 156.445 179.462 157.152 175.388 157.831C169.497 158.804 163.404 159.817 160.741 158.617C157.107 156.978 159.497 143.719 160.724 138.748C160.756 138.615 160.729 138.481 160.649 138.375C160.468 138.121 160.143 137.908 159.654 137.735C162.511 137.295 166.341 136.442 171.123 134.07C183.5 127.913 185.487 123.036 189.445 113.307L189.881 112.241C190.439 110.869 191.014 109.483 191.592 108.07C195.458 98.6885 199.458 88.973 200.408 83.3226C201.275 78.1652 199.408 71.5954 194.703 63.2397C193.395 60.9209 191.176 59.8412 188.774 60.361C185.739 61.014 182.453 64.3058 181.949 70.1828C181.652 73.6344 181.437 79.4311 181.21 85.5747C180.84 95.4896 180.425 106.738 179.565 109.936C179.077 111.748 178.94 113.947 179.163 115.813C177.673 116.36 175.784 117.119 173.38 118.119C172.283 118.572 171.108 118.931 169.875 119.224C169.719 118.718 169.562 118.225 169.405 117.718C168.733 115.599 168.099 113.587 167.863 111.948C167.618 110.242 166.903 108.523 166.213 106.857C164.541 102.819 162.962 99.0211 167.776 95.5696C168.803 94.8366 169.686 94.2507 170.464 93.7176C175.27 90.506 175.624 90.0259 175.171 80.4575C174.729 71.1289 173.467 59.6815 167.571 53.8845C163.215 49.6066 160.354 47.2609 158.61 47.9806C157.715 48.3537 157.267 49.4335 157.243 51.2992C157.2 54.6841 161.003 61.7338 164.681 68.5436C167.322 73.4345 169.815 78.0588 170.025 79.9246C170.39 83.1896 168.349 88.4268 167.291 88.5334C167.283 88.5468 166.509 88.5867 166.093 84.8686C164.974 74.9004 160.945 59.7478 156.288 57.2291C154.303 56.1497 153.151 54.7237 152.224 53.5643C151.134 52.2183 150.191 51.0457 148.538 51.6454C147.509 52.0185 145.275 51.5659 143.112 51.1261C140.261 50.5531 137.313 49.9667 135.733 50.8463C134.183 51.7125 133.229 53.7776 132.386 55.6166C131.775 56.936 131.143 58.3085 130.522 58.5351C129.079 59.0815 126.203 61.4271 125.157 63.746C124.705 64.7321 124.629 65.6387 124.928 66.4249C125.952 69.1169 125.737 77.9518 124.622 78.858C123.73 79.591 123.222 81.1103 123.39 82.5495C123.514 83.6156 124.12 85.588 126.792 86.9073C128.315 87.6403 130.045 88.7997 131.72 89.9058C134.847 91.9714 137.548 93.7705 139.136 93.2641C140.766 92.7444 141.47 91.7185 143.01 89.5062C143.733 88.4668 144.634 87.1744 145.917 85.4953C147.775 83.0832 149.197 82.0303 150.449 81.1108C151.89 80.058 153.25 79.0581 154.86 76.3261C155.584 75.0868 156.408 73.9542 157.203 72.8481C158.902 70.4893 160.369 68.4501 159.99 66.6377C159.802 65.7448 159.191 64.9989 158.124 64.3726C155.898 63.0666 153.565 62.44 151.312 61.827C149.197 61.254 147.2 60.7077 145.5 59.655C143.196 58.229 142.2 58.9349 140.822 59.9211C139.812 60.6274 138.555 61.5207 136.216 62.0405C132.301 62.92 129.692 65.6248 128.554 67.8637C127.822 69.3029 127.636 70.6626 128.042 71.5955C128.475 72.595 128.815 75.0739 129.143 77.4727C129.539 80.3645 129.948 83.363 130.607 84.7756C131.663 87.0678 135.823 90.5987 137.789 90.8786C138.382 90.9586 138.707 90.7457 138.876 90.5591C139.067 90.3326 139.575 89.9861 140.112 89.613C141.528 88.6535 143.29 87.4406 143.186 86.0946C143.134 85.4149 142.612 84.8288 141.635 84.3624C140.266 83.6961 139.207 83.4558 138.434 83.2692C137.019 82.936 136.64 82.8564 136.318 80.8974C135.973 78.7918 134.992 77.6453 134.043 76.5259C133.359 75.7263 132.652 74.9005 132.149 73.6745C130.943 70.7427 131.887 67.7707 132.557 67.1576C133.07 66.6779 133.623 66.3314 133.927 66.2115C133.91 66.2915 133.878 66.3981 133.826 66.5447C133.347 67.8507 133.586 68.2641 134.206 68.8371C134.488 69.0903 134.84 69.4231 135.202 70.1027C135.686 71.0223 135.663 72.1949 135.641 73.3277C135.618 74.4471 135.595 75.5135 136.091 76.2864C136.296 76.5929 136.261 76.7792 136.222 76.9658C136.19 77.1257 136.135 77.4056 136.335 77.6321C136.607 77.9519 137.008 77.9652 139.139 77.8852C140.493 77.8319 141.488 78.1523 142.364 78.4188C143.935 78.9119 145.292 79.3381 147.383 77.1525C148.129 76.3663 148.794 75.7934 149.379 75.2869C151.054 73.8344 152.064 72.9681 150.536 70.2895C149.843 69.0901 149.46 68.0642 149.122 67.1713C148.598 65.7853 148.145 64.5856 146.786 63.4395C146.242 62.9864 145.924 62.5867 145.67 62.2669C144.779 61.1475 144.33 61.0009 141.575 61.9071C140.866 62.1336 140.175 62.3465 139.564 62.533C137.331 63.1994 135.983 63.6131 135.751 64.506C135.646 64.9191 135.803 65.3318 136.22 65.7716C136.224 65.7716 136.23 65.772 136.234 65.7853L136.271 65.825C138.507 68.1171 140.534 70.7556 138.619 72.9145C137.706 73.9406 137.629 75.0471 138.405 75.9533C138.777 76.3797 139.31 76.7259 139.923 76.9658C139.663 76.9525 139.391 76.9525 139.104 76.9658C138.473 76.9791 137.581 77.0191 137.159 76.9925C137.201 76.7126 137.208 76.2999 136.868 75.7802C136.528 75.2471 136.547 74.3275 136.566 73.3413C136.59 72.1553 136.616 70.8093 136.022 69.6765C135.585 68.8503 135.152 68.4503 134.836 68.1571C134.439 67.784 134.377 67.7304 134.696 66.8642C134.799 66.5843 135.11 65.7316 134.548 65.3584C133.763 64.8387 132.228 66.1984 131.927 66.4783C130.822 67.5044 130.026 70.9559 131.292 74.0343C131.852 75.3936 132.606 76.2733 133.338 77.1395C134.284 78.2456 135.1 79.2047 135.404 81.0438C135.807 83.5092 136.604 83.8025 138.222 84.1756C138.995 84.3622 139.957 84.5751 141.235 85.1881C141.686 85.4147 142.231 85.7485 142.261 86.1616C142.325 86.9878 140.678 88.1067 139.588 88.8529C138.951 89.2927 138.447 89.6396 138.178 89.9461C138.171 89.9461 138.098 89.9858 137.92 89.9591C136.371 89.7326 132.441 86.5346 131.448 84.3891C130.847 83.0964 130.43 80.0443 130.061 77.3523C129.709 74.7803 129.376 72.3417 128.892 71.2356C128.6 70.5693 128.783 69.4632 129.38 68.2905C130.421 66.2382 132.818 63.7592 136.419 62.9462C138.939 62.3865 140.337 61.4004 141.358 60.6675C142.682 59.7346 143.23 59.3482 145.012 60.441C146.828 61.5604 148.887 62.1201 151.068 62.7198C153.265 63.3195 155.536 63.933 157.654 65.1723C158.484 65.6654 158.952 66.2114 159.082 66.8245C159.378 68.2371 158.021 70.1159 156.452 72.3015C155.644 73.4209 154.807 74.5936 154.062 75.8596C152.549 78.4183 151.322 79.325 149.901 80.3644C148.598 81.3239 147.119 82.4163 145.183 84.935C143.885 86.6275 142.977 87.9339 142.248 88.9733C140.746 91.1455 140.185 91.9449 138.855 92.3713C137.689 92.7445 134.789 90.8259 132.232 89.1334C130.533 88.0006 128.776 86.8408 127.2 86.0679C125.036 85.0151 124.434 83.5096 124.311 82.4435C124.163 81.1641 124.65 80.0308 125.21 79.5777C126.868 78.2184 126.812 68.7571 125.791 66.0918C125.586 65.5454 125.655 64.8791 126 64.1195C126.967 61.9872 129.726 59.828 130.846 59.4148C131.825 59.0417 132.476 57.629 133.227 56.0032C134.011 54.2974 134.898 52.3787 136.186 51.659C137.467 50.9394 140.369 51.5258 142.93 52.0456C145.323 52.5253 147.581 52.9785 148.855 52.5121C149.846 52.1523 150.38 52.752 151.503 54.1513C152.482 55.364 153.7 56.8831 155.848 58.0425C160.006 60.2947 164.081 75.247 165.172 84.9754C165.398 86.9877 165.873 89.6265 167.394 89.4666C169.453 89.2267 171.283 82.8296 170.945 79.8178C170.718 77.7789 168.297 73.3011 165.496 68.1038C162.043 61.707 158.131 54.4573 158.169 51.3122C158.188 49.8996 158.463 49.0469 158.964 48.8337C160.479 48.2073 164.831 52.4852 166.922 54.5508C172.59 60.1079 173.812 71.3425 174.245 80.4978C174.684 89.7864 174.506 89.9058 169.95 92.9576C169.165 93.4773 168.275 94.0776 167.237 94.8238C161.825 98.6885 163.62 103.019 165.358 107.204C166.027 108.816 166.718 110.482 166.946 112.068C167.193 113.787 167.838 115.839 168.52 117.998C168.669 118.478 168.82 118.958 168.969 119.425C164.157 120.424 158.602 120.437 153.556 120.451C148.172 120.464 143.522 120.464 141.218 121.743C140.26 122.263 139.198 122.982 138.07 123.795C137.916 123.689 137.761 123.596 137.601 123.489C132.521 120.197 125.563 115.693 122.39 110.989C117.53 103.792 105.186 85.495 103.103 80.924C103.96 81.1906 105.384 81.6434 107.077 82.2697C108.002 82.6162 109.017 82.6833 110.191 82.7766C112.719 82.9632 115.866 83.203 119.693 86.3614C123.804 89.7596 128.384 91.3854 129.297 90.9723C129.505 90.879 129.634 90.6923 129.641 90.4791C129.652 90.1459 129.429 89.8125 128.286 89.2128C125.194 87.5603 124.188 86.4148 122.186 84.1093C121.882 83.7495 121.56 83.3895 121.204 82.9764C120.518 82.2034 119.985 81.5237 119.514 80.924C118.139 79.1516 117.146 77.8854 114.006 76.4328C110.855 74.9803 105.579 76.0462 103.144 77.9386C101.941 78.8714 101.802 79.7247 101.899 80.2844C101.901 80.2977 101.903 80.2977 101.905 80.3111C102.37 82.7365 112.131 97.4352 121.621 111.508C124.765 116.172 131.114 120.384 136.422 123.835C134.305 123.102 132.149 122.356 130.024 121.57C122.858 118.905 117.118 120.304 112.963 125.741C111.902 127.127 111.564 128.233 111.93 129.126C112.617 130.792 115.519 131.205 119.195 131.711C120.171 131.845 121.18 131.991 122.202 132.164C124.393 132.524 126.901 131.951 129.87 130.392C132.341 129.113 134.812 127.3 136.992 125.714C137.216 125.554 137.439 125.395 137.661 125.235C137.694 125.248 137.73 125.248 137.764 125.261C138.363 125.475 138.966 125.674 139.571 125.887C141.902 127.433 143.886 128.886 143.845 129.513C143.841 129.592 143.666 129.673 143.613 129.699C140.787 131.045 134.934 130.672 132.123 130.498C130.921 130.418 130.531 130.392 130.325 130.446C130.092 130.512 129.934 130.699 129.933 130.925C129.932 131.285 129.93 131.525 133.963 132.911C136.546 133.79 139.72 134.75 142.901 135.616C146.389 136.576 150.317 137.108 153.473 137.548C153.849 137.601 154.233 137.655 154.614 137.708C154.261 137.881 154.002 138.095 153.836 138.401C153.484 139.054 153.637 139.947 154.369 141.453C155.173 143.106 155.147 144.918 154.291 146.823C152.713 150.315 148.298 153.767 143.79 155.02C141.011 155.806 137.156 155.313 132.694 154.74C126.876 153.994 120.283 153.154 113.421 154.633C108.183 155.766 102.157 154.873 96.4515 152.114C91.1968 149.569 87.8199 146.224 86.9083 144.198C84.6575 139.201 76.7482 130.832 67.8914 126.034C62.7313 123.249 60.0794 116.679 59.3171 111.468C58.6814 107.124 59.2865 103.313 60.855 101.74C63.2498 99.3415 62.8913 94.4901 62.6034 90.5988C62.4102 87.9601 62.2076 85.2282 63.1045 84.9617C63.4603 84.8551 63.8921 84.6951 64.3918 84.5218C67.8701 83.2824 74.3427 81.0041 78.5699 85.0554C80.7888 87.1876 83.5087 91.3456 86.3886 95.77C89.9987 101.3 94.0913 107.577 98.1839 111.349C105.529 118.118 110.4 118.638 110.604 118.652C110.797 118.678 110.983 118.571 111.065 118.385C111.149 118.211 111.112 118.011 110.975 117.865C110.867 117.758 100.02 106.831 98.1293 102.473C96.0943 97.7953 88.5502 89.2398 85.3971 86.5611C82.1135 83.7759 77.008 77.4188 77.2852 72.2481C77.3839 70.4091 77.6424 68.0105 77.9183 65.4651C78.4607 60.441 79.0764 54.7506 78.7552 50.806C78.1955 43.9295 84.7827 38.5857 88.762 36.0004C92.9786 33.2684 94.034 30.0836 94.8829 27.5249C95.2894 26.2988 95.6425 25.2459 96.2649 24.393C97.1458 23.2069 99.6858 23.0335 102.141 22.8736C104.876 22.7003 107.707 22.5005 108.828 20.8746C111.107 17.543 114.802 13.1319 120.566 13.2119C125.884 13.2785 132.774 14.2514 142.248 16.2637C148.289 17.5564 151.358 21.1015 154.607 24.8596C155.44 25.8324 156.305 26.8315 157.228 27.791C159.305 29.9766 161.493 31.4026 164.264 33.2017C167.652 35.4005 171.869 38.1455 177.991 43.5694C183.869 48.7668 185.835 52.4584 186.408 54.7506C186.414 56.5097 186.34 57.7357 186.338 57.7757C186.323 57.9889 186.458 58.1756 186.663 58.2423C186.868 58.3089 187.091 58.2157 187.198 58.0425C187.254 57.9359 187.871 56.816 187.341 54.6172C187.322 50.8724 186.925 44.8358 184.73 41.9706C183.768 40.7046 181.793 39.6119 179.506 38.3592C177.861 37.453 175.996 36.4267 174.353 35.2273C172.14 33.6148 170.222 31.7623 168.528 30.1232C167.267 28.9104 166.177 27.8579 165.16 27.085C163.08 25.4991 161.008 23.6196 158.814 21.634C156.066 19.1419 153.223 16.57 150.199 14.4378C148.082 12.9319 146.421 12.7057 144.661 12.4525C143.865 12.3326 143.04 12.2255 142.133 11.9723C138.65 11.0394 135.117 10.3999 133.399 10.1067C135.629 8.48083 141.922 4.3898 147.899 4.9895C154.76 5.66914 158.67 4.13663 163.197 2.35088C163.81 2.09767 164.433 1.85739 165.076 1.61752C170.4 -0.421432 181.844 2.39046 184.629 4.616C185.451 5.269 186.695 6.48212 188.269 8.04132C192.255 11.9593 198.281 17.8897 204.516 21.4479C211.763 25.6058 210.621 32.9617 209.408 40.7577C209.29 41.5306 209.167 42.3169 209.055 43.0898C208.366 47.8607 209.835 51.6855 211.534 56.1099C212.919 59.708 214.486 63.7995 215.26 69.2633C215.608 71.7154 215.355 74.5141 214.694 77.4193C212.27 79.8847 210.101 82.5095 208.454 84.8817C206.772 87.2938 203.581 91.9981 201.109 96.2626C197.685 102.166 197.745 103.592 198.255 104.205C198.613 104.632 199.235 104.659 200.101 104.272C204.014 102.513 212.881 89.4796 215.563 77.8722C221.31 72.0885 228.324 67.3841 232.948 68.7434C237.318 70.0361 241.505 75.3137 243.546 79.6714C244.894 82.5366 245.362 85.0417 244.797 86.3477C244.181 87.7736 243.67 90.3326 243.077 93.3044C241.953 98.9282 240.553 105.938 237.65 109.963C233.46 115.773 228.851 122.676 226.425 129.766C224.714 134.763 213.613 140.64 206.982 144.158C204.784 145.317 203.049 146.237 202.004 146.917C200.553 147.85 199.32 149.196 198.016 150.622C195.321 153.553 192.533 156.592 187.448 156.445C187.268 156.445 187.083 156.445 186.896 156.445ZM189.964 61.1607C191.571 61.1607 192.969 62.0401 193.895 63.6926C198.494 71.8618 200.325 78.2323 199.494 83.1631C198.561 88.7203 194.583 98.3816 190.735 107.724C190.157 109.123 189.581 110.522 189.023 111.895L188.587 112.961C184.716 122.463 182.774 127.233 170.71 133.244C164.906 136.122 160.524 136.696 157.623 137.082C157.452 137.109 157.286 137.122 157.125 137.149C156.166 136.989 154.998 136.829 153.598 136.629C150.471 136.202 146.575 135.67 143.145 134.723C138.559 133.471 134.784 132.245 132.638 131.445C135.69 131.645 141.157 131.885 144.01 130.539C144.603 130.259 144.751 129.859 144.771 129.566C144.817 128.86 144.152 128.06 142.76 126.994C145.948 128.113 149.155 129.326 152.284 130.725C159.245 133.844 164.543 135.03 169.448 131.325C172.357 129.139 171.475 124.595 170.146 120.118C171.403 119.811 172.606 119.437 173.735 118.971C176.173 117.958 177.945 117.252 179.31 116.746C179.598 118.185 180.139 119.304 180.934 119.664C181.536 119.944 182.496 119.931 183.634 118.265C184.646 116.786 185.21 115.666 184.669 115C184.169 114.373 183.091 114.414 180.041 115.493C179.881 113.894 179.98 111.961 180.461 110.175C181.347 106.87 181.747 96.0627 182.134 85.6013C182.362 79.4845 182.575 73.6877 182.871 70.2628C183.336 64.8656 186.268 61.8538 188.968 61.2674C189.308 61.1875 189.64 61.1607 189.964 61.1607ZM169.238 120.317C170.488 124.515 171.343 128.74 168.891 130.592C164.863 133.63 160.617 133.444 152.664 129.885C148.49 128.006 144.192 126.487 139.985 125.048C139.644 124.821 139.284 124.582 138.906 124.342C139.897 123.636 140.83 123.009 141.666 122.556C143.761 121.396 148.301 121.384 153.558 121.37C158.678 121.357 164.317 121.357 169.238 120.317ZM136.588 124.861C136.54 124.901 136.494 124.928 136.447 124.968C134.292 126.54 131.851 128.313 129.44 129.579C126.656 131.031 124.34 131.578 122.357 131.245C121.321 131.071 120.305 130.925 119.32 130.792C116.209 130.365 113.27 129.953 112.788 128.78C112.561 128.233 112.867 127.393 113.7 126.301C117.578 121.223 122.961 119.931 129.701 122.436C131.992 123.289 134.316 124.088 136.588 124.861ZM183.639 115.52C183.871 115.52 183.939 115.573 183.952 115.586C183.963 115.613 184.069 115.986 182.871 117.732C182.52 118.252 181.852 119.064 181.321 118.825C180.812 118.585 180.403 117.679 180.173 116.426C180.563 116.293 180.919 116.173 181.246 116.066C182.615 115.626 183.302 115.52 183.639 115.52ZM214.233 79.2446C211.216 90.079 203.232 101.847 199.723 103.419C199.135 103.686 198.964 103.606 198.963 103.606C198.942 103.579 198.39 102.806 201.91 96.7291C204.366 92.4913 207.541 87.8137 209.215 85.4016C210.601 83.4159 212.324 81.2835 214.233 79.2446ZM110.451 76.673C111.614 76.673 112.723 76.8591 113.619 77.2723C116.553 78.6316 117.441 79.7645 118.785 81.4837C119.264 82.11 119.805 82.8031 120.51 83.5893C120.864 84.0025 121.186 84.3621 121.487 84.7086C123.387 86.8941 124.481 88.1605 127.326 89.7464C125.665 89.16 122.983 87.8802 120.283 85.6547C116.228 82.2964 112.919 82.0431 110.26 81.8565C109.154 81.7632 108.199 81.6968 107.397 81.4036C105.235 80.604 103.505 80.0711 102.812 79.8712C102.891 79.3781 103.388 78.9251 103.712 78.6719C105.2 77.5125 107.956 76.673 110.451 76.673ZM144.011 62.2532C144.466 62.2532 144.639 62.467 144.945 62.8402C145.211 63.1733 145.576 63.6397 146.191 64.1461C147.364 65.1323 147.739 66.1185 148.254 67.5045C148.605 68.424 149.003 69.4767 149.731 70.7561C150.881 72.755 150.436 73.141 148.774 74.5803C148.201 75.0734 147.489 75.7 146.712 76.5129C145.019 78.2853 144.175 78.0188 142.643 77.5391C142.499 77.4991 142.351 77.4456 142.196 77.4057C143.112 77.4057 143.986 77.2191 144.634 76.7927C146.724 75.4334 148.221 72.5285 148.182 71.7555C148.165 71.449 147.972 71.3153 147.889 71.2753C147.785 71.222 147.569 71.1554 147.305 71.3287C146.918 71.5819 144.835 72.8347 141.866 72.7947C141.389 72.7814 140.576 72.6746 140.489 71.9683C140.4 71.2354 141.145 70.1828 142.359 69.8763C143.225 69.6497 143.973 69.6632 144.572 69.6765C145.256 69.7032 145.842 69.7165 146.239 69.3167C146.593 68.9702 146.626 68.4372 146.619 68.0641C146.609 67.3844 146.533 66.691 146.062 66.3046C145.518 65.8648 144.728 66.0247 143.421 66.2779L143.3 66.3046C141.498 66.6644 137.513 65.2918 136.822 65.0519C136.667 64.8787 136.639 64.7724 136.648 64.7324C136.75 64.346 138.458 63.8259 139.832 63.4128C140.446 63.2262 141.145 63.0267 141.864 62.7868C142.989 62.4137 143.611 62.2532 144.011 62.2532ZM146.983 72.5683C146.519 73.5411 145.49 75.1401 144.128 76.0196C142.715 76.9392 140.015 76.4061 139.108 75.3533C138.641 74.8069 138.707 74.2071 139.314 73.5274C139.519 73.2876 139.689 73.0613 139.828 72.8214C140.193 73.3811 140.903 73.7142 141.854 73.7142C144.147 73.7542 145.966 73.0614 146.983 72.5683ZM144.071 68.7434C143.523 68.7434 142.862 68.7833 142.126 68.9699C141.305 69.1831 140.661 69.6364 140.224 70.1561C139.933 68.7835 139.004 67.4778 138.122 66.4516C139.732 66.9314 142.086 67.4908 143.479 67.211L143.601 67.1973C144.499 67.0108 145.273 66.8647 145.48 67.0379C145.57 67.1045 145.681 67.3445 145.694 68.0908C145.7 68.5039 145.621 68.6234 145.586 68.6634C145.47 68.77 145.025 68.7571 144.596 68.7571C144.435 68.7438 144.26 68.7434 144.071 68.7434Z" fill="url(#paint4_linear_960_1104)"/>
<defs>
<radialGradient id="paint0_radial_960_1104" cx="0" cy="0" r="1" gradientUnits="userSpaceOnUse" gradientTransform="translate(106.446 141.794) rotate(90) scale(304.201 182.037)">
<stop stop-color="#FEE49A"/>
<stop offset="1" stop-color="#BB8D37"/>
</radialGradient>
<radialGradient id="paint1_radial_960_1104" cx="0" cy="0" r="1" gradientUnits="userSpaceOnUse" gradientTransform="translate(285.58 188.931) rotate(90) scale(83.7751 49.3137)">
<stop stop-color="#FEE49A"/>
<stop offset="1" stop-color="#BB8D37"/>
</radialGradient>
<radialGradient id="paint2_radial_960_1104" cx="0" cy="0" r="1" gradientUnits="userSpaceOnUse" gradientTransform="translate(286.035 87.9825) rotate(90) scale(293.486 136.814)">
<stop stop-color="#FEE49A"/>
<stop offset="1" stop-color="#BB8D37"/>
</radialGradient>
<radialGradient id="paint3_radial_960_1104" cx="0" cy="0" r="1" gradientUnits="userSpaceOnUse" gradientTransform="translate(213.349 141.882) rotate(90) scale(209.912 107.444)">
<stop stop-color="#FEE49A"/>
<stop offset="1" stop-color="#BB8D37"/>
</radialGradient>
<linearGradient id="paint4_linear_960_1104" x1="20.4849" y1="-21.6905" x2="194.626" y2="205.835" gradientUnits="userSpaceOnUse">
<stop stop-color="#FFEEA0"/>
<stop offset="1" stop-color="#B78E43"/>
</linearGradient>
</defs>
</svg>
