<svg width="332" height="327" viewBox="0 0 332 327" fill="none" xmlns="http://www.w3.org/2000/svg">
<path fill-rule="evenodd" clip-rule="evenodd" d="M326.678 67.9919C357.426 15.9918 231.9 -43.018 215.347 45.4835C212.009 63.3411 230.105 121.525 282.72 104.96C313.018 95.4315 314.94 87.8484 326.678 67.9919Z" fill="#F3DACB" fill-opacity="0.219608"/>
<path fill-rule="evenodd" clip-rule="evenodd" d="M145.979 325.567C158.551 323.128 169.577 316.838 179.556 308.988C184.993 304.724 190.139 300.086 195.247 295.422C200.581 290.558 205.723 285.587 210.342 280.017C219.456 269.022 226.579 256.708 233.039 244.022C238.621 233.067 243.626 221.78 247.224 209.999C251.399 196.339 253.616 182.2 255.125 168.007C255.241 166.914 253.521 166.927 253.404 168.007C252.054 180.707 250.132 193.354 246.698 205.668C243.526 217.035 239.04 227.95 233.855 238.545C227.729 251.058 221.032 263.358 212.569 274.473C204.017 285.694 193.43 295.222 182.653 304.271C171.732 313.426 159.71 321.155 145.52 323.914C144.435 324.127 144.894 325.78 145.979 325.567Z" fill="url(#paint0_linear_514_3110)"/>
<path fill-rule="evenodd" clip-rule="evenodd" d="M145.519 323.914C140.379 325.394 135.027 325.407 129.73 325.047C125.126 324.727 120.465 324.367 115.984 323.208C108.51 321.276 102.284 316.718 95.9297 312.533C80.447 302.352 66.5434 289.892 54.4709 275.846C42.3131 261.693 31.9264 245.848 24.4809 228.723C20.5922 219.768 17.6977 210.412 15.1936 200.99C12.491 190.809 10.3508 180.494 8.63963 170.113C5.18406 149.15 3.47293 127.948 2.31619 106.759C2.17226 104.147 2.039 101.535 1.91373 98.9227C1.85776 97.8166 0.138635 97.8166 0.190608 98.9227C1.2474 120.458 2.73598 142.007 5.85838 163.356C8.88217 184.026 13.2013 204.989 20.8787 224.472C27.7525 241.93 37.7354 258.068 49.5361 272.607C61.3967 287.213 75.2296 300.327 90.6844 311.081C94.3506 313.626 98.094 316.092 101.857 318.491C104.876 320.423 107.981 322.209 111.327 323.515C114.968 324.927 118.81 325.687 122.683 326.14C127.911 326.74 133.263 327.219 138.523 326.859C141.048 326.673 143.543 326.273 145.978 325.567C147.038 325.274 146.588 323.608 145.519 323.914Z" fill="url(#paint1_linear_514_3110)"/>
<path fill-rule="evenodd" clip-rule="evenodd" d="M130.873 225.617C126.666 219.927 118.976 219.3 112.718 221.659C105.143 224.538 100.11 231.294 95.2618 237.424C93.3108 239.89 91.4211 242.542 89.2435 244.807C88.344 245.74 86.962 247.219 85.5294 247.166C84.8831 247.14 83.9515 246.726 84.3713 245.993C84.7764 245.3 85.8506 245.18 86.5395 245.38C88.28 245.887 89.3115 247.859 90.143 249.312C91.0133 250.831 91.9035 252.297 92.9896 253.683C95.6815 257.121 98.9999 260.066 102.566 262.585C110.722 268.315 120.58 271.474 130.548 271.54C131.655 271.554 131.658 269.835 130.548 269.821C120.862 269.755 111.354 266.663 103.435 261.092C99.4863 258.32 95.7468 254.909 93.0615 250.871C91.3677 248.326 90.0657 244.354 86.6715 243.648C84.3633 243.168 80.8438 245.793 83.2559 248.006C85.66 250.204 88.7291 247.832 90.4602 246.02C92.7884 243.595 94.8047 240.756 96.8889 238.117C99.5556 234.732 102.209 231.307 105.389 228.376C108.849 225.204 113.01 222.752 117.745 222.192C122.103 221.673 126.683 222.832 129.387 226.483C130.039 227.363 131.533 226.51 130.873 225.617Z" fill="url(#paint2_linear_514_3110)"/>
<path fill-rule="evenodd" clip-rule="evenodd" d="M103.3 243.928C98.7943 245.434 94.058 245.314 89.3711 245.501C88.2677 245.541 88.261 247.273 89.3711 247.22C94.206 247.02 99.1115 247.14 103.757 245.581C104.802 245.234 104.354 243.568 103.3 243.928Z" fill="url(#paint3_linear_514_3110)"/>
<path fill-rule="evenodd" clip-rule="evenodd" d="M131.169 226.483C136.285 219.567 146.45 221.806 152.451 226.137C158.898 230.801 163.456 237.904 168.384 244.048C169.991 246.047 172.553 249.312 175.505 248.832C178.516 248.352 178.818 244.914 176.026 243.821C172.645 242.515 170.239 246.126 168.837 248.605C166.61 252.537 163.679 255.828 160.218 258.72C151.782 265.77 141.001 269.755 130.008 269.821C128.902 269.835 128.9 271.554 130.008 271.54C138.762 271.487 147.418 269.048 154.935 264.557C158.741 262.292 162.305 259.493 165.346 256.268C166.76 254.762 168.09 253.15 169.2 251.404C170.118 249.965 170.806 248.379 171.876 247.046C172.727 245.98 174.868 244.301 176.102 245.887C176.691 246.633 175.752 247.126 175.028 247.166C174.356 247.193 173.695 246.806 173.159 246.433C170.708 244.781 169.064 242.062 167.213 239.81C162.165 233.666 157.556 226.603 150.336 222.792C143.703 219.287 134.51 219.087 129.684 225.617C129.026 226.51 130.517 227.363 131.169 226.483Z" fill="url(#paint4_linear_514_3110)"/>
<path fill-rule="evenodd" clip-rule="evenodd" d="M128.777 244.687C126.695 244.727 124.6 244.821 122.519 244.714C120.204 244.608 117.938 244.168 115.668 243.741C111.508 242.942 107.518 242.662 103.423 243.954C103.644 244.488 103.866 245.007 104.087 245.527C104.757 245.194 105.431 244.847 106.138 244.581C106.256 244.541 106.499 244.501 106.598 244.421C106.987 244.101 107.221 244.901 106.256 244.128C106.182 243.848 106.11 243.568 106.035 243.288C106.19 242.915 106.407 243.022 106.06 243.035C105.937 243.048 105.511 243.275 105.445 243.301C104.785 243.568 104.103 243.768 103.423 243.954C103.644 244.488 103.866 245.007 104.087 245.527C108.253 242.822 112.889 241.196 117.869 240.943C120.281 240.836 122.705 240.983 125.093 241.329C127.083 241.609 129.053 242.169 131.066 242.209C132.88 242.249 134.71 241.662 136.51 241.463C138.627 241.223 140.764 241.143 142.89 241.249C147.733 241.502 152.39 242.889 156.468 245.527C156.689 245.007 156.912 244.488 157.132 243.954C156.453 243.768 155.77 243.568 155.11 243.301C154.944 243.235 154.754 243.115 154.578 243.075C154.216 242.995 154.251 242.635 154.52 243.288C154.445 243.568 154.372 243.848 154.299 244.128C153.987 244.381 153.508 244.114 153.871 244.394C153.973 244.474 154.312 244.541 154.418 244.581C155.123 244.847 155.798 245.194 156.468 245.527C156.757 245.034 157.048 244.541 157.337 244.048C153.34 242.222 148.52 243.088 144.385 243.875C139.185 244.874 134.044 244.594 128.777 244.687C127.671 244.714 127.668 246.433 128.777 246.42C133.43 246.327 138.141 246.713 142.747 245.927C147.025 245.194 152.268 243.608 156.468 245.527C157.46 245.98 158.336 244.554 157.337 244.048C156.395 243.568 154.161 242.049 153.082 242.915C152.87 243.075 152.757 243.501 152.861 243.755C153.35 244.954 155.612 245.314 156.673 245.62C157.635 245.9 158.139 244.568 157.337 244.048C153.258 241.396 148.605 239.97 143.771 239.583C141.49 239.41 139.194 239.463 136.919 239.69C134.992 239.89 132.996 240.53 131.066 240.49C128.824 240.45 126.595 239.783 124.371 239.517C121.915 239.21 119.428 239.09 116.959 239.29C112.005 239.677 107.374 241.343 103.218 244.048C102.425 244.568 102.91 245.9 103.88 245.62C104.956 245.314 107.201 244.954 107.694 243.755C107.797 243.501 107.686 243.075 107.473 242.915C106.391 242.049 104.16 243.568 103.218 244.048C102.349 244.488 102.951 245.913 103.88 245.62C108.262 244.234 112.375 244.861 116.788 245.7C120.797 246.447 124.714 246.487 128.777 246.42C129.883 246.393 129.887 244.674 128.777 244.687Z" fill="url(#paint5_linear_514_3110)"/>
<path fill-rule="evenodd" clip-rule="evenodd" d="M156.797 245.58C161.444 247.139 166.349 247.019 171.184 247.219C172.293 247.272 172.29 245.54 171.184 245.5C166.495 245.313 161.761 245.433 157.254 243.927C156.203 243.567 155.751 245.233 156.797 245.58Z" fill="url(#paint6_linear_514_3110)"/>
<path fill-rule="evenodd" clip-rule="evenodd" d="M103.305 38.9268C116.105 46.6428 119.76 63.7007 121.134 77.4536C123.041 96.4972 121.146 115.941 117.941 134.744C116.221 144.819 114.034 154.814 111.329 164.676C111.036 165.755 112.695 166.208 112.988 165.142C118.082 146.578 121.525 127.442 122.95 108.238C123.66 98.6563 123.847 88.981 123.034 79.3859C122.333 71.1235 120.944 62.7543 117.866 54.9983C115.074 47.9752 110.762 41.4187 104.173 37.4474C103.223 36.8743 102.356 38.3537 103.305 38.9268Z" fill="url(#paint7_linear_514_3110)"/>
<path fill-rule="evenodd" clip-rule="evenodd" d="M103.968 37.3541C94.933 36.0881 85.9789 34.2759 77.1687 31.9038C68.5158 29.5717 60.0908 26.3732 51.3339 24.4408C43.4126 22.6817 35.0502 22.0822 27.2342 24.6543C20.9227 26.7465 15.3189 30.6378 10.8599 35.5419C5.74783 41.1524 2.07503 47.989 0.0360754 55.2919C-0.263772 56.3581 1.39538 56.8109 1.69523 55.7448C5.23609 43.0713 14.2155 31.1176 26.909 26.5865C42.8622 20.8828 59.5644 28.7852 74.8446 33.0497C84.2571 35.675 93.8375 37.6473 103.511 39.02C104.595 39.1666 105.062 37.5141 103.968 37.3541Z" fill="url(#paint8_linear_514_3110)"/>
<path fill-rule="evenodd" clip-rule="evenodd" d="M2.13976 56.8504C9.27745 46.0026 22.3561 40.7386 34.9483 40.0989C50.7483 39.286 65.9432 44.6831 80.785 49.3474C89.0701 51.9594 97.4378 54.3851 106.06 55.5845C107.145 55.7311 107.613 54.0786 106.517 53.9187C77.1295 49.8674 46.5491 29.3046 16.7616 42.6311C10.2796 45.523 4.57585 50.0274 0.653848 55.9843C0.0434926 56.9039 1.53207 57.77 2.13976 56.8504Z" fill="url(#paint9_linear_514_3110)"/>
<path fill-rule="evenodd" clip-rule="evenodd" d="M1.91362 100.895C1.84566 93.9123 3.82198 86.5558 8.2304 81.0387C11.7433 76.6542 17.4923 73.9623 22.5298 71.7501C28.6307 69.0582 35.2326 67.4991 41.764 66.2864C49.1668 64.9138 56.731 64.1807 64.2658 64.4605C71.5754 64.7271 78.6984 66.2463 85.3044 69.4446C88.4761 70.9905 91.4986 72.8562 94.2745 75.0284C96.9904 77.1606 99.7717 79.573 101.463 82.6248C102.324 84.184 102.938 86.0362 102.557 87.822C102.157 89.701 100.771 91.047 99.2546 92.0998C96.4587 94.0454 93.2763 95.5915 90.1606 96.9508C83.7785 99.7494 76.9407 101.588 70.0255 102.454C54.6187 104.374 38.6775 101.535 25.0898 93.9523C24.121 93.4193 23.2521 94.8983 24.2209 95.4447C37.117 102.628 52.12 105.693 66.8205 104.507C74.1594 103.907 81.4197 102.281 88.2749 99.5894C91.6998 98.2301 95.0274 96.6441 98.2045 94.7784C100.995 93.1526 103.88 91.1005 104.323 87.6356C104.756 84.224 102.793 81.0122 100.643 78.5468C98.2578 75.8148 95.282 73.4826 92.2782 71.4703C85.9827 67.2458 78.7158 64.4204 71.2103 63.341C63.4116 62.2082 55.3903 62.595 47.605 63.6211C40.2301 64.6073 32.6846 66.0865 25.6775 68.6319C22.3765 69.8313 19.1595 71.3103 16.0771 73.0027C13.2119 74.5619 10.2494 76.3344 7.97719 78.7199C2.49732 84.4503 0.117205 93.126 0.193166 100.895C0.20516 102.001 1.92428 102.001 1.91362 100.895Z" fill="url(#paint10_linear_514_3110)"/>
<path fill-rule="evenodd" clip-rule="evenodd" d="M28.2436 93.1648C24.7534 90.4862 20.6662 88.767 16.3097 88.154C15.2316 88.0074 14.7852 89.4334 15.854 89.8198C21.4964 91.8188 25.7396 96.2299 30.6478 99.4682C35.5879 102.733 41.2503 104.799 47.0327 105.971C59.2465 108.45 72.2598 107.597 84.2884 104.532C90.0681 103.066 96.0451 101.134 101.329 98.322C103.185 97.3358 104.835 95.8567 106.358 94.4308C111.295 89.8065 115.723 83.9694 117.574 77.3861C118.688 73.4414 118.693 69.2036 117.144 65.3522C115.157 60.4347 111.119 56.7965 106.724 54.0113C105.787 53.4116 104.922 54.9043 105.856 55.504C109.75 57.9694 113.403 61.1544 115.322 65.4456C116.78 68.6972 116.984 72.3487 116.203 75.8003C114.742 82.277 110.507 87.9942 105.828 92.5518C104.306 94.0311 102.676 95.5504 100.833 96.6298C98.8649 97.7892 96.6328 98.6153 94.5152 99.4416C91.6779 100.561 88.7848 101.52 85.8489 102.347C74.2175 105.585 61.6173 106.691 49.6594 104.719C43.3266 103.666 37.1138 101.64 31.7112 98.1089C26.5672 94.7506 22.2054 90.2463 16.3097 88.154C16.1565 88.7137 16.0046 89.2601 15.854 89.8198C20.0812 90.4062 23.9858 92.0452 27.3761 94.6439C28.253 95.3235 29.1099 93.8311 28.2436 93.1648Z" fill="url(#paint11_linear_514_3110)"/>
<path fill-rule="evenodd" clip-rule="evenodd" d="M250.75 60.1418C251.066 54.8778 245.289 53.0255 241.175 52.2125C239.912 51.9593 238.636 51.7062 237.424 51.2664C236.071 50.76 234.897 49.9069 233.567 49.3605C231.621 48.5609 229.594 48.7077 227.858 49.9204C226.116 51.1331 224.903 53.0121 223.935 54.8645C222.662 57.2899 221.491 59.8352 220.58 62.4339C219.501 65.499 217.446 72.8952 222.239 74.1213C223.324 74.4011 224.469 74.1611 225.55 74.0012C227.252 73.748 228.949 73.4951 230.651 73.2552C233.612 72.8154 236.632 72.5089 239.557 71.8692C243.378 71.0296 248.042 67.898 246.532 63.3136C245.851 61.2347 243.691 60.7682 241.694 60.8615C239.475 60.9547 237.346 61.8876 235.562 63.1669C231.24 66.272 229.392 71.3626 226.13 75.3872C222.306 80.0915 216.333 82.064 210.387 81.5443C204.081 80.9845 198.348 77.613 193.631 73.575C193.01 73.0419 191.943 73.5349 192.194 74.4144C193.393 78.599 196.014 82.2771 199.614 84.7425C201.541 86.0618 203.689 86.8749 205.913 87.5412C208.407 88.3008 211.052 88.9539 213.106 90.633C216.554 93.4849 217.968 98.0291 220.735 101.427C223.272 104.559 226.922 106.345 230.891 106.798C239.392 107.757 247.284 102.827 251.099 95.3637C253.173 91.3124 254.151 86.7816 254.336 82.2506C254.432 79.9318 254.311 77.5997 254.003 75.2808C253.767 73.5084 253.357 71.5494 252.002 70.2567C250.42 68.7508 248.381 69.2303 246.564 70.0033C243.86 71.1493 241.163 72.3222 238.462 73.4816C233.322 75.6938 227.898 78.399 222.148 78.0125C212.464 77.3462 206.174 68.4443 202.725 60.2885C201.906 58.3562 200.909 57.2634 198.905 56.6237C195.273 55.451 199.858 52.0793 201.363 51.1997C203.646 49.8671 206.23 49.0407 208.858 48.7875C211.541 48.5343 214.106 49.1875 216.768 49.3074C221.68 49.534 225.359 46.3488 229.46 44.1766C234.439 41.538 240.096 41.8844 245.516 42.5108C247.998 42.7906 250.924 42.9105 252.521 45.1361C253.619 46.6686 253.907 48.681 254.171 50.4934C254.455 52.439 254.636 54.4382 255.267 56.3039C255.969 58.3828 257.283 59.7686 258.68 61.4077C262.438 65.8321 259.323 71.5625 256.69 75.6537C255.399 77.666 254.077 79.6786 253.206 81.9174C252.272 84.3162 252.128 86.808 252.34 89.3534C252.572 92.152 253.092 94.9506 252.561 97.7358C252.399 98.5887 253.337 99.162 253.998 98.5756C261.282 92.0722 269.591 84.1694 269.747 73.6547C269.837 67.5112 267.332 61.6743 267.315 55.5042C267.306 52.5323 267.467 49.494 266.566 46.6155C265.791 44.1367 264.289 41.9376 262.543 40.0453C259.225 36.4471 254.75 33.9285 249.991 32.809C244.707 31.583 239.619 32.3559 234.536 34.0616C231.693 35.0078 228.884 36.114 225.952 36.767C222.739 37.4999 219.476 37.4335 216.204 37.3136C211.049 37.127 205.521 37.0203 200.972 39.8455C198.881 41.1515 197.46 42.9505 196.35 45.1361C195.101 47.5882 193.733 49.5737 191.627 51.3728C187.798 54.6378 183.443 57.1568 181.355 61.9677C179.252 66.8318 179.695 72.1623 182.204 76.7732C183.563 79.2653 185.358 81.4908 187.091 83.743C189.14 86.395 191.19 89.0469 193.238 91.6989C196.551 95.9767 199.655 101.401 204.858 103.573C207.427 104.639 210.203 105.105 212.92 105.638C216.109 106.251 219.31 106.838 222.543 107.171C228.431 107.771 234.329 107.358 239.885 105.226C244.665 103.373 248.982 100.574 253.049 97.4827C257.219 94.3243 261.161 90.8859 265.284 87.6743C265.864 87.2212 267.804 85.2358 268.629 85.6356C269.75 86.1553 269.282 89.2469 269.064 90.0998C268.369 92.7917 266.496 95.0573 264.395 96.8031C262.184 98.6421 259.647 100.055 257.332 101.747C255.317 103.213 253.593 104.892 252.086 106.878C250.589 108.85 249.288 110.996 247.599 112.808C245.605 114.967 243.181 116.193 240.253 116.486C237.301 116.78 234.265 116.566 231.308 116.473C228.28 116.366 225.251 116.207 222.245 115.82C216.205 115.047 210.347 113.248 205.27 109.823C202.924 108.237 201.033 106.212 198.845 104.439C197.138 103.066 195.161 102.12 192.921 102.507C190.552 102.907 188.691 104.546 186.494 105.385C183.629 106.505 181.238 105.065 179.196 103.08C175.322 99.2951 170.619 93.8047 172.316 87.941C173.071 85.3424 175.29 83.3434 178.078 83.3034C178.61 83.3034 179.15 83.37 179.653 83.5432C180.393 83.8098 180.57 83.9829 180.394 84.7692C180.053 86.3017 178.639 87.3012 177.409 88.1008C175.331 89.4468 173.374 90.7663 172.667 93.285C172.057 95.4439 172.458 97.8293 173.281 99.8682C174.301 102.414 176.066 104.532 177.566 106.785C179.044 109.01 179.957 111.342 180.67 113.888C181.901 118.312 183.105 122.883 187.507 125.149C189.941 126.401 192.688 126.974 194.768 128.853C196.618 130.519 197.977 132.691 200.153 133.997C204.636 136.689 210.268 134.917 214.515 132.625C219.574 129.906 224.124 126.414 230.181 127.001C232.855 127.267 235.537 127.96 238.238 127.707C240.683 127.481 242.664 126.348 244.276 124.522C246.034 122.537 247.427 120.471 249.916 119.311C252.324 118.192 255.056 117.939 257.677 117.899C260.373 117.859 263.196 118.325 265.851 117.739C268.155 117.233 270.059 115.74 271.485 113.901C274.819 109.623 275.256 103.773 278.8 99.6548C281.564 96.4431 285.565 94.6176 288.468 91.5525C291.38 88.4741 292.001 84.6092 290.217 80.7579C289.239 78.6523 287.807 76.7999 286.651 74.8009C285.203 72.2822 284.689 69.7769 284.74 66.8984C284.784 64.3664 285.099 61.8211 284.753 59.289C284.382 56.5837 283.128 54.3848 281.117 52.5457C278.843 50.4801 276.297 48.6542 273.886 46.7485C271.358 44.7362 268.833 42.7372 266.305 40.7249C266.248 41.178 266.19 41.6311 266.132 42.0843C268.766 40.3918 271.223 44.5366 273.232 45.6427C275.452 46.8554 277.916 46.3622 280.189 45.576C282.818 44.6698 285.393 43.4704 288.219 44.2433C290.812 44.9496 293.001 46.8686 294.328 49.1741C295.886 51.866 296.191 55.1177 295.878 58.1695C295.561 61.2612 294.348 64.073 293.614 67.0582C293.022 69.4703 292.895 72.109 294.449 74.188C296.102 76.4135 298.614 77.5195 298.434 80.7045C298.279 83.4631 296.566 86.0619 294.932 88.1942C293.137 90.5396 291.163 92.765 289.235 95.0038C285.381 99.4682 281.34 103.8 276.784 107.558C272.035 111.476 266.718 114.381 261.152 116.953C257.063 118.845 252.119 121.097 250.756 125.828C249.857 128.947 250.745 132.398 251.149 135.53C251.581 138.888 251.968 142.26 252.295 145.631C253.018 153.068 253.436 160.53 253.402 168.007C253.4 169.126 255.119 169.126 255.124 168.007C255.155 161.063 254.796 154.121 254.165 147.204C253.877 144.046 253.532 140.887 253.145 137.742C252.777 134.73 252.078 131.625 252.108 128.587C252.17 122.257 258.881 119.938 263.67 117.672C269.323 114.98 274.571 111.782 279.308 107.677C283.961 103.639 288.081 99.0285 292.056 94.3375C295.349 90.4595 300.19 85.7955 300.166 80.2916C300.154 77.6397 298.671 75.9605 296.837 74.2413C294.227 71.8026 294.829 68.7772 295.802 65.6721C297.564 60.0483 298.959 53.7585 295.814 48.308C294.479 45.9891 292.401 44.0565 289.933 43.0304C287.162 41.871 284.45 42.231 281.69 43.2038C280.157 43.7502 278.599 44.4566 276.968 44.6432C275.066 44.8564 273.689 44.0299 272.345 42.7639C270.467 41.0048 267.883 38.926 265.264 40.5918C264.844 40.8584 264.634 41.578 265.09 41.9512C267.691 44.0035 270.291 46.0689 272.891 48.1345C275.348 50.0935 277.994 51.9326 280.259 54.1048C284.76 58.4226 282.494 64.433 283.14 69.8969C283.727 74.8277 287.497 78.0127 289.089 82.5037C290.775 87.2613 287.441 90.553 283.916 93.1783C280.243 95.9102 276.894 98.4021 274.927 102.693C272.902 107.118 271.744 113.328 266.854 115.594C264.209 116.82 260.945 116.153 258.119 116.167C255.669 116.193 253.158 116.38 250.814 117.139C248.625 117.832 246.695 119.045 245.168 120.764C243.362 122.803 241.944 125.215 239.087 125.842C236.398 126.441 233.56 125.682 230.884 125.362C228.288 125.055 225.787 125.202 223.31 126.081C218.076 127.92 213.85 131.892 208.412 133.225C205.725 133.891 202.781 133.824 200.464 132.145C198.378 130.639 197.04 128.334 194.968 126.801C192.797 125.189 190.083 124.682 187.776 123.336C185.578 122.043 184.346 119.898 183.534 117.553C182.753 115.3 182.285 112.941 181.483 110.689C180.602 108.224 179.191 106.092 177.694 103.96C176.184 101.814 174.672 99.6018 174.221 96.9631C174 95.6705 174.041 94.2976 174.559 93.0849C175.172 91.6456 176.408 90.7796 177.69 89.9534C179.619 88.7273 181.748 87.2746 182.127 84.8359C182.245 84.0762 182.219 83.1832 181.628 82.6501C180.933 82.0105 179.719 81.7176 178.811 81.6243C174.153 81.1579 170.678 85.0757 170.313 89.4601C169.857 94.9507 173.45 99.5348 177.012 103.306C178.644 105.025 180.533 106.825 182.917 107.384C185.14 107.904 187.192 107.064 189.116 106.012C191.39 104.786 193.654 103.386 196.225 104.719C198.518 105.918 200.241 108.144 202.258 109.743C206.713 113.248 211.914 115.54 217.443 116.739C223.186 117.979 229.089 118.152 234.941 118.286C237.756 118.339 240.686 118.472 243.405 117.606C245.585 116.913 247.427 115.567 248.953 113.888C250.533 112.142 251.803 110.143 253.198 108.251C254.875 105.972 256.85 104.146 259.171 102.534C263.37 99.6283 268.095 97.0429 270.187 92.0988C271.039 90.0998 271.434 87.5811 270.543 85.5022C270.232 84.7826 269.701 84.0629 268.908 83.8497C267.792 83.5299 266.862 84.3296 266.034 84.9426C261.85 88.0876 257.908 91.5257 253.801 94.7507C249.697 97.9757 245.361 101.041 240.542 103.106C234.99 105.492 229.081 106.065 223.098 105.505C219.737 105.185 216.414 104.573 213.104 103.92C210.262 103.36 207.282 102.907 204.666 101.601C202.131 100.335 200.389 98.1492 198.69 95.9636C196.694 93.3783 194.704 90.8062 192.711 88.2208C190.704 85.6222 188.667 83.0367 186.692 80.4114C184.975 78.1325 183.294 75.7206 182.401 72.9754C180.645 67.5781 182.304 61.7143 186.364 57.8363C189.863 54.4913 194.411 52.2525 196.854 47.9081C198.237 45.4427 199.205 43.0571 201.667 41.4446C203.76 40.0853 206.278 39.3923 208.742 39.1125C214.814 38.4195 220.884 39.7657 226.908 38.3131C232.562 36.9538 237.853 34.0485 243.767 33.8886C248.873 33.742 253.994 35.3677 258.117 38.3928C260.335 40.0053 262.319 42.071 263.713 44.4431C265.352 47.2283 265.607 50.2668 265.604 53.4385C265.601 56.317 265.667 59.1158 266.185 61.9677C266.754 65.0861 267.636 68.1512 267.926 71.3096C268.427 76.7468 266.592 81.7441 263.478 86.1418C260.488 90.3663 256.629 93.9244 252.781 97.3627C253.261 97.6425 253.741 97.9226 254.219 98.2024C255.251 92.7918 252.773 87.3145 254.999 82.0638C256.914 77.5462 260.56 73.9613 261.751 69.1105C262.275 66.9782 262.342 64.6863 261.474 62.634C260.539 60.4218 258.433 59.0891 257.38 56.9702C255.646 53.4653 256.279 49.2939 254.776 45.709C252.876 41.1913 248.02 41.0183 243.746 40.5918C238.638 40.0988 233.444 40.1787 228.789 42.5908C226.609 43.7103 224.618 45.1762 222.423 46.269C219.789 47.5883 217.29 47.7213 214.414 47.3348C209.543 46.6818 204.808 47.2016 200.495 49.7203C198.747 50.7331 196.887 52.0261 196.108 53.9717C195.397 55.7442 196.049 57.4231 197.867 58.1028C199.063 58.5425 199.955 58.7159 200.643 59.902C201.212 60.8748 201.561 61.994 202.024 63.0202C202.955 65.0858 204.07 67.0717 205.369 68.9374C207.863 72.4956 211.049 75.707 214.953 77.6927C219.058 79.7983 223.585 80.2249 228.062 79.1854C233.486 77.9461 238.63 75.2673 243.718 73.0818C245.927 72.1356 249.849 69.4036 251.473 72.4021C252.529 74.3611 252.533 76.9865 252.619 79.1454C252.978 88.3407 249.901 98.8821 241.074 103.253C237.316 105.119 232.813 105.758 228.736 104.652C224.111 103.4 221.54 99.9747 219.232 96.0167C218.155 94.1643 217.073 92.2986 215.636 90.6994C214.081 88.967 212.139 87.8209 209.972 87.0213C207.564 86.1284 205.004 85.6621 202.683 84.5427C200.576 83.5299 198.709 82.0507 197.198 80.265C195.632 78.4259 194.518 76.267 193.854 73.9482C193.373 74.2281 192.894 74.5078 192.416 74.7876C198.923 80.3581 207.178 84.4759 215.953 83.0367C220.063 82.3703 223.945 80.4379 226.737 77.3195C229.718 73.9746 231.386 69.6702 234.453 66.4185C235.937 64.8326 237.794 63.5135 239.888 62.9004C240.899 62.6073 241.952 62.4741 242.998 62.6473C244.322 62.8605 245.037 63.3668 245.051 64.7927C245.101 69.9767 238.135 70.43 234.445 70.9631C231.8 71.3495 229.155 71.7492 226.509 72.1356C225.278 72.3089 223.623 72.8285 222.427 72.3621C221.343 71.9223 221.043 70.6298 220.969 69.577C220.643 64.8728 223.306 59.7685 225.419 55.7306C226.397 53.8649 227.687 51.6794 229.733 50.8399C232.253 49.8004 234.509 51.9726 236.741 52.8389C240.55 54.3048 249.391 54.1048 249.031 60.1418C248.965 61.2479 250.685 61.2345 250.75 60.1418Z" fill="url(#paint12_linear_514_3110)"/>
<path fill-rule="evenodd" clip-rule="evenodd" d="M255.125 167.141C256.281 157.466 263.048 149.203 270.015 142.873C277.603 135.957 286.615 131.092 295.294 125.735C300.278 122.657 305.139 119.378 309.528 115.487C309.05 115.354 308.57 115.234 308.092 115.1C311.271 124.975 308.655 136.33 301.583 143.926C297.449 148.35 291.941 150.909 286.424 153.188C280.998 155.427 275.686 157.799 270.532 160.624C264.585 163.875 258.806 167.487 253.358 171.525C253.778 171.698 254.201 171.871 254.622 172.031C254.111 170.379 255.104 168.66 255.978 167.314C257.003 165.715 258.256 164.289 259.531 162.89C262.431 159.718 265.601 156.853 269.028 154.267C276.02 148.977 283.679 144.632 290.669 139.341C294.516 136.436 298.138 133.238 301.25 129.533C300.77 129.267 300.292 128.987 299.812 128.707C297.797 134.051 294.837 139.021 291.074 143.313C287.168 147.777 282.474 151.202 277.443 154.294C272.647 157.226 267.423 159.971 263.383 163.955C259.942 167.34 257.434 171.672 255.392 176.016C253.038 181.013 251.203 186.291 249.981 191.675C250.545 191.755 251.109 191.835 251.671 191.901C252.163 186.771 250.838 181.52 248.877 176.816C246.924 172.125 244.183 167.554 240.444 164.062C235.946 159.851 229.92 157.212 224.414 154.627C218.544 151.868 212.68 149.123 207.311 145.458C201.221 141.287 195.808 136.196 191.201 130.426C190.586 129.666 189.342 130.653 189.849 131.479C195.932 141.3 196.645 153.161 200.894 163.716C203.067 169.113 206.234 173.804 210.471 177.802C215.045 182.12 220.307 185.691 225.361 189.409C231.889 194.207 238.417 199.018 244.947 203.815C245.344 204.108 245.878 203.855 246.122 203.509C250.937 196.726 248.473 187.823 243.791 181.72C241.165 178.295 237.913 175.43 234.62 172.671C231.07 169.686 227.397 166.861 223.617 164.169C219.182 161.024 214.594 158.092 209.882 155.373C209.004 154.867 208.22 156 208.841 156.719C214.705 163.556 222.659 167.98 229.3 173.95C235.637 179.641 240.088 187.21 242.917 195.206C244.472 199.591 245.558 204.188 245.794 208.839C245.83 209.559 246.726 210.025 247.264 209.452C258.449 197.658 275.149 193.261 286.373 181.493C285.884 181.293 285.394 181.094 284.905 180.894C283.984 190.835 279.79 200.404 273.142 207.853C266.4 215.409 257.151 220.247 248.702 225.604C244.011 228.576 239.353 231.654 235.186 235.346C235.666 235.626 236.146 235.906 236.624 236.185C237.967 232.294 239.661 228.523 241.758 224.991C242.716 223.365 243.758 221.779 244.979 220.353C246.046 219.101 247.303 218.021 248.471 216.875C252.941 212.451 256.907 207.533 261.881 203.629C265.481 200.817 269.491 198.591 273.671 196.752C273.277 196.366 272.886 195.966 272.494 195.58C265.819 206.148 255.107 212.251 245.164 219.287C244.05 220.073 242.958 220.886 241.868 221.713C240.552 222.699 238.707 224.112 236.96 223.539C235.537 223.086 234.745 221.326 233.966 220.167C233.002 218.741 232.016 217.328 230.996 215.942C227.77 211.544 224.217 207.427 220.343 203.589C215.563 198.844 210.43 194.473 205.403 190.009C204.578 189.276 203.357 190.489 204.187 191.222C213.437 199.444 222.745 207.453 230.042 217.542C231.068 218.968 232.063 220.407 233.034 221.873C233.795 223.006 234.54 224.258 235.79 224.924C238.623 226.444 241.558 224.072 243.709 222.459C248.643 218.768 253.922 215.569 258.883 211.918C264.75 207.6 270.068 202.643 273.978 196.446C274.484 195.646 273.524 194.953 272.802 195.273C265.792 198.351 259.738 202.643 254.418 208.133C252.182 210.439 250.051 212.837 247.786 215.116C245.294 217.635 242.906 219.927 240.994 222.939C238.471 226.923 236.504 231.281 234.965 235.719C234.665 236.585 235.807 237.092 236.403 236.559C244.38 229.509 254.011 224.605 262.811 218.701C266.931 215.929 270.872 212.931 274.21 209.239C277.498 205.588 280.238 201.443 282.3 196.979C284.653 191.888 286.108 186.464 286.625 180.894C286.696 180.134 285.643 179.774 285.155 180.28C273.941 192.034 257.242 196.432 246.046 208.24C246.536 208.44 247.026 208.64 247.515 208.839C247.086 200.35 244.138 191.954 239.944 184.612C237.929 181.08 235.543 177.709 232.692 174.803C229.496 171.538 225.807 168.82 222.164 166.088C217.862 162.863 213.575 159.611 210.058 155.507C209.709 155.96 209.362 156.413 209.014 156.866C218.684 162.436 227.899 168.913 236.248 176.336C240.084 179.734 243.875 183.626 245.77 188.49C247.569 193.101 247.583 198.498 244.639 202.642C245.031 202.536 245.422 202.429 245.814 202.336C240.13 198.151 234.448 193.967 228.763 189.782C223.503 185.918 218.031 182.213 213.123 177.895C208.688 173.977 205.168 169.446 202.853 163.982C200.683 158.865 199.435 153.414 198.032 148.044C196.451 142.007 194.646 135.957 191.335 130.599C190.884 130.946 190.434 131.305 189.984 131.652C193.826 136.449 198.224 140.767 203.104 144.512C208.161 148.404 213.684 151.442 219.432 154.174C225.189 156.906 231.075 159.464 236.378 163.036C240.733 165.981 243.858 170.326 246.166 174.976C248.721 180.134 250.506 186.104 249.951 191.901C249.857 192.874 251.427 193.074 251.641 192.128C252.732 187.317 254.31 182.586 256.33 178.082C258.36 173.551 260.837 168.993 264.339 165.435C268.412 161.29 273.843 158.532 278.741 155.507C283.602 152.508 288.167 149.163 291.984 144.885C296.099 140.274 299.291 134.944 301.471 129.16C301.77 128.36 300.577 127.681 300.033 128.32C294.039 135.45 286.224 140.554 278.516 145.618C271.087 150.509 263.829 155.533 257.851 162.183C255.559 164.742 251.798 168.713 252.961 172.498C253.109 172.978 253.761 173.351 254.226 173.004C264.446 165.435 275.62 159.518 287.345 154.654C292.85 152.375 298.333 149.789 302.52 145.432C306.11 141.7 308.693 136.996 310.049 132.012C311.595 126.321 311.558 120.258 309.75 114.647C309.546 114.008 308.805 113.835 308.313 114.261C300.03 121.617 290.084 126.588 280.831 132.545C272.499 137.902 264.646 144.419 259.086 152.708C256.169 157.066 254.029 161.917 253.404 167.141C253.274 168.233 254.995 168.233 255.125 167.141Z" fill="url(#paint13_linear_514_3110)"/>
<path fill-rule="evenodd" clip-rule="evenodd" d="M205.229 189.875C183.8 173.35 167.759 150.455 158.597 125.055C156.032 117.952 154.005 110.662 152.495 103.253C152.074 103.573 151.652 103.906 151.231 104.226C158.653 108.477 164.245 115.207 168.047 122.79C171.91 130.506 173.58 139.075 174.655 147.577C175.255 152.295 175.647 157.039 175.908 161.796C176.399 161.596 176.888 161.397 177.377 161.183C165.979 147.75 153.642 134.01 138.013 125.428C137.408 125.095 136.468 125.655 136.748 126.401C140.454 136.196 146.827 144.871 155.04 151.362C159.141 154.613 163.64 157.305 168.461 159.331C170.936 160.384 173.909 160.903 176.143 162.409C178.429 163.955 179.428 166.74 181.247 168.739C184.718 172.564 190.418 175.363 192.064 180.533C192.485 180.214 192.905 179.88 193.327 179.561C186.409 175.589 178.519 173.484 170.723 172.044C162.781 170.578 154.716 169.845 146.658 169.432C145.879 169.392 145.568 170.379 146.05 170.898C155.744 181.306 170.757 186.091 184.736 185.797C188.667 185.717 192.588 185.198 196.396 184.225C196.803 184.118 197.177 183.585 196.997 183.159C192.662 172.871 187.33 162.676 186.076 151.428C185.587 151.628 185.097 151.828 184.608 152.028C192.843 160.33 194.273 172.298 195.308 183.385C195.409 184.478 197.131 184.491 197.028 183.385C195.949 171.818 194.405 159.464 185.824 150.815C185.342 150.322 184.271 150.655 184.356 151.428C185.631 162.862 190.928 173.15 195.338 183.612C195.538 183.265 195.738 182.919 195.939 182.559C179.381 186.824 159.129 182.412 147.267 169.685C147.063 170.165 146.86 170.658 146.658 171.152C154.564 171.551 162.474 172.271 170.266 173.697C177.916 175.109 185.668 177.148 192.458 181.053C193.087 181.413 193.954 180.8 193.723 180.08C192.313 175.656 188.264 172.857 184.939 169.912C182.977 168.18 181.545 166.354 180.094 164.195C178.552 161.89 176.67 160.49 174.068 159.571C168.922 157.758 164.077 155.626 159.542 152.548C155.101 149.549 151.099 145.898 147.664 141.78C143.729 137.062 140.581 131.692 138.407 125.948C137.986 126.268 137.565 126.588 137.143 126.921C152.644 135.423 164.858 149.083 176.161 162.409C176.64 162.969 177.669 162.516 177.63 161.796C176.677 144.525 174.637 125.988 163.212 112.182C160.091 108.41 156.351 105.172 152.1 102.733C151.417 102.347 150.689 102.986 150.836 103.706C156.291 130.465 168.742 155.786 187.345 175.856C192.573 181.493 198.273 186.664 204.36 191.354C205.237 192.034 206.094 190.542 205.229 189.875Z" fill="url(#paint14_linear_514_3110)"/>
<path fill-rule="evenodd" clip-rule="evenodd" d="M204.869 190.503C195.067 196.326 184.199 200.111 172.901 201.657C173.225 202.083 173.549 202.51 173.873 202.923C181.177 193.061 193.954 190.476 205.516 190.063C206.099 190.036 206.467 189.53 206.347 188.97C205.289 184.053 205.818 178.948 207.893 174.364C207.369 174.298 206.844 174.231 206.32 174.164C208.516 179.655 208.006 185.825 204.882 190.863C204.616 191.289 204.827 191.755 205.19 192.035C207.691 193.928 210.006 196.02 212.148 198.312C212.273 197.832 212.401 197.353 212.526 196.873C207.09 198.699 201.614 200.551 196.546 203.269C192.141 205.641 187.068 208.84 185.311 213.784C185.135 214.277 185.607 214.917 186.141 214.864C190.439 214.477 194.593 212.758 198.555 211.119C201.934 209.733 205.258 208.094 208.022 205.668C211.074 202.976 212.734 199.485 213.939 195.66C214.57 193.661 215.057 191.595 216.039 189.73C216.997 187.904 218.351 186.425 219.921 185.105C219.443 184.972 218.962 184.852 218.482 184.732C219.689 190.116 218.452 196.633 213.114 199.325C212.577 199.605 212.613 200.284 212.941 200.684C215.535 203.842 215.727 207.921 216.148 211.812C216.505 215.077 216.839 218.368 216.732 221.673C216.637 224.592 216.252 227.977 214.292 230.309C213.25 231.548 210.526 233.561 209.027 232.028C207.621 230.589 210.225 229.656 211.303 230.096C212.022 230.389 212.316 231.642 212.081 232.335C211.728 233.387 213.387 233.827 213.74 232.788C214.124 231.655 213.704 229.683 212.745 228.923C211.387 227.857 208.899 228.123 207.697 229.336C206.407 230.642 206.837 232.668 208.304 233.641C210.082 234.84 212.284 234.054 213.896 232.948C219.941 228.816 218.635 219.075 217.983 212.878C217.488 208.16 217.298 203.296 214.156 199.458C214.097 199.911 214.04 200.364 213.981 200.817C220.022 197.766 221.51 190.369 220.141 184.266C219.989 183.586 219.168 183.506 218.704 183.893C215.979 186.172 214.228 188.943 213.162 192.328C211.881 196.38 210.81 200.471 207.722 203.589C205.125 206.201 201.766 207.934 198.397 209.346C194.526 210.959 190.351 212.771 186.141 213.145C186.418 213.504 186.694 213.878 186.97 214.237C188.654 209.493 194.058 206.468 198.283 204.296C202.978 201.897 207.994 200.204 212.985 198.539C213.604 198.325 213.821 197.579 213.364 197.099C211.119 194.701 208.679 192.528 206.057 190.543C206.161 190.943 206.264 191.329 206.367 191.729C209.709 186.345 210.334 179.588 207.979 173.711C207.738 173.111 206.748 172.752 206.408 173.498C204.13 178.522 203.525 184.026 204.687 189.423C204.965 189.063 205.241 188.703 205.516 188.33C193.257 188.77 180.093 191.649 172.387 202.057C171.879 202.75 172.717 203.403 173.358 203.323C184.794 201.75 195.817 197.885 205.738 191.982C206.688 191.422 205.824 189.93 204.869 190.503Z" fill="url(#paint15_linear_514_3110)"/>
<path fill-rule="evenodd" clip-rule="evenodd" d="M212.555 231.135C213.72 233.161 212.646 235.906 212.009 237.958C211.334 240.13 210.377 242.143 209.055 244.008C206.465 247.633 202.676 250.472 198.477 251.964C189.815 255.069 179.247 252.297 172.491 246.261C171.666 245.528 170.447 246.741 171.273 247.487C177.193 252.777 185.75 255.683 193.677 254.816C201.319 253.99 208.47 249.246 212.053 242.409C213.072 240.464 213.768 238.345 214.301 236.226C214.796 234.254 215.094 232.094 214.039 230.255C213.49 229.296 212.003 230.162 212.555 231.135Z" fill="url(#paint16_linear_514_3110)"/>
<path fill-rule="evenodd" clip-rule="evenodd" d="M110.638 87.528C108.006 90.2066 105.161 92.7253 102.034 94.8042C98.9479 96.8432 95.5203 97.9894 91.9675 98.9489C85.1363 100.801 78.0772 101.761 71.0022 101.841C63.9258 101.921 56.8454 101.134 49.9649 99.4685C43.0231 97.8027 36.5291 95.1506 30.1337 92.0055C23.4211 88.7139 16.3007 85.2491 8.61 86.102C7.78243 86.1819 7.41328 87.208 8.17556 87.7011C12.7719 90.6596 17.3655 93.6183 21.9619 96.5634C26.3263 99.3753 30.6694 102.467 35.4177 104.586C40.1779 106.718 45.2566 106.998 50.386 107.398C55.8006 107.811 61.2085 107.944 66.6177 107.344C72.4454 106.705 78.1652 105.372 83.6757 103.373C84.7098 103 84.2634 101.334 83.2186 101.707C73.3623 105.292 63.0942 106.505 52.6542 105.839C47.6168 105.505 42.2568 105.439 37.4926 103.6C32.7523 101.787 28.4825 98.7088 24.23 95.9768C19.1606 92.7385 14.1045 89.4737 9.04312 86.2087C8.90052 86.7418 8.75526 87.2881 8.61 87.8212C16.0089 87.0082 22.8068 90.3266 29.2648 93.4983C35.6389 96.6167 42.1116 99.3085 49.0227 101.014C62.7331 104.399 77.275 104.426 90.9773 100.988C94.7954 100.028 98.6521 98.9222 102.032 96.8432C105.635 94.631 108.891 91.7524 111.855 88.7539C112.633 87.9544 111.419 86.7417 110.638 87.528Z" fill="url(#paint17_linear_514_3110)"/>
<path fill-rule="evenodd" clip-rule="evenodd" d="M111.329 164.676C110.304 167.941 108.909 170.927 107.271 173.912C105.7 176.777 103.493 180.215 103.486 183.573C103.47 191.196 113.144 194.834 119.533 193.715C121.888 193.302 126.067 191.636 125.257 188.531C124.898 187.172 123.641 186.212 122.447 185.586C120.86 184.76 118.958 184.026 117.218 183.6C116.156 183.347 114.569 182.974 113.793 184C112.824 185.266 114.153 186.678 115.098 187.438C118.456 190.183 122.078 192.929 125.854 195.061C129.598 197.166 133.532 196.22 137.043 194.075C140.745 191.809 143.946 188.118 148.481 187.598C149.567 187.478 149.58 185.746 148.481 185.879C142.533 186.559 138.999 191.729 133.7 193.862C132.233 194.461 130.634 194.794 129.057 194.488C127.362 194.168 125.915 193.102 124.505 192.156C123.147 191.249 121.804 190.33 120.482 189.37C118.958 188.264 117.242 187.198 115.888 185.892C115.78 185.786 115.172 185.239 115.219 185.053C115.246 184.946 116.336 185.173 116.53 185.213C117.209 185.359 117.863 185.586 118.511 185.839C119.938 186.385 121.585 186.838 122.771 187.851C125.954 190.57 119.201 192.169 117.41 192.196C111.216 192.262 102.997 187.958 105.873 180.655C106.905 178.043 108.329 175.604 109.655 173.139C111.033 170.58 112.115 167.915 112.988 165.143C113.321 164.077 111.661 163.623 111.329 164.676Z" fill="url(#paint18_linear_514_3110)"/>
<defs>
<linearGradient id="paint0_linear_514_3110" x1="17.4907" y1="5.58318" x2="91.8275" y2="96.4735" gradientUnits="userSpaceOnUse">
<stop stop-color="#FFEEA0"/>
<stop offset="1" stop-color="#B78E43"/>
</linearGradient>
<linearGradient id="paint1_linear_514_3110" x1="17.4898" y1="5.58377" x2="91.8264" y2="96.474" gradientUnits="userSpaceOnUse">
<stop stop-color="#FFEEA0"/>
<stop offset="1" stop-color="#B78E43"/>
</linearGradient>
<linearGradient id="paint2_linear_514_3110" x1="17.4908" y1="5.58158" x2="91.8279" y2="96.472" gradientUnits="userSpaceOnUse">
<stop stop-color="#FFEEA0"/>
<stop offset="1" stop-color="#B78E43"/>
</linearGradient>
<linearGradient id="paint3_linear_514_3110" x1="17.4905" y1="5.56262" x2="91.8348" y2="96.4544" gradientUnits="userSpaceOnUse">
<stop stop-color="#FFEEA0"/>
<stop offset="1" stop-color="#B78E43"/>
</linearGradient>
<linearGradient id="paint4_linear_514_3110" x1="17.4906" y1="5.58197" x2="91.8276" y2="96.4723" gradientUnits="userSpaceOnUse">
<stop stop-color="#FFEEA0"/>
<stop offset="1" stop-color="#B78E43"/>
</linearGradient>
<linearGradient id="paint5_linear_514_3110" x1="17.4897" y1="5.58072" x2="91.8272" y2="96.4712" gradientUnits="userSpaceOnUse">
<stop stop-color="#FFEEA0"/>
<stop offset="1" stop-color="#B78E43"/>
</linearGradient>
<linearGradient id="paint6_linear_514_3110" x1="17.4894" y1="5.56165" x2="91.8338" y2="96.4535" gradientUnits="userSpaceOnUse">
<stop stop-color="#FFEEA0"/>
<stop offset="1" stop-color="#B78E43"/>
</linearGradient>
<linearGradient id="paint7_linear_514_3110" x1="17.4891" y1="5.58363" x2="91.8259" y2="96.4739" gradientUnits="userSpaceOnUse">
<stop stop-color="#FFEEA0"/>
<stop offset="1" stop-color="#B78E43"/>
</linearGradient>
<linearGradient id="paint8_linear_514_3110" x1="17.4898" y1="5.58391" x2="91.8264" y2="96.4742" gradientUnits="userSpaceOnUse">
<stop stop-color="#FFEEA0"/>
<stop offset="1" stop-color="#B78E43"/>
</linearGradient>
<linearGradient id="paint9_linear_514_3110" x1="17.4906" y1="5.58349" x2="91.827" y2="96.4737" gradientUnits="userSpaceOnUse">
<stop stop-color="#FFEEA0"/>
<stop offset="1" stop-color="#B78E43"/>
</linearGradient>
<linearGradient id="paint10_linear_514_3110" x1="17.4897" y1="5.58381" x2="91.8266" y2="96.4741" gradientUnits="userSpaceOnUse">
<stop stop-color="#FFEEA0"/>
<stop offset="1" stop-color="#B78E43"/>
</linearGradient>
<linearGradient id="paint11_linear_514_3110" x1="17.4905" y1="5.58265" x2="91.8273" y2="96.4729" gradientUnits="userSpaceOnUse">
<stop stop-color="#FFEEA0"/>
<stop offset="1" stop-color="#B78E43"/>
</linearGradient>
<linearGradient id="paint12_linear_514_3110" x1="17.4894" y1="5.58292" x2="91.8261" y2="96.4732" gradientUnits="userSpaceOnUse">
<stop stop-color="#FFEEA0"/>
<stop offset="1" stop-color="#B78E43"/>
</linearGradient>
<linearGradient id="paint13_linear_514_3110" x1="17.4907" y1="5.58305" x2="91.8275" y2="96.4733" gradientUnits="userSpaceOnUse">
<stop stop-color="#FFEEA0"/>
<stop offset="1" stop-color="#B78E43"/>
</linearGradient>
<linearGradient id="paint14_linear_514_3110" x1="17.4903" y1="5.58256" x2="91.827" y2="96.4728" gradientUnits="userSpaceOnUse">
<stop stop-color="#FFEEA0"/>
<stop offset="1" stop-color="#B78E43"/>
</linearGradient>
<linearGradient id="paint15_linear_514_3110" x1="17.4897" y1="5.58407" x2="91.8263" y2="96.4743" gradientUnits="userSpaceOnUse">
<stop stop-color="#FFEEA0"/>
<stop offset="1" stop-color="#B78E43"/>
</linearGradient>
<linearGradient id="paint16_linear_514_3110" x1="17.4904" y1="5.58175" x2="91.8278" y2="96.4722" gradientUnits="userSpaceOnUse">
<stop stop-color="#FFEEA0"/>
<stop offset="1" stop-color="#B78E43"/>
</linearGradient>
<linearGradient id="paint17_linear_514_3110" x1="17.4895" y1="5.58326" x2="91.826" y2="96.4735" gradientUnits="userSpaceOnUse">
<stop stop-color="#FFEEA0"/>
<stop offset="1" stop-color="#B78E43"/>
</linearGradient>
<linearGradient id="paint18_linear_514_3110" x1="17.4889" y1="5.58403" x2="91.8257" y2="96.4743" gradientUnits="userSpaceOnUse">
<stop stop-color="#FFEEA0"/>
<stop offset="1" stop-color="#B78E43"/>
</linearGradient>
</defs>
</svg>
